<svg width="439" height="54" viewBox="0 0 439 54" fill="none" xmlns="http://www.w3.org/2000/svg">
<path d="M9.21866 9.9693L15.5066 6.12074C16.9864 5.21515 17.4934 3.20913 16.639 1.64054C15.7846 0.0718784 13.8926 -0.465774 12.4127 0.440072L1.54742 7.09005L9.21866 9.9693Z" fill="#EA4335"/>
<path d="M13.9567 19.8607C15.0261 19.8607 16.066 19.2724 16.6391 18.2203C17.4935 16.6516 16.9865 14.6456 15.5066 13.74L4.64138 7.09016C3.16144 6.18392 1.26942 6.72203 0.415042 8.29069C-0.43934 9.85947 0.067655 11.8653 1.54747 12.7709L12.4127 19.4207C12.8999 19.719 13.432 19.8607 13.9567 19.8607Z" fill="#4285F4"/>
<path d="M24.7648 19.8607C25.2897 19.8607 25.8216 19.719 26.3089 19.4207L37.174 12.7709L29.6003 9.83191L23.215 13.74C21.7351 14.6456 21.2281 16.6516 22.0825 18.2203C22.6556 19.2724 23.6956 19.8607 24.7648 19.8607Z" fill="#FBBC04"/>
<path d="M35.6242 13.2109C36.6935 13.2109 37.7334 12.6228 38.3065 11.5704C39.1609 10.0018 38.6539 7.99593 37.174 7.09009L26.3089 0.440111C24.829 -0.465537 22.937 0.0717869 22.0825 1.64058C21.2281 3.20917 21.7352 5.215 23.2149 6.12084L34.0801 12.7709C34.5673 13.0689 35.0993 13.2109 35.6242 13.2109Z" fill="#0F9D58"/>
<path d="M52.2675 15.549C53.8827 15.549 55.1644 15.057 56.112 14.0725C57.0595 13.0884 57.5335 11.7131 57.5335 9.94646C57.5335 8.18019 57.0595 6.80482 56.112 5.82035C55.1644 4.8362 53.8827 4.34383 52.2675 4.34383H49.749V15.549H52.2675ZM48.1463 2.70554H52.2675C53.6666 2.70554 54.8877 3.01237 55.9308 3.62583C56.9736 4.23961 57.775 5.09223 58.3349 6.1844C58.8944 7.27658 59.1743 8.5306 59.1743 9.94646C59.1743 11.3623 58.8944 12.6162 58.3349 13.7085C57.775 14.8007 56.9736 15.6536 55.9308 16.267C54.8877 16.8808 53.6666 17.1873 52.2675 17.1873H48.1463V2.70554Z" fill="#676C72"/>
<path d="M67.7027 10.9376C67.6771 10.5062 67.5626 10.0748 67.3593 9.64309C67.1556 9.21176 66.8346 8.84764 66.3957 8.55092C65.9569 8.25446 65.4066 8.10593 64.7453 8.10593C63.9822 8.10593 63.3364 8.3657 62.8087 8.88465C62.2808 9.40393 61.9341 10.0881 61.7689 10.9376H67.7027ZM62.3985 16.8031C61.6607 16.3313 61.085 15.6806 60.6718 14.8513C60.2584 14.022 60.0518 13.0885 60.0518 12.05C60.0518 11.0523 60.2455 10.1355 60.6337 9.29924C61.0215 8.46343 61.5716 7.79596 62.2841 7.2969C62.9963 6.79823 63.8229 6.54857 64.7644 6.54857C65.7184 6.54857 66.5451 6.77447 67.2448 7.22614C67.9441 7.67808 68.4817 8.30158 68.857 9.09703C69.232 9.89282 69.4198 10.8029 69.4198 11.8276C69.4198 12.0298 69.4007 12.2051 69.3626 12.3534H61.6735C61.7117 13.1355 61.8897 13.7964 62.2078 14.3355C62.5255 14.875 62.9295 15.2795 63.4193 15.5491C63.9088 15.819 64.421 15.9536 64.9552 15.9536C66.2016 15.9536 67.1619 15.3335 67.8362 14.0928L69.21 14.8007C68.7902 15.637 68.2208 16.2975 67.5023 16.7829C66.7835 17.2683 65.9154 17.511 64.898 17.511C63.9693 17.511 63.1361 17.275 62.3985 16.8031Z" fill="#676C72"/>
<path d="M69.6677 6.87209H71.404L74.4186 15.1648H74.4567L77.5095 6.87209H79.2075L75.239 17.1873H73.5981L69.6677 6.87209Z" fill="#676C72"/>
<path d="M87.011 10.9376C86.9853 10.5062 86.8709 10.0748 86.6676 9.64309C86.4639 9.21176 86.1429 8.84764 85.7041 8.55092C85.2653 8.25446 84.7149 8.10593 84.0536 8.10593C83.2905 8.10593 82.6448 8.3657 82.117 8.88465C81.5891 9.40393 81.2424 10.0881 81.0772 10.9376H87.011ZM81.7069 16.8031C80.969 16.3313 80.3934 15.6806 79.9802 14.8513C79.5667 14.022 79.3601 13.0885 79.3601 12.05C79.3601 11.0523 79.5539 10.1355 79.942 9.29924C80.3298 8.46343 80.8799 7.79596 81.5924 7.2969C82.3046 6.79823 83.1313 6.54857 84.0727 6.54857C85.0267 6.54857 85.8534 6.77447 86.5531 7.22614C87.2524 7.67808 87.79 8.30158 88.1653 9.09703C88.5403 9.89282 88.7282 10.8029 88.7282 11.8276C88.7282 12.0298 88.7091 12.2051 88.671 12.3534H80.9818C81.02 13.1355 81.198 13.7964 81.5161 14.3355C81.8339 14.875 82.2378 15.2795 82.7276 15.5491C83.2171 15.819 83.7293 15.9536 84.2635 15.9536C85.51 15.9536 86.4702 15.3335 87.1445 14.0928L88.5183 14.8007C88.0985 15.637 87.5291 16.2975 86.8107 16.7829C86.0919 17.2683 85.2238 17.511 84.2063 17.511C83.2776 17.511 82.4444 17.275 81.7069 16.8031Z" fill="#676C72"/>
<path d="M90.2352 2.70554H91.8569V17.1873H90.2352V2.70554Z" fill="#676C72"/>
<path d="M99.9374 15.4783C100.453 15.1616 100.866 14.7065 101.178 14.113C101.489 13.5198 101.645 12.8255 101.645 12.0298C101.645 11.2343 101.489 10.54 101.178 9.94651C100.866 9.35333 100.453 8.89818 99.9374 8.58124C99.4223 8.26457 98.8656 8.10594 98.2679 8.10594C97.6699 8.10594 97.1104 8.26457 96.5889 8.58124C96.0672 8.89818 95.6508 9.35333 95.3392 9.94651C95.0273 10.54 94.8718 11.2343 94.8718 12.0298C94.8718 12.8255 95.0273 13.5198 95.3392 14.113C95.6508 14.7065 96.0672 15.1616 96.5889 15.4783C97.1104 15.7952 97.6699 15.9536 98.2679 15.9536C98.8656 15.9536 99.4223 15.7952 99.9374 15.4783ZM95.6922 16.7829C94.929 16.2974 94.3342 15.6369 93.9082 14.8007C93.4819 13.9648 93.2691 13.041 93.2691 12.0298C93.2691 11.0185 93.4819 10.095 93.9082 9.25875C94.3342 8.42287 94.929 7.7621 95.6922 7.27662C96.4554 6.79128 97.314 6.5485 98.2679 6.5485C99.2219 6.5485 100.081 6.79128 100.844 7.27662C101.607 7.7621 102.201 8.42287 102.628 9.25875C103.054 10.095 103.267 11.0185 103.267 12.0298C103.267 13.041 103.054 13.9648 102.628 14.8007C102.201 15.6369 101.607 16.2974 100.844 16.7829C100.081 17.2682 99.2219 17.511 98.2679 17.511C97.314 17.511 96.4554 17.2682 95.6922 16.7829Z" fill="#676C72"/>
<path d="M110.937 15.4682C111.433 15.1445 111.83 14.6828 112.129 14.0828C112.428 13.4829 112.578 12.7984 112.578 12.0298C112.578 11.2612 112.428 10.5771 112.129 9.97686C111.83 9.37699 111.433 8.91501 110.937 8.59144C110.441 8.26775 109.913 8.10597 109.353 8.10597C108.793 8.10597 108.266 8.26775 107.77 8.59144C107.274 8.91501 106.879 9.37357 106.587 9.96675C106.294 10.5603 106.148 11.2479 106.148 12.0298C106.148 12.8119 106.294 13.4997 106.587 14.0929C106.879 14.6864 107.274 15.1445 107.77 15.4682C108.266 15.7919 108.793 15.9537 109.353 15.9537C109.913 15.9537 110.441 15.7919 110.937 15.4682ZM104.602 6.87216H106.148V8.40932H106.224C106.517 7.88354 106.959 7.44198 107.55 7.08455C108.142 6.72745 108.806 6.5486 109.544 6.5486C110.409 6.5486 111.197 6.78461 111.91 7.2565C112.622 7.72859 113.182 8.38247 113.589 9.21836C113.996 10.0546 114.2 10.9917 114.2 12.0298C114.2 13.0816 113.996 14.0221 113.589 14.8514C113.182 15.6806 112.622 16.3312 111.91 16.8031C111.197 17.2749 110.409 17.511 109.544 17.511C108.806 17.511 108.142 17.3321 107.55 16.9751C106.959 16.618 106.517 16.1831 106.224 15.6705H106.148L106.224 17.0863V21.5562H104.602V6.87216Z" fill="#676C72"/>
<path d="M122.842 10.9376C122.817 10.5062 122.702 10.0748 122.499 9.64309C122.295 9.21176 121.974 8.84764 121.535 8.55092C121.097 8.25446 120.546 8.10593 119.885 8.10593C119.122 8.10593 118.476 8.3657 117.948 8.88465C117.42 9.40393 117.074 10.0881 116.909 10.9376H122.842ZM117.538 16.8031C116.8 16.3313 116.225 15.6806 115.811 14.8513C115.398 14.022 115.191 13.0885 115.191 12.05C115.191 11.0523 115.385 10.1355 115.773 9.29924C116.161 8.46343 116.711 7.79596 117.424 7.2969C118.136 6.79823 118.963 6.54857 119.904 6.54857C120.858 6.54857 121.685 6.77447 122.384 7.22614C123.084 7.67808 123.621 8.30158 123.997 9.09703C124.372 9.89282 124.559 10.8029 124.559 11.8276C124.559 12.0298 124.54 12.2051 124.502 12.3534H116.813C116.851 13.1355 117.029 13.7964 117.347 14.3355C117.665 14.875 118.069 15.2795 118.559 15.5491C119.048 15.819 119.561 15.9536 120.095 15.9536C121.341 15.9536 122.302 15.3335 122.976 14.0928L124.35 14.8007C123.93 15.637 123.36 16.2975 122.642 16.7829C121.923 17.2683 121.055 17.511 120.038 17.511C119.109 17.511 118.276 17.275 117.538 16.8031Z" fill="#676C72"/>
<path d="M126.067 6.87209H127.612V8.53066H127.688C127.879 7.96433 128.248 7.49244 128.795 7.1148C129.342 6.73742 129.914 6.54846 130.512 6.54846C130.957 6.54846 131.339 6.62276 131.657 6.77095V8.61152C131.25 8.39599 130.792 8.28789 130.283 8.28789C129.812 8.28789 129.38 8.42979 128.986 8.71364C128.591 8.99743 128.276 9.37915 128.041 9.85891C127.806 10.3386 127.688 10.8557 127.688 11.4097V17.1873H126.067V6.87209Z" fill="#676C72"/>
<path d="M137.514 16.4793C136.624 15.7916 136.013 14.8278 135.683 13.587L137.228 12.9196C137.444 13.7827 137.845 14.4906 138.43 15.0433C139.015 15.5963 139.702 15.8726 140.491 15.8726C141.279 15.8726 141.947 15.6469 142.494 15.195C143.041 14.7434 143.314 14.1264 143.314 13.3443C143.314 12.6702 143.082 12.114 142.618 11.6757C142.154 11.2377 141.394 10.8297 140.338 10.452L139.479 10.1284C138.513 9.76439 137.724 9.28587 137.114 8.69237C136.503 8.09912 136.198 7.2765 136.198 6.22482C136.198 5.53707 136.376 4.89999 136.732 4.31344C137.088 3.72689 137.584 3.25854 138.22 2.90774C138.856 2.55727 139.568 2.38184 140.357 2.38184C141.146 2.38184 141.833 2.53699 142.418 2.84703C143.003 3.15747 143.47 3.53479 143.82 3.9797C144.17 4.42468 144.415 4.86304 144.555 5.29443L143.028 5.98212C142.901 5.48338 142.612 5.03145 142.16 4.62696C141.708 4.22241 141.114 4.0202 140.376 4.0202C139.677 4.0202 139.079 4.22943 138.583 4.64717C138.087 5.06531 137.839 5.59122 137.839 6.22482C137.839 6.79115 138.049 7.2532 138.468 7.61024C138.888 7.96773 139.524 8.3014 140.376 8.61144L141.273 8.93507C142.43 9.38005 143.334 9.93628 143.982 10.6037C144.631 11.2712 144.955 12.1782 144.955 13.3241C144.955 14.2545 144.729 15.0367 144.278 15.6703C143.826 16.3042 143.257 16.7694 142.57 17.0659C141.884 17.3623 141.178 17.5109 140.453 17.5109C139.384 17.5109 138.404 17.167 137.514 16.4793Z" fill="#676C72"/>
<path d="M148.8 17.3051C148.463 17.1679 148.18 16.9825 147.951 16.7489C147.696 16.4882 147.505 16.186 147.378 15.8428C147.251 15.4997 147.188 15.0809 147.188 14.5867V8.42945H145.489V6.87201H147.188V3.95949H148.809V6.87201H151.175V8.42945H148.809V14.1764C148.809 14.7554 148.911 15.1827 149.115 15.4582C149.356 15.7616 149.706 15.913 150.164 15.913C150.533 15.913 150.889 15.7986 151.232 15.5692V17.2479C151.042 17.3421 150.848 17.4097 150.651 17.4502C150.453 17.4906 150.202 17.5109 149.897 17.5109C149.502 17.5109 149.137 17.442 148.8 17.3051Z" fill="#676C72"/>
<path d="M153.608 16.4187C152.991 15.6906 152.682 14.6727 152.682 13.3647V6.87213H154.304V13.1017C154.304 14.0861 154.514 14.8076 154.934 15.2659C155.354 15.7244 155.919 15.9536 156.632 15.9536C157.179 15.9536 157.665 15.7987 158.092 15.4884C158.518 15.1784 158.848 14.7739 159.084 14.2748C159.319 13.7761 159.437 13.2503 159.437 12.6972V6.87213H161.058V17.1874H159.513V15.6906H159.437C159.17 16.2033 158.743 16.6346 158.158 16.9851C157.573 17.3356 156.95 17.511 156.289 17.511C155.118 17.511 154.225 17.1469 153.608 16.4187Z" fill="#676C72"/>
<path d="M168.891 15.4682C169.38 15.1445 169.774 14.6863 170.073 14.0928C170.372 13.4997 170.522 12.8119 170.522 12.0298C170.522 11.2479 170.372 10.5602 170.073 9.96672C169.774 9.37354 169.38 8.91497 168.891 8.59141C168.401 8.26772 167.87 8.10593 167.297 8.10593C166.738 8.10593 166.21 8.26772 165.714 8.59141C165.218 8.91497 164.82 9.37695 164.521 9.97682C164.222 10.577 164.073 11.2612 164.073 12.0298C164.073 12.7983 164.222 13.4829 164.521 14.0827C164.82 14.6828 165.218 15.1445 165.714 15.4682C166.21 15.7918 166.738 15.9536 167.297 15.9536C167.87 15.9536 168.401 15.7918 168.891 15.4682ZM164.75 16.8031C164.044 16.3312 163.488 15.6805 163.081 14.8513C162.674 14.022 162.47 13.0815 162.47 12.0298C162.47 10.9916 162.674 10.0546 163.081 9.21832C163.488 8.38244 164.044 7.72855 164.75 7.25647C165.456 6.78458 166.242 6.54857 167.107 6.54857C167.857 6.54857 168.525 6.72741 169.11 7.08451C169.695 7.44194 170.14 7.88351 170.446 8.40928H170.522L170.446 6.97327V2.70558H172.067V17.1874H170.522V15.6704H170.446C170.14 16.1831 169.695 16.6179 169.11 16.975C168.525 17.3321 167.857 17.511 167.107 17.511C166.242 17.511 165.456 17.2749 164.75 16.8031Z" fill="#676C72"/>
<path d="M181.13 10.9376C181.105 10.5062 180.99 10.0748 180.787 9.64309C180.583 9.21176 180.262 8.84764 179.823 8.55092C179.384 8.25446 178.834 8.10593 178.173 8.10593C177.41 8.10593 176.764 8.3657 176.236 8.88465C175.708 9.40393 175.362 10.0881 175.196 10.9376H181.13ZM175.826 16.8031C175.088 16.3313 174.512 15.6806 174.099 14.8513C173.686 14.022 173.479 13.0885 173.479 12.05C173.479 11.0523 173.673 10.1355 174.061 9.29924C174.449 8.46343 174.999 7.79596 175.712 7.2969C176.424 6.79823 177.25 6.54857 178.192 6.54857C179.146 6.54857 179.973 6.77447 180.672 7.22614C181.372 7.67808 181.909 8.30158 182.284 9.09703C182.659 9.89282 182.847 10.8029 182.847 11.8276C182.847 12.0298 182.828 12.2051 182.79 12.3534H175.101C175.139 13.1355 175.317 13.7964 175.635 14.3355C175.953 14.875 176.357 15.2795 176.847 15.5491C177.336 15.819 177.848 15.9536 178.383 15.9536C179.629 15.9536 180.589 15.3335 181.264 14.0928L182.637 14.8007C182.218 15.637 181.648 16.2975 180.93 16.7829C180.211 17.2683 179.343 17.511 178.325 17.511C177.397 17.511 176.564 17.275 175.826 16.8031Z" fill="#676C72"/>
<path d="M184.354 6.87209H185.9V8.38903H185.976C186.243 7.87678 186.669 7.4419 187.254 7.08441C187.839 6.72737 188.463 6.54846 189.124 6.54846C190.294 6.54846 191.188 6.90937 191.805 7.63059C192.422 8.35208 192.73 9.33301 192.73 10.5734V17.1873H191.109V10.8364C191.109 9.87906 190.892 9.18481 190.46 8.75309C190.027 8.32176 189.436 8.1059 188.685 8.1059C188.164 8.1059 187.696 8.26105 187.283 8.57109C186.87 8.8814 186.549 9.2891 186.32 9.79472C186.091 10.3003 185.976 10.8297 185.976 11.3825V17.1873H184.354V6.87209Z" fill="#676C72"/>
<path d="M196.842 17.3051C196.505 17.1679 196.222 16.9825 195.993 16.7489C195.738 16.4882 195.547 16.186 195.42 15.8428C195.293 15.4997 195.23 15.0809 195.23 14.5867V8.42945H193.531V6.87201H195.23V3.95949H196.851V6.87201H199.217V8.42945H196.851V14.1764C196.851 14.7554 196.953 15.1827 197.157 15.4582C197.398 15.7616 197.748 15.913 198.206 15.913C198.575 15.913 198.931 15.7986 199.275 15.5692V17.2479C199.084 17.3421 198.89 17.4097 198.693 17.4502C198.495 17.4906 198.244 17.5109 197.939 17.5109C197.545 17.5109 197.179 17.442 196.842 17.3051Z" fill="#676C72"/>
<path d="M207.593 16.5199C206.512 15.8594 205.663 14.9523 205.046 13.7995C204.429 12.6466 204.121 11.3623 204.121 9.94651C204.121 8.53064 204.429 7.2463 205.046 6.09348C205.663 4.94054 206.512 4.0339 207.593 3.37306C208.674 2.71255 209.876 2.38196 211.199 2.38196C212.217 2.38196 213.148 2.58772 213.994 2.99883C214.84 3.41034 215.575 3.99341 216.198 4.74843L215.034 5.94174C214.513 5.28123 213.943 4.79582 213.327 4.48551C212.71 4.17547 212.001 4.02032 211.199 4.02032C210.207 4.02032 209.298 4.2665 208.471 4.75854C207.644 5.25091 206.986 5.94522 206.496 6.84181C206.006 7.73867 205.762 8.77341 205.762 9.94651C205.762 11.1196 206.006 12.1545 206.496 13.0511C206.986 13.948 207.644 14.6424 208.471 15.1345C209.298 15.6268 210.207 15.8727 211.199 15.8727C212.853 15.8727 214.258 15.1515 215.416 13.7085L216.599 14.922C215.963 15.7178 215.18 16.348 214.252 16.8132C213.323 17.2784 212.306 17.511 211.199 17.511C209.876 17.511 208.674 17.1807 207.593 16.5199Z" fill="#676C72"/>
<path d="M218.03 2.70554H219.652V17.1873H218.03V2.70554Z" fill="#676C72"/>
<path d="M222.523 16.4187C221.906 15.6906 221.598 14.6727 221.598 13.3647V6.87213H223.219V13.1017C223.219 14.0861 223.429 14.8076 223.849 15.2659C224.269 15.7244 224.835 15.9536 225.547 15.9536C226.094 15.9536 226.58 15.7987 227.007 15.4884C227.433 15.1784 227.763 14.7739 227.999 14.2748C228.234 13.7761 228.352 13.2503 228.352 12.6972V6.87213H229.974V17.1874H228.428V15.6906H228.352C228.085 16.2033 227.659 16.6346 227.074 16.9851C226.488 17.3356 225.865 17.511 225.204 17.511C224.033 17.511 223.14 17.1469 222.523 16.4187Z" fill="#676C72"/>
<path d="M238.33 15.4682C238.826 15.1445 239.224 14.6828 239.523 14.0827C239.822 13.4829 239.971 12.7983 239.971 12.0298C239.971 11.2612 239.822 10.577 239.523 9.97682C239.224 9.37695 238.826 8.91497 238.33 8.59141C237.834 8.26772 237.306 8.10593 236.747 8.10593C236.187 8.10593 235.659 8.26772 235.163 8.59141C234.667 8.91497 234.273 9.37354 233.98 9.96672C233.688 10.5602 233.541 11.2479 233.541 12.0298C233.541 12.8119 233.688 13.4997 233.98 14.0928C234.273 14.6863 234.667 15.1445 235.163 15.4682C235.659 15.7918 236.187 15.9536 236.747 15.9536C237.306 15.9536 237.834 15.7918 238.33 15.4682ZM234.944 16.975C234.352 16.6179 233.91 16.1831 233.618 15.6704H233.541V17.1874H231.996V2.70558H233.618V6.97327L233.541 8.40928H233.618C233.91 7.88351 234.352 7.44194 234.944 7.08451C235.535 6.72741 236.2 6.54857 236.938 6.54857C237.802 6.54857 238.591 6.78458 239.303 7.25647C240.016 7.72855 240.575 8.38244 240.983 9.21832C241.389 10.0546 241.593 10.9916 241.593 12.0298C241.593 13.0815 241.389 14.022 240.983 14.8513C240.575 15.6805 240.016 16.3312 239.303 16.8031C238.591 17.2749 237.802 17.511 236.938 17.511C236.2 17.511 235.535 17.3321 234.944 16.975Z" fill="#676C72"/>
<path d="M243.787 16.7322C243.087 16.2133 242.591 15.549 242.299 14.74L243.749 14.0523C243.99 14.6726 244.35 15.1514 244.827 15.4883C245.304 15.8255 245.829 15.9939 246.401 15.9939C247.012 15.9939 247.533 15.8625 247.966 15.5995C248.398 15.3366 248.614 14.9624 248.614 14.4771C248.614 14.0456 248.443 13.6983 248.099 13.4354C247.756 13.1724 247.215 12.9468 246.477 12.7578L245.294 12.4342C244.519 12.2319 243.883 11.8881 243.386 11.4027C242.89 10.9172 242.642 10.2902 242.642 9.52168C242.642 8.9285 242.811 8.40608 243.148 7.95414C243.485 7.50253 243.933 7.15521 244.493 6.9125C245.053 6.6698 245.657 6.54844 246.306 6.54844C247.158 6.54844 247.918 6.74403 248.586 7.13499C249.253 7.52622 249.727 8.07234 250.007 8.77328L248.595 9.46097C248.163 8.54416 247.393 8.0856 246.287 8.0856C245.752 8.0856 245.285 8.21706 244.884 8.48004C244.484 8.74296 244.283 9.07663 244.283 9.48125C244.283 9.85883 244.423 10.1657 244.703 10.4015C244.983 10.6375 245.402 10.8296 245.962 10.9779L247.374 11.3622C248.328 11.6185 249.047 11.9993 249.53 12.505C250.013 13.0106 250.255 13.6275 250.255 14.3556C250.255 14.9896 250.083 15.5458 249.74 16.0243C249.397 16.5031 248.932 16.8706 248.347 17.1266C247.762 17.3826 247.113 17.5109 246.401 17.5109C245.358 17.5109 244.487 17.2511 243.787 16.7322Z" fill="#676C72"/>
<path d="M47.6 25.68H52.74C53.46 25.68 54.1333 25.8467 54.76 26.18C55.4 26.5133 55.9067 26.9733 56.28 27.56C56.6533 28.1467 56.84 28.8067 56.84 29.54C56.84 30.2333 56.66 30.84 56.3 31.36C55.9533 31.88 55.48 32.28 54.88 32.56V32.64C55.6 32.88 56.1867 33.2933 56.64 33.88C57.0933 34.4667 57.32 35.1533 57.32 35.94C57.32 36.7133 57.12 37.4133 56.72 38.04C56.3333 38.6533 55.8067 39.1333 55.14 39.48C54.4867 39.8267 53.78 40 53.02 40H47.6V25.68ZM52.74 31.88C53.22 31.88 53.64 31.7667 54 31.54C54.3733 31.3133 54.66 31.0267 54.86 30.68C55.06 30.32 55.16 29.9533 55.16 29.58C55.16 29.22 55.06 28.8667 54.86 28.52C54.6733 28.16 54.4 27.8667 54.04 27.64C53.6933 27.4133 53.2867 27.3 52.82 27.3H49.28V31.88H52.74ZM53.12 38.38C53.6 38.38 54.0267 38.26 54.4 38.02C54.7867 37.78 55.08 37.4733 55.28 37.1C55.4933 36.7133 55.6 36.32 55.6 35.92C55.6 35.52 55.4933 35.1333 55.28 34.76C55.0667 34.3733 54.7667 34.0667 54.38 33.84C53.9933 33.6 53.5467 33.48 53.04 33.48H49.28V38.38H53.12ZM62.6489 40.32C61.9022 40.32 61.2356 40.1733 60.6489 39.88C60.0622 39.5867 59.6089 39.1867 59.2889 38.68C58.9689 38.16 58.8089 37.5733 58.8089 36.92C58.8089 35.84 59.2156 35 60.0289 34.4C60.8422 33.7867 61.8689 33.48 63.1089 33.48C63.7222 33.48 64.2889 33.5467 64.8089 33.68C65.3422 33.8133 65.7489 33.9667 66.0289 34.14V33.52C66.0289 32.76 65.7622 32.1533 65.2289 31.7C64.6956 31.2333 64.0222 31 63.2089 31C62.6356 31 62.1089 31.1267 61.6289 31.38C61.1489 31.62 60.7689 31.96 60.4889 32.4L59.2089 31.44C59.6089 30.8267 60.1556 30.3467 60.8489 30C61.5556 29.6533 62.3356 29.48 63.1889 29.48C64.5756 29.48 65.6622 29.8467 66.4489 30.58C67.2489 31.3 67.6489 32.2867 67.6489 33.54V40H66.0289V38.54H65.9489C65.6556 39.0333 65.2156 39.4533 64.6289 39.8C64.0422 40.1467 63.3822 40.32 62.6489 40.32ZM62.8089 38.82C63.3822 38.82 63.9156 38.6733 64.4089 38.38C64.9022 38.0867 65.2956 37.6933 65.5889 37.2C65.8822 36.7067 66.0289 36.1667 66.0289 35.58C65.7089 35.3667 65.3156 35.1933 64.8489 35.06C64.3822 34.9267 63.8889 34.86 63.3689 34.86C62.4356 34.86 61.7289 35.0533 61.2489 35.44C60.7822 35.8267 60.5489 36.3267 60.5489 36.94C60.5489 37.5 60.7622 37.9533 61.1889 38.3C61.6156 38.6467 62.1556 38.82 62.8089 38.82ZM70.0139 29.8H71.6339V31.3H71.7139C71.9939 30.7933 72.4406 30.3667 73.0539 30.02C73.6672 29.66 74.3206 29.48 75.0139 29.48C76.2406 29.48 77.1739 29.84 77.8139 30.56C78.4672 31.2667 78.7939 32.2333 78.7939 33.46V40H77.0939V33.72C77.0939 32.7733 76.8672 32.0867 76.4139 31.66C75.9606 31.2333 75.3406 31.02 74.5539 31.02C74.0072 31.02 73.5139 31.1733 73.0739 31.48C72.6472 31.7867 72.3139 32.1933 72.0739 32.7C71.8339 33.1933 71.7139 33.7133 71.7139 34.26V40H70.0139V29.8ZM84.6872 40.32C83.5939 40.32 82.6805 40.0667 81.9472 39.56C81.2139 39.04 80.6939 38.38 80.3872 37.58L81.9072 36.9C82.1605 37.5133 82.5339 37.9867 83.0272 38.32C83.5339 38.6533 84.0872 38.82 84.6872 38.82C85.3272 38.82 85.8739 38.6933 86.3272 38.44C86.7805 38.1733 87.0072 37.8 87.0072 37.32C87.0072 36.8933 86.8272 36.5533 86.4672 36.3C86.1072 36.0333 85.5405 35.8067 84.7672 35.62L83.5272 35.3C82.7139 35.1 82.0472 34.76 81.5272 34.28C81.0072 33.8 80.7472 33.18 80.7472 32.42C80.7472 31.8333 80.9205 31.32 81.2672 30.88C81.6272 30.4267 82.1005 30.08 82.6872 29.84C83.2739 29.6 83.9072 29.48 84.5872 29.48C85.4805 29.48 86.2739 29.6733 86.9672 30.06C87.6739 30.4467 88.1739 30.9867 88.4672 31.68L86.9872 32.36C86.5339 31.4533 85.7272 31 84.5672 31C84.0072 31 83.5139 31.1333 83.0872 31.4C82.6739 31.6533 82.4672 31.98 82.4672 32.38C82.4672 32.7533 82.6139 33.06 82.9072 33.3C83.2005 33.5267 83.6405 33.7133 84.2272 33.86L85.7072 34.24C86.7072 34.4933 87.4605 34.8733 87.9672 35.38C88.4739 35.8733 88.7272 36.48 88.7272 37.2C88.7272 37.8267 88.5472 38.38 88.1872 38.86C87.8272 39.3267 87.3405 39.6867 86.7272 39.94C86.1139 40.1933 85.4339 40.32 84.6872 40.32ZM93.938 40.32C93.1913 40.32 92.5246 40.1733 91.938 39.88C91.3513 39.5867 90.898 39.1867 90.578 38.68C90.258 38.16 90.098 37.5733 90.098 36.92C90.098 35.84 90.5046 35 91.318 34.4C92.1313 33.7867 93.158 33.48 94.398 33.48C95.0113 33.48 95.578 33.5467 96.098 33.68C96.6313 33.8133 97.038 33.9667 97.318 34.14V33.52C97.318 32.76 97.0513 32.1533 96.518 31.7C95.9846 31.2333 95.3113 31 94.498 31C93.9246 31 93.398 31.1267 92.918 31.38C92.438 31.62 92.058 31.96 91.778 32.4L90.498 31.44C90.898 30.8267 91.4446 30.3467 92.138 30C92.8446 29.6533 93.6246 29.48 94.478 29.48C95.8646 29.48 96.9513 29.8467 97.738 30.58C98.538 31.3 98.938 32.2867 98.938 33.54V40H97.318V38.54H97.238C96.9446 39.0333 96.5046 39.4533 95.918 39.8C95.3313 40.1467 94.6713 40.32 93.938 40.32ZM94.098 38.82C94.6713 38.82 95.2046 38.6733 95.698 38.38C96.1913 38.0867 96.5846 37.6933 96.878 37.2C97.1713 36.7067 97.318 36.1667 97.318 35.58C96.998 35.3667 96.6046 35.1933 96.138 35.06C95.6713 34.9267 95.178 34.86 94.658 34.86C93.7246 34.86 93.018 35.0533 92.538 35.44C92.0713 35.8267 91.838 36.3267 91.838 36.94C91.838 37.5 92.0513 37.9533 92.478 38.3C92.9046 38.6467 93.4446 38.82 94.098 38.82ZM101.303 25.68H103.003V40H101.303V25.68ZM110.51 25.68H112.19V40H110.51V25.68ZM115.053 29.8H116.673V31.3H116.753C117.033 30.7933 117.48 30.3667 118.093 30.02C118.706 29.66 119.36 29.48 120.053 29.48C121.28 29.48 122.213 29.84 122.853 30.56C123.506 31.2667 123.833 32.2333 123.833 33.46V40H122.133V33.72C122.133 32.7733 121.906 32.0867 121.453 31.66C121 31.2333 120.38 31.02 119.593 31.02C119.046 31.02 118.553 31.1733 118.113 31.48C117.686 31.7867 117.353 32.1933 117.113 32.7C116.873 33.1933 116.753 33.7133 116.753 34.26V40H115.053V29.8ZM129.726 40.32C128.633 40.32 127.72 40.0667 126.986 39.56C126.253 39.04 125.733 38.38 125.426 37.58L126.946 36.9C127.2 37.5133 127.573 37.9867 128.066 38.32C128.573 38.6533 129.126 38.82 129.726 38.82C130.366 38.82 130.913 38.6933 131.366 38.44C131.82 38.1733 132.046 37.8 132.046 37.32C132.046 36.8933 131.866 36.5533 131.506 36.3C131.146 36.0333 130.58 35.8067 129.806 35.62L128.566 35.3C127.753 35.1 127.086 34.76 126.566 34.28C126.046 33.8 125.786 33.18 125.786 32.42C125.786 31.8333 125.96 31.32 126.306 30.88C126.666 30.4267 127.14 30.08 127.726 29.84C128.313 29.6 128.946 29.48 129.626 29.48C130.52 29.48 131.313 29.6733 132.006 30.06C132.713 30.4467 133.213 30.9867 133.506 31.68L132.026 32.36C131.573 31.4533 130.766 31 129.606 31C129.046 31 128.553 31.1333 128.126 31.4C127.713 31.6533 127.506 31.98 127.506 32.38C127.506 32.7533 127.653 33.06 127.946 33.3C128.24 33.5267 128.68 33.7133 129.266 33.86L130.746 34.24C131.746 34.4933 132.5 34.8733 133.006 35.38C133.513 35.8733 133.766 36.48 133.766 37.2C133.766 37.8267 133.586 38.38 133.226 38.86C132.866 39.3267 132.38 39.6867 131.766 39.94C131.153 40.1933 130.473 40.32 129.726 40.32ZM139.442 40.16C139.028 40.16 138.642 40.0933 138.282 39.96C137.935 39.8267 137.642 39.6467 137.402 39.42C137.135 39.1667 136.935 38.8733 136.802 38.54C136.668 38.2067 136.602 37.8 136.602 37.32V31.34H134.822V29.8H136.602V26.92H138.302V29.8H140.782V31.34H138.302V36.9C138.302 37.46 138.408 37.8733 138.622 38.14C138.875 38.4333 139.242 38.58 139.722 38.58C140.108 38.58 140.482 38.4667 140.842 38.24V39.9C140.642 39.9933 140.435 40.06 140.222 40.1C140.022 40.14 139.762 40.16 139.442 40.16ZM143.944 27.92C143.61 27.92 143.324 27.8 143.084 27.56C142.844 27.32 142.724 27.0333 142.724 26.7C142.724 26.3667 142.844 26.0867 143.084 25.86C143.324 25.62 143.61 25.5 143.944 25.5C144.277 25.5 144.564 25.62 144.804 25.86C145.044 26.0867 145.164 26.3667 145.164 26.7C145.164 27.0333 145.044 27.32 144.804 27.56C144.577 27.8 144.29 27.92 143.944 27.92ZM143.104 29.8H144.784V40H143.104V29.8ZM151.278 40.16C150.864 40.16 150.478 40.0933 150.118 39.96C149.771 39.8267 149.478 39.6467 149.238 39.42C148.971 39.1667 148.771 38.8733 148.638 38.54C148.504 38.2067 148.438 37.8 148.438 37.32V31.34H146.658V29.8H148.438V26.92H150.138V29.8H152.618V31.34H150.138V36.9C150.138 37.46 150.244 37.8733 150.458 38.14C150.711 38.4333 151.078 38.58 151.558 38.58C151.944 38.58 152.318 38.4667 152.678 38.24V39.9C152.478 39.9933 152.271 40.06 152.058 40.1C151.858 40.14 151.598 40.16 151.278 40.16ZM158.382 40.32C157.155 40.32 156.215 39.96 155.562 39.24C154.922 38.52 154.602 37.5133 154.602 36.22V29.8H156.302V35.96C156.302 36.9333 156.522 37.6467 156.962 38.1C157.402 38.5533 157.995 38.78 158.742 38.78C159.315 38.78 159.822 38.6267 160.262 38.32C160.715 38.0133 161.062 37.6133 161.302 37.12C161.555 36.6267 161.682 36.1067 161.682 35.56V29.8H163.382V40H161.762V38.52H161.682C161.402 39.0267 160.955 39.4533 160.342 39.8C159.729 40.1467 159.075 40.32 158.382 40.32ZM169.91 40.16C169.497 40.16 169.11 40.0933 168.75 39.96C168.404 39.8267 168.11 39.6467 167.87 39.42C167.604 39.1667 167.404 38.8733 167.27 38.54C167.137 38.2067 167.07 37.8 167.07 37.32V31.34H165.29V29.8H167.07V26.92H168.77V29.8H171.25V31.34H168.77V36.9C168.77 37.46 168.877 37.8733 169.09 38.14C169.344 38.4333 169.71 38.58 170.19 38.58C170.577 38.58 170.95 38.4667 171.31 38.24V39.9C171.11 39.9933 170.904 40.06 170.69 40.1C170.49 40.14 170.23 40.16 169.91 40.16ZM177.405 40.32C176.432 40.32 175.559 40.0867 174.785 39.62C174.012 39.1533 173.405 38.5133 172.965 37.7C172.539 36.8733 172.325 35.9467 172.325 34.92C172.325 33.9333 172.525 33.0267 172.925 32.2C173.339 31.3733 173.919 30.7133 174.665 30.22C175.412 29.7267 176.279 29.48 177.265 29.48C178.265 29.48 179.132 29.7067 179.865 30.16C180.599 30.6 181.159 31.2133 181.545 32C181.945 32.7867 182.145 33.6867 182.145 34.7C182.145 34.9 182.125 35.0733 182.085 35.22H174.025C174.065 35.9933 174.252 36.6467 174.585 37.18C174.919 37.7133 175.339 38.1133 175.845 38.38C176.365 38.6467 176.905 38.78 177.465 38.78C178.772 38.78 179.779 38.1667 180.485 36.94L181.925 37.64C181.485 38.4667 180.885 39.12 180.125 39.6C179.379 40.08 178.472 40.32 177.405 40.32ZM180.345 33.82C180.319 33.3933 180.199 32.9667 179.985 32.54C179.772 32.1133 179.432 31.7533 178.965 31.46C178.512 31.1667 177.939 31.02 177.245 31.02C176.445 31.02 175.765 31.28 175.205 31.8C174.659 32.3067 174.299 32.98 174.125 33.82H180.345ZM193.483 40.32C192.483 40.32 191.583 40.08 190.783 39.6C189.983 39.12 189.357 38.4667 188.903 37.64C188.463 36.8133 188.243 35.9 188.243 34.9C188.243 33.9 188.463 32.9867 188.903 32.16C189.357 31.3333 189.983 30.68 190.783 30.2C191.583 29.72 192.483 29.48 193.483 29.48C194.483 29.48 195.383 29.72 196.183 30.2C196.983 30.68 197.603 31.3333 198.043 32.16C198.497 32.9867 198.723 33.9 198.723 34.9C198.723 35.9 198.497 36.8133 198.043 37.64C197.603 38.4667 196.983 39.12 196.183 39.6C195.383 40.08 194.483 40.32 193.483 40.32ZM193.483 38.78C194.11 38.78 194.69 38.6267 195.223 38.32C195.77 38 196.203 37.5467 196.523 36.96C196.857 36.3733 197.023 35.6867 197.023 34.9C197.023 34.1133 196.857 33.4267 196.523 32.84C196.203 32.2533 195.77 31.8067 195.223 31.5C194.69 31.18 194.11 31.02 193.483 31.02C192.857 31.02 192.27 31.18 191.723 31.5C191.177 31.8067 190.737 32.2533 190.403 32.84C190.083 33.4267 189.923 34.1133 189.923 34.9C189.923 35.6867 190.083 36.3733 190.403 36.96C190.737 37.5467 191.177 38 191.723 38.32C192.27 38.6267 192.857 38.78 193.483 38.78ZM201.585 31.34H199.705V29.8H201.585V28.7C201.585 28.06 201.731 27.5 202.025 27.02C202.318 26.54 202.711 26.1733 203.205 25.92C203.698 25.6533 204.245 25.52 204.845 25.52C205.418 25.52 205.918 25.6 206.345 25.76V27.42C206.105 27.3267 205.878 27.2533 205.665 27.2C205.451 27.1333 205.198 27.1 204.905 27.1C204.465 27.1 204.085 27.26 203.765 27.58C203.445 27.8867 203.285 28.32 203.285 28.88V29.8H205.905V31.34H203.285V40H201.585V31.34ZM216.366 40.32C215.246 40.32 214.219 39.98 213.286 39.3C212.352 38.62 211.712 37.6667 211.366 36.44L212.986 35.78C213.212 36.6333 213.632 37.3333 214.246 37.88C214.859 38.4267 215.579 38.7 216.406 38.7C217.232 38.7 217.932 38.48 218.506 38.04C219.079 37.5867 219.366 36.9733 219.366 36.2C219.366 35.5333 219.119 34.9867 218.626 34.56C218.146 34.12 217.352 33.7133 216.246 33.34L215.346 33.02C214.332 32.66 213.506 32.1867 212.866 31.6C212.226 31.0133 211.906 30.2 211.906 29.16C211.906 28.48 212.092 27.8533 212.466 27.28C212.839 26.6933 213.359 26.2267 214.026 25.88C214.692 25.5333 215.439 25.36 216.266 25.36C217.092 25.36 217.812 25.5133 218.426 25.82C219.039 26.1267 219.526 26.5 219.886 26.94C220.259 27.38 220.519 27.8133 220.666 28.24L219.066 28.92C218.932 28.4267 218.626 27.98 218.146 27.58C217.679 27.18 217.059 26.98 216.286 26.98C215.552 26.98 214.926 27.1867 214.406 27.6C213.886 28.0133 213.626 28.5333 213.626 29.16C213.626 29.72 213.846 30.18 214.286 30.54C214.726 30.8867 215.392 31.2133 216.286 31.52L217.226 31.84C218.439 32.28 219.386 32.8333 220.066 33.5C220.746 34.1533 221.086 35.0467 221.086 36.18C221.086 37.1 220.846 37.8733 220.366 38.5C219.899 39.1267 219.306 39.5867 218.586 39.88C217.866 40.1733 217.126 40.32 216.366 40.32ZM227.857 40.32C226.87 40.32 225.983 40.0867 225.197 39.62C224.41 39.14 223.797 38.4933 223.357 37.68C222.917 36.8533 222.697 35.9267 222.697 34.9C222.697 33.8733 222.917 32.9467 223.357 32.12C223.797 31.2933 224.41 30.6467 225.197 30.18C225.983 29.7133 226.87 29.48 227.857 29.48C228.963 29.48 229.89 29.74 230.637 30.26C231.397 30.7667 231.937 31.4467 232.257 32.3L230.717 32.94C230.463 32.3133 230.083 31.84 229.577 31.52C229.083 31.1867 228.483 31.02 227.777 31.02C227.177 31.02 226.617 31.1867 226.097 31.52C225.577 31.84 225.157 32.2933 224.837 32.88C224.53 33.4667 224.377 34.14 224.377 34.9C224.377 35.66 224.53 36.3333 224.837 36.92C225.157 37.5067 225.577 37.9667 226.097 38.3C226.617 38.62 227.177 38.78 227.777 38.78C228.497 38.78 229.117 38.6133 229.637 38.28C230.157 37.9467 230.543 37.4733 230.797 36.86L232.317 37.5C231.97 38.34 231.41 39.02 230.637 39.54C229.877 40.06 228.95 40.32 227.857 40.32ZM235.155 27.92C234.821 27.92 234.535 27.8 234.295 27.56C234.055 27.32 233.935 27.0333 233.935 26.7C233.935 26.3667 234.055 26.0867 234.295 25.86C234.535 25.62 234.821 25.5 235.155 25.5C235.488 25.5 235.775 25.62 236.015 25.86C236.255 26.0867 236.375 26.3667 236.375 26.7C236.375 27.0333 236.255 27.32 236.015 27.56C235.788 27.8 235.501 27.92 235.155 27.92ZM234.315 29.8H235.995V40H234.315V29.8ZM243.109 40.32C242.135 40.32 241.262 40.0867 240.489 39.62C239.715 39.1533 239.109 38.5133 238.669 37.7C238.242 36.8733 238.029 35.9467 238.029 34.92C238.029 33.9333 238.229 33.0267 238.629 32.2C239.042 31.3733 239.622 30.7133 240.369 30.22C241.115 29.7267 241.982 29.48 242.969 29.48C243.969 29.48 244.835 29.7067 245.569 30.16C246.302 30.6 246.862 31.2133 247.249 32C247.649 32.7867 247.849 33.6867 247.849 34.7C247.849 34.9 247.829 35.0733 247.789 35.22H239.729C239.769 35.9933 239.955 36.6467 240.289 37.18C240.622 37.7133 241.042 38.1133 241.549 38.38C242.069 38.6467 242.609 38.78 243.169 38.78C244.475 38.78 245.482 38.1667 246.189 36.94L247.629 37.64C247.189 38.4667 246.589 39.12 245.829 39.6C245.082 40.08 244.175 40.32 243.109 40.32ZM246.049 33.82C246.022 33.3933 245.902 32.9667 245.689 32.54C245.475 32.1133 245.135 31.7533 244.669 31.46C244.215 31.1667 243.642 31.02 242.949 31.02C242.149 31.02 241.469 31.28 240.909 31.8C240.362 32.3067 240.002 32.98 239.829 33.82H246.049ZM249.838 29.8H251.458V31.3H251.538C251.818 30.7933 252.265 30.3667 252.878 30.02C253.491 29.66 254.145 29.48 254.838 29.48C256.065 29.48 256.998 29.84 257.638 30.56C258.291 31.2667 258.618 32.2333 258.618 33.46V40H256.918V33.72C256.918 32.7733 256.691 32.0867 256.238 31.66C255.785 31.2333 255.165 31.02 254.378 31.02C253.831 31.02 253.338 31.1733 252.898 31.48C252.471 31.7867 252.138 32.1933 251.898 32.7C251.658 33.1933 251.538 33.7133 251.538 34.26V40H249.838V29.8ZM265.669 40.32C264.682 40.32 263.796 40.0867 263.009 39.62C262.222 39.14 261.609 38.4933 261.169 37.68C260.729 36.8533 260.509 35.9267 260.509 34.9C260.509 33.8733 260.729 32.9467 261.169 32.12C261.609 31.2933 262.222 30.6467 263.009 30.18C263.796 29.7133 264.682 29.48 265.669 29.48C266.776 29.48 267.702 29.74 268.449 30.26C269.209 30.7667 269.749 31.4467 270.069 32.3L268.529 32.94C268.276 32.3133 267.896 31.84 267.389 31.52C266.896 31.1867 266.296 31.02 265.589 31.02C264.989 31.02 264.429 31.1867 263.909 31.52C263.389 31.84 262.969 32.2933 262.649 32.88C262.342 33.4667 262.189 34.14 262.189 34.9C262.189 35.66 262.342 36.3333 262.649 36.92C262.969 37.5067 263.389 37.9667 263.909 38.3C264.429 38.62 264.989 38.78 265.589 38.78C266.309 38.78 266.929 38.6133 267.449 38.28C267.969 37.9467 268.356 37.4733 268.609 36.86L270.129 37.5C269.782 38.34 269.222 39.02 268.449 39.54C267.689 40.06 266.762 40.32 265.669 40.32ZM276.409 40.32C275.436 40.32 274.563 40.0867 273.789 39.62C273.016 39.1533 272.409 38.5133 271.969 37.7C271.543 36.8733 271.329 35.9467 271.329 34.92C271.329 33.9333 271.529 33.0267 271.929 32.2C272.343 31.3733 272.923 30.7133 273.669 30.22C274.416 29.7267 275.283 29.48 276.269 29.48C277.269 29.48 278.136 29.7067 278.869 30.16C279.603 30.6 280.163 31.2133 280.549 32C280.949 32.7867 281.149 33.6867 281.149 34.7C281.149 34.9 281.129 35.0733 281.089 35.22H273.029C273.069 35.9933 273.256 36.6467 273.589 37.18C273.923 37.7133 274.343 38.1133 274.849 38.38C275.369 38.6467 275.909 38.78 276.469 38.78C277.776 38.78 278.783 38.1667 279.489 36.94L280.929 37.64C280.489 38.4667 279.889 39.12 279.129 39.6C278.383 40.08 277.476 40.32 276.409 40.32ZM279.349 33.82C279.323 33.3933 279.203 32.9667 278.989 32.54C278.776 32.1133 278.436 31.7533 277.969 31.46C277.516 31.1667 276.943 31.02 276.249 31.02C275.449 31.02 274.769 31.28 274.209 31.8C273.663 32.3067 273.303 32.98 273.129 33.82H279.349ZM291.047 40.32C290.301 40.32 289.634 40.1733 289.047 39.88C288.461 39.5867 288.007 39.1867 287.687 38.68C287.367 38.16 287.207 37.5733 287.207 36.92C287.207 35.84 287.614 35 288.427 34.4C289.241 33.7867 290.267 33.48 291.507 33.48C292.121 33.48 292.687 33.5467 293.207 33.68C293.741 33.8133 294.147 33.9667 294.427 34.14V33.52C294.427 32.76 294.161 32.1533 293.627 31.7C293.094 31.2333 292.421 31 291.607 31C291.034 31 290.507 31.1267 290.027 31.38C289.547 31.62 289.167 31.96 288.887 32.4L287.607 31.44C288.007 30.8267 288.554 30.3467 289.247 30C289.954 29.6533 290.734 29.48 291.587 29.48C292.974 29.48 294.061 29.8467 294.847 30.58C295.647 31.3 296.047 32.2867 296.047 33.54V40H294.427V38.54H294.347C294.054 39.0333 293.614 39.4533 293.027 39.8C292.441 40.1467 291.781 40.32 291.047 40.32ZM291.207 38.82C291.781 38.82 292.314 38.6733 292.807 38.38C293.301 38.0867 293.694 37.6933 293.987 37.2C294.281 36.7067 294.427 36.1667 294.427 35.58C294.107 35.3667 293.714 35.1933 293.247 35.06C292.781 34.9267 292.287 34.86 291.767 34.86C290.834 34.86 290.127 35.0533 289.647 35.44C289.181 35.8267 288.947 36.3267 288.947 36.94C288.947 37.5 289.161 37.9533 289.587 38.3C290.014 38.6467 290.554 38.82 291.207 38.82ZM298.412 29.8H300.032V31.3H300.112C300.392 30.7933 300.839 30.3667 301.452 30.02C302.066 29.66 302.719 29.48 303.412 29.48C304.639 29.48 305.572 29.84 306.212 30.56C306.866 31.2667 307.192 32.2333 307.192 33.46V40H305.492V33.72C305.492 32.7733 305.266 32.0867 304.812 31.66C304.359 31.2333 303.739 31.02 302.952 31.02C302.406 31.02 301.912 31.1733 301.472 31.48C301.046 31.7867 300.712 32.1933 300.472 32.7C300.232 33.1933 300.112 33.7133 300.112 34.26V40H298.412V29.8ZM313.943 40.32C313.037 40.32 312.21 40.0867 311.463 39.62C310.73 39.1533 310.15 38.5133 309.723 37.7C309.297 36.8733 309.083 35.94 309.083 34.9C309.083 33.8733 309.297 32.9467 309.723 32.12C310.15 31.2933 310.73 30.6467 311.463 30.18C312.21 29.7133 313.037 29.48 313.943 29.48C314.73 29.48 315.43 29.66 316.043 30.02C316.657 30.3667 317.123 30.8 317.443 31.32H317.523L317.443 29.9V25.68H319.143V40H317.523V38.5H317.443C317.123 39.0067 316.657 39.44 316.043 39.8C315.43 40.1467 314.73 40.32 313.943 40.32ZM314.143 38.78C314.743 38.78 315.297 38.62 315.803 38.3C316.323 37.98 316.737 37.5267 317.043 36.94C317.363 36.3533 317.523 35.6733 317.523 34.9C317.523 34.1267 317.363 33.4467 317.043 32.86C316.737 32.2733 316.323 31.82 315.803 31.5C315.297 31.18 314.743 31.02 314.143 31.02C313.557 31.02 313.003 31.18 312.483 31.5C311.963 31.82 311.543 32.28 311.223 32.88C310.917 33.4667 310.763 34.14 310.763 34.9C310.763 35.66 310.917 36.34 311.223 36.94C311.543 37.5267 311.963 37.98 312.483 38.3C313.003 38.62 313.557 38.78 314.143 38.78ZM328.782 27.3H324.762V25.68H334.482V27.3H330.482V40H328.782V27.3ZM339.222 40.32C338.249 40.32 337.375 40.0867 336.602 39.62C335.829 39.1533 335.222 38.5133 334.782 37.7C334.355 36.8733 334.142 35.9467 334.142 34.92C334.142 33.9333 334.342 33.0267 334.742 32.2C335.155 31.3733 335.735 30.7133 336.482 30.22C337.229 29.7267 338.095 29.48 339.082 29.48C340.082 29.48 340.949 29.7067 341.682 30.16C342.415 30.6 342.975 31.2133 343.362 32C343.762 32.7867 343.962 33.6867 343.962 34.7C343.962 34.9 343.942 35.0733 343.902 35.22H335.842C335.882 35.9933 336.069 36.6467 336.402 37.18C336.735 37.7133 337.155 38.1133 337.662 38.38C338.182 38.6467 338.722 38.78 339.282 38.78C340.589 38.78 341.595 38.1667 342.302 36.94L343.742 37.64C343.302 38.4667 342.702 39.12 341.942 39.6C341.195 40.08 340.289 40.32 339.222 40.32ZM342.162 33.82C342.135 33.3933 342.015 32.9667 341.802 32.54C341.589 32.1133 341.249 31.7533 340.782 31.46C340.329 31.1667 339.755 31.02 339.062 31.02C338.262 31.02 337.582 31.28 337.022 31.8C336.475 32.3067 336.115 32.98 335.942 33.82H342.162ZM350.669 40.32C349.682 40.32 348.796 40.0867 348.009 39.62C347.222 39.14 346.609 38.4933 346.169 37.68C345.729 36.8533 345.509 35.9267 345.509 34.9C345.509 33.8733 345.729 32.9467 346.169 32.12C346.609 31.2933 347.222 30.6467 348.009 30.18C348.796 29.7133 349.682 29.48 350.669 29.48C351.776 29.48 352.702 29.74 353.449 30.26C354.209 30.7667 354.749 31.4467 355.069 32.3L353.529 32.94C353.276 32.3133 352.896 31.84 352.389 31.52C351.896 31.1867 351.296 31.02 350.589 31.02C349.989 31.02 349.429 31.1867 348.909 31.52C348.389 31.84 347.969 32.2933 347.649 32.88C347.342 33.4667 347.189 34.14 347.189 34.9C347.189 35.66 347.342 36.3333 347.649 36.92C347.969 37.5067 348.389 37.9667 348.909 38.3C349.429 38.62 349.989 38.78 350.589 38.78C351.309 38.78 351.929 38.6133 352.449 38.28C352.969 37.9467 353.356 37.4733 353.609 36.86L355.129 37.5C354.782 38.34 354.222 39.02 353.449 39.54C352.689 40.06 351.762 40.32 350.669 40.32ZM356.967 25.68H358.667V29.9L358.587 31.3H358.667C358.947 30.78 359.387 30.3467 359.987 30C360.6 29.6533 361.267 29.48 361.987 29.48C363.227 29.48 364.174 29.8467 364.827 30.58C365.48 31.3 365.807 32.26 365.807 33.46V40H364.107V33.72C364.107 32.8 363.874 32.12 363.407 31.68C362.94 31.24 362.334 31.02 361.587 31.02C361.054 31.02 360.56 31.18 360.107 31.5C359.667 31.82 359.314 32.2333 359.047 32.74C358.794 33.2467 358.667 33.7733 358.667 34.32V40H356.967V25.68ZM368.256 29.8H369.876V31.3H369.956C370.236 30.7933 370.683 30.3667 371.296 30.02C371.909 29.66 372.563 29.48 373.256 29.48C374.483 29.48 375.416 29.84 376.056 30.56C376.709 31.2667 377.036 32.2333 377.036 33.46V40H375.336V33.72C375.336 32.7733 375.109 32.0867 374.656 31.66C374.203 31.2333 373.583 31.02 372.796 31.02C372.249 31.02 371.756 31.1733 371.316 31.48C370.889 31.7867 370.556 32.1933 370.316 32.7C370.076 33.1933 369.956 33.7133 369.956 34.26V40H368.256V29.8ZM384.167 40.32C383.167 40.32 382.267 40.08 381.467 39.6C380.667 39.12 380.04 38.4667 379.587 37.64C379.147 36.8133 378.927 35.9 378.927 34.9C378.927 33.9 379.147 32.9867 379.587 32.16C380.04 31.3333 380.667 30.68 381.467 30.2C382.267 29.72 383.167 29.48 384.167 29.48C385.167 29.48 386.067 29.72 386.867 30.2C387.667 30.68 388.287 31.3333 388.727 32.16C389.18 32.9867 389.407 33.9 389.407 34.9C389.407 35.9 389.18 36.8133 388.727 37.64C388.287 38.4667 387.667 39.12 386.867 39.6C386.067 40.08 385.167 40.32 384.167 40.32ZM384.167 38.78C384.794 38.78 385.374 38.6267 385.907 38.32C386.454 38 386.887 37.5467 387.207 36.96C387.54 36.3733 387.707 35.6867 387.707 34.9C387.707 34.1133 387.54 33.4267 387.207 32.84C386.887 32.2533 386.454 31.8067 385.907 31.5C385.374 31.18 384.794 31.02 384.167 31.02C383.54 31.02 382.954 31.18 382.407 31.5C381.86 31.8067 381.42 32.2533 381.087 32.84C380.767 33.4267 380.607 34.1133 380.607 34.9C380.607 35.6867 380.767 36.3733 381.087 36.96C381.42 37.5467 381.86 38 382.407 38.32C382.954 38.6267 383.54 38.78 384.167 38.78ZM391.283 25.68H392.983V40H391.283V25.68ZM400.105 40.32C399.105 40.32 398.205 40.08 397.405 39.6C396.605 39.12 395.978 38.4667 395.525 37.64C395.085 36.8133 394.865 35.9 394.865 34.9C394.865 33.9 395.085 32.9867 395.525 32.16C395.978 31.3333 396.605 30.68 397.405 30.2C398.205 29.72 399.105 29.48 400.105 29.48C401.105 29.48 402.005 29.72 402.805 30.2C403.605 30.68 404.225 31.3333 404.665 32.16C405.118 32.9867 405.345 33.9 405.345 34.9C405.345 35.9 405.118 36.8133 404.665 37.64C404.225 38.4667 403.605 39.12 402.805 39.6C402.005 40.08 401.105 40.32 400.105 40.32ZM400.105 38.78C400.731 38.78 401.311 38.6267 401.845 38.32C402.391 38 402.825 37.5467 403.145 36.96C403.478 36.3733 403.645 35.6867 403.645 34.9C403.645 34.1133 403.478 33.4267 403.145 32.84C402.825 32.2533 402.391 31.8067 401.845 31.5C401.311 31.18 400.731 31.02 400.105 31.02C399.478 31.02 398.891 31.18 398.345 31.5C397.798 31.8067 397.358 32.2533 397.025 32.84C396.705 33.4267 396.545 34.1133 396.545 34.9C396.545 35.6867 396.705 36.3733 397.025 36.96C397.358 37.5467 397.798 38 398.345 38.32C398.891 38.6267 399.478 38.78 400.105 38.78ZM411.799 44.64C410.599 44.64 409.605 44.36 408.819 43.8C408.045 43.24 407.525 42.5667 407.259 41.78L408.799 41.12C409.025 41.7067 409.399 42.18 409.919 42.54C410.452 42.9133 411.079 43.1 411.799 43.1C412.852 43.1 413.665 42.7933 414.239 42.18C414.825 41.5667 415.119 40.7 415.119 39.58V38.44H415.039C414.705 38.96 414.232 39.3867 413.619 39.72C413.019 40.04 412.332 40.2 411.559 40.2C410.679 40.2 409.872 39.9733 409.139 39.52C408.419 39.0667 407.845 38.4333 407.419 37.62C406.992 36.8067 406.779 35.88 406.779 34.84C406.779 33.8133 406.992 32.8933 407.419 32.08C407.845 31.2533 408.419 30.6133 409.139 30.16C409.872 29.7067 410.679 29.48 411.559 29.48C412.332 29.48 413.019 29.6467 413.619 29.98C414.232 30.3 414.705 30.7267 415.039 31.26H415.119V29.8H416.739V39.6C416.739 41.24 416.285 42.4867 415.379 43.34C414.472 44.2067 413.279 44.64 411.799 44.64ZM411.799 38.66C412.412 38.66 412.965 38.5067 413.459 38.2C413.965 37.8933 414.365 37.4533 414.659 36.88C414.965 36.3067 415.119 35.6267 415.119 34.84C415.119 34.04 414.965 33.3533 414.659 32.78C414.365 32.2067 413.965 31.7733 413.459 31.48C412.965 31.1733 412.412 31.02 411.799 31.02C411.185 31.02 410.625 31.1733 410.119 31.48C409.612 31.7867 409.205 32.2267 408.899 32.8C408.605 33.3733 408.459 34.0533 408.459 34.84C408.459 35.6267 408.605 36.3133 408.899 36.9C409.205 37.4733 409.612 37.9133 410.119 38.22C410.625 38.5133 411.185 38.66 411.799 38.66ZM422.372 39.36L418.152 29.8H419.992L423.192 37.38H423.232L426.312 29.8H428.152L421.852 44.32H420.092L422.372 39.36Z" fill="#676C72"/>
</svg>
