<svg width="488" height="164" viewBox="0 0 488 164" fill="none" xmlns="http://www.w3.org/2000/svg">
<path d="M0 163.25H487.105V-0.000213623H0V163.25Z" fill="#292D33"/>
<path d="M0 163.25H487.105V-0.000213623H0V163.25Z" fill="#292D33"/>
<path d="M134.339 96.2538C136.024 96.2538 137.361 95.7695 138.35 94.8006C139.339 93.832 139.833 92.4784 139.833 90.7396C139.833 89.0012 139.339 87.6476 138.35 86.6787C137.361 85.7101 136.024 85.2255 134.339 85.2255H131.711V96.2538H134.339ZM130.039 83.613H134.339C135.799 83.613 137.073 83.9151 138.161 84.5188C139.249 85.1228 140.085 85.962 140.669 87.0369C141.253 88.112 141.545 89.3462 141.545 90.7396C141.545 92.1331 141.253 93.3673 140.669 94.4423C140.085 95.5173 139.249 96.3568 138.161 96.9605C137.073 97.5645 135.799 97.8662 134.339 97.8662H130.039V83.613Z" fill="white"/>
<path d="M150.841 91.7149C150.815 91.2903 150.695 90.8657 150.483 90.4409C150.27 90.0163 149.936 89.658 149.478 89.3659C149.02 89.0741 148.446 88.9279 147.756 88.9279C146.959 88.9279 146.286 89.1836 145.735 89.6944C145.184 90.2053 144.823 90.8788 144.65 91.7149H150.841ZM145.307 97.4878C144.537 97.0235 143.937 96.383 143.506 95.5669C143.074 94.7507 142.859 93.8318 142.859 92.8098C142.859 91.8278 143.061 90.9255 143.466 90.1025C143.87 89.2797 144.444 88.6228 145.188 88.1317C145.931 87.6408 146.793 87.3952 147.776 87.3952C148.771 87.3952 149.634 87.6175 150.364 88.0621C151.093 88.5068 151.654 89.1205 152.046 89.9033C152.437 90.6866 152.633 91.5824 152.633 92.5908C152.633 92.7898 152.613 92.9625 152.573 93.1083H144.551C144.591 93.8782 144.776 94.5285 145.108 95.0593C145.44 95.5902 145.861 95.9883 146.372 96.2536C146.883 96.5192 147.417 96.6517 147.975 96.6517C149.275 96.6517 150.277 96.0415 150.981 94.8203L152.414 95.5171C151.976 96.3401 151.382 96.9901 150.632 97.468C149.882 97.9457 148.977 98.1846 147.915 98.1846C146.946 98.1846 146.077 97.9522 145.307 97.4878Z" fill="white"/>
<path d="M153.29 87.7138H155.101L158.246 95.8755H158.286L161.471 87.7138H163.243L159.102 97.8662H157.39L153.29 87.7138Z" fill="white"/>
<path d="M171.783 91.7149C171.756 91.2903 171.637 90.8657 171.425 90.4409C171.212 90.0163 170.877 89.658 170.419 89.3659C169.961 89.0741 169.387 88.9279 168.697 88.9279C167.901 88.9279 167.227 89.1836 166.677 89.6944C166.126 90.2053 165.764 90.8788 165.592 91.7149H171.783ZM166.249 97.4878C165.479 97.0235 164.878 96.383 164.447 95.5669C164.016 94.7507 163.8 93.8318 163.8 92.8098C163.8 91.8278 164.002 90.9255 164.407 90.1025C164.812 89.2797 165.386 88.6228 166.129 88.1317C166.872 87.6408 167.735 87.3952 168.717 87.3952C169.713 87.3952 170.575 87.6175 171.305 88.0621C172.035 88.5068 172.596 89.1205 172.987 89.9033C173.379 90.6866 173.574 91.5824 173.574 92.5908C173.574 92.7898 173.555 92.9625 173.515 93.1083H165.492C165.532 93.8782 165.718 94.5285 166.05 95.0593C166.381 95.5902 166.803 95.9883 167.314 96.2536C167.825 96.5192 168.359 96.6517 168.916 96.6517C170.217 96.6517 171.219 96.0415 171.922 94.8203L173.355 95.5171C172.918 96.3401 172.323 96.9901 171.574 97.468C170.824 97.9457 169.918 98.1846 168.857 98.1846C167.888 98.1846 167.018 97.9522 166.249 97.4878Z" fill="white"/>
<path d="M175.545 83.613H177.237V97.8662H175.545V83.613Z" fill="white"/>
<path d="M186.066 96.184C186.603 95.8723 187.034 95.4244 187.36 94.8403C187.685 94.2564 187.848 93.5731 187.848 92.7898C187.848 92.007 187.685 91.3236 187.36 90.7394C187.034 90.1556 186.603 89.7078 186.066 89.3957C185.528 89.0841 184.948 88.9279 184.324 88.9279C183.7 88.9279 183.116 89.0841 182.572 89.3957C182.028 89.7078 181.593 90.1556 181.268 90.7394C180.943 91.3236 180.781 92.007 180.781 92.7898C180.781 93.5731 180.943 94.2564 181.268 94.8403C181.593 95.4244 182.028 95.8723 182.572 96.184C183.116 96.4959 183.7 96.6517 184.324 96.6517C184.948 96.6517 185.528 96.4959 186.066 96.184ZM181.637 97.468C180.84 96.9901 180.22 96.3401 179.775 95.5171C179.33 94.6944 179.108 93.7852 179.108 92.7898C179.108 91.7945 179.33 90.8856 179.775 90.0626C180.22 89.2399 180.84 88.5895 181.637 88.1118C182.433 87.634 183.329 87.3952 184.324 87.3952C185.319 87.3952 186.215 87.634 187.011 88.1118C187.808 88.5895 188.428 89.2399 188.873 90.0626C189.317 90.8856 189.54 91.7945 189.54 92.7898C189.54 93.7852 189.317 94.6944 188.873 95.5171C188.428 96.3401 187.808 96.9901 187.011 97.468C186.215 97.9457 185.319 98.1846 184.324 98.1846C183.329 98.1846 182.433 97.9457 181.637 97.468Z" fill="white"/>
<path d="M197.94 96.1741C198.458 95.8556 198.873 95.4011 199.184 94.8105C199.496 94.2201 199.652 93.5464 199.652 92.79C199.652 92.0335 199.496 91.36 199.184 90.7694C198.873 90.179 198.458 89.7243 197.94 89.4058C197.423 89.0873 196.872 88.9281 196.288 88.9281C195.704 88.9281 195.153 89.0873 194.636 89.4058C194.118 89.7243 193.707 90.1757 193.402 90.7595C193.096 91.3435 192.944 92.0204 192.944 92.79C192.944 93.5598 193.096 94.2366 193.402 94.8204C193.707 95.4046 194.118 95.8556 194.636 96.1741C195.153 96.4925 195.704 96.6518 196.288 96.6518C196.872 96.6518 197.423 96.4925 197.94 96.1741ZM191.331 87.7138H192.944V89.2266H193.023C193.328 88.7091 193.79 88.2745 194.407 87.9227C195.024 87.5713 195.717 87.3952 196.487 87.3952C197.389 87.3952 198.212 87.6276 198.956 88.0919C199.699 88.5567 200.282 89.2001 200.707 90.0229C201.132 90.846 201.344 91.7681 201.344 92.79C201.344 93.8251 201.132 94.7507 200.707 95.5669C200.282 96.3831 199.699 97.0236 198.956 97.4879C198.212 97.9523 197.389 98.1847 196.487 98.1847C195.717 98.1847 195.024 98.0086 194.407 97.6571C193.79 97.3056 193.328 96.8776 193.023 96.3731H192.944L193.023 97.7666V102.166H191.331V87.7138Z" fill="white"/>
<path d="M210.76 91.7149C210.733 91.2903 210.614 90.8657 210.402 90.4409C210.189 90.0163 209.854 89.658 209.397 89.3659C208.939 89.0741 208.364 88.9279 207.675 88.9279C206.878 88.9279 206.205 89.1836 205.654 89.6944C205.103 90.2053 204.741 90.8788 204.569 91.7149H210.76ZM205.226 97.4878C204.456 97.0235 203.856 96.383 203.424 95.5669C202.993 94.7507 202.778 93.8318 202.778 92.8098C202.778 91.8278 202.98 90.9255 203.385 90.1025C203.789 89.2797 204.363 88.6228 205.107 88.1317C205.85 87.6408 206.712 87.3952 207.694 87.3952C208.69 87.3952 209.552 87.6175 210.282 88.0621C211.012 88.5068 211.573 89.1205 211.964 89.9033C212.356 90.6866 212.552 91.5824 212.552 92.5908C212.552 92.7898 212.532 92.9625 212.492 93.1083H204.47C204.509 93.8782 204.695 94.5285 205.027 95.0593C205.359 95.5902 205.78 95.9883 206.291 96.2536C206.802 96.5192 207.336 96.6517 207.894 96.6517C209.194 96.6517 210.196 96.0415 210.899 94.8203L212.333 95.5171C211.895 96.3401 211.301 96.9901 210.551 97.468C209.801 97.9457 208.895 98.1846 207.834 98.1846C206.865 98.1846 205.996 97.9522 205.226 97.4878Z" fill="white"/>
<path d="M214.522 87.7138H216.135V89.3462H216.214C216.413 88.7888 216.798 88.3244 217.369 87.9527C217.939 87.5813 218.537 87.3953 219.161 87.3953C219.625 87.3953 220.023 87.4684 220.355 87.6143V89.4258C219.93 89.2136 219.452 89.1072 218.922 89.1072C218.431 89.1072 217.979 89.2469 217.568 89.5262C217.156 89.8056 216.828 90.1813 216.583 90.6535C216.337 91.1256 216.214 91.6345 216.214 92.1797V97.8662H214.522V87.7138Z" fill="white"/>
<path d="M227.262 97.1693C226.333 96.4924 225.696 95.5438 225.351 94.3227L226.964 93.6657C227.189 94.5152 227.607 95.2119 228.218 95.7559C228.828 96.3002 229.545 96.5721 230.368 96.5721C231.191 96.5721 231.887 96.35 232.458 95.9052C233.029 95.4608 233.314 94.8536 233.314 94.0837C233.314 93.4203 233.072 92.8729 232.587 92.4414C232.103 92.0103 231.31 91.6088 230.209 91.2371L229.313 90.9186C228.304 90.5603 227.481 90.0894 226.844 89.5052C226.207 88.9214 225.889 88.1118 225.889 87.0766C225.889 86.3998 226.074 85.7727 226.446 85.1954C226.818 84.6181 227.335 84.1571 227.999 83.8119C228.662 83.4669 229.405 83.2943 230.228 83.2943C231.051 83.2943 231.768 83.4471 232.378 83.7522C232.989 84.0576 233.476 84.429 233.842 84.867C234.206 85.3048 234.462 85.7363 234.608 86.1609L233.015 86.8378C232.883 86.3469 232.581 85.9021 232.11 85.504C231.638 85.1058 231.018 84.9067 230.248 84.9067C229.518 84.9067 228.895 85.1127 228.377 85.5238C227.86 85.9354 227.601 86.453 227.601 87.0766C227.601 87.634 227.82 88.0887 228.258 88.4402C228.696 88.792 229.359 89.1204 230.248 89.4256L231.184 89.7441C232.391 90.182 233.334 90.7295 234.011 91.3864C234.688 92.0433 235.026 92.936 235.026 94.0638C235.026 94.9795 234.79 95.7494 234.319 96.373C233.848 96.997 233.254 97.4548 232.538 97.7466C231.821 98.0384 231.085 98.1846 230.328 98.1846C229.213 98.1846 228.191 97.8462 227.262 97.1693Z" fill="white"/>
<path d="M239.435 97.982C239.084 97.8471 238.788 97.6645 238.55 97.4346C238.284 97.178 238.085 96.8806 237.952 96.5429C237.819 96.205 237.753 95.793 237.753 95.3064V89.2464H235.982V87.7137H237.753V84.8471H239.445V87.7137H241.914V89.2464H239.445V94.9028C239.445 95.4725 239.551 95.893 239.764 96.1643C240.016 96.463 240.381 96.6119 240.859 96.6119C241.243 96.6119 241.615 96.4993 241.973 96.2735V97.9257C241.774 98.0185 241.572 98.085 241.366 98.1248C241.16 98.1646 240.898 98.1846 240.58 98.1846C240.168 98.1846 239.787 98.1167 239.435 97.982Z" fill="white"/>
<path d="M244.85 97.1096C244.206 96.393 243.884 95.3911 243.884 94.1037V87.7137H245.576V93.8449C245.576 94.8138 245.795 95.5239 246.233 95.9749C246.671 96.4262 247.262 96.6517 248.005 96.6517C248.576 96.6517 249.083 96.4994 249.528 96.1939C249.972 95.8887 250.317 95.4906 250.563 94.9995C250.808 94.5087 250.931 93.9911 250.931 93.4468V87.7137H252.623V97.8661H251.011V96.393H250.931C250.653 96.8975 250.208 97.322 249.598 97.667C248.987 98.012 248.337 98.1846 247.647 98.1846C246.426 98.1846 245.493 97.8263 244.85 97.1096Z" fill="white"/>
<path d="M261.193 96.174C261.704 95.8555 262.116 95.4045 262.428 94.8203C262.739 94.2365 262.895 93.5597 262.895 92.7898C262.895 92.0203 262.739 91.3434 262.428 90.7593C262.116 90.1755 261.704 89.7241 261.193 89.4057C260.682 89.0872 260.128 88.9279 259.531 88.9279C258.947 88.9279 258.396 89.0872 257.879 89.4057C257.361 89.7241 256.946 90.1789 256.635 90.7693C256.323 91.3599 256.167 92.0334 256.167 92.7898C256.167 93.5463 256.323 94.22 256.635 94.8103C256.946 95.401 257.361 95.8555 257.879 96.174C258.396 96.4924 258.947 96.6517 259.531 96.6517C260.128 96.6517 260.682 96.4924 261.193 96.174ZM256.874 97.4878C256.137 97.0235 255.556 96.383 255.132 95.5668C254.707 94.7506 254.495 93.825 254.495 92.7898C254.495 91.768 254.707 90.8458 255.132 90.0228C255.556 89.2 256.137 88.5566 256.874 88.0918C257.61 87.6275 258.429 87.3951 259.332 87.3951C260.115 87.3951 260.812 87.5711 261.422 87.9226C262.033 88.2744 262.497 88.709 262.816 89.2265H262.895L262.816 87.8131V83.6128H264.508V97.8661H262.895V96.373H262.816C262.497 96.8775 262.033 97.3055 261.422 97.657C260.812 98.0084 260.115 98.1846 259.332 98.1846C258.429 98.1846 257.61 97.9522 256.874 97.4878Z" fill="white"/>
<path d="M274.362 91.7149C274.335 91.2903 274.215 90.8657 274.003 90.4409C273.791 90.0163 273.456 89.658 272.998 89.3659C272.54 89.0741 271.966 88.9279 271.276 88.9279C270.48 88.9279 269.806 89.1836 269.256 89.6944C268.705 90.2053 268.343 90.8788 268.171 91.7149H274.362ZM268.828 97.4878C268.058 97.0235 267.457 96.383 267.026 95.5669C266.595 94.7507 266.379 93.8318 266.379 92.8098C266.379 91.8278 266.581 90.9255 266.986 90.1025C267.391 89.2797 267.965 88.6228 268.708 88.1317C269.451 87.6408 270.314 87.3952 271.296 87.3952C272.291 87.3952 273.154 87.6175 273.884 88.0621C274.614 88.5068 275.174 89.1205 275.566 89.9033C275.957 90.6866 276.153 91.5824 276.153 92.5908C276.153 92.7898 276.133 92.9625 276.094 93.1083H268.071C268.111 93.8782 268.297 94.5285 268.628 95.0593C268.96 95.5902 269.381 95.9883 269.893 96.2536C270.403 96.5192 270.938 96.6517 271.495 96.6517C272.796 96.6517 273.797 96.0415 274.501 94.8203L275.934 95.5171C275.496 96.3401 274.902 96.9901 274.153 97.468C273.403 97.9457 272.497 98.1846 271.435 98.1846C270.466 98.1846 269.597 97.9522 268.828 97.4878Z" fill="white"/>
<path d="M278.124 87.7138H279.736V89.2068H279.816C280.095 88.7026 280.539 88.2746 281.15 87.9228C281.76 87.5713 282.41 87.3953 283.101 87.3953C284.321 87.3953 285.254 87.7505 285.897 88.4603C286.541 89.1704 286.863 90.1358 286.863 91.3567V97.8662H285.171V91.6155C285.171 90.6734 284.945 89.99 284.494 89.5651C284.043 89.1405 283.426 88.9281 282.643 88.9281C282.098 88.9281 281.611 89.0808 281.179 89.3859C280.748 89.6914 280.413 90.0927 280.174 90.5903C279.935 91.088 279.816 91.609 279.816 92.153V97.8662H278.124V87.7138Z" fill="white"/>
<path d="M291.551 97.982C291.199 97.8471 290.904 97.6645 290.665 97.4346C290.399 97.178 290.2 96.8806 290.068 96.5429C289.935 96.205 289.869 95.793 289.869 95.3064V89.2464H288.097V87.7137H289.869V84.8471H291.561V87.7137H294.029V89.2464H291.561V94.9028C291.561 95.4725 291.667 95.893 291.879 96.1643C292.131 96.463 292.496 96.6119 292.974 96.6119C293.359 96.6119 293.731 96.4993 294.089 96.2735V97.9257C293.89 98.0185 293.687 98.085 293.482 98.1248C293.276 98.1646 293.014 98.1846 292.695 98.1846C292.284 98.1846 291.902 98.1167 291.551 97.982Z" fill="white"/>
<path d="M303.565 97.2091C302.436 96.559 301.551 95.6664 300.907 94.5317C300.263 93.397 299.942 92.1329 299.942 90.7394C299.942 89.346 300.263 88.0819 300.907 86.9472C301.551 85.8126 302.436 84.9202 303.565 84.2698C304.692 83.6197 305.947 83.2943 307.327 83.2943C308.389 83.2943 309.36 83.4968 310.243 83.9015C311.126 84.3065 311.892 84.8803 312.543 85.6234L311.328 86.7979C310.784 86.1479 310.19 85.6701 309.547 85.3646C308.903 85.0595 308.163 84.9067 307.327 84.9067C306.292 84.9067 305.343 85.1491 304.48 85.6333C303.617 86.118 302.931 86.8013 302.42 87.6838C301.909 88.5665 301.654 89.5849 301.654 90.7394C301.654 91.894 301.909 92.9127 302.42 93.7951C302.931 94.6779 303.617 95.3613 304.48 95.8455C305.343 96.3301 306.292 96.5721 307.327 96.5721C309.052 96.5721 310.519 95.8623 311.726 94.4421L312.961 95.6365C312.297 96.4197 311.481 97.0399 310.512 97.4978C309.543 97.9557 308.482 98.1846 307.327 98.1846C305.947 98.1846 304.692 97.8595 303.565 97.2091Z" fill="white"/>
<path d="M314.852 83.613H316.544V97.8662H314.852V83.613Z" fill="white"/>
<path d="M319.938 97.1096C319.294 96.393 318.972 95.3911 318.972 94.1037V87.7137H320.665V93.8449C320.665 94.8138 320.884 95.5239 321.321 95.9749C321.759 96.4262 322.35 96.6517 323.093 96.6517C323.664 96.6517 324.171 96.4994 324.616 96.1939C325.06 95.8887 325.405 95.4906 325.651 94.9995C325.897 94.5087 326.019 93.9911 326.019 93.4468V87.7137H327.711V97.8661H326.099V96.393H326.019C325.741 96.8975 325.296 97.322 324.686 97.667C324.075 98.012 323.425 98.1846 322.735 98.1846C321.514 98.1846 320.582 97.8263 319.938 97.1096Z" fill="white"/>
<path d="M336.829 96.174C337.346 95.8555 337.761 95.401 338.073 94.8103C338.384 94.22 338.541 93.5463 338.541 92.7898C338.541 92.0334 338.384 91.3599 338.073 90.7693C337.761 90.1789 337.346 89.7241 336.829 89.4057C336.311 89.0872 335.76 88.9279 335.176 88.9279C334.592 88.9279 334.042 89.0872 333.524 89.4057C333.006 89.7241 332.595 90.1755 332.29 90.7593C331.984 91.3434 331.832 92.0203 331.832 92.7898C331.832 93.5597 331.984 94.2365 332.29 94.8203C332.595 95.4045 333.006 95.8555 333.524 96.174C334.042 96.4924 334.592 96.6517 335.176 96.6517C335.76 96.6517 336.311 96.4924 336.829 96.174ZM333.295 97.657C332.678 97.3055 332.217 96.8775 331.912 96.373H331.832V97.8661H330.219V83.6128H331.912V87.8131L331.832 89.2265H331.912C332.217 88.709 332.678 88.2744 333.295 87.9226C333.912 87.5711 334.606 87.3951 335.375 87.3951C336.278 87.3951 337.1 87.6275 337.844 88.0918C338.587 88.5566 339.171 89.2 339.596 90.0228C340.02 90.8458 340.233 91.768 340.233 92.7898C340.233 93.825 340.02 94.7506 339.596 95.5668C339.171 96.383 338.587 97.0235 337.844 97.4878C337.1 97.9522 336.278 98.1846 335.375 98.1846C334.606 98.1846 333.912 98.0084 333.295 97.657Z" fill="white"/>
<path d="M342.92 97.4181C342.19 96.9074 341.672 96.2536 341.367 95.4573L342.88 94.7805C343.132 95.391 343.507 95.8622 344.005 96.1939C344.503 96.5258 345.05 96.6915 345.647 96.6915C346.284 96.6915 346.828 96.5622 347.28 96.3033C347.731 96.0445 347.956 95.6763 347.956 95.1985C347.956 94.7739 347.777 94.4321 347.419 94.1733C347.061 93.9145 346.496 93.6924 345.727 93.5064L344.493 93.1879C343.683 92.9889 343.02 92.6505 342.502 92.1727C341.984 91.6949 341.726 91.0778 341.726 90.3214C341.726 89.7375 341.901 89.2234 342.253 88.7785C342.605 88.3341 343.072 87.9923 343.656 87.7534C344.24 87.5145 344.871 87.3951 345.548 87.3951C346.437 87.3951 347.23 87.5876 347.927 87.9724C348.623 88.3574 349.117 88.8949 349.41 89.5848L347.937 90.2616C347.485 89.3593 346.682 88.908 345.528 88.908C344.97 88.908 344.483 89.0374 344.065 89.2962C343.647 89.5549 343.438 89.8834 343.438 90.2815C343.438 90.6533 343.583 90.9553 343.875 91.1872C344.167 91.4197 344.605 91.6088 345.189 91.7547L346.662 92.1328C347.658 92.3851 348.407 92.7599 348.912 93.2577C349.416 93.7552 349.668 94.3624 349.668 95.0791C349.668 95.703 349.489 96.2504 349.131 96.7214C348.773 97.1926 348.288 97.5544 347.678 97.8063C347.067 98.0582 346.39 98.1846 345.647 98.1846C344.559 98.1846 343.65 97.9289 342.92 97.4181Z" fill="white"/>
<path d="M232.141 48.5455L210.396 35.9916C209.421 35.4284 208.356 35.1606 207.306 35.1606C205.166 35.1606 203.085 36.2715 201.938 38.258C200.228 41.2197 201.243 45.0064 204.204 46.716L225.949 59.2699C226.924 59.833 227.989 60.1006 229.039 60.1006C231.179 60.1006 233.26 58.9899 234.407 57.0036C236.117 54.0422 235.102 50.2551 232.141 48.5455Z" fill="white"/>
<path d="M275.503 35.9918L253.759 23.4375C252.784 22.8747 251.719 22.6069 250.669 22.6069C248.529 22.6069 246.448 23.7172 245.301 25.7038C243.591 28.6652 244.606 32.4519 247.567 34.1619L269.311 46.7162C270.286 47.2789 271.351 47.5469 272.401 47.5469C274.541 47.5469 276.622 46.4365 277.769 44.4499C279.479 41.4885 278.465 37.7018 275.503 35.9918Z" fill="white"/>
<path d="M268.45 48.2073L258.302 42.3479L247.567 48.5455C244.606 50.2551 243.591 54.0422 245.301 57.0035C246.448 58.9899 248.529 60.1006 250.669 60.1006C251.719 60.1006 252.784 59.833 253.759 59.2699L271.238 49.1785C270.261 49.032 269.314 48.7056 268.45 48.2073Z" fill="white"/>
<path d="M211.257 34.5006L221.406 40.3599L232.14 34.1621C235.102 32.4524 236.117 28.6654 234.407 25.704C232.697 22.7427 228.91 21.7276 225.949 23.4376L208.47 33.5291C209.447 33.6757 210.394 34.0023 211.257 34.5006Z" fill="white"/>
<path d="M53.6524 112.845H58.7924C59.5124 112.845 60.1858 113.011 60.8124 113.345C61.4524 113.678 61.9591 114.138 62.3324 114.725C62.7058 115.311 62.8924 115.971 62.8924 116.705C62.8924 117.398 62.7124 118.005 62.3524 118.525C62.0058 119.045 61.5324 119.445 60.9324 119.725V119.805C61.6524 120.045 62.2391 120.458 62.6924 121.045C63.1458 121.631 63.3724 122.318 63.3724 123.105C63.3724 123.878 63.1724 124.578 62.7724 125.205C62.3858 125.818 61.8591 126.298 61.1924 126.645C60.5391 126.991 59.8324 127.165 59.0724 127.165H53.6524V112.845ZM58.7924 119.045C59.2724 119.045 59.6924 118.931 60.0524 118.705C60.4258 118.478 60.7124 118.191 60.9124 117.845C61.1124 117.485 61.2124 117.118 61.2124 116.745C61.2124 116.385 61.1124 116.031 60.9124 115.685C60.7258 115.325 60.4524 115.031 60.0924 114.805C59.7458 114.578 59.3391 114.465 58.8724 114.465H55.3324V119.045H58.7924ZM59.1724 125.545C59.6524 125.545 60.0791 125.425 60.4524 125.185C60.8391 124.945 61.1324 124.638 61.3324 124.265C61.5458 123.878 61.6524 123.485 61.6524 123.085C61.6524 122.685 61.5458 122.298 61.3324 121.925C61.1191 121.538 60.8191 121.231 60.4324 121.005C60.0458 120.765 59.5991 120.645 59.0924 120.645H55.3324V125.545H59.1724ZM68.7013 127.485C67.9547 127.485 67.288 127.338 66.7013 127.045C66.1147 126.751 65.6613 126.351 65.3413 125.845C65.0213 125.325 64.8613 124.738 64.8613 124.085C64.8613 123.005 65.268 122.165 66.0813 121.565C66.8947 120.951 67.9213 120.645 69.1613 120.645C69.7747 120.645 70.3413 120.711 70.8613 120.845C71.3947 120.978 71.8013 121.131 72.0813 121.305V120.685C72.0813 119.925 71.8147 119.318 71.2813 118.865C70.748 118.398 70.0747 118.165 69.2613 118.165C68.688 118.165 68.1613 118.291 67.6813 118.545C67.2013 118.785 66.8213 119.125 66.5413 119.565L65.2613 118.605C65.6613 117.991 66.208 117.511 66.9013 117.165C67.608 116.818 68.388 116.645 69.2413 116.645C70.628 116.645 71.7147 117.011 72.5013 117.745C73.3013 118.465 73.7013 119.451 73.7013 120.705V127.165H72.0813V125.705H72.0013C71.708 126.198 71.268 126.618 70.6813 126.965C70.0947 127.311 69.4347 127.485 68.7013 127.485ZM68.8613 125.985C69.4347 125.985 69.968 125.838 70.4613 125.545C70.9547 125.251 71.348 124.858 71.6413 124.365C71.9347 123.871 72.0813 123.331 72.0813 122.745C71.7613 122.531 71.368 122.358 70.9013 122.225C70.4347 122.091 69.9413 122.025 69.4213 122.025C68.488 122.025 67.7813 122.218 67.3013 122.605C66.8347 122.991 66.6013 123.491 66.6013 124.105C66.6013 124.665 66.8147 125.118 67.2413 125.465C67.668 125.811 68.208 125.985 68.8613 125.985ZM76.0663 116.965H77.6863V118.465H77.7663C78.0463 117.958 78.493 117.531 79.1063 117.185C79.7197 116.825 80.373 116.645 81.0663 116.645C82.293 116.645 83.2263 117.005 83.8663 117.725C84.5197 118.431 84.8463 119.398 84.8463 120.625V127.165H83.1463V120.885C83.1463 119.938 82.9197 119.251 82.4663 118.825C82.013 118.398 81.393 118.185 80.6063 118.185C80.0597 118.185 79.5663 118.338 79.1263 118.645C78.6997 118.951 78.3663 119.358 78.1263 119.865C77.8863 120.358 77.7663 120.878 77.7663 121.425V127.165H76.0663V116.965ZM90.7396 127.485C89.6463 127.485 88.733 127.231 87.9996 126.725C87.2663 126.205 86.7463 125.545 86.4396 124.745L87.9596 124.065C88.213 124.678 88.5863 125.151 89.0796 125.485C89.5863 125.818 90.1396 125.985 90.7396 125.985C91.3796 125.985 91.9263 125.858 92.3796 125.605C92.833 125.338 93.0596 124.965 93.0596 124.485C93.0596 124.058 92.8796 123.718 92.5196 123.465C92.1596 123.198 91.593 122.971 90.8196 122.785L89.5796 122.465C88.7663 122.265 88.0996 121.925 87.5796 121.445C87.0596 120.965 86.7996 120.345 86.7996 119.585C86.7996 118.998 86.973 118.485 87.3196 118.045C87.6796 117.591 88.153 117.245 88.7396 117.005C89.3263 116.765 89.9596 116.645 90.6396 116.645C91.533 116.645 92.3263 116.838 93.0196 117.225C93.7263 117.611 94.2263 118.151 94.5196 118.845L93.0396 119.525C92.5863 118.618 91.7796 118.165 90.6196 118.165C90.0596 118.165 89.5663 118.298 89.1396 118.565C88.7263 118.818 88.5196 119.145 88.5196 119.545C88.5196 119.918 88.6663 120.225 88.9596 120.465C89.253 120.691 89.693 120.878 90.2796 121.025L91.7596 121.405C92.7596 121.658 93.513 122.038 94.0196 122.545C94.5263 123.038 94.7796 123.645 94.7796 124.365C94.7796 124.991 94.5996 125.545 94.2396 126.025C93.8796 126.491 93.393 126.851 92.7796 127.105C92.1663 127.358 91.4863 127.485 90.7396 127.485ZM99.9904 127.485C99.2437 127.485 98.5771 127.338 97.9904 127.045C97.4037 126.751 96.9504 126.351 96.6304 125.845C96.3104 125.325 96.1504 124.738 96.1504 124.085C96.1504 123.005 96.5571 122.165 97.3704 121.565C98.1837 120.951 99.2104 120.645 100.45 120.645C101.064 120.645 101.63 120.711 102.15 120.845C102.684 120.978 103.09 121.131 103.37 121.305V120.685C103.37 119.925 103.104 119.318 102.57 118.865C102.037 118.398 101.364 118.165 100.55 118.165C99.9771 118.165 99.4504 118.291 98.9704 118.545C98.4904 118.785 98.1104 119.125 97.8304 119.565L96.5504 118.605C96.9504 117.991 97.4971 117.511 98.1904 117.165C98.8971 116.818 99.6771 116.645 100.53 116.645C101.917 116.645 103.004 117.011 103.79 117.745C104.59 118.465 104.99 119.451 104.99 120.705V127.165H103.37V125.705H103.29C102.997 126.198 102.557 126.618 101.97 126.965C101.384 127.311 100.724 127.485 99.9904 127.485ZM100.15 125.985C100.724 125.985 101.257 125.838 101.75 125.545C102.244 125.251 102.637 124.858 102.93 124.365C103.224 123.871 103.37 123.331 103.37 122.745C103.05 122.531 102.657 122.358 102.19 122.225C101.724 122.091 101.23 122.025 100.71 122.025C99.7771 122.025 99.0704 122.218 98.5904 122.605C98.1237 122.991 97.8904 123.491 97.8904 124.105C97.8904 124.665 98.1037 125.118 98.5304 125.465C98.9571 125.811 99.4971 125.985 100.15 125.985ZM107.355 112.845H109.055V127.165H107.355V112.845ZM116.563 112.845H118.243V127.165H116.563V112.845ZM121.105 116.965H122.725V118.465H122.805C123.085 117.958 123.532 117.531 124.145 117.185C124.759 116.825 125.412 116.645 126.105 116.645C127.332 116.645 128.265 117.005 128.905 117.725C129.559 118.431 129.885 119.398 129.885 120.625V127.165H128.185V120.885C128.185 119.938 127.959 119.251 127.505 118.825C127.052 118.398 126.432 118.185 125.645 118.185C125.099 118.185 124.605 118.338 124.165 118.645C123.739 118.951 123.405 119.358 123.165 119.865C122.925 120.358 122.805 120.878 122.805 121.425V127.165H121.105V116.965ZM135.779 127.485C134.685 127.485 133.772 127.231 133.039 126.725C132.305 126.205 131.785 125.545 131.479 124.745L132.999 124.065C133.252 124.678 133.625 125.151 134.119 125.485C134.625 125.818 135.179 125.985 135.779 125.985C136.419 125.985 136.965 125.858 137.419 125.605C137.872 125.338 138.099 124.965 138.099 124.485C138.099 124.058 137.919 123.718 137.559 123.465C137.199 123.198 136.632 122.971 135.859 122.785L134.619 122.465C133.805 122.265 133.139 121.925 132.619 121.445C132.099 120.965 131.839 120.345 131.839 119.585C131.839 118.998 132.012 118.485 132.359 118.045C132.719 117.591 133.192 117.245 133.779 117.005C134.365 116.765 134.999 116.645 135.679 116.645C136.572 116.645 137.365 116.838 138.059 117.225C138.765 117.611 139.265 118.151 139.559 118.845L138.079 119.525C137.625 118.618 136.819 118.165 135.659 118.165C135.099 118.165 134.605 118.298 134.179 118.565C133.765 118.818 133.559 119.145 133.559 119.545C133.559 119.918 133.705 120.225 133.999 120.465C134.292 120.691 134.732 120.878 135.319 121.025L136.799 121.405C137.799 121.658 138.552 122.038 139.059 122.545C139.565 123.038 139.819 123.645 139.819 124.365C139.819 124.991 139.639 125.545 139.279 126.025C138.919 126.491 138.432 126.851 137.819 127.105C137.205 127.358 136.525 127.485 135.779 127.485ZM145.494 127.325C145.081 127.325 144.694 127.258 144.334 127.125C143.987 126.991 143.694 126.811 143.454 126.585C143.187 126.331 142.987 126.038 142.854 125.705C142.721 125.371 142.654 124.965 142.654 124.485V118.505H140.874V116.965H142.654V114.085H144.354V116.965H146.834V118.505H144.354V124.065C144.354 124.625 144.461 125.038 144.674 125.305C144.927 125.598 145.294 125.745 145.774 125.745C146.161 125.745 146.534 125.631 146.894 125.405V127.065C146.694 127.158 146.487 127.225 146.274 127.265C146.074 127.305 145.814 127.325 145.494 127.325ZM149.996 115.085C149.663 115.085 149.376 114.965 149.136 114.725C148.896 114.485 148.776 114.198 148.776 113.865C148.776 113.531 148.896 113.251 149.136 113.025C149.376 112.785 149.663 112.665 149.996 112.665C150.329 112.665 150.616 112.785 150.856 113.025C151.096 113.251 151.216 113.531 151.216 113.865C151.216 114.198 151.096 114.485 150.856 114.725C150.629 114.965 150.343 115.085 149.996 115.085ZM149.156 116.965H150.836V127.165H149.156V116.965ZM157.33 127.325C156.917 127.325 156.53 127.258 156.17 127.125C155.823 126.991 155.53 126.811 155.29 126.585C155.023 126.331 154.823 126.038 154.69 125.705C154.557 125.371 154.49 124.965 154.49 124.485V118.505H152.71V116.965H154.49V114.085H156.19V116.965H158.67V118.505H156.19V124.065C156.19 124.625 156.297 125.038 156.51 125.305C156.763 125.598 157.13 125.745 157.61 125.745C157.997 125.745 158.37 125.631 158.73 125.405V127.065C158.53 127.158 158.323 127.225 158.11 127.265C157.91 127.305 157.65 127.325 157.33 127.325ZM164.434 127.485C163.208 127.485 162.268 127.125 161.614 126.405C160.974 125.685 160.654 124.678 160.654 123.385V116.965H162.354V123.125C162.354 124.098 162.574 124.811 163.014 125.265C163.454 125.718 164.048 125.945 164.794 125.945C165.368 125.945 165.874 125.791 166.314 125.485C166.768 125.178 167.114 124.778 167.354 124.285C167.608 123.791 167.734 123.271 167.734 122.725V116.965H169.434V127.165H167.814V125.685H167.734C167.454 126.191 167.008 126.618 166.394 126.965C165.781 127.311 165.128 127.485 164.434 127.485ZM175.963 127.325C175.55 127.325 175.163 127.258 174.803 127.125C174.456 126.991 174.163 126.811 173.923 126.585C173.656 126.331 173.456 126.038 173.323 125.705C173.19 125.371 173.123 124.965 173.123 124.485V118.505H171.343V116.965H173.123V114.085H174.823V116.965H177.303V118.505H174.823V124.065C174.823 124.625 174.93 125.038 175.143 125.305C175.396 125.598 175.763 125.745 176.243 125.745C176.63 125.745 177.003 125.631 177.363 125.405V127.065C177.163 127.158 176.956 127.225 176.743 127.265C176.543 127.305 176.283 127.325 175.963 127.325ZM183.458 127.485C182.485 127.485 181.611 127.251 180.838 126.785C180.065 126.318 179.458 125.678 179.018 124.865C178.591 124.038 178.378 123.111 178.378 122.085C178.378 121.098 178.578 120.191 178.978 119.365C179.391 118.538 179.971 117.878 180.718 117.385C181.465 116.891 182.331 116.645 183.318 116.645C184.318 116.645 185.185 116.871 185.918 117.325C186.651 117.765 187.211 118.378 187.598 119.165C187.998 119.951 188.198 120.851 188.198 121.865C188.198 122.065 188.178 122.238 188.138 122.385H180.078C180.118 123.158 180.305 123.811 180.638 124.345C180.971 124.878 181.391 125.278 181.898 125.545C182.418 125.811 182.958 125.945 183.518 125.945C184.825 125.945 185.831 125.331 186.538 124.105L187.978 124.805C187.538 125.631 186.938 126.285 186.178 126.765C185.431 127.245 184.525 127.485 183.458 127.485ZM186.398 120.985C186.371 120.558 186.251 120.131 186.038 119.705C185.825 119.278 185.485 118.918 185.018 118.625C184.565 118.331 183.991 118.185 183.298 118.185C182.498 118.185 181.818 118.445 181.258 118.965C180.711 119.471 180.351 120.145 180.178 120.985H186.398ZM199.536 127.485C198.536 127.485 197.636 127.245 196.836 126.765C196.036 126.285 195.409 125.631 194.956 124.805C194.516 123.978 194.296 123.065 194.296 122.065C194.296 121.065 194.516 120.151 194.956 119.325C195.409 118.498 196.036 117.845 196.836 117.365C197.636 116.885 198.536 116.645 199.536 116.645C200.536 116.645 201.436 116.885 202.236 117.365C203.036 117.845 203.656 118.498 204.096 119.325C204.549 120.151 204.776 121.065 204.776 122.065C204.776 123.065 204.549 123.978 204.096 124.805C203.656 125.631 203.036 126.285 202.236 126.765C201.436 127.245 200.536 127.485 199.536 127.485ZM199.536 125.945C200.163 125.945 200.743 125.791 201.276 125.485C201.823 125.165 202.256 124.711 202.576 124.125C202.909 123.538 203.076 122.851 203.076 122.065C203.076 121.278 202.909 120.591 202.576 120.005C202.256 119.418 201.823 118.971 201.276 118.665C200.743 118.345 200.163 118.185 199.536 118.185C198.909 118.185 198.323 118.345 197.776 118.665C197.229 118.971 196.789 119.418 196.456 120.005C196.136 120.591 195.976 121.278 195.976 122.065C195.976 122.851 196.136 123.538 196.456 124.125C196.789 124.711 197.229 125.165 197.776 125.485C198.323 125.791 198.909 125.945 199.536 125.945ZM207.637 118.505H205.757V116.965H207.637V115.865C207.637 115.225 207.784 114.665 208.077 114.185C208.37 113.705 208.764 113.338 209.257 113.085C209.75 112.818 210.297 112.685 210.897 112.685C211.47 112.685 211.97 112.765 212.397 112.925V114.585C212.157 114.491 211.93 114.418 211.717 114.365C211.504 114.298 211.25 114.265 210.957 114.265C210.517 114.265 210.137 114.425 209.817 114.745C209.497 115.051 209.337 115.485 209.337 116.045V116.965H211.957V118.505H209.337V127.165H207.637V118.505ZM222.418 127.485C221.298 127.485 220.271 127.145 219.338 126.465C218.405 125.785 217.765 124.831 217.418 123.605L219.038 122.945C219.265 123.798 219.685 124.498 220.298 125.045C220.911 125.591 221.631 125.865 222.458 125.865C223.285 125.865 223.985 125.645 224.558 125.205C225.131 124.751 225.418 124.138 225.418 123.365C225.418 122.698 225.171 122.151 224.678 121.725C224.198 121.285 223.405 120.878 222.298 120.505L221.398 120.185C220.385 119.825 219.558 119.351 218.918 118.765C218.278 118.178 217.958 117.365 217.958 116.325C217.958 115.645 218.145 115.018 218.518 114.445C218.891 113.858 219.411 113.391 220.078 113.045C220.745 112.698 221.491 112.525 222.318 112.525C223.145 112.525 223.865 112.678 224.478 112.985C225.091 113.291 225.578 113.665 225.938 114.105C226.311 114.545 226.571 114.978 226.718 115.405L225.118 116.085C224.985 115.591 224.678 115.145 224.198 114.745C223.731 114.345 223.111 114.145 222.338 114.145C221.605 114.145 220.978 114.351 220.458 114.765C219.938 115.178 219.678 115.698 219.678 116.325C219.678 116.885 219.898 117.345 220.338 117.705C220.778 118.051 221.445 118.378 222.338 118.685L223.278 119.005C224.491 119.445 225.438 119.998 226.118 120.665C226.798 121.318 227.138 122.211 227.138 123.345C227.138 124.265 226.898 125.038 226.418 125.665C225.951 126.291 225.358 126.751 224.638 127.045C223.918 127.338 223.178 127.485 222.418 127.485ZM233.909 127.485C232.922 127.485 232.036 127.251 231.249 126.785C230.462 126.305 229.849 125.658 229.409 124.845C228.969 124.018 228.749 123.091 228.749 122.065C228.749 121.038 228.969 120.111 229.409 119.285C229.849 118.458 230.462 117.811 231.249 117.345C232.036 116.878 232.922 116.645 233.909 116.645C235.016 116.645 235.942 116.905 236.689 117.425C237.449 117.931 237.989 118.611 238.309 119.465L236.769 120.105C236.516 119.478 236.136 119.005 235.629 118.685C235.136 118.351 234.536 118.185 233.829 118.185C233.229 118.185 232.669 118.351 232.149 118.685C231.629 119.005 231.209 119.458 230.889 120.045C230.582 120.631 230.429 121.305 230.429 122.065C230.429 122.825 230.582 123.498 230.889 124.085C231.209 124.671 231.629 125.131 232.149 125.465C232.669 125.785 233.229 125.945 233.829 125.945C234.549 125.945 235.169 125.778 235.689 125.445C236.209 125.111 236.596 124.638 236.849 124.025L238.369 124.665C238.022 125.505 237.462 126.185 236.689 126.705C235.929 127.225 235.002 127.485 233.909 127.485ZM241.207 115.085C240.874 115.085 240.587 114.965 240.347 114.725C240.107 114.485 239.987 114.198 239.987 113.865C239.987 113.531 240.107 113.251 240.347 113.025C240.587 112.785 240.874 112.665 241.207 112.665C241.54 112.665 241.827 112.785 242.067 113.025C242.307 113.251 242.427 113.531 242.427 113.865C242.427 114.198 242.307 114.485 242.067 114.725C241.84 114.965 241.554 115.085 241.207 115.085ZM240.367 116.965H242.047V127.165H240.367V116.965ZM249.161 127.485C248.188 127.485 247.314 127.251 246.541 126.785C245.768 126.318 245.161 125.678 244.721 124.865C244.294 124.038 244.081 123.111 244.081 122.085C244.081 121.098 244.281 120.191 244.681 119.365C245.094 118.538 245.674 117.878 246.421 117.385C247.168 116.891 248.034 116.645 249.021 116.645C250.021 116.645 250.888 116.871 251.621 117.325C252.354 117.765 252.914 118.378 253.301 119.165C253.701 119.951 253.901 120.851 253.901 121.865C253.901 122.065 253.881 122.238 253.841 122.385H245.781C245.821 123.158 246.008 123.811 246.341 124.345C246.674 124.878 247.094 125.278 247.601 125.545C248.121 125.811 248.661 125.945 249.221 125.945C250.528 125.945 251.534 125.331 252.241 124.105L253.681 124.805C253.241 125.631 252.641 126.285 251.881 126.765C251.134 127.245 250.228 127.485 249.161 127.485ZM252.101 120.985C252.074 120.558 251.954 120.131 251.741 119.705C251.528 119.278 251.188 118.918 250.721 118.625C250.268 118.331 249.694 118.185 249.001 118.185C248.201 118.185 247.521 118.445 246.961 118.965C246.414 119.471 246.054 120.145 245.881 120.985H252.101ZM255.891 116.965H257.511V118.465H257.591C257.871 117.958 258.317 117.531 258.931 117.185C259.544 116.825 260.197 116.645 260.891 116.645C262.117 116.645 263.051 117.005 263.691 117.725C264.344 118.431 264.671 119.398 264.671 120.625V127.165H262.971V120.885C262.971 119.938 262.744 119.251 262.291 118.825C261.837 118.398 261.217 118.185 260.431 118.185C259.884 118.185 259.391 118.338 258.951 118.645C258.524 118.951 258.191 119.358 257.951 119.865C257.711 120.358 257.591 120.878 257.591 121.425V127.165H255.891V116.965ZM271.721 127.485C270.735 127.485 269.848 127.251 269.061 126.785C268.275 126.305 267.661 125.658 267.221 124.845C266.781 124.018 266.561 123.091 266.561 122.065C266.561 121.038 266.781 120.111 267.221 119.285C267.661 118.458 268.275 117.811 269.061 117.345C269.848 116.878 270.735 116.645 271.721 116.645C272.828 116.645 273.755 116.905 274.501 117.425C275.261 117.931 275.801 118.611 276.121 119.465L274.581 120.105C274.328 119.478 273.948 119.005 273.441 118.685C272.948 118.351 272.348 118.185 271.641 118.185C271.041 118.185 270.481 118.351 269.961 118.685C269.441 119.005 269.021 119.458 268.701 120.045C268.395 120.631 268.241 121.305 268.241 122.065C268.241 122.825 268.395 123.498 268.701 124.085C269.021 124.671 269.441 125.131 269.961 125.465C270.481 125.785 271.041 125.945 271.641 125.945C272.361 125.945 272.981 125.778 273.501 125.445C274.021 125.111 274.408 124.638 274.661 124.025L276.181 124.665C275.835 125.505 275.275 126.185 274.501 126.705C273.741 127.225 272.815 127.485 271.721 127.485ZM282.462 127.485C281.488 127.485 280.615 127.251 279.842 126.785C279.068 126.318 278.462 125.678 278.022 124.865C277.595 124.038 277.382 123.111 277.382 122.085C277.382 121.098 277.582 120.191 277.982 119.365C278.395 118.538 278.975 117.878 279.722 117.385C280.468 116.891 281.335 116.645 282.322 116.645C283.322 116.645 284.188 116.871 284.922 117.325C285.655 117.765 286.215 118.378 286.602 119.165C287.002 119.951 287.202 120.851 287.202 121.865C287.202 122.065 287.182 122.238 287.142 122.385H279.082C279.122 123.158 279.308 123.811 279.642 124.345C279.975 124.878 280.395 125.278 280.902 125.545C281.422 125.811 281.962 125.945 282.522 125.945C283.828 125.945 284.835 125.331 285.542 124.105L286.982 124.805C286.542 125.631 285.942 126.285 285.182 126.765C284.435 127.245 283.528 127.485 282.462 127.485ZM285.402 120.985C285.375 120.558 285.255 120.131 285.042 119.705C284.828 119.278 284.488 118.918 284.022 118.625C283.568 118.331 282.995 118.185 282.302 118.185C281.502 118.185 280.822 118.445 280.262 118.965C279.715 119.471 279.355 120.145 279.182 120.985H285.402ZM297.1 127.485C296.353 127.485 295.686 127.338 295.1 127.045C294.513 126.751 294.06 126.351 293.74 125.845C293.42 125.325 293.26 124.738 293.26 124.085C293.26 123.005 293.666 122.165 294.48 121.565C295.293 120.951 296.32 120.645 297.56 120.645C298.173 120.645 298.74 120.711 299.26 120.845C299.793 120.978 300.2 121.131 300.48 121.305V120.685C300.48 119.925 300.213 119.318 299.68 118.865C299.146 118.398 298.473 118.165 297.66 118.165C297.086 118.165 296.56 118.291 296.08 118.545C295.6 118.785 295.22 119.125 294.94 119.565L293.66 118.605C294.06 117.991 294.606 117.511 295.3 117.165C296.006 116.818 296.786 116.645 297.64 116.645C299.026 116.645 300.113 117.011 300.9 117.745C301.7 118.465 302.1 119.451 302.1 120.705V127.165H300.48V125.705H300.4C300.106 126.198 299.666 126.618 299.08 126.965C298.493 127.311 297.833 127.485 297.1 127.485ZM297.26 125.985C297.833 125.985 298.366 125.838 298.86 125.545C299.353 125.251 299.746 124.858 300.04 124.365C300.333 123.871 300.48 123.331 300.48 122.745C300.16 122.531 299.766 122.358 299.3 122.225C298.833 122.091 298.34 122.025 297.82 122.025C296.886 122.025 296.18 122.218 295.7 122.605C295.233 122.991 295 123.491 295 124.105C295 124.665 295.213 125.118 295.64 125.465C296.066 125.811 296.606 125.985 297.26 125.985ZM304.465 116.965H306.085V118.465H306.165C306.445 117.958 306.891 117.531 307.505 117.185C308.118 116.825 308.771 116.645 309.465 116.645C310.691 116.645 311.625 117.005 312.265 117.725C312.918 118.431 313.245 119.398 313.245 120.625V127.165H311.545V120.885C311.545 119.938 311.318 119.251 310.865 118.825C310.411 118.398 309.791 118.185 309.005 118.185C308.458 118.185 307.965 118.338 307.525 118.645C307.098 118.951 306.765 119.358 306.525 119.865C306.285 120.358 306.165 120.878 306.165 121.425V127.165H304.465V116.965ZM319.996 127.485C319.089 127.485 318.262 127.251 317.516 126.785C316.782 126.318 316.202 125.678 315.776 124.865C315.349 124.038 315.136 123.105 315.136 122.065C315.136 121.038 315.349 120.111 315.776 119.285C316.202 118.458 316.782 117.811 317.516 117.345C318.262 116.878 319.089 116.645 319.996 116.645C320.782 116.645 321.482 116.825 322.096 117.185C322.709 117.531 323.176 117.965 323.496 118.485H323.576L323.496 117.065V112.845H325.196V127.165H323.576V125.665H323.496C323.176 126.171 322.709 126.605 322.096 126.965C321.482 127.311 320.782 127.485 319.996 127.485ZM320.196 125.945C320.796 125.945 321.349 125.785 321.856 125.465C322.376 125.145 322.789 124.691 323.096 124.105C323.416 123.518 323.576 122.838 323.576 122.065C323.576 121.291 323.416 120.611 323.096 120.025C322.789 119.438 322.376 118.985 321.856 118.665C321.349 118.345 320.796 118.185 320.196 118.185C319.609 118.185 319.056 118.345 318.536 118.665C318.016 118.985 317.596 119.445 317.276 120.045C316.969 120.631 316.816 121.305 316.816 122.065C316.816 122.825 316.969 123.505 317.276 124.105C317.596 124.691 318.016 125.145 318.536 125.465C319.056 125.785 319.609 125.945 320.196 125.945ZM334.835 114.465H330.815V112.845H340.535V114.465H336.535V127.165H334.835V114.465ZM345.274 127.485C344.301 127.485 343.428 127.251 342.654 126.785C341.881 126.318 341.274 125.678 340.834 124.865C340.408 124.038 340.194 123.111 340.194 122.085C340.194 121.098 340.394 120.191 340.794 119.365C341.208 118.538 341.788 117.878 342.534 117.385C343.281 116.891 344.148 116.645 345.134 116.645C346.134 116.645 347.001 116.871 347.734 117.325C348.468 117.765 349.028 118.378 349.414 119.165C349.814 119.951 350.014 120.851 350.014 121.865C350.014 122.065 349.994 122.238 349.954 122.385H341.894C341.934 123.158 342.121 123.811 342.454 124.345C342.788 124.878 343.208 125.278 343.714 125.545C344.234 125.811 344.774 125.945 345.334 125.945C346.641 125.945 347.648 125.331 348.354 124.105L349.794 124.805C349.354 125.631 348.754 126.285 347.994 126.765C347.248 127.245 346.341 127.485 345.274 127.485ZM348.214 120.985C348.188 120.558 348.068 120.131 347.854 119.705C347.641 119.278 347.301 118.918 346.834 118.625C346.381 118.331 345.808 118.185 345.114 118.185C344.314 118.185 343.634 118.445 343.074 118.965C342.528 119.471 342.168 120.145 341.994 120.985H348.214ZM356.721 127.485C355.735 127.485 354.848 127.251 354.061 126.785C353.275 126.305 352.661 125.658 352.221 124.845C351.781 124.018 351.561 123.091 351.561 122.065C351.561 121.038 351.781 120.111 352.221 119.285C352.661 118.458 353.275 117.811 354.061 117.345C354.848 116.878 355.735 116.645 356.721 116.645C357.828 116.645 358.755 116.905 359.501 117.425C360.261 117.931 360.801 118.611 361.121 119.465L359.581 120.105C359.328 119.478 358.948 119.005 358.441 118.685C357.948 118.351 357.348 118.185 356.641 118.185C356.041 118.185 355.481 118.351 354.961 118.685C354.441 119.005 354.021 119.458 353.701 120.045C353.395 120.631 353.241 121.305 353.241 122.065C353.241 122.825 353.395 123.498 353.701 124.085C354.021 124.671 354.441 125.131 354.961 125.465C355.481 125.785 356.041 125.945 356.641 125.945C357.361 125.945 357.981 125.778 358.501 125.445C359.021 125.111 359.408 124.638 359.661 124.025L361.181 124.665C360.835 125.505 360.275 126.185 359.501 126.705C358.741 127.225 357.815 127.485 356.721 127.485ZM363.019 112.845H364.719V117.065L364.639 118.465H364.719C364.999 117.945 365.439 117.511 366.039 117.165C366.653 116.818 367.319 116.645 368.039 116.645C369.279 116.645 370.226 117.011 370.879 117.745C371.533 118.465 371.859 119.425 371.859 120.625V127.165H370.159V120.885C370.159 119.965 369.926 119.285 369.459 118.845C368.993 118.405 368.386 118.185 367.639 118.185C367.106 118.185 366.613 118.345 366.159 118.665C365.719 118.985 365.366 119.398 365.099 119.905C364.846 120.411 364.719 120.938 364.719 121.485V127.165H363.019V112.845ZM374.309 116.965H375.929V118.465H376.009C376.289 117.958 376.735 117.531 377.349 117.185C377.962 116.825 378.615 116.645 379.309 116.645C380.535 116.645 381.469 117.005 382.109 117.725C382.762 118.431 383.089 119.398 383.089 120.625V127.165H381.389V120.885C381.389 119.938 381.162 119.251 380.709 118.825C380.255 118.398 379.635 118.185 378.849 118.185C378.302 118.185 377.809 118.338 377.369 118.645C376.942 118.951 376.609 119.358 376.369 119.865C376.129 120.358 376.009 120.878 376.009 121.425V127.165H374.309V116.965ZM390.219 127.485C389.219 127.485 388.319 127.245 387.519 126.765C386.719 126.285 386.093 125.631 385.639 124.805C385.199 123.978 384.979 123.065 384.979 122.065C384.979 121.065 385.199 120.151 385.639 119.325C386.093 118.498 386.719 117.845 387.519 117.365C388.319 116.885 389.219 116.645 390.219 116.645C391.219 116.645 392.119 116.885 392.919 117.365C393.719 117.845 394.339 118.498 394.779 119.325C395.233 120.151 395.459 121.065 395.459 122.065C395.459 123.065 395.233 123.978 394.779 124.805C394.339 125.631 393.719 126.285 392.919 126.765C392.119 127.245 391.219 127.485 390.219 127.485ZM390.219 125.945C390.846 125.945 391.426 125.791 391.959 125.485C392.506 125.165 392.939 124.711 393.259 124.125C393.593 123.538 393.759 122.851 393.759 122.065C393.759 121.278 393.593 120.591 393.259 120.005C392.939 119.418 392.506 118.971 391.959 118.665C391.426 118.345 390.846 118.185 390.219 118.185C389.593 118.185 389.006 118.345 388.459 118.665C387.913 118.971 387.473 119.418 387.139 120.005C386.819 120.591 386.659 121.278 386.659 122.065C386.659 122.851 386.819 123.538 387.139 124.125C387.473 124.711 387.913 125.165 388.459 125.485C389.006 125.791 389.593 125.945 390.219 125.945ZM397.336 112.845H399.036V127.165H397.336V112.845ZM406.157 127.485C405.157 127.485 404.257 127.245 403.457 126.765C402.657 126.285 402.03 125.631 401.577 124.805C401.137 123.978 400.917 123.065 400.917 122.065C400.917 121.065 401.137 120.151 401.577 119.325C402.03 118.498 402.657 117.845 403.457 117.365C404.257 116.885 405.157 116.645 406.157 116.645C407.157 116.645 408.057 116.885 408.857 117.365C409.657 117.845 410.277 118.498 410.717 119.325C411.17 120.151 411.397 121.065 411.397 122.065C411.397 123.065 411.17 123.978 410.717 124.805C410.277 125.631 409.657 126.285 408.857 126.765C408.057 127.245 407.157 127.485 406.157 127.485ZM406.157 125.945C406.784 125.945 407.364 125.791 407.897 125.485C408.444 125.165 408.877 124.711 409.197 124.125C409.53 123.538 409.697 122.851 409.697 122.065C409.697 121.278 409.53 120.591 409.197 120.005C408.877 119.418 408.444 118.971 407.897 118.665C407.364 118.345 406.784 118.185 406.157 118.185C405.53 118.185 404.944 118.345 404.397 118.665C403.85 118.971 403.41 119.418 403.077 120.005C402.757 120.591 402.597 121.278 402.597 122.065C402.597 122.851 402.757 123.538 403.077 124.125C403.41 124.711 403.85 125.165 404.397 125.485C404.944 125.791 405.53 125.945 406.157 125.945ZM417.851 131.805C416.651 131.805 415.658 131.525 414.871 130.965C414.098 130.405 413.578 129.731 413.311 128.945L414.851 128.285C415.078 128.871 415.451 129.345 415.971 129.705C416.504 130.078 417.131 130.265 417.851 130.265C418.904 130.265 419.718 129.958 420.291 129.345C420.878 128.731 421.171 127.865 421.171 126.745V125.605H421.091C420.758 126.125 420.284 126.551 419.671 126.885C419.071 127.205 418.384 127.365 417.611 127.365C416.731 127.365 415.924 127.138 415.191 126.685C414.471 126.231 413.898 125.598 413.471 124.785C413.044 123.971 412.831 123.045 412.831 122.005C412.831 120.978 413.044 120.058 413.471 119.245C413.898 118.418 414.471 117.778 415.191 117.325C415.924 116.871 416.731 116.645 417.611 116.645C418.384 116.645 419.071 116.811 419.671 117.145C420.284 117.465 420.758 117.891 421.091 118.425H421.171V116.965H422.791V126.765C422.791 128.405 422.338 129.651 421.431 130.505C420.524 131.371 419.331 131.805 417.851 131.805ZM417.851 125.825C418.464 125.825 419.018 125.671 419.511 125.365C420.018 125.058 420.418 124.618 420.711 124.045C421.018 123.471 421.171 122.791 421.171 122.005C421.171 121.205 421.018 120.518 420.711 119.945C420.418 119.371 420.018 118.938 419.511 118.645C419.018 118.338 418.464 118.185 417.851 118.185C417.238 118.185 416.678 118.338 416.171 118.645C415.664 118.951 415.258 119.391 414.951 119.965C414.658 120.538 414.511 121.218 414.511 122.005C414.511 122.791 414.658 123.478 414.951 124.065C415.258 124.638 415.664 125.078 416.171 125.385C416.678 125.678 417.238 125.825 417.851 125.825ZM428.425 126.525L424.205 116.965H426.045L429.245 124.545H429.285L432.365 116.965H434.205L427.905 131.485H426.145L428.425 126.525Z" fill="white"/>
</svg>
