<svg width="669" height="85" viewBox="0 0 669 85" fill="none" xmlns="http://www.w3.org/2000/svg">
<path d="M118.581 41.9503C122.192 41.9503 125.058 40.8562 127.177 38.6669C129.295 36.4784 130.355 33.4198 130.355 29.4911C130.355 25.5631 129.295 22.5044 127.177 20.3152C125.058 18.1267 122.192 17.0318 118.581 17.0318H112.949V41.9503H118.581ZM109.366 13.3884H118.581C121.709 13.3884 124.439 14.0708 126.772 15.435C129.103 16.7998 130.895 18.696 132.147 21.125C133.398 23.5538 134.024 26.3425 134.024 29.4911C134.024 32.6396 133.398 35.4283 132.147 37.8572C130.895 40.2862 129.103 42.183 126.772 43.5472C124.439 44.9121 121.709 45.5938 118.581 45.5938H109.366V13.3884Z" fill="white"/>
<path d="M153.093 31.695C153.036 30.7358 152.78 29.7764 152.325 28.8164C151.87 27.8571 151.152 27.0475 150.171 26.3876C149.19 25.7283 147.959 25.3979 146.481 25.3979C144.774 25.3979 143.33 25.9757 142.151 27.1298C140.97 28.2844 140.195 29.8059 139.826 31.695H153.093ZM141.233 44.7392C139.583 43.6898 138.296 42.2428 137.373 40.3986C136.448 38.5545 135.986 36.4785 135.986 34.169C135.986 31.9502 136.419 29.9115 137.287 28.0517C138.154 26.1927 139.384 24.7085 140.977 23.5987C142.57 22.4898 144.418 21.9346 146.523 21.9346C148.656 21.9346 150.505 22.4371 152.069 23.4413C153.633 24.4463 154.835 25.8331 155.674 27.602C156.513 29.3717 156.933 31.3957 156.933 33.6742C156.933 34.124 156.89 34.514 156.805 34.8437H139.612C139.698 36.583 140.095 38.0526 140.807 39.2515C141.517 40.4514 142.421 41.3508 143.516 41.9504C144.61 42.5505 145.756 42.85 146.95 42.85C149.737 42.85 151.884 41.4711 153.392 38.7119L156.464 40.2862C155.525 42.1458 154.252 43.6147 152.645 44.694C151.038 45.7737 149.097 46.3135 146.822 46.3135C144.746 46.3135 142.883 45.7885 141.233 44.7392Z" fill="white"/>
<path d="M157.487 22.6542H161.37L168.11 41.0959H168.195L175.021 22.6542H178.818L169.944 45.5938H166.276L157.487 22.6542Z" fill="white"/>
<path d="M196.267 31.695C196.209 30.7358 195.953 29.7764 195.499 28.8164C195.043 27.8571 194.326 27.0475 193.344 26.3876C192.363 25.7283 191.133 25.3979 189.654 25.3979C187.948 25.3979 186.504 25.9757 185.324 27.1298C184.143 28.2844 183.368 29.8059 182.999 31.695H196.267ZM184.407 44.7392C182.757 43.6898 181.47 42.2428 180.546 40.3986C179.621 38.5545 179.159 36.4785 179.159 34.169C179.159 31.9502 179.592 29.9115 180.46 28.0517C181.328 26.1927 182.557 24.7085 184.151 23.5987C185.743 22.4898 187.592 21.9346 189.697 21.9346C191.83 21.9346 193.678 22.4371 195.243 23.4413C196.807 24.4463 198.008 25.8331 198.848 27.602C199.686 29.3717 200.106 31.3957 200.106 33.6742C200.106 34.124 200.064 34.514 199.978 34.8437H182.785C182.871 36.583 183.269 38.0526 183.98 39.2515C184.69 40.4514 185.594 41.3508 186.689 41.9504C187.784 42.5505 188.929 42.85 190.123 42.85C192.91 42.85 195.057 41.4711 196.565 38.7119L199.637 40.2862C198.698 42.1458 197.425 43.6147 195.819 44.694C194.212 45.7737 192.27 46.3135 189.995 46.3135C187.919 46.3135 186.056 45.7885 184.407 44.7392Z" fill="white"/>
<path d="M203.476 13.3884H207.102V45.5938H203.476V13.3884Z" fill="white"/>
<path d="M225.17 41.7929C226.322 41.0889 227.246 40.0768 227.943 38.7569C228.639 37.4377 228.988 35.8937 228.988 34.124C228.988 32.3551 228.639 30.8109 227.943 29.4911C227.246 28.172 226.322 27.1599 225.17 26.4551C224.018 25.7508 222.774 25.3979 221.437 25.3979C220.1 25.3979 218.849 25.7508 217.683 26.4551C216.516 27.1599 215.585 28.172 214.888 29.4911C214.191 30.8109 213.843 32.3551 213.843 34.124C213.843 35.8937 214.191 37.4377 214.888 38.7569C215.585 40.0768 216.516 41.0889 217.683 41.7929C218.849 42.4979 220.1 42.85 221.437 42.85C222.774 42.85 224.018 42.4979 225.17 41.7929V41.7929ZM215.678 44.6942C213.971 43.6147 212.641 42.1458 211.689 40.2862C210.736 38.4274 210.26 36.373 210.26 34.124C210.26 31.8751 210.736 29.8214 211.689 27.9618C212.641 26.1029 213.971 24.6334 215.678 23.5539C217.384 22.4743 219.304 21.9346 221.437 21.9346C223.57 21.9346 225.49 22.4743 227.196 23.5539C228.903 24.6334 230.232 26.1029 231.185 27.9618C232.138 29.8214 232.614 31.8751 232.614 34.124C232.614 36.373 232.138 38.4274 231.185 40.2862C230.232 42.1458 228.903 43.6147 227.196 44.6942C225.49 45.7737 223.57 46.3135 221.437 46.3135C219.304 46.3135 217.384 45.7737 215.678 44.6942" fill="white"/>
<path d="M249.765 41.7698C250.874 41.0501 251.762 40.0234 252.431 38.6886C253.099 37.3548 253.434 35.8326 253.434 34.1234C253.434 32.4141 253.099 30.8924 252.431 29.5578C251.762 28.2239 250.874 27.1964 249.765 26.4767C248.655 25.757 247.475 25.3972 246.224 25.3972C244.972 25.3972 243.792 25.757 242.683 26.4767C241.573 27.1964 240.692 28.2163 240.038 29.5353C239.383 30.8551 239.056 32.3845 239.056 34.1234C239.056 35.8627 239.383 37.3921 240.038 38.7112C240.692 40.0311 241.573 41.0501 242.683 41.7698C243.792 42.4895 244.972 42.8493 246.224 42.8493C247.475 42.8493 248.655 42.4895 249.765 41.7698V41.7698ZM235.601 22.6535H239.056V26.072H239.227C239.881 24.9026 240.87 23.9207 242.192 23.1257C243.515 22.3316 245 21.9338 246.65 21.9338C248.584 21.9338 250.347 22.4588 251.94 23.5082C253.533 24.5581 254.784 26.0122 255.695 27.871C256.605 29.7308 257.06 31.8145 257.06 34.1234C257.06 36.4622 256.605 38.5537 255.695 40.3978C254.784 42.242 253.533 43.6892 251.94 44.7386C250.347 45.7877 248.584 46.3127 246.65 46.3127C245 46.3127 243.515 45.9149 242.192 45.1208C240.87 44.3266 239.881 43.3596 239.227 42.2195H239.056L239.227 45.3681V55.3086H235.601V22.6535Z" fill="white"/>
<path d="M276.385 31.695C276.328 30.7358 276.072 29.7764 275.617 28.8164C275.162 27.8571 274.444 27.0475 273.463 26.3876C272.482 25.7283 271.251 25.3979 269.773 25.3979C268.066 25.3979 266.622 25.9757 265.442 27.1298C264.262 28.2844 263.487 29.8059 263.117 31.695H276.385ZM264.525 44.7392C262.875 43.6898 261.588 42.2428 260.664 40.3986C259.74 38.5545 259.278 36.4785 259.278 34.169C259.278 31.9502 259.711 29.9115 260.579 28.0517C261.446 26.1927 262.676 24.7085 264.269 23.5987C265.862 22.4898 267.71 21.9346 269.815 21.9346C271.948 21.9346 273.797 22.4371 275.361 23.4413C276.925 24.4463 278.127 25.8331 278.966 27.602C279.805 29.3717 280.225 31.3957 280.225 33.6742C280.225 34.124 280.182 34.514 280.097 34.8437H262.904C262.989 36.583 263.387 38.0526 264.099 39.2515C264.809 40.4514 265.712 41.3508 266.808 41.9504C267.902 42.5505 269.047 42.85 270.242 42.85C273.029 42.85 275.176 41.4711 276.684 38.7119L279.755 40.2862C278.817 42.1458 277.544 43.6147 275.937 44.694C274.33 45.7737 272.389 46.3135 270.114 46.3135C268.037 46.3135 266.174 45.7885 264.525 44.7392Z" fill="white"/>
<path d="M283.595 22.6542H287.05V26.3425H287.221C287.647 25.0831 288.472 24.0338 289.695 23.194C290.918 22.3547 292.198 21.9345 293.535 21.9345C294.53 21.9345 295.383 22.0997 296.095 22.4293V26.5224C295.184 26.0432 294.16 25.8027 293.023 25.8027C291.97 25.8027 291.003 26.1183 290.122 26.7496C289.24 27.3805 288.536 28.2296 288.01 29.2964C287.483 30.3633 287.221 31.513 287.221 32.7451V45.5938H283.595V22.6542Z" fill="white"/>
<path d="M309.192 44.0195C307.2 42.4903 305.835 40.3467 305.096 37.5875L308.552 36.1032C309.035 38.0227 309.931 39.5968 311.239 40.826C312.547 42.0559 314.083 42.6702 315.847 42.6702C317.61 42.6702 319.103 42.1684 320.326 41.1634C321.549 40.159 322.161 38.7872 322.161 37.0478C322.161 35.5486 321.642 34.3117 320.604 33.337C319.565 32.3628 317.866 31.4555 315.505 30.6156L313.586 29.896C311.424 29.0864 309.661 28.0224 308.296 26.7026C306.93 25.3833 306.248 23.554 306.248 21.215C306.248 19.6856 306.646 18.2688 307.442 16.9645C308.238 15.66 309.348 14.6185 310.77 13.8383C312.192 13.059 313.784 12.6689 315.548 12.6689C317.311 12.6689 318.847 13.014 320.156 13.7034C321.463 14.3936 322.509 15.2326 323.291 16.2221C324.073 17.2118 324.621 18.1866 324.934 19.1459L321.521 20.6751C321.236 19.5661 320.589 18.5611 319.58 17.6616C318.57 16.762 317.24 16.3123 315.591 16.3123C314.026 16.3123 312.69 16.7774 311.581 17.7067C310.471 18.6364 309.917 19.8058 309.917 21.215C309.917 22.4745 310.386 23.5018 311.325 24.2961C312.263 25.0909 313.685 25.8331 315.591 26.5225L317.596 27.2422C320.184 28.2317 322.203 29.4686 323.654 30.9531C325.104 32.4374 325.83 34.4545 325.83 37.0028C325.83 39.0718 325.324 40.8114 324.315 42.2203C323.305 43.6303 322.033 44.6648 320.497 45.324C318.961 45.9833 317.383 46.3135 315.762 46.3135C313.372 46.3135 311.182 45.5489 309.192 44.0195Z" fill="white"/>
<path d="M334.426 45.856C333.672 45.551 333.039 45.1384 332.527 44.6191C331.958 44.0391 331.531 43.3674 331.247 42.6041C330.963 41.8407 330.821 40.9096 330.821 39.8105V26.1176H327.024V22.6542H330.821V16.1771H334.447V22.6542H339.737V26.1176H334.447V38.8983C334.447 40.1856 334.674 41.136 335.13 41.7487C335.67 42.4235 336.452 42.7601 337.476 42.7601C338.301 42.7601 339.097 42.5056 339.865 41.9955V45.7287C339.439 45.9381 339.004 46.0885 338.564 46.1786C338.123 46.2685 337.561 46.3135 336.879 46.3135C335.997 46.3135 335.179 46.1603 334.426 45.856Z" fill="white"/>
<path d="M345.177 43.8846C343.797 42.2653 343.107 40.0016 343.107 37.0926V22.6543H346.734V36.5079C346.734 38.6973 347.203 40.3017 348.141 41.3209C349.08 42.3406 350.345 42.8501 351.938 42.8501C353.161 42.8501 354.249 42.5056 355.202 41.8156C356.155 41.1262 356.894 40.2266 357.42 39.1168C357.946 38.0077 358.21 36.8383 358.21 35.6084V22.6543H361.836V45.5938H358.38V42.2653H358.21C357.612 43.4054 356.659 44.3646 355.351 45.1441C354.043 45.9234 352.649 46.3135 351.17 46.3135C348.553 46.3135 346.556 45.5039 345.177 43.8846Z" fill="white"/>
<path d="M379.349 41.7706C380.443 41.0509 381.325 40.0319 381.994 38.7119C382.662 37.3929 382.996 35.8635 382.996 34.1242C382.996 32.3853 382.662 30.8559 381.994 29.5361C381.325 28.217 380.443 27.1971 379.349 26.4775C378.253 25.7578 377.066 25.3979 375.786 25.3979C374.534 25.3979 373.355 25.7578 372.245 26.4775C371.136 27.1971 370.247 28.2246 369.579 29.5586C368.911 30.8932 368.577 32.4149 368.577 34.1242C368.577 35.8333 368.911 37.3556 369.579 38.6894C370.247 40.0241 371.136 41.0509 372.245 41.7706C373.355 42.4903 374.534 42.8501 375.786 42.8501C377.066 42.8501 378.253 42.4903 379.349 41.7706ZM370.091 44.7394C368.513 43.6899 367.268 42.2428 366.358 40.3986C365.448 38.5545 364.993 36.463 364.993 34.1242C364.993 31.8153 365.448 29.7315 366.358 27.8718C367.268 26.013 368.513 24.5588 370.091 23.509C371.669 22.4596 373.425 21.9346 375.36 21.9346C377.038 21.9346 378.531 22.3324 379.839 23.1265C381.147 23.9214 382.143 24.9033 382.826 26.0728H382.996L382.826 22.8792V13.3886H386.452V45.5938H382.996V42.2203H382.826C382.143 43.3603 381.147 44.3273 379.839 45.1216C378.531 45.9156 377.038 46.3135 375.36 46.3135C373.425 46.3135 371.669 45.7885 370.091 44.7394Z" fill="white"/>
<path d="M406.716 31.695C406.659 30.7358 406.403 29.7764 405.948 28.8164C405.493 27.8571 404.775 27.0475 403.794 26.3876C402.813 25.7283 401.582 25.3979 400.104 25.3979C398.397 25.3979 396.953 25.9757 395.773 27.1298C394.593 28.2844 393.818 29.8059 393.448 31.695H406.716ZM394.856 44.7392C393.206 43.6898 391.919 42.2428 390.995 40.3986C390.071 38.5545 389.609 36.4785 389.609 34.169C389.609 31.9502 390.042 29.9115 390.91 28.0517C391.777 26.1927 393.007 24.7085 394.6 23.5987C396.193 22.4898 398.041 21.9346 400.146 21.9346C402.279 21.9346 404.128 22.4371 405.692 23.4413C407.256 24.4463 408.458 25.8331 409.297 27.602C410.136 29.3717 410.556 31.3957 410.556 33.6742C410.556 34.124 410.513 34.514 410.428 34.8437H393.235C393.32 36.583 393.718 38.0526 394.43 39.2515C395.14 40.4514 396.043 41.3508 397.138 41.9504C398.233 42.5505 399.378 42.85 400.573 42.85C403.36 42.85 405.507 41.4711 407.015 38.7119L410.086 40.2862C409.148 42.1458 407.875 43.6147 406.268 44.694C404.661 45.7737 402.72 46.3135 400.445 46.3135C398.368 46.3135 396.505 45.7885 394.856 44.7392Z" fill="white"/>
<path d="M413.926 22.6542H417.381V26.0277H417.552C418.149 24.8884 419.102 23.9214 420.41 23.1264C421.718 22.3324 423.112 21.9345 424.591 21.9345C427.207 21.9345 429.205 22.7371 430.585 24.3409C431.964 25.9455 432.654 28.127 432.654 30.8854V45.5938H429.028V31.4702C429.028 29.3414 428.544 27.7972 427.577 26.8373C426.61 25.878 425.288 25.3979 423.61 25.3979C422.443 25.3979 421.398 25.7431 420.474 26.4325C419.55 27.1226 418.832 28.0292 418.32 29.1539C417.808 30.2783 417.552 31.4554 417.552 32.6846V45.5938H413.926V22.6542Z" fill="white"/>
<path d="M441.847 45.856C441.094 45.551 440.461 45.1384 439.949 44.6191C439.38 44.0391 438.953 43.3674 438.669 42.6041C438.385 41.8407 438.242 40.9096 438.242 39.8105V26.1176H434.446V22.6542H438.242V16.1771H441.869V22.6542H447.159V26.1176H441.869V38.8983C441.869 40.1856 442.096 41.136 442.551 41.7487C443.091 42.4235 443.874 42.7601 444.898 42.7601C445.722 42.7601 446.519 42.5056 447.287 41.9955V45.7287C446.86 45.9381 446.426 46.0885 445.986 46.1786C445.544 46.2685 444.983 46.3135 444.3 46.3135C443.419 46.3135 442.601 46.1603 441.847 45.856Z" fill="white"/>
<path d="M465.888 44.1096C463.47 42.6407 461.571 40.6235 460.192 38.0598C458.812 35.4959 458.123 32.6396 458.123 29.4911C458.123 26.3426 458.812 23.4863 460.192 20.9226C461.571 18.3587 463.47 16.3424 465.888 14.8728C468.305 13.4039 470.992 12.6689 473.951 12.6689C476.226 12.6689 478.309 13.1264 480.201 14.0406C482.092 14.9557 483.734 16.2524 485.128 17.9315L482.526 20.5852C481.359 19.1164 480.087 18.0368 478.708 17.3468C477.327 16.6572 475.742 16.3122 473.951 16.3122C471.732 16.3122 469.698 16.8597 467.85 17.954C466.001 19.0488 464.529 20.593 463.435 22.5867C462.339 24.5814 461.792 26.8823 461.792 29.4911C461.792 32.1 462.339 34.4016 463.435 36.3956C464.529 38.3901 466.001 39.9343 467.85 41.0284C469.698 42.1234 471.732 42.67 473.951 42.67C477.648 42.67 480.791 41.0664 483.379 37.8573L486.024 40.5562C484.601 42.3258 482.852 43.7272 480.777 44.7617C478.7 45.7962 476.425 46.3135 473.951 46.3135C470.992 46.3135 468.305 45.5792 465.888 44.1096Z" fill="white"/>
<path d="M489.224 13.3884H492.85V45.5938H489.224V13.3884Z" fill="white"/>
<path d="M499.27 43.8846C497.891 42.2653 497.201 40.0016 497.201 37.0926V22.6543H500.828V36.5079C500.828 38.6973 501.297 40.3017 502.235 41.3209C503.174 42.3406 504.439 42.8501 506.032 42.8501C507.255 42.8501 508.343 42.5056 509.296 41.8156C510.249 41.1262 510.988 40.2266 511.514 39.1168C512.04 38.0077 512.304 36.8383 512.304 35.6084V22.6543H515.93V45.5938H512.474V42.2653H512.304C511.706 43.4054 510.753 44.3646 509.445 45.1441C508.137 45.9234 506.743 46.3135 505.264 46.3135C502.647 46.3135 500.65 45.5039 499.27 43.8846Z" fill="white"/>
<path d="M534.615 41.7706C535.725 41.0509 536.613 40.0241 537.282 38.6894C537.95 37.3556 538.284 35.8333 538.284 34.1242C538.284 32.4149 537.95 30.8932 537.282 29.5586C536.613 28.2246 535.725 27.1971 534.615 26.4775C533.506 25.7578 532.326 25.3979 531.074 25.3979C529.823 25.3979 528.643 25.7578 527.534 26.4775C526.424 27.1971 525.542 28.217 524.889 29.5361C524.234 30.8559 523.907 32.3853 523.907 34.1242C523.907 35.8635 524.234 37.3929 524.889 38.7119C525.542 40.0319 526.424 41.0509 527.534 41.7706C528.643 42.4903 529.823 42.8501 531.074 42.8501C532.326 42.8501 533.506 42.4903 534.615 41.7706V41.7706ZM527.043 45.1216C525.72 44.3273 524.732 43.3603 524.078 42.2203H523.907V45.5938H520.452V13.3886H524.078V22.8792L523.907 26.0728H524.078C524.732 24.9033 525.72 23.9214 527.043 23.1265C528.365 22.3324 529.851 21.9346 531.501 21.9346C533.435 21.9346 535.198 22.4596 536.791 23.509C538.384 24.5588 539.635 26.013 540.545 27.8718C541.455 29.7315 541.911 31.8153 541.911 34.1242C541.911 36.463 541.455 38.5545 540.545 40.3986C539.635 42.2428 538.384 43.6899 536.791 44.7394C535.198 45.7885 533.435 46.3135 531.501 46.3135C529.851 46.3135 528.365 45.9156 527.043 45.1216" fill="white"/>
<path d="M546.817 44.5818C545.252 43.4277 544.143 41.9504 543.489 40.1513L546.731 38.622C547.271 40.0015 548.075 41.0662 549.142 41.8155C550.208 42.5654 551.382 42.94 552.662 42.94C554.027 42.94 555.193 42.6477 556.16 42.0629C557.126 41.4781 557.61 40.646 557.61 39.5665C557.61 38.6071 557.226 37.8348 556.458 37.2501C555.691 36.6653 554.481 36.1635 552.832 35.7432L550.187 35.0236C548.452 34.5738 547.03 33.8092 545.921 32.7295C544.812 31.65 544.257 30.2557 544.257 28.5465C544.257 27.2274 544.634 26.0656 545.388 25.0606C546.141 24.0562 547.143 23.2839 548.395 22.7441C549.646 22.2044 550.998 21.9346 552.448 21.9346C554.353 21.9346 556.053 22.3695 557.546 23.239C559.039 24.1091 560.099 25.3234 560.725 26.8822L557.568 28.4116C556.6 26.3728 554.88 25.3529 552.405 25.3529C551.211 25.3529 550.166 25.6452 549.27 26.23C548.374 26.8148 547.926 27.557 547.926 28.4566C547.926 29.2964 548.239 29.9788 548.865 30.5031C549.49 31.0282 550.428 31.4553 551.68 31.7851L554.837 32.6396C556.97 33.2097 558.577 34.0565 559.658 35.181C560.739 36.3054 561.279 37.6774 561.279 39.2967C561.279 40.7064 560.895 41.9433 560.127 43.0075C559.359 44.0723 558.321 44.8895 557.013 45.4589C555.704 46.0282 554.254 46.3135 552.662 46.3135C550.329 46.3135 548.381 45.7359 546.817 44.5818Z" fill="white"/>
<path d="M36.3838 37.9269L12.0892 23.1387C10.9998 22.4752 9.8102 22.1597 8.63659 22.1597C6.24569 22.1597 3.92049 23.4684 2.63902 25.8084C0.728604 29.2972 1.86244 33.758 5.17119 35.7719L29.4659 50.5602C30.5552 51.2235 31.7449 51.5386 32.9182 51.5386C35.3094 51.5386 37.6343 50.2303 38.9159 47.8905C40.8264 44.402 39.6927 39.9409 36.3838 37.9269Z" fill="white"/>
<path d="M84.8319 23.1394L60.5375 8.35053C59.4482 7.68756 58.2584 7.37229 57.0849 7.37229C54.694 7.37229 52.3691 8.68012 51.0875 11.0203C49.1771 14.5086 50.3107 18.9694 53.6196 20.9839L77.914 35.7726C79.0034 36.4354 80.1931 36.751 81.3664 36.751C83.7576 36.751 86.0825 35.4432 87.3641 33.1027C89.2744 29.6145 88.1408 25.1538 84.8319 23.1394Z" fill="white"/>
<path d="M76.952 37.5287L65.6131 30.6264L53.6195 37.927C50.3107 39.9411 49.177 44.402 51.0874 47.8906C52.3686 50.2303 54.6941 51.5386 57.085 51.5386C58.2586 51.5386 59.4479 51.2235 60.5374 50.5602L80.0664 38.6727C78.9754 38.5001 77.9165 38.1157 76.952 37.5287Z" fill="white"/>
<path d="M13.0511 21.382L24.39 28.2842L36.3837 20.9833C39.6926 18.9692 40.8263 14.5082 38.9158 11.0198C37.0054 7.53146 32.7748 6.33574 29.4658 8.3501L9.93712 20.2377C11.0285 20.4103 12.0874 20.795 13.0511 21.382Z" fill="white"/>
<path d="M108.24 57.952H115.436C116.444 57.952 117.387 58.1853 118.264 58.652C119.16 59.1187 119.869 59.7627 120.392 60.584C120.915 61.4053 121.176 62.3293 121.176 63.356C121.176 64.3267 120.924 65.176 120.42 65.904C119.935 66.632 119.272 67.192 118.432 67.584V67.696C119.44 68.032 120.261 68.6107 120.896 69.432C121.531 70.2533 121.848 71.2147 121.848 72.316C121.848 73.3987 121.568 74.3787 121.008 75.256C120.467 76.1147 119.729 76.7867 118.796 77.272C117.881 77.7573 116.892 78 115.828 78H108.24V57.952ZM115.436 66.632C116.108 66.632 116.696 66.4733 117.2 66.156C117.723 65.8387 118.124 65.4373 118.404 64.952C118.684 64.448 118.824 63.9347 118.824 63.412C118.824 62.908 118.684 62.4133 118.404 61.928C118.143 61.424 117.76 61.0133 117.256 60.696C116.771 60.3787 116.201 60.22 115.548 60.22H110.592V66.632H115.436ZM115.968 75.732C116.64 75.732 117.237 75.564 117.76 75.228C118.301 74.892 118.712 74.4627 118.992 73.94C119.291 73.3987 119.44 72.848 119.44 72.288C119.44 71.728 119.291 71.1867 118.992 70.664C118.693 70.1227 118.273 69.6933 117.732 69.376C117.191 69.04 116.565 68.872 115.856 68.872H110.592V75.732H115.968ZM129.308 78.448C128.263 78.448 127.33 78.2427 126.508 77.832C125.687 77.4213 125.052 76.8613 124.604 76.152C124.156 75.424 123.932 74.6027 123.932 73.688C123.932 72.176 124.502 71 125.64 70.16C126.779 69.3013 128.216 68.872 129.952 68.872C130.811 68.872 131.604 68.9653 132.332 69.152C133.079 69.3387 133.648 69.5533 134.04 69.796V68.928C134.04 67.864 133.667 67.0147 132.92 66.38C132.174 65.7267 131.231 65.4 130.092 65.4C129.29 65.4 128.552 65.5773 127.88 65.932C127.208 66.268 126.676 66.744 126.284 67.36L124.492 66.016C125.052 65.1573 125.818 64.4853 126.788 64C127.778 63.5147 128.87 63.272 130.064 63.272C132.006 63.272 133.527 63.7853 134.628 64.812C135.748 65.82 136.308 67.2013 136.308 68.956V78H134.04V75.956H133.928C133.518 76.6467 132.902 77.2347 132.08 77.72C131.259 78.2053 130.335 78.448 129.308 78.448ZM129.532 76.348C130.335 76.348 131.082 76.1427 131.772 75.732C132.463 75.3213 133.014 74.7707 133.424 74.08C133.835 73.3893 134.04 72.6333 134.04 71.812C133.592 71.5133 133.042 71.2707 132.388 71.084C131.735 70.8973 131.044 70.804 130.316 70.804C129.01 70.804 128.02 71.0747 127.348 71.616C126.695 72.1573 126.368 72.8573 126.368 73.716C126.368 74.5 126.667 75.1347 127.264 75.62C127.862 76.1053 128.618 76.348 129.532 76.348ZM139.619 63.72H141.887V65.82H141.999C142.391 65.1107 143.017 64.5133 143.875 64.028C144.734 63.524 145.649 63.272 146.619 63.272C148.337 63.272 149.643 63.776 150.539 64.784C151.454 65.7733 151.911 67.1267 151.911 68.844V78H149.531V69.208C149.531 67.8827 149.214 66.9213 148.579 66.324C147.945 65.7267 147.077 65.428 145.975 65.428C145.21 65.428 144.519 65.6427 143.903 66.072C143.306 66.5013 142.839 67.0707 142.503 67.78C142.167 68.4707 141.999 69.1987 141.999 69.964V78H139.619V63.72ZM160.162 78.448C158.631 78.448 157.353 78.0933 156.326 77.384C155.299 76.656 154.571 75.732 154.142 74.612L156.27 73.66C156.625 74.5187 157.147 75.1813 157.838 75.648C158.547 76.1147 159.322 76.348 160.162 76.348C161.058 76.348 161.823 76.1707 162.458 75.816C163.093 75.4427 163.41 74.92 163.41 74.248C163.41 73.6507 163.158 73.1747 162.654 72.82C162.15 72.4467 161.357 72.1293 160.274 71.868L158.538 71.42C157.399 71.14 156.466 70.664 155.738 69.992C155.01 69.32 154.646 68.452 154.646 67.388C154.646 66.5667 154.889 65.848 155.374 65.232C155.878 64.5973 156.541 64.112 157.362 63.776C158.183 63.44 159.07 63.272 160.022 63.272C161.273 63.272 162.383 63.5427 163.354 64.084C164.343 64.6253 165.043 65.3813 165.454 66.352L163.382 67.304C162.747 66.0347 161.618 65.4 159.994 65.4C159.21 65.4 158.519 65.5867 157.922 65.96C157.343 66.3147 157.054 66.772 157.054 67.332C157.054 67.8547 157.259 68.284 157.67 68.62C158.081 68.9373 158.697 69.1987 159.518 69.404L161.59 69.936C162.99 70.2907 164.045 70.8227 164.754 71.532C165.463 72.2227 165.818 73.072 165.818 74.08C165.818 74.9573 165.566 75.732 165.062 76.404C164.558 77.0573 163.877 77.5613 163.018 77.916C162.159 78.2707 161.207 78.448 160.162 78.448ZM173.113 78.448C172.068 78.448 171.134 78.2427 170.313 77.832C169.492 77.4213 168.857 76.8613 168.409 76.152C167.961 75.424 167.737 74.6027 167.737 73.688C167.737 72.176 168.306 71 169.445 70.16C170.584 69.3013 172.021 68.872 173.757 68.872C174.616 68.872 175.409 68.9653 176.137 69.152C176.884 69.3387 177.453 69.5533 177.845 69.796V68.928C177.845 67.864 177.472 67.0147 176.725 66.38C175.978 65.7267 175.036 65.4 173.897 65.4C173.094 65.4 172.357 65.5773 171.685 65.932C171.013 66.268 170.481 66.744 170.089 67.36L168.297 66.016C168.857 65.1573 169.622 64.4853 170.593 64C171.582 63.5147 172.674 63.272 173.869 63.272C175.81 63.272 177.332 63.7853 178.433 64.812C179.553 65.82 180.113 67.2013 180.113 68.956V78H177.845V75.956H177.733C177.322 76.6467 176.706 77.2347 175.885 77.72C175.064 78.2053 174.14 78.448 173.113 78.448ZM173.337 76.348C174.14 76.348 174.886 76.1427 175.577 75.732C176.268 75.3213 176.818 74.7707 177.229 74.08C177.64 73.3893 177.845 72.6333 177.845 71.812C177.397 71.5133 176.846 71.2707 176.193 71.084C175.54 70.8973 174.849 70.804 174.121 70.804C172.814 70.804 171.825 71.0747 171.153 71.616C170.5 72.1573 170.173 72.8573 170.173 73.716C170.173 74.5 170.472 75.1347 171.069 75.62C171.666 76.1053 172.422 76.348 173.337 76.348ZM183.424 57.952H185.804V78H183.424V57.952ZM196.314 57.952H198.666V78H196.314V57.952ZM202.674 63.72H204.942V65.82H205.054C205.446 65.1107 206.071 64.5133 206.93 64.028C207.789 63.524 208.703 63.272 209.674 63.272C211.391 63.272 212.698 63.776 213.594 64.784C214.509 65.7733 214.966 67.1267 214.966 68.844V78H212.586V69.208C212.586 67.8827 212.269 66.9213 211.634 66.324C210.999 65.7267 210.131 65.428 209.03 65.428C208.265 65.428 207.574 65.6427 206.958 66.072C206.361 66.5013 205.894 67.0707 205.558 67.78C205.222 68.4707 205.054 69.1987 205.054 69.964V78H202.674V63.72ZM223.217 78.448C221.686 78.448 220.407 78.0933 219.381 77.384C218.354 76.656 217.626 75.732 217.197 74.612L219.325 73.66C219.679 74.5187 220.202 75.1813 220.893 75.648C221.602 76.1147 222.377 76.348 223.217 76.348C224.113 76.348 224.878 76.1707 225.513 75.816C226.147 75.4427 226.465 74.92 226.465 74.248C226.465 73.6507 226.213 73.1747 225.709 72.82C225.205 72.4467 224.411 72.1293 223.329 71.868L221.593 71.42C220.454 71.14 219.521 70.664 218.793 69.992C218.065 69.32 217.701 68.452 217.701 67.388C217.701 66.5667 217.943 65.848 218.429 65.232C218.933 64.5973 219.595 64.112 220.417 63.776C221.238 63.44 222.125 63.272 223.077 63.272C224.327 63.272 225.438 63.5427 226.409 64.084C227.398 64.6253 228.098 65.3813 228.509 66.352L226.437 67.304C225.802 66.0347 224.673 65.4 223.049 65.4C222.265 65.4 221.574 65.5867 220.977 65.96C220.398 66.3147 220.109 66.772 220.109 67.332C220.109 67.8547 220.314 68.284 220.725 68.62C221.135 68.9373 221.751 69.1987 222.573 69.404L224.645 69.936C226.045 70.2907 227.099 70.8227 227.809 71.532C228.518 72.2227 228.873 73.072 228.873 74.08C228.873 74.9573 228.621 75.732 228.117 76.404C227.613 77.0573 226.931 77.5613 226.073 77.916C225.214 78.2707 224.262 78.448 223.217 78.448ZM236.818 78.224C236.24 78.224 235.698 78.1307 235.194 77.944C234.709 77.7573 234.298 77.5053 233.962 77.188C233.589 76.8333 233.309 76.4227 233.122 75.956C232.936 75.4893 232.842 74.92 232.842 74.248V65.876H230.35V63.72H232.842V59.688H235.222V63.72H238.694V65.876H235.222V73.66C235.222 74.444 235.372 75.0227 235.67 75.396C236.025 75.8067 236.538 76.012 237.21 76.012C237.752 76.012 238.274 75.8533 238.778 75.536V77.86C238.498 77.9907 238.209 78.084 237.91 78.14C237.63 78.196 237.266 78.224 236.818 78.224ZM243.121 61.088C242.654 61.088 242.253 60.92 241.917 60.584C241.581 60.248 241.413 59.8467 241.413 59.38C241.413 58.9133 241.581 58.5213 241.917 58.204C242.253 57.868 242.654 57.7 243.121 57.7C243.588 57.7 243.989 57.868 244.325 58.204C244.661 58.5213 244.829 58.9133 244.829 59.38C244.829 59.8467 244.661 60.248 244.325 60.584C244.008 60.92 243.606 61.088 243.121 61.088ZM241.945 63.72H244.297V78H241.945V63.72ZM253.389 78.224C252.81 78.224 252.269 78.1307 251.765 77.944C251.279 77.7573 250.869 77.5053 250.533 77.188C250.159 76.8333 249.879 76.4227 249.693 75.956C249.506 75.4893 249.413 74.92 249.413 74.248V65.876H246.921V63.72H249.413V59.688H251.793V63.72H255.265V65.876H251.793V73.66C251.793 74.444 251.942 75.0227 252.241 75.396C252.595 75.8067 253.109 76.012 253.781 76.012C254.322 76.012 254.845 75.8533 255.349 75.536V77.86C255.069 77.9907 254.779 78.084 254.481 78.14C254.201 78.196 253.837 78.224 253.389 78.224ZM263.335 78.448C261.617 78.448 260.301 77.944 259.387 76.936C258.491 75.928 258.043 74.5187 258.043 72.708V63.72H260.423V72.344C260.423 73.7067 260.731 74.7053 261.347 75.34C261.963 75.9747 262.793 76.292 263.839 76.292C264.641 76.292 265.351 76.0773 265.967 75.648C266.601 75.2187 267.087 74.6587 267.423 73.968C267.777 73.2773 267.955 72.5493 267.955 71.784V63.72H270.335V78H268.067V75.928H267.955C267.563 76.6373 266.937 77.2347 266.079 77.72C265.22 78.2053 264.305 78.448 263.335 78.448ZM279.475 78.224C278.896 78.224 278.355 78.1307 277.851 77.944C277.365 77.7573 276.955 77.5053 276.619 77.188C276.245 76.8333 275.965 76.4227 275.779 75.956C275.592 75.4893 275.499 74.92 275.499 74.248V65.876H273.007V63.72H275.499V59.688H277.879V63.72H281.351V65.876H277.879V73.66C277.879 74.444 278.028 75.0227 278.327 75.396C278.681 75.8067 279.195 76.012 279.867 76.012C280.408 76.012 280.931 75.8533 281.435 75.536V77.86C281.155 77.9907 280.865 78.084 280.567 78.14C280.287 78.196 279.923 78.224 279.475 78.224ZM289.968 78.448C288.605 78.448 287.382 78.1213 286.3 77.468C285.217 76.8147 284.368 75.9187 283.752 74.78C283.154 73.6227 282.856 72.3253 282.856 70.888C282.856 69.5067 283.136 68.2373 283.696 67.08C284.274 65.9227 285.086 64.9987 286.132 64.308C287.177 63.6173 288.39 63.272 289.772 63.272C291.172 63.272 292.385 63.5893 293.412 64.224C294.438 64.84 295.222 65.6987 295.764 66.8C296.324 67.9013 296.604 69.1613 296.604 70.58C296.604 70.86 296.576 71.1027 296.52 71.308H285.236C285.292 72.3907 285.553 73.3053 286.02 74.052C286.486 74.7987 287.074 75.3587 287.784 75.732C288.512 76.1053 289.268 76.292 290.052 76.292C291.881 76.292 293.29 75.4333 294.28 73.716L296.296 74.696C295.68 75.8533 294.84 76.768 293.776 77.44C292.73 78.112 291.461 78.448 289.968 78.448ZM294.084 69.348C294.046 68.7507 293.878 68.1533 293.58 67.556C293.281 66.9587 292.805 66.4547 292.152 66.044C291.517 65.6333 290.714 65.428 289.744 65.428C288.624 65.428 287.672 65.792 286.888 66.52C286.122 67.2293 285.618 68.172 285.376 69.348H294.084ZM312.477 78.448C311.077 78.448 309.817 78.112 308.697 77.44C307.577 76.768 306.699 75.8533 306.065 74.696C305.449 73.5387 305.141 72.26 305.141 70.86C305.141 69.46 305.449 68.1813 306.065 67.024C306.699 65.8667 307.577 64.952 308.697 64.28C309.817 63.608 311.077 63.272 312.477 63.272C313.877 63.272 315.137 63.608 316.257 64.28C317.377 64.952 318.245 65.8667 318.861 67.024C319.495 68.1813 319.813 69.46 319.813 70.86C319.813 72.26 319.495 73.5387 318.861 74.696C318.245 75.8533 317.377 76.768 316.257 77.44C315.137 78.112 313.877 78.448 312.477 78.448ZM312.477 76.292C313.354 76.292 314.166 76.0773 314.913 75.648C315.678 75.2 316.285 74.5653 316.733 73.744C317.199 72.9227 317.433 71.9613 317.433 70.86C317.433 69.7587 317.199 68.7973 316.733 67.976C316.285 67.1547 315.678 66.5293 314.913 66.1C314.166 65.652 313.354 65.428 312.477 65.428C311.599 65.428 310.778 65.652 310.013 66.1C309.247 66.5293 308.631 67.1547 308.165 67.976C307.717 68.7973 307.493 69.7587 307.493 70.86C307.493 71.9613 307.717 72.9227 308.165 73.744C308.631 74.5653 309.247 75.2 310.013 75.648C310.778 76.0773 311.599 76.292 312.477 76.292ZM323.818 65.876H321.186V63.72H323.818V62.18C323.818 61.284 324.024 60.5 324.434 59.828C324.845 59.156 325.396 58.6427 326.086 58.288C326.777 57.9147 327.542 57.728 328.382 57.728C329.185 57.728 329.885 57.84 330.482 58.064V60.388C330.146 60.2573 329.829 60.1547 329.53 60.08C329.232 59.9867 328.877 59.94 328.466 59.94C327.85 59.94 327.318 60.164 326.87 60.612C326.422 61.0413 326.198 61.648 326.198 62.432V63.72H329.866V65.876H326.198V78H323.818V65.876ZM344.512 78.448C342.944 78.448 341.507 77.972 340.2 77.02C338.893 76.068 337.997 74.7333 337.512 73.016L339.78 72.092C340.097 73.2867 340.685 74.2667 341.544 75.032C342.403 75.7973 343.411 76.18 344.568 76.18C345.725 76.18 346.705 75.872 347.508 75.256C348.311 74.6213 348.712 73.7627 348.712 72.68C348.712 71.7467 348.367 70.9813 347.676 70.384C347.004 69.768 345.893 69.1987 344.344 68.676L343.084 68.228C341.665 67.724 340.508 67.0613 339.612 66.24C338.716 65.4187 338.268 64.28 338.268 62.824C338.268 61.872 338.529 60.9947 339.052 60.192C339.575 59.3707 340.303 58.7173 341.236 58.232C342.169 57.7467 343.215 57.504 344.372 57.504C345.529 57.504 346.537 57.7187 347.396 58.148C348.255 58.5773 348.936 59.1 349.44 59.716C349.963 60.332 350.327 60.9387 350.532 61.536L348.292 62.488C348.105 61.7973 347.676 61.172 347.004 60.612C346.351 60.052 345.483 59.772 344.4 59.772C343.373 59.772 342.496 60.0613 341.768 60.64C341.04 61.2187 340.676 61.9467 340.676 62.824C340.676 63.608 340.984 64.252 341.6 64.756C342.216 65.2413 343.149 65.6987 344.4 66.128L345.716 66.576C347.415 67.192 348.74 67.9667 349.692 68.9C350.644 69.8147 351.12 71.0653 351.12 72.652C351.12 73.94 350.784 75.0227 350.112 75.9C349.459 76.7773 348.628 77.4213 347.62 77.832C346.612 78.2427 345.576 78.448 344.512 78.448ZM360.599 78.448C359.218 78.448 357.977 78.1213 356.875 77.468C355.774 76.796 354.915 75.8907 354.299 74.752C353.683 73.5947 353.375 72.2973 353.375 70.86C353.375 69.4227 353.683 68.1253 354.299 66.968C354.915 65.8107 355.774 64.9053 356.875 64.252C357.977 63.5987 359.218 63.272 360.599 63.272C362.149 63.272 363.446 63.636 364.491 64.364C365.555 65.0733 366.311 66.0253 366.759 67.22L364.603 68.116C364.249 67.2387 363.717 66.576 363.007 66.128C362.317 65.6613 361.477 65.428 360.487 65.428C359.647 65.428 358.863 65.6613 358.135 66.128C357.407 66.576 356.819 67.2107 356.371 68.032C355.942 68.8533 355.727 69.796 355.727 70.86C355.727 71.924 355.942 72.8667 356.371 73.688C356.819 74.5093 357.407 75.1533 358.135 75.62C358.863 76.068 359.647 76.292 360.487 76.292C361.495 76.292 362.363 76.0587 363.091 75.592C363.819 75.1253 364.361 74.4627 364.715 73.604L366.843 74.5C366.358 75.676 365.574 76.628 364.491 77.356C363.427 78.084 362.13 78.448 360.599 78.448ZM370.816 61.088C370.35 61.088 369.948 60.92 369.612 60.584C369.276 60.248 369.108 59.8467 369.108 59.38C369.108 58.9133 369.276 58.5213 369.612 58.204C369.948 57.868 370.35 57.7 370.816 57.7C371.283 57.7 371.684 57.868 372.02 58.204C372.356 58.5213 372.524 58.9133 372.524 59.38C372.524 59.8467 372.356 60.248 372.02 60.584C371.703 60.92 371.302 61.088 370.816 61.088ZM369.64 63.72H371.992V78H369.64V63.72ZM381.952 78.448C380.589 78.448 379.367 78.1213 378.284 77.468C377.201 76.8147 376.352 75.9187 375.736 74.78C375.139 73.6227 374.84 72.3253 374.84 70.888C374.84 69.5067 375.12 68.2373 375.68 67.08C376.259 65.9227 377.071 64.9987 378.116 64.308C379.161 63.6173 380.375 63.272 381.756 63.272C383.156 63.272 384.369 63.5893 385.396 64.224C386.423 64.84 387.207 65.6987 387.748 66.8C388.308 67.9013 388.588 69.1613 388.588 70.58C388.588 70.86 388.56 71.1027 388.504 71.308H377.22C377.276 72.3907 377.537 73.3053 378.004 74.052C378.471 74.7987 379.059 75.3587 379.768 75.732C380.496 76.1053 381.252 76.292 382.036 76.292C383.865 76.292 385.275 75.4333 386.264 73.716L388.28 74.696C387.664 75.8533 386.824 76.768 385.76 77.44C384.715 78.112 383.445 78.448 381.952 78.448ZM386.068 69.348C386.031 68.7507 385.863 68.1533 385.564 67.556C385.265 66.9587 384.789 66.4547 384.136 66.044C383.501 65.6333 382.699 65.428 381.728 65.428C380.608 65.428 379.656 65.792 378.872 66.52C378.107 67.2293 377.603 68.172 377.36 69.348H386.068ZM391.373 63.72H393.641V65.82H393.753C394.145 65.1107 394.771 64.5133 395.629 64.028C396.488 63.524 397.403 63.272 398.373 63.272C400.091 63.272 401.397 63.776 402.293 64.784C403.208 65.7733 403.665 67.1267 403.665 68.844V78H401.285V69.208C401.285 67.8827 400.968 66.9213 400.333 66.324C399.699 65.7267 398.831 65.428 397.729 65.428C396.964 65.428 396.273 65.6427 395.657 66.072C395.06 66.5013 394.593 67.0707 394.257 67.78C393.921 68.4707 393.753 69.1987 393.753 69.964V78H391.373V63.72ZM413.537 78.448C412.155 78.448 410.914 78.1213 409.813 77.468C408.711 76.796 407.853 75.8907 407.237 74.752C406.621 73.5947 406.313 72.2973 406.313 70.86C406.313 69.4227 406.621 68.1253 407.237 66.968C407.853 65.8107 408.711 64.9053 409.813 64.252C410.914 63.5987 412.155 63.272 413.537 63.272C415.086 63.272 416.383 63.636 417.429 64.364C418.493 65.0733 419.249 66.0253 419.697 67.22L417.541 68.116C417.186 67.2387 416.654 66.576 415.945 66.128C415.254 65.6613 414.414 65.428 413.425 65.428C412.585 65.428 411.801 65.6613 411.073 66.128C410.345 66.576 409.757 67.2107 409.309 68.032C408.879 68.8533 408.665 69.796 408.665 70.86C408.665 71.924 408.879 72.8667 409.309 73.688C409.757 74.5093 410.345 75.1533 411.073 75.62C411.801 76.068 412.585 76.292 413.425 76.292C414.433 76.292 415.301 76.0587 416.029 75.592C416.757 75.1253 417.298 74.4627 417.653 73.604L419.781 74.5C419.295 75.676 418.511 76.628 417.429 77.356C416.365 78.084 415.067 78.448 413.537 78.448ZM428.573 78.448C427.21 78.448 425.988 78.1213 424.905 77.468C423.822 76.8147 422.973 75.9187 422.357 74.78C421.76 73.6227 421.461 72.3253 421.461 70.888C421.461 69.5067 421.741 68.2373 422.301 67.08C422.88 65.9227 423.692 64.9987 424.737 64.308C425.782 63.6173 426.996 63.272 428.377 63.272C429.777 63.272 430.99 63.5893 432.017 64.224C433.044 64.84 433.828 65.6987 434.369 66.8C434.929 67.9013 435.209 69.1613 435.209 70.58C435.209 70.86 435.181 71.1027 435.125 71.308H423.841C423.897 72.3907 424.158 73.3053 424.625 74.052C425.092 74.7987 425.68 75.3587 426.389 75.732C427.117 76.1053 427.873 76.292 428.657 76.292C430.486 76.292 431.896 75.4333 432.885 73.716L434.901 74.696C434.285 75.8533 433.445 76.768 432.381 77.44C431.336 78.112 430.066 78.448 428.573 78.448ZM432.689 69.348C432.652 68.7507 432.484 68.1533 432.185 67.556C431.886 66.9587 431.41 66.4547 430.757 66.044C430.122 65.6333 429.32 65.428 428.349 65.428C427.229 65.428 426.277 65.792 425.493 66.52C424.728 67.2293 424.224 68.172 423.981 69.348H432.689ZM449.066 78.448C448.021 78.448 447.088 78.2427 446.266 77.832C445.445 77.4213 444.81 76.8613 444.362 76.152C443.914 75.424 443.69 74.6027 443.69 73.688C443.69 72.176 444.26 71 445.398 70.16C446.537 69.3013 447.974 68.872 449.71 68.872C450.569 68.872 451.362 68.9653 452.09 69.152C452.837 69.3387 453.406 69.5533 453.798 69.796V68.928C453.798 67.864 453.425 67.0147 452.678 66.38C451.932 65.7267 450.989 65.4 449.85 65.4C449.048 65.4 448.31 65.5773 447.638 65.932C446.966 66.268 446.434 66.744 446.042 67.36L444.25 66.016C444.81 65.1573 445.576 64.4853 446.546 64C447.536 63.5147 448.628 63.272 449.822 63.272C451.764 63.272 453.285 63.7853 454.386 64.812C455.506 65.82 456.066 67.2013 456.066 68.956V78H453.798V75.956H453.686C453.276 76.6467 452.66 77.2347 451.838 77.72C451.017 78.2053 450.093 78.448 449.066 78.448ZM449.29 76.348C450.093 76.348 450.84 76.1427 451.53 75.732C452.221 75.3213 452.772 74.7707 453.182 74.08C453.593 73.3893 453.798 72.6333 453.798 71.812C453.35 71.5133 452.8 71.2707 452.146 71.084C451.493 70.8973 450.802 70.804 450.074 70.804C448.768 70.804 447.778 71.0747 447.106 71.616C446.453 72.1573 446.126 72.8573 446.126 73.716C446.126 74.5 446.425 75.1347 447.022 75.62C447.62 76.1053 448.376 76.348 449.29 76.348ZM459.377 63.72H461.645V65.82H461.757C462.149 65.1107 462.775 64.5133 463.633 64.028C464.492 63.524 465.407 63.272 466.377 63.272C468.095 63.272 469.401 63.776 470.297 64.784C471.212 65.7733 471.669 67.1267 471.669 68.844V78H469.289V69.208C469.289 67.8827 468.972 66.9213 468.337 66.324C467.703 65.7267 466.835 65.428 465.733 65.428C464.968 65.428 464.277 65.6427 463.661 66.072C463.064 66.5013 462.597 67.0707 462.261 67.78C461.925 68.4707 461.757 69.1987 461.757 69.964V78H459.377V63.72ZM481.121 78.448C479.851 78.448 478.694 78.1213 477.649 77.468C476.622 76.8147 475.81 75.9187 475.213 74.78C474.615 73.6227 474.317 72.316 474.317 70.86C474.317 69.4227 474.615 68.1253 475.213 66.968C475.81 65.8107 476.622 64.9053 477.649 64.252C478.694 63.5987 479.851 63.272 481.121 63.272C482.222 63.272 483.202 63.524 484.061 64.028C484.919 64.5133 485.573 65.12 486.021 65.848H486.133L486.021 63.86V57.952H488.401V78H486.133V75.9H486.021C485.573 76.6093 484.919 77.216 484.061 77.72C483.202 78.2053 482.222 78.448 481.121 78.448ZM481.401 76.292C482.241 76.292 483.015 76.068 483.725 75.62C484.453 75.172 485.031 74.5373 485.461 73.716C485.909 72.8947 486.133 71.9427 486.133 70.86C486.133 69.7773 485.909 68.8253 485.461 68.004C485.031 67.1827 484.453 66.548 483.725 66.1C483.015 65.652 482.241 65.428 481.401 65.428C480.579 65.428 479.805 65.652 479.077 66.1C478.349 66.548 477.761 67.192 477.313 68.032C476.883 68.8533 476.669 69.796 476.669 70.86C476.669 71.924 476.883 72.876 477.313 73.716C477.761 74.5373 478.349 75.172 479.077 75.62C479.805 76.068 480.579 76.292 481.401 76.292ZM501.895 60.22H496.267V57.952H509.875V60.22H504.275V78H501.895V60.22ZM516.511 78.448C515.148 78.448 513.925 78.1213 512.843 77.468C511.76 76.8147 510.911 75.9187 510.295 74.78C509.697 73.6227 509.399 72.3253 509.399 70.888C509.399 69.5067 509.679 68.2373 510.239 67.08C510.817 65.9227 511.629 64.9987 512.675 64.308C513.72 63.6173 514.933 63.272 516.315 63.272C517.715 63.272 518.928 63.5893 519.955 64.224C520.981 64.84 521.765 65.6987 522.307 66.8C522.867 67.9013 523.147 69.1613 523.147 70.58C523.147 70.86 523.119 71.1027 523.063 71.308H511.779C511.835 72.3907 512.096 73.3053 512.563 74.052C513.029 74.7987 513.617 75.3587 514.327 75.732C515.055 76.1053 515.811 76.292 516.595 76.292C518.424 76.292 519.833 75.4333 520.823 73.716L522.839 74.696C522.223 75.8533 521.383 76.768 520.319 77.44C519.273 78.112 518.004 78.448 516.511 78.448ZM520.627 69.348C520.589 68.7507 520.421 68.1533 520.123 67.556C519.824 66.9587 519.348 66.4547 518.695 66.044C518.06 65.6333 517.257 65.428 516.287 65.428C515.167 65.428 514.215 65.792 513.431 66.52C512.665 67.2293 512.161 68.172 511.919 69.348H520.627ZM532.537 78.448C531.155 78.448 529.914 78.1213 528.813 77.468C527.711 76.796 526.853 75.8907 526.237 74.752C525.621 73.5947 525.313 72.2973 525.313 70.86C525.313 69.4227 525.621 68.1253 526.237 66.968C526.853 65.8107 527.711 64.9053 528.813 64.252C529.914 63.5987 531.155 63.272 532.537 63.272C534.086 63.272 535.383 63.636 536.429 64.364C537.493 65.0733 538.249 66.0253 538.697 67.22L536.541 68.116C536.186 67.2387 535.654 66.576 534.945 66.128C534.254 65.6613 533.414 65.428 532.425 65.428C531.585 65.428 530.801 65.6613 530.073 66.128C529.345 66.576 528.757 67.2107 528.309 68.032C527.879 68.8533 527.665 69.796 527.665 70.86C527.665 71.924 527.879 72.8667 528.309 73.688C528.757 74.5093 529.345 75.1533 530.073 75.62C530.801 76.068 531.585 76.292 532.425 76.292C533.433 76.292 534.301 76.0587 535.029 75.592C535.757 75.1253 536.298 74.4627 536.653 73.604L538.781 74.5C538.295 75.676 537.511 76.628 536.429 77.356C535.365 78.084 534.067 78.448 532.537 78.448ZM541.354 57.952H543.734V63.86L543.622 65.82H543.734C544.126 65.092 544.742 64.4853 545.582 64C546.441 63.5147 547.374 63.272 548.382 63.272C550.118 63.272 551.443 63.7853 552.358 64.812C553.273 65.82 553.73 67.164 553.73 68.844V78H551.35V69.208C551.35 67.92 551.023 66.968 550.37 66.352C549.717 65.736 548.867 65.428 547.822 65.428C547.075 65.428 546.385 65.652 545.75 66.1C545.134 66.548 544.639 67.1267 544.266 67.836C543.911 68.5453 543.734 69.2827 543.734 70.048V78H541.354V57.952ZM557.159 63.72H559.427V65.82H559.539C559.931 65.1107 560.556 64.5133 561.415 64.028C562.273 63.524 563.188 63.272 564.159 63.272C565.876 63.272 567.183 63.776 568.079 64.784C568.993 65.7733 569.451 67.1267 569.451 68.844V78H567.071V69.208C567.071 67.8827 566.753 66.9213 566.119 66.324C565.484 65.7267 564.616 65.428 563.515 65.428C562.749 65.428 562.059 65.6427 561.443 66.072C560.845 66.5013 560.379 67.0707 560.043 67.78C559.707 68.4707 559.539 69.1987 559.539 69.964V78H557.159V63.72ZM579.434 78.448C578.034 78.448 576.774 78.112 575.654 77.44C574.534 76.768 573.657 75.8533 573.022 74.696C572.406 73.5387 572.098 72.26 572.098 70.86C572.098 69.46 572.406 68.1813 573.022 67.024C573.657 65.8667 574.534 64.952 575.654 64.28C576.774 63.608 578.034 63.272 579.434 63.272C580.834 63.272 582.094 63.608 583.214 64.28C584.334 64.952 585.202 65.8667 585.818 67.024C586.453 68.1813 586.77 69.46 586.77 70.86C586.77 72.26 586.453 73.5387 585.818 74.696C585.202 75.8533 584.334 76.768 583.214 77.44C582.094 78.112 580.834 78.448 579.434 78.448ZM579.434 76.292C580.311 76.292 581.123 76.0773 581.87 75.648C582.635 75.2 583.242 74.5653 583.69 73.744C584.157 72.9227 584.39 71.9613 584.39 70.86C584.39 69.7587 584.157 68.7973 583.69 67.976C583.242 67.1547 582.635 66.5293 581.87 66.1C581.123 65.652 580.311 65.428 579.434 65.428C578.557 65.428 577.735 65.652 576.97 66.1C576.205 66.5293 575.589 67.1547 575.122 67.976C574.674 68.7973 574.45 69.7587 574.45 70.86C574.45 71.9613 574.674 72.9227 575.122 73.744C575.589 74.5653 576.205 75.2 576.97 75.648C577.735 76.0773 578.557 76.292 579.434 76.292ZM589.397 57.952H591.777V78H589.397V57.952ZM601.746 78.448C600.346 78.448 599.086 78.112 597.966 77.44C596.846 76.768 595.969 75.8533 595.334 74.696C594.718 73.5387 594.41 72.26 594.41 70.86C594.41 69.46 594.718 68.1813 595.334 67.024C595.969 65.8667 596.846 64.952 597.966 64.28C599.086 63.608 600.346 63.272 601.746 63.272C603.146 63.272 604.406 63.608 605.526 64.28C606.646 64.952 607.514 65.8667 608.13 67.024C608.765 68.1813 609.082 69.46 609.082 70.86C609.082 72.26 608.765 73.5387 608.13 74.696C607.514 75.8533 606.646 76.768 605.526 77.44C604.406 78.112 603.146 78.448 601.746 78.448ZM601.746 76.292C602.624 76.292 603.436 76.0773 604.182 75.648C604.948 75.2 605.554 74.5653 606.002 73.744C606.469 72.9227 606.702 71.9613 606.702 70.86C606.702 69.7587 606.469 68.7973 606.002 67.976C605.554 67.1547 604.948 66.5293 604.182 66.1C603.436 65.652 602.624 65.428 601.746 65.428C600.869 65.428 600.048 65.652 599.282 66.1C598.517 66.5293 597.901 67.1547 597.434 67.976C596.986 68.7973 596.762 69.7587 596.762 70.86C596.762 71.9613 596.986 72.9227 597.434 73.744C597.901 74.5653 598.517 75.2 599.282 75.648C600.048 76.0773 600.869 76.292 601.746 76.292ZM618.118 84.496C616.438 84.496 615.047 84.104 613.946 83.32C612.863 82.536 612.135 81.5933 611.762 80.492L613.918 79.568C614.235 80.3893 614.758 81.052 615.486 81.556C616.233 82.0787 617.11 82.34 618.118 82.34C619.593 82.34 620.731 81.9107 621.534 81.052C622.355 80.1933 622.766 78.98 622.766 77.412V75.816H622.654C622.187 76.544 621.525 77.1413 620.666 77.608C619.826 78.056 618.865 78.28 617.782 78.28C616.55 78.28 615.421 77.9627 614.394 77.328C613.386 76.6933 612.583 75.8067 611.986 74.668C611.389 73.5293 611.09 72.232 611.09 70.776C611.09 69.3387 611.389 68.0507 611.986 66.912C612.583 65.7547 613.386 64.8587 614.394 64.224C615.421 63.5893 616.55 63.272 617.782 63.272C618.865 63.272 619.826 63.5053 620.666 63.972C621.525 64.42 622.187 65.0173 622.654 65.764H622.766V63.72H625.034V77.44C625.034 79.736 624.399 81.4813 623.13 82.676C621.861 83.8893 620.19 84.496 618.118 84.496ZM618.118 76.124C618.977 76.124 619.751 75.9093 620.442 75.48C621.151 75.0507 621.711 74.4347 622.122 73.632C622.551 72.8293 622.766 71.8773 622.766 70.776C622.766 69.656 622.551 68.6947 622.122 67.892C621.711 67.0893 621.151 66.4827 620.442 66.072C619.751 65.6427 618.977 65.428 618.118 65.428C617.259 65.428 616.475 65.6427 615.766 66.072C615.057 66.5013 614.487 67.1173 614.058 67.92C613.647 68.7227 613.442 69.6747 613.442 70.776C613.442 71.8773 613.647 72.8387 614.058 73.66C614.487 74.4627 615.057 75.0787 615.766 75.508C616.475 75.9187 617.259 76.124 618.118 76.124ZM632.921 77.104L627.013 63.72H629.589L634.069 74.332H634.125L638.437 63.72H641.013L632.193 84.048H629.729L632.921 77.104Z" fill="white"/>
</svg>
