<svg width="93" height="92" viewBox="0 0 93 92" fill="none" xmlns="http://www.w3.org/2000/svg">
<path d="M55.6065 91.5548L50.6518 83.8952C49.206 84.0613 47.7375 84.1481 46.2464 84.1481C44.0607 84.1481 41.9203 83.9631 39.8346 83.612L34.4835 90.9997C31.8656 90.32 29.3363 89.4176 26.9184 88.3169L27.4111 79.2091C24.2438 77.4212 21.3578 75.1953 18.8324 72.6144L18 72.8862V16.6484L20.2876 17.5301C22.9415 15.0889 25.9407 13.0178 29.2023 11.396L29.191 2.27504C31.6617 1.3065 34.2343 0.539963 36.8882 0L41.8428 7.65963C43.2887 7.49538 44.7572 7.40663 46.2464 7.40663C48.4321 7.40663 50.5744 7.59166 52.6601 7.94472L58.0112 0.556953C60.6291 1.23663 63.1584 2.13725 65.5762 3.23983L65.0836 12.3456C68.2489 14.1355 71.1349 16.3614 73.6623 18.9423L82.3278 16.1141C84.0265 18.1777 85.5497 20.3923 86.8785 22.7315L81.133 29.8021C82.6204 33.0475 83.6679 36.5328 84.2002 40.188L92.8657 42.9917C92.9204 43.913 92.9506 44.8419 92.9506 45.7783C92.9506 47.5512 92.8487 49.3013 92.6562 51.0232L83.8567 53.3662C83.1319 56.978 81.8993 60.4047 80.2402 63.5727L85.6045 70.9397C84.1549 73.2034 82.5147 75.3312 80.7083 77.3061L72.207 74.0247C69.5532 76.4678 66.554 78.5389 63.2905 80.1607L63.3018 89.2797C60.833 90.2502 58.2603 91.0148 55.6065 91.5548ZM46.2464 27.4553C36.1294 27.4553 27.9282 35.6587 27.9282 45.7783C27.9282 55.898 36.1294 64.1014 46.2464 64.1014C56.3634 64.1014 64.5645 55.898 64.5645 45.7783C64.5645 35.6587 56.3634 27.4553 46.2464 27.4553Z" fill="#CEE3FF"/>
<path d="M37.3441 0L42.2988 7.6596C43.7446 7.49346 45.2131 7.40664 46.7042 7.40664C48.89 7.40664 51.0304 7.59163 53.116 7.9428L58.4671 0.555079C61.0851 1.23476 63.6143 2.13722 66.0322 3.23792L65.5396 12.3456C68.7068 14.1336 71.5928 16.3595 74.1182 18.9404L74.9506 18.6686L74.9506 74.9064L72.663 74.0247C70.0092 76.4659 67.0099 78.537 63.7483 80.1588L63.7596 89.2797C61.2889 90.2483 58.7163 91.0148 56.0625 91.5548L51.1078 83.8951C49.662 84.0594 48.1935 84.1481 46.7042 84.1481C44.5185 84.1481 42.3762 83.9631 40.2905 83.6101L34.9394 90.9978C32.3215 90.3181 29.7923 89.4175 27.3744 88.3149L27.867 79.2091C24.7017 77.4193 21.8157 75.1934 19.2883 72.6125L10.6228 75.4407C8.9241 73.3771 7.40089 71.1625 6.0721 68.8233L11.8176 61.7527C10.3303 58.5072 9.2827 55.022 8.75043 51.3668L0.084938 48.5631C0.0301971 47.6418 0 46.7129 0 45.7764C0 44.0036 0.101913 42.2534 0.294441 40.5316L9.09397 38.1886C9.81877 34.5768 11.0513 31.1501 12.7104 27.982L7.34616 20.6151C8.79576 18.3514 10.436 16.2236 12.2423 14.2487L20.7436 17.5301C23.3974 15.087 26.3967 13.0159 29.6601 11.3941L29.6488 2.27504C32.1177 1.30461 34.6903 0.539968 37.3441 0ZM46.7042 64.0995C56.8212 64.0995 65.0224 55.8961 65.0224 45.7764C65.0224 35.6568 56.8212 27.4534 46.7042 27.4534C36.5872 27.4534 28.3861 35.6568 28.3861 45.7764C28.3861 55.8961 36.5872 64.0995 46.7042 64.0995Z" fill="#CEE3FF"/>
</svg>
