<svg width="700" height="350" viewBox="0 0 755 426" fill="none" xmlns="http://www.w3.org/2000/svg">
<path d="M0 472H755V0H0V472Z" fill="white"/>
<path d="M675.094 402.841C626.376 400.458 460.648 404.493 410.244 406.067C359.841 407.64 301.334 403.991 270.943 398.625C240.552 393.257 64.8798 399.082 72.8516 413.51C80.8237 427.938 151.122 419.965 230.841 425.763C310.56 431.563 489.85 425.038 530.293 425.763C570.735 426.488 607.82 424.313 659.938 421.413C712.056 418.515 703.333 404.221 675.094 402.841Z" fill="#CCE2FF"/>
<path d="M451.277 121.84C464.365 109.379 486.731 109.663 486.26 128.637C485.788 147.611 487.354 149.396 492.739 159.349C511.426 193.886 470.467 191.855 453.385 192.988C436.303 194.12 437.719 161.93 440.739 144.088C443.759 126.247 447.447 125.488 451.277 121.84Z" fill="#303C60"/>
<path d="M457.377 230.634C453.181 265.878 445.558 291.93 444.708 308.639C443.859 325.346 440.461 391.133 440.461 391.133C440.461 391.133 449.805 390.48 450.654 389.064C451.503 387.648 468.208 350.551 467.358 327.611C466.509 304.674 484.042 269.797 484.042 269.797L479.814 235.577L457.377 230.634Z" fill="#4476BD"/>
<path d="M461.407 245.976L454.846 248.723C453.062 259.898 451.082 269.946 449.346 278.86C459.787 285.611 465.18 308.108 467.492 321.862C468.67 306.471 475.929 287.875 480.433 277.591L461.407 245.976Z" fill="#3E6BAB"/>
<path d="M491.705 227.081C491.705 227.081 505.846 245.125 505.403 265.594C504.729 296.756 501.331 305.652 507.243 338.326C509.551 351.087 502.147 392.832 502.147 392.832C502.147 392.832 495.822 393.327 492.424 391.635C492.707 388.569 488.336 338.673 479.823 315.738C475.699 304.631 469.906 273.524 466.792 255.682C463.678 237.843 463.111 234.161 464.244 234.161C465.376 234.161 491.705 227.081 491.705 227.081Z" fill="#4476BD"/>
<path d="M411.137 176.97C411.137 176.97 411.766 167.634 410.76 164.751C409.752 161.866 401.069 159.349 401.069 159.349C401.069 159.349 400.692 172.692 401.573 174.327C402.455 175.964 407.613 180.621 407.613 180.621L411.137 176.97Z" fill="#F09959"/>
<path d="M459.957 170.167C440.078 191.572 433.589 200.577 432.079 200.577C427.36 192.246 411.688 174.625 411.688 174.625L405.005 178.922C405.005 178.922 420.448 219.282 430.263 219.699C440.078 220.116 460.027 205.781 460.28 204.134C460.533 202.488 459.957 170.167 459.957 170.167Z" fill="#A2DFF2"/>
<path d="M439.223 217.607C448.949 213.646 460.091 205.362 460.28 204.134C460.533 202.488 459.957 170.167 459.957 170.167C455.624 174.834 451.841 178.973 448.557 182.592C444.995 195.857 445.229 210.302 439.223 217.607Z" fill="#96CFE0"/>
<path d="M480.155 156.077C480.155 156.077 499.179 165.615 503.332 182.5C507.484 199.382 495.197 220.243 493.687 231.374C492.177 242.506 457.449 244.464 457.449 232.549C457.449 221.124 448.747 196.877 449.238 190.699C450.391 176.207 471.569 158.454 471.569 158.454L480.155 156.077Z" fill="#A2DFF2"/>
<path d="M474.627 134.205L482.794 159.396C482.794 159.396 474.074 166.127 459.149 182.32C459.729 171.544 468.755 159.798 468.755 159.798L462.577 136.01L474.627 134.205Z" fill="#F09959"/>
<path d="M478.436 145.954L474.627 134.205L462.577 136.01L468.755 159.798C468.755 159.798 468.151 160.759 467.262 162.272C473.081 157.95 476.652 152.573 478.436 145.954Z" fill="#E38540"/>
<path d="M470.127 139.889C467.924 147.906 459.395 152.32 453.332 150.653C447.271 148.986 445.975 141.872 448.177 133.855C450.38 125.839 457.081 120.69 463.142 122.358C469.202 124.023 472.33 131.873 470.127 139.889Z" fill="#F09959"/>
<path d="M455.931 221.253C458.576 238.016 448.755 273.879 448.755 273.879C448.755 273.879 454.612 275.21 472.166 273.511C489.719 271.812 497.458 254.287 500.101 253.798C502.743 253.309 504.1 270.107 505.403 271.434C506.707 272.761 506.905 250.222 503.498 241.36C497.458 225.654 498.64 218.991 500.897 209.475C504.912 192.553 455.931 221.253 455.931 221.253Z" fill="#A2DFF2"/>
<path d="M440.888 382.883C442.47 389.307 439.348 394.403 435.171 398.119C431.773 401.14 421.33 402.423 421.832 403.934C422.336 405.444 434.667 405.922 438.819 405.293C442.972 404.663 444.104 402.65 449.272 402.652C452.662 402.654 453.291 399.897 451.781 396.491C450.271 393.083 449.742 391.201 451.107 388.146C452.471 385.092 440.888 382.883 440.888 382.883Z" fill="#4476BD"/>
<path d="M502.511 382.883C502.258 389.553 501.484 394.522 503.121 397.615C509.438 402.901 514.689 408.907 512.684 409.32C503.121 411.297 499.472 405.563 494.061 403.934C487.421 401.933 494.689 393.588 492.088 382.883C490.641 376.93 502.115 378.357 502.115 378.357L502.511 382.883Z" fill="#4476BD"/>
<path d="M504.925 246.83C504.544 244.738 504.072 242.853 503.498 241.36C497.458 225.654 498.64 218.991 500.897 209.475C501.077 208.724 501.148 208.065 501.126 207.487C501.635 205.792 502.111 204.072 502.528 202.341L500.478 183.831L485.697 166.272C474.619 182.509 482.096 202.711 480.433 213.85C478.772 224.989 460.21 239.193 460.21 239.193L460.814 243.144C461.643 248.565 466.667 252.331 472.098 251.578C479.748 250.515 489.784 248.381 494.249 244.237C498.57 240.225 502.398 243.329 504.925 246.83Z" fill="#96CFE0"/>
<path d="M464.55 238.554C464.55 238.554 456.356 240.848 455.376 241.36C454.397 241.874 453.855 244.583 453.855 244.583C453.855 244.583 449.165 248.657 450.961 250.1C452.758 251.542 455.967 255.193 460.21 253.494C462.813 252.452 464.833 242.882 466.539 242.804C468.247 242.729 464.55 238.554 464.55 238.554Z" fill="#F09959"/>
<path d="M487.756 164.131C496.526 164.381 504.478 180.179 507.249 193.886C510.019 207.595 512.936 227.081 512.936 227.081C512.936 227.081 498.402 238.554 484.042 241.908C471.513 244.834 465.118 245.976 465.118 245.976L462.577 238.823L492.551 221.213C492.551 221.213 481.53 200.445 480.433 184.775C479.338 169.104 481.092 163.943 487.756 164.131Z" fill="#A2DFF2"/>
<path d="M406.179 170.094L384.318 174.481L381.534 160.595L403.395 156.206L406.179 170.094Z" fill="#F5DC95"/>
<path d="M405.879 175.837C406.179 170.094 403.334 162.26 401.7 162.272C400.063 162.283 402.202 167.405 401.322 170.804C400.845 172.644 405.879 175.837 405.879 175.837Z" fill="#F09959"/>
<path d="M449.784 124.861C450.271 140.596 468.642 139.389 473.676 138.419C478.71 137.448 467.547 171.612 477.135 173.583C484.176 175.031 482.59 164.014 490.412 164.751C493.872 165.075 497.349 170.426 497.349 170.426C497.349 170.426 496.83 167.131 494.187 164.751C491.545 162.37 484.616 147.77 482.794 137.322C480.975 126.876 468.642 120.118 464.993 119.911C461.345 119.701 452.409 123.855 452.409 123.855L449.784 124.861Z" fill="#303C60"/>
<path d="M476.973 177.143C476.724 177.143 476.473 177.117 476.216 177.062C473.147 176.409 471.66 173.182 471.533 166.911C471.424 161.534 472.313 154.633 473.253 147.328C473.634 144.377 474.027 141.324 474.351 138.368C474.378 138.117 474.603 137.934 474.857 137.962C475.11 137.988 475.293 138.217 475.265 138.47C474.94 141.432 474.546 144.491 474.167 147.445C472.345 161.581 470.626 174.931 476.407 176.164C476.586 176.201 476.766 176.22 476.945 176.22C480.265 176.22 483.255 169.748 484.997 163.442C485.065 163.199 485.318 163.055 485.563 163.123C485.809 163.191 485.952 163.444 485.884 163.688C484.733 167.849 481.639 177.143 476.973 177.143Z" fill="#303C60"/>
<path d="M475.744 180.801C474.699 180.801 473.787 180.395 473.026 179.592C466.764 172.969 472.956 139.744 473.223 138.334C473.27 138.083 473.511 137.92 473.761 137.968C474.01 138.015 474.174 138.254 474.127 138.504C474.063 138.845 467.753 172.677 473.694 178.96C474.385 179.69 475.205 179.981 476.195 179.851C479.448 179.42 481.324 175.006 482.981 171.113C484.587 167.335 486.099 163.767 488.791 163.861C489.046 163.871 489.244 164.084 489.234 164.337C489.227 164.59 489.014 164.796 488.759 164.781C488.736 164.779 488.715 164.779 488.693 164.779C486.675 164.779 485.291 168.032 483.827 171.472C482.075 175.593 480.087 180.264 476.314 180.763C476.122 180.787 475.931 180.801 475.744 180.801Z" fill="#303C60"/>
<path d="M474.357 141.441C473.062 143.11 471.033 143.703 469.825 142.765C468.617 141.828 468.689 139.714 469.984 138.045C471.277 136.376 473.306 135.783 474.514 136.721C475.722 137.658 475.652 139.772 474.357 141.441Z" fill="#F09959"/>
<path d="M331.611 199.701C336.096 208.673 332.383 219.004 323.561 222.654C314.682 226.328 304.973 224.242 300.488 215.27C296.003 206.3 299.333 195.542 307.929 191.243C316.522 186.944 327.125 190.731 331.611 199.701Z" fill="#303C60"/>
<path d="M307.432 223.732C306.443 223.732 304.491 223.382 302.011 221.179C299.975 219.374 298.514 216.605 297.897 213.382C297.115 209.313 297.625 204.638 299.407 199.482C299.49 199.243 299.75 199.116 299.992 199.199C300.231 199.282 300.358 199.543 300.275 199.782C298.546 204.784 298.049 209.3 298.799 213.208C299.38 216.233 300.737 218.819 302.621 220.492C305.767 223.284 307.876 222.776 307.898 222.771C308.142 222.707 308.395 222.85 308.461 223.094C308.527 223.337 308.387 223.588 308.144 223.656C308.114 223.666 307.864 223.732 307.432 223.732Z" fill="#303C60"/>
<path d="M321.149 234.612C326.254 235.756 332.698 249.945 335.854 259.036C339.037 268.204 344.433 279.577 347.966 283.109C351.498 286.644 374.714 294.836 374.714 294.836C374.714 294.836 317.355 294.947 318.529 294.834C319.705 294.721 321.149 234.612 321.149 234.612Z" fill="#A8CEFF"/>
<path d="M351.6 290.278C348.461 289.829 337.132 291.288 341.955 289.268C346.777 287.25 346.105 284.669 346.105 284.669C346.105 284.669 339.263 290.39 338.03 285.386C336.966 281.074 336.558 265.844 332.521 250.577C329.186 243.008 324.82 235.436 321.149 234.612C321.149 234.612 321.02 239.988 320.807 247.524C322.215 264.201 324.607 288.704 325.212 294.881C332.815 294.892 345.539 294.881 356.184 294.866L363.265 294.528C363.265 294.528 354.741 290.727 351.6 290.278Z" fill="#93BBF0"/>
<path d="M302.381 231.469C302.381 231.469 286.143 240.543 282.359 242.474C278.574 244.404 292.963 301.053 296.164 303.481C299.363 305.909 327.538 303.898 330.745 300.84C333.953 297.781 328.283 288.394 331.06 269.599C333.834 250.802 322.593 234.576 321.149 234.612C319.705 234.648 310.278 231.469 310.278 231.469H302.381Z" fill="#A8CEFF"/>
<path d="M296.164 303.481C299.363 305.909 319.524 305.962 328.106 303.292C329.074 302.99 333.472 301.238 333.574 299.59C332.54 299.395 328.427 299.89 326.758 299.505C320.954 298.172 317.757 290.98 317.757 290.98C317.757 290.98 314.561 289.829 307.411 286.8C300.262 283.772 303.206 274.6 303.038 270.562C302.868 266.523 295.971 253.313 283.017 243.301L281.83 243.833C280.905 253.039 293.202 301.234 296.164 303.481Z" fill="#93BBF0"/>
<path d="M407.721 259.035H368.623L350.814 296.939H393.883L410.003 262.628C410.788 260.956 409.569 259.035 407.721 259.035Z" fill="#75A1DE"/>
<path d="M353.146 297.477H329.618C328.159 297.477 326.975 296.293 326.975 294.834C326.975 293.374 328.159 292.191 329.618 292.191H351.46L366.226 260.402C366.841 259.077 368.414 258.503 369.737 259.119C371.06 259.734 371.634 261.305 371.018 262.628L355.541 295.948C355.109 296.88 354.174 297.477 353.146 297.477Z" fill="#3E6BAB"/>
<path d="M312.345 289.381C322.553 291.288 325.061 293.631 330.626 294.528C336.932 295.546 336.183 296.939 331.498 296.939C326.815 296.939 315.043 297.122 311.003 296.223C306.962 295.327 312.345 289.381 312.345 289.381Z" fill="#F09959"/>
<path d="M281.083 243.537C273.261 268.553 262.172 296.939 263.939 296.939C265.705 296.939 310.62 298.755 312.387 297.243C314.154 295.731 313.648 289.925 313.397 289.168C313.144 288.411 287.861 283.923 287.861 283.923C287.861 283.923 291.19 277.432 292.453 264.749C293.714 252.065 282.566 238.792 281.083 243.537Z" fill="#A8CEFF"/>
<path d="M308.329 209.73L302.028 232.762C302.028 232.762 312.674 249.386 315.601 247.909C318.529 246.431 313.965 234.397 313.965 232.762C313.965 231.127 318.529 214.252 318.529 214.252L308.329 209.73Z" fill="#F09959"/>
<path d="M314.184 233.936C314.048 233.391 313.965 232.981 313.965 232.762C313.965 231.127 318.529 214.252 318.529 214.252L308.329 209.73L306.243 217.352C308.064 225.225 311.351 230.468 314.184 233.936Z" fill="#E38540"/>
<path d="M331.906 209.349C333.106 216.027 332.315 224.899 326.386 227.153C320.456 229.409 313.316 225.093 310.433 217.516C307.553 209.938 310.024 201.967 315.954 199.711C321.883 197.456 330.471 201.37 331.906 209.349Z" fill="#F09959"/>
<path d="M311.84 213.108C312.67 215.442 311.949 217.832 310.228 218.445C308.506 219.057 306.436 217.662 305.605 215.326C304.775 212.993 305.496 210.603 307.217 209.989C308.938 209.377 311.009 210.773 311.84 213.108Z" fill="#F09959"/>
<path d="M331.975 200.959C329.956 216.631 310.92 214.611 310.92 214.611C310.92 214.611 306.994 209.449 305.228 212.156C303.461 214.864 307.678 196.267 318.601 195.682C322.191 195.489 331.975 200.959 331.975 200.959Z" fill="#303C60"/>
<path d="M312.627 194.332C312.627 199.677 308.01 204.008 302.315 204.008C296.623 204.008 292.006 199.677 292.006 194.332C292.006 188.989 296.623 184.656 302.315 184.656C308.01 184.656 312.627 188.989 312.627 194.332Z" fill="#303C60"/>
<path d="M281.779 410.818H284.137L299.361 340.261H294.174L281.779 410.818Z" fill="#2E5B9A"/>
<path d="M355.08 410.818H352.723L335.005 337.767H340.192L355.08 410.818Z" fill="#2E5B9A"/>
<path d="M308.68 342.904C299.235 342.904 293.251 341.209 289.433 337.488C284.701 332.875 283.721 325.731 283.706 316.423C283.695 309.098 283.521 304.327 283.125 300.469C282.976 299.018 284.031 297.719 285.483 297.569C286.934 297.42 288.233 298.476 288.382 299.928C288.797 303.972 288.98 308.901 288.991 316.414C289.006 325.848 290.203 330.857 293.121 333.7C296.117 336.619 301.53 337.822 310.671 337.593C319.499 337.374 325.577 336.14 330.458 335.146C336.881 333.842 341.52 332.898 347.023 335.528C348.34 336.158 348.897 337.735 348.268 339.053C347.638 340.371 346.06 340.928 344.744 340.297C340.839 338.432 337.525 339.106 331.511 340.327C326.424 341.362 320.095 342.647 310.801 342.878C310.077 342.895 309.369 342.904 308.68 342.904Z" fill="#2E5B9A"/>
<path d="M287.223 297.243L301.681 297.845L297.832 337.769C297.832 337.769 287.055 330.889 287.223 323.484C287.393 316.081 287.223 297.243 287.223 297.243Z" fill="#2E5B9A"/>
<path d="M358.589 300.962C370.813 299.106 374.967 299.692 382.449 313.62C389.929 327.545 399.888 352.62 405.614 355.86C414.238 360.736 417.096 372.693 420.637 372.157C424.178 371.619 426.458 373.184 422.604 376.388C418.751 379.59 412.528 382.318 410.401 381.75C408.274 381.182 406.622 371.985 401.065 369C395.509 366.013 397.179 363.561 397.543 360.92C397.908 358.278 381.322 346.12 368.817 330.997C361.179 321.755 357.243 315.657 356.66 310.129C356.077 304.601 358.589 300.962 358.589 300.962Z" fill="#F09959"/>
<path d="M388.893 351.462C386.054 344.258 383.206 332.367 380.529 321.466C376.722 305.962 372.732 302.282 370.205 300.628C367.149 299.862 363.529 300.213 358.589 300.962C358.589 300.962 356.077 304.6 356.66 310.129C357.243 315.657 361.179 321.755 368.817 330.997C375.401 338.958 383.115 346.099 388.893 351.462Z" fill="#E38540"/>
<path d="M362.311 313.219C362.311 313.219 359.059 337.767 356.03 340.263C353.865 342.047 352.33 342.166 350.814 334.844C349.301 327.523 353.17 300.198 353.17 300.198L362.311 313.219Z" fill="#2E5B9A"/>
<path d="M359.72 326.503L329.618 331.563L346.613 307.187L359.546 304.553L367.302 306.337L359.72 326.503Z" fill="#F09959"/>
<path d="M397.543 360.92C396.567 364.854 396.684 367.762 398.381 369.219C400.076 370.675 406.482 381.504 406.482 381.504L408.479 381.2L403.857 371.292L397.543 360.92Z" fill="#2E5B9A"/>
<path d="M410.401 381.75C412.528 382.318 418.751 379.59 422.604 376.388C426.458 373.184 424.178 371.619 420.637 372.157C420.439 372.187 420.241 372.174 420.044 372.127C418.276 376.078 412.458 379.043 410.582 374.868C408.721 370.731 400.752 362.498 397.541 360.736C397.549 360.801 397.551 360.863 397.543 360.92C397.179 363.561 395.509 366.013 401.065 369C406.622 371.985 408.274 381.182 410.401 381.75Z" fill="#2E5B9A"/>
<path d="M297.149 301.946C286.47 321.117 293.765 333.3 306.745 334.542C319.726 335.783 340.216 333.413 352.16 323.484C364.106 313.557 373.91 303.058 372.542 301.493C371.171 299.926 297.149 301.946 297.149 301.946Z" fill="#E38540"/>
<path d="M357.713 316.249C359.899 309.687 362.421 304.651 367.302 304.559C372.434 304.465 375.592 307.134 375.811 315.532C376.071 325.533 376.424 358.652 375.962 373.378C375.612 384.527 378.861 388.095 378.585 399.716C378.38 408.469 387.708 404.047 384.104 408.588C381.626 411.709 374.25 410.687 369.72 410.111C365.682 409.598 371.809 397.496 366.222 394.26C361.428 391.484 361.334 386.976 364.361 383.564C367.389 380.151 364.697 370.056 362.679 362.987C360.66 355.92 357.528 348.274 355.473 331.563C354.886 326.798 356.377 320.258 357.713 316.249Z" fill="#F09959"/>
<path d="M380.913 405.014C379.367 405.486 377.46 406.007 375.801 406.062C372.436 406.173 371.426 402.471 371.203 397.443C371.007 393.051 367.819 386.136 364.548 383.332C364.488 383.411 364.427 383.491 364.361 383.564C361.334 386.976 361.428 391.484 366.222 394.26C371.809 397.496 365.682 409.598 369.72 410.111C374.25 410.687 381.626 411.709 384.105 408.588C386.447 405.637 383.54 405.403 380.913 405.014Z" fill="#2E5B9A"/>
<path d="M365.118 382.312C365.118 382.312 360.211 387.438 360.66 389.57C361.109 391.701 362.621 397.086 362.874 401.238C363.127 405.388 363.351 410.153 363.351 410.153C363.351 410.153 365.118 410.153 365.258 409.651C365.399 409.15 366.381 392.779 366.381 392.779L365.118 382.312Z" fill="#2E5B9A"/>
<path d="M292.006 300.198C292.006 300.198 285.671 327.088 293.674 334.542C301.677 341.996 334.912 335.292 342.74 334.844C348.04 334.542 353.17 341.012 353.17 341.012C353.17 341.012 349.469 326.009 351.992 313.893C354.516 301.778 358.589 300.962 358.589 300.962L353.17 300.198H292.006Z" fill="#75A1DE"/>
<path d="M290.571 293.167C293.28 298.916 287.655 308.845 289.626 311.705C291.598 314.565 302.883 312.105 310.279 306.152C317.674 300.198 331.67 298.889 331.67 298.889L290.571 293.167Z" fill="#A8CEFF"/>
<path d="M302.028 342.164C324.403 343.004 347.955 342.608 347.955 339.272C347.955 335.938 346.945 333.581 329.618 334.927C312.291 336.274 300.514 338.126 295.299 336.948C290.084 335.769 302.028 342.164 302.028 342.164Z" fill="#2E5B9A"/>
<path d="M540.635 303.032H225.381C224.035 303.032 222.944 301.94 222.944 300.594V299.376C222.944 298.03 224.035 296.939 225.381 296.939H540.635C541.981 296.939 543.071 298.03 543.071 299.376V300.594C543.071 301.94 541.981 303.032 540.635 303.032Z" fill="#2E5B9A"/>
<path d="M582.524 215.283C584.691 222.927 579.396 230.804 573.564 232.46C567.734 234.114 563.572 228.92 561.403 221.275C559.236 213.631 562.207 206.094 568.037 204.438C573.87 202.784 580.355 207.638 582.524 215.283Z" fill="#F09959"/>
<path d="M549.825 363.406C549.825 363.406 564.772 386.628 566.79 387.637C568.809 388.647 573.857 388.9 571.963 392.685C570.07 396.471 569.313 411.363 567.547 412.12C565.782 412.877 550.64 414.644 552.911 412.12C555.184 409.596 556.58 410.859 557.726 406.315C558.872 401.772 560.482 393.189 558.338 391.424C556.192 389.657 543.072 373.754 543.072 373.754L549.825 363.406Z" fill="#F09959"/>
<path d="M474.597 373.378C474.597 373.378 456.428 403.332 453.062 406.024C449.699 408.716 438.595 412.756 447.679 413.429C456.764 414.103 461.139 410.4 466.858 408.716C472.577 407.034 479.644 406.024 476.952 401.649C474.261 397.275 475.378 387.723 481.18 381.665C486.984 375.606 474.597 373.378 474.597 373.378Z" fill="#F09959"/>
<path d="M567.316 303.921C567.316 303.921 522.339 302.745 504.506 317.382C494.076 333.202 468.842 379.873 466.881 385.016C468.226 386.362 475.797 388.792 479.163 388.454C489.089 376.616 502.207 366.381 507.426 357.096C513.855 345.653 515.837 339.932 526.267 338.922C536.697 337.912 560.25 334.548 567.316 334.548C574.381 334.548 567.316 303.921 567.316 303.921Z" fill="#6791C9"/>
<path d="M606.539 413.51H604.181L587.275 342.953H592.462L606.539 413.51Z" fill="#2E5B9A"/>
<path d="M535.912 413.51H538.272L557.671 340.459H552.484L535.912 413.51Z" fill="#2E5B9A"/>
<path d="M592.939 300.84L566.79 305.354C566.79 305.354 532.041 305.673 516.158 308.633C501.705 311.326 499.576 327.749 516.158 350.366C525.576 363.213 533.54 373.462 549.825 385.016C553.968 381.975 555.552 380.823 556.697 373.503C555.518 371.887 552.467 361.769 551.52 359.789C542.513 340.954 530.489 334.104 530.323 332.252C532.341 328.971 583.796 349.356 594.026 337.365C603.794 325.916 592.939 300.84 592.939 300.84Z" fill="#75A1DE"/>
<path d="M594.027 241.624C587.139 240.656 580.125 241.966 573.564 246.716C567.832 252.562 561.346 262.2 561.745 278.099C562.249 298.291 558.621 299.588 562.405 305.14C578.192 311.662 605.191 339.678 598.834 309.641C594.229 287.894 608.93 271.683 597.071 247.558C596.105 245.595 594.899 243.69 594.027 241.624Z" fill="#F37168"/>
<path d="M561.739 285.698C561.433 296.225 559.946 299.325 561.082 302.626C567.518 303.283 579.291 305.86 582.233 309.979C585.597 314.69 588.962 315.364 587.392 311.886C585.822 308.409 581.673 303.472 588.066 286.532C594.457 269.593 597.486 258.15 591.205 246.371L561.739 285.698Z" fill="#D54A41"/>
<path d="M594.026 241.624C589.785 231.582 588.743 220.299 588.743 220.299L577.641 223.581C577.641 223.581 583.949 237.714 577.894 242.763C576.607 243.835 575.112 245.138 573.564 246.716C580.125 241.966 587.139 240.656 594.026 241.624Z" fill="#F09959"/>
<path d="M589.078 222.973C588.421 222.388 587.598 221.657 586.733 220.892L577.677 223.569L577.658 223.618C577.877 224.119 580.183 229.503 580.487 234.682C583.187 233.043 586.141 230.374 589.519 225.709C589.336 224.674 589.191 223.751 589.078 222.973Z" fill="#E38540"/>
<path d="M586.22 244.781C574.785 248.782 576.054 260.833 565.529 278.605C560.082 287.801 555.023 287.663 555.023 287.663C555.023 287.663 542.25 287.767 526.799 285.877C517.124 284.693 516.511 287.574 523.239 289.982C536.811 294.834 550.893 300.058 562.248 298.797C573.604 297.534 593.024 268.555 594.026 261.01C595.412 250.577 591.978 242.767 586.22 244.781Z" fill="#F09959"/>
<path d="M580.335 345.598C579.625 345.598 578.898 345.589 578.153 345.57C568.859 345.34 562.53 344.054 557.443 343.019C551.429 341.798 548.115 341.124 544.21 342.991C542.894 343.62 541.316 343.063 540.688 341.745C540.057 340.427 540.614 338.851 541.931 338.22C547.434 335.59 552.075 336.534 558.496 337.839C563.379 338.832 569.455 340.066 578.283 340.286C588.224 340.531 594.306 339.039 597.413 335.594C600.187 332.516 601.005 327.387 599.983 319.448C599.638 316.759 599.293 314.524 598.989 312.553C598.132 307.019 597.567 303.362 598.266 297.726C598.915 292.472 600.659 285.464 604.695 271.864C605.11 270.465 606.582 269.669 607.981 270.084C609.379 270.499 610.178 271.97 609.763 273.369C602.211 298.806 602.594 301.291 604.211 311.745C604.521 313.748 604.872 316.019 605.225 318.774C606.458 328.355 605.221 334.825 601.337 339.134C597.333 343.574 590.806 345.598 580.335 345.598Z" fill="#2E5B9A"/>
<path d="M475.831 398.625C463.776 404.521 457.288 407.902 453.423 407.58C452.511 407.504 451.754 407.41 451.12 407.311C446.82 409.853 439.957 412.857 447.679 413.429C456.764 414.103 461.139 410.4 466.858 408.716C472.579 407.034 479.644 406.024 476.952 401.649C476.437 400.811 476.061 399.782 475.831 398.625Z" fill="#D54A41"/>
<path d="M568.105 388.129C567.809 397.677 566.497 407.138 560.659 408.926C559.113 409.4 557.702 409.468 556.454 409.301C555.537 410.436 554.415 410.449 552.911 412.12C550.64 414.644 565.782 412.877 567.547 412.12C569.313 411.363 570.07 396.471 571.964 392.685C573.519 389.576 570.389 388.849 568.105 388.129Z" fill="#D54A41"/>
<path d="M521.667 297.477H483.368C482.339 297.477 481.405 296.88 480.973 295.948L465.495 262.628C464.88 261.305 465.454 259.734 466.777 259.119C468.102 258.503 469.672 259.077 470.288 260.402L485.053 292.191H521.667C523.128 292.191 524.31 293.374 524.31 294.834C524.31 296.293 523.128 297.477 521.667 297.477Z" fill="#75A1DE"/>
<path d="M529.68 286.209C521.941 286.098 514.266 281.484 510.454 282.158C506.641 282.83 494.191 291.468 495.761 291.805C497.332 292.142 507.201 287.025 507.537 286.946C507.873 286.868 510.004 290.491 515.276 291.821C520.548 293.152 515.314 287.869 531.654 292.806C542.279 296.016 529.68 286.209 529.68 286.209Z" fill="#F09959"/>
<path d="M592.888 232.46L594.026 241.624C594.026 241.624 584.011 242.219 579.028 245.025C574.045 247.828 566.692 255.932 566.692 255.932L572.7 245.585L573.564 238.966L592.888 232.46Z" fill="#F2E5DE"/>
<path d="M588.626 243.679C581.188 242.283 577.747 248.95 572.924 259.832C568.102 270.715 559.868 283.931 558.232 285.635C556.595 287.338 530.642 285.635 530.642 285.635C530.642 285.635 529.857 293.152 530.642 294.048C531.426 294.945 535.912 294.834 535.912 294.834C535.912 294.834 537.707 296.267 539.389 297.402C541.073 298.536 555.316 300.668 561.933 300.332C568.549 299.994 574.606 299.433 575.503 298.423C576.401 297.415 594.457 269.593 595.58 259.608C596.701 249.624 592.422 244.39 588.626 243.679Z" fill="#F2E5DE"/>
<path d="M566.692 197.906C552.624 198.58 554.831 219.748 554.831 219.748C554.831 219.748 558.485 220.877 566.139 219.614C565.55 217.343 565.803 211.537 565.803 211.537C565.803 211.537 566.692 216.25 567.82 219.11C569.44 219.852 571.269 219.193 574.381 218.442C575.98 225.167 580.497 228.01 583.589 228.982C587.005 230.057 590.621 231.337 594.659 229.318C598.696 227.298 596.477 206.657 594.332 202.507C591.114 196.275 585.765 190.699 576.512 193.643C571.873 195.121 566.692 197.906 566.692 197.906Z" fill="#303C60"/>
<path d="M591.156 223.046L596.907 231.45C596.907 231.45 590.533 247.381 609.07 254.597C623.588 260.249 621.878 270.209 615.317 280.224C608.758 290.24 619.243 298.987 619.243 298.987C619.243 298.987 620.842 287.892 634.949 285.798C654.185 282.943 659.63 257.112 645.264 244.196C633.375 233.508 629.759 242.359 621.71 232.768C613.664 223.177 598.473 229.654 598.473 229.654L592.905 221.532L591.156 223.046Z" fill="#303C60"/>
<path d="M651.88 270.165C651.807 270.165 651.731 270.146 651.659 270.109C651.437 269.986 651.356 269.706 651.478 269.484C656.325 260.621 652.369 249.884 650.38 246.977C650.17 246.669 649.97 246.358 649.759 246.029C647.803 242.974 645.37 239.174 632.397 236.838C629.289 236.279 626.769 234.427 624.1 232.468C618.566 228.405 612.292 223.8 598.664 230.072C598.434 230.179 598.16 230.077 598.054 229.847C597.949 229.617 598.049 229.343 598.281 229.237C612.401 222.737 618.906 227.513 624.644 231.727C627.224 233.621 629.662 235.411 632.56 235.934C645.927 238.341 648.481 242.329 650.534 245.533C650.74 245.855 650.936 246.161 651.138 246.456C652.337 248.21 653.819 251.84 654.425 256C654.951 259.606 655.006 264.951 652.284 269.925C652.201 270.078 652.043 270.165 651.88 270.165Z" fill="#303C60"/>
<path d="M588.083 231.605C587.165 231.605 586.173 231.525 585.104 231.365C580.2 230.631 573.622 227.842 573.105 212.17C573.096 211.915 573.296 211.703 573.549 211.694C573.811 211.683 574.015 211.885 574.025 212.139C574.238 218.627 575.527 223.428 577.852 226.411C579.623 228.68 581.971 229.966 585.24 230.455C589.817 231.142 592.854 230.293 594.264 227.931C594.395 227.714 594.678 227.642 594.895 227.772C595.114 227.902 595.184 228.186 595.053 228.403C593.781 230.532 591.442 231.605 588.083 231.605Z" fill="#303C60"/>
<path d="M149.051 242.725C132.723 252.065 110.013 290.884 114.807 297.22C119.602 303.555 145.34 286.897 145.34 286.897L149.051 242.725Z" fill="#96CFE0"/>
<path d="M179.555 197.708C173.32 197.538 175.634 192.903 168.464 194.753C164.695 195.727 167.477 197.277 162.581 196.773C157.683 196.267 155.274 195.763 154.657 198.959C154.039 202.158 153.741 203.168 151.386 203.672C149.03 204.176 147.967 208.384 151.386 211.245C154.805 214.105 153.142 215.283 152.385 217.639C151.629 219.995 154.209 220.163 155.61 222.35C157.012 224.538 154.32 224.951 156.339 226.849C158.358 228.744 161.189 228.576 161.189 228.576L169.688 212.277L179.555 197.708Z" fill="#303C60"/>
<path d="M306.579 393.344C306.579 393.344 315.664 393.597 322.728 390.82C329.793 388.042 334.588 383.753 333.327 388.8C332.066 393.848 326.262 402.508 321.215 403.352C316.168 404.196 314.401 409.751 311.626 409.751C308.85 409.751 304.812 403.352 297.747 400.156C291.307 397.243 306.579 393.344 306.579 393.344Z" fill="#2E5B9A"/>
<path d="M234.99 392.492C234.99 392.492 238.812 397.762 245.46 401.428C252.327 405.214 260.25 407.036 255.337 408.748C250.426 410.461 243.242 411.792 236.238 409.756C231.323 408.329 225.562 408.031 224.041 405.709C222.519 403.386 225.832 397.554 224.454 388.839C223.35 381.855 234.99 392.492 234.99 392.492Z" fill="#2E5B9A"/>
<path d="M192.453 307.786C192.453 307.786 245.075 327.494 249.316 333.006C253.555 338.515 308.869 388.705 308.869 392.406C308.869 396.108 299.448 402.841 299.448 402.841C299.448 402.841 252.008 373.728 240.232 358.92C228.454 344.111 199.713 336.972 184.434 335.602C169.154 334.229 192.453 307.786 192.453 307.786Z" fill="#3E6BAB"/>
<path d="M194.471 307.786C194.471 307.786 230.473 306.439 238.212 307.786C245.951 309.132 262.925 309.117 251.823 340.459C243.119 365.026 240.249 396.129 240.249 396.129L222.944 400.381C222.944 400.381 223.631 344.452 231.887 329.562C225.875 330.553 214.839 332.486 199.543 336.863C171.168 344.979 155.61 340.914 155.61 340.914L151.386 326.105L194.471 307.786Z" fill="#4476BD"/>
<path d="M164.407 214.809L155.61 240.807L166.724 248.127L173.021 225.663L164.407 214.809Z" fill="#A86B48"/>
<path d="M167.718 244.581L173.022 225.663L164.407 214.809L161.189 224.319C162.3 232.907 164.983 240.012 167.718 244.581Z" fill="#7A4E34"/>
<path d="M186.846 219.21C187.131 227.117 183.248 233.961 177.077 234.569C170.905 235.179 165.273 229.288 164.496 221.413C163.72 213.54 168.094 206.664 174.265 206.054C180.437 205.446 186.395 206.732 186.846 219.21Z" fill="#A86B48"/>
<path d="M151.386 240.05C124.384 258.29 141.178 287.765 147.107 309.305C152.158 327.651 151.993 338.739 152.75 338.739C153.507 338.739 172.077 335.962 182.675 326.371C193.274 316.78 200.439 307.489 200.439 307.489C200.439 307.489 186.861 305.071 182.423 287.501C180.17 278.582 181.194 273.739 176.059 259.604C170.923 245.47 151.386 240.05 151.386 240.05Z" fill="#A2DFF2"/>
<path d="M151.386 240.05L154.278 232.972C154.278 232.972 163.447 239.03 167.105 241.891C170.764 244.751 173.021 245.425 173.021 245.425C173.021 245.425 174.344 255.571 173.485 254.65C162.663 243.048 151.386 240.05 151.386 240.05Z" fill="#A2DFF2"/>
<path d="M139.419 413.51H141.776L158.683 342.953H153.496L139.419 413.51Z" fill="#2E5B9A"/>
<path d="M210.043 413.51H207.685L188.286 340.459H193.472L210.043 413.51Z" fill="#2E5B9A"/>
<path d="M165.682 345.597C156.238 345.597 150.255 343.901 146.436 340.18C141.703 335.568 140.724 328.423 140.71 319.115C140.68 299.546 139.598 295.5 134.09 283.551C133.479 282.226 134.058 280.655 135.384 280.043C136.709 279.433 138.279 280.011 138.89 281.338C144.711 293.969 145.963 298.612 145.995 319.108C146.009 328.54 147.205 333.549 150.124 336.393C153.119 339.311 158.531 340.514 167.674 340.286C176.502 340.067 182.578 338.832 187.461 337.839C193.882 336.534 198.523 335.59 204.026 338.22C205.343 338.851 205.9 340.427 205.269 341.745C204.641 343.063 203.063 343.62 201.747 342.991C197.842 341.124 194.528 341.798 188.514 343.019C183.428 344.054 177.098 345.34 167.804 345.57C167.079 345.589 166.371 345.597 165.682 345.597Z" fill="#2E5B9A"/>
<path d="M282.355 297.171H244.054C242.595 297.171 241.411 295.989 241.411 294.528C241.411 293.069 242.595 291.885 244.054 291.885H280.667L295.435 260.097C296.051 258.773 297.621 258.197 298.944 258.813C300.269 259.428 300.843 260.999 300.228 262.324L284.75 295.642C284.318 296.575 283.382 297.171 282.355 297.171Z" fill="#3E6BAB"/>
<path d="M152.385 266.606C152.385 266.606 159.115 287.136 167.442 295.634C175.77 304.132 192.529 306.989 197.776 306.655C193.593 304.972 185.626 300.184 182.423 287.501C180.17 278.582 181.194 273.739 176.059 259.604C172.246 249.112 160.5 243.422 154.699 241.186C161.94 246.39 170.993 254.955 173.775 261.475C176.863 268.711 152.385 266.606 152.385 266.606Z" fill="#96CFE0"/>
<path d="M245.266 284.624C245.266 284.624 256.872 279.324 258.134 279.828C259.395 280.334 272.264 288.107 272.264 289.395C272.264 290.682 260.909 284.595 260.909 284.595C260.909 284.595 262.172 287.96 261.415 289.574C260.658 291.186 251.928 291.186 244.054 290.682C236.181 290.178 245.266 284.624 245.266 284.624Z" fill="#A86B48"/>
<path d="M152.756 250.745C142.057 272.682 178.761 294.919 200.536 296.896C222.312 298.874 248.182 291.745 248.182 291.745L245.266 284.624C245.266 284.624 201.64 278.929 200.536 278.131C199.431 277.334 156.675 242.712 152.756 250.745Z" fill="#A2DFF2"/>
<path d="M166.668 215.549C167.66 218.158 166.933 220.854 165.044 221.574C163.155 222.293 160.82 220.76 159.828 218.151C158.837 215.542 159.564 212.846 161.453 212.126C163.341 211.409 165.677 212.94 166.668 215.549Z" fill="#A86B48"/>
<path d="M186.861 198.848C189.816 197.613 193.146 196.292 192.115 201.316C191.668 203.504 192.115 202.886 192.901 204.907C193.686 206.925 190.922 208.511 190.026 209.632C189.127 210.754 191.332 211.973 189.537 213.319C187.742 214.666 185.376 212.821 183.705 213.319C178.714 214.809 179.331 210.882 176.527 210.066C173.723 209.249 172.349 209.375 171.816 211.171C171.284 212.966 173.779 218.872 171.648 218.311C169.517 217.751 169.037 222.518 168.464 225.212C167.891 227.904 166.429 223.352 166.523 220.273C166.668 215.549 165.496 213.565 163.756 212.243C162.017 210.922 161.276 198.905 169.688 198.455C178.1 198.006 178.153 197.194 181.742 196.435C185.331 195.676 185.513 199.411 186.861 198.848Z" fill="#303C60"/>
<path d="M658.453 336.083C663.815 340.98 661.484 345.88 657.518 354.976C653.554 364.073 652.854 397.662 652.854 397.662L656.12 397.196C656.12 397.196 655.653 362.674 660.083 353.343C664.515 344.013 666.38 339.349 670.344 342.381C674.31 345.413 658.453 336.083 658.453 336.083Z" fill="#74B570"/>
<path d="M655.506 329.741C656.157 326.837 660.025 323.698 665.197 321.032C664.428 325.314 661.963 332.314 664.515 333.751C667.956 335.686 664.849 325.912 666.178 320.541C671.035 318.168 676.878 316.229 682.26 315.264C682.25 315.285 682.244 315.304 682.237 315.324C679.206 323.022 675.242 326.054 676.874 327.219C678.101 328.097 682.101 319.206 687.384 314.648C691.348 314.437 694.702 314.973 696.686 316.546C699.753 318.974 701.812 321.128 698.728 328.523C696.965 329.783 694.683 330.685 692.031 330.951C685.036 331.652 681.771 331.884 686.667 334.218C689.066 335.36 693.084 334.153 696.344 333.417C695.287 335.365 693.987 337.571 692.409 340.084C691.406 341.677 690.302 343.059 689.13 344.256C686.876 344.688 684.91 344.692 683.87 344.247C680.604 342.848 672.211 338.415 670.112 340.282C668.058 342.108 685.659 343.265 684.44 347.906C675.906 352.822 666.144 350.483 664.419 345.968C662.101 339.906 653.545 338.479 655.506 329.741Z" fill="#9CD499"/>
<path d="M673.143 362.908C663.815 355.909 654.255 362.439 649.357 369.904C644.46 377.368 647.958 394.161 647.958 394.161C647.958 394.161 649.823 394.161 649.823 393.463C649.823 392.762 644.692 373.637 656.82 365.005C664.406 359.607 669.877 362.207 670.578 364.773C671.276 367.339 667.546 372.004 667.546 372.004L673.143 362.908Z" fill="#74B570"/>
<path d="M651.69 348.523C661.018 348.523 664.049 362.985 661.484 371.381C658.919 379.779 655.419 395.406 655.419 395.406L653.088 393.074C653.088 393.074 661.95 371.149 659.851 361.352C657.752 351.555 652.622 349.922 651.69 349.922C650.757 349.922 651.69 348.523 651.69 348.523Z" fill="#9CD499"/>
<path d="M659.513 371.447C660.168 370.577 660.98 369.859 661.967 369.382C661.839 370.078 661.677 370.747 661.484 371.381C660.314 375.208 658.953 380.534 657.815 385.199C657.713 384.603 657.552 383.681 657.307 382.261C657.248 381.925 657.203 381.561 657.171 381.176C658.084 378.068 658.949 374.681 659.513 371.447Z" fill="#74B570"/>
<path d="M662.063 371.517C679.785 364.052 670.448 353.809 686.072 360.574C687.173 361.05 688.513 362.252 689.857 363.908C688.464 364.303 686.78 364.588 684.906 364.307C680.242 363.606 681.875 367.339 689.57 368.271C691.02 368.447 692.197 368.691 693.175 369.032C696.843 376.076 698.494 385.343 690.736 388.564C689.208 389.2 687.318 389.562 685.214 389.698C682.82 387.795 685.799 376.781 682.107 378.3C678.564 379.762 683.218 387.742 682.581 389.753C679.083 389.691 675.21 389.119 671.51 388.201C670.046 387.38 668.926 386.279 668.583 384.833C667.416 379.934 675.112 376.901 675.346 372.703C675.559 368.843 672.524 381.195 664.485 383.013C657.214 379.616 653.779 375.006 662.063 371.517Z" fill="#9CD499"/>
<path d="M649.434 358.32C651.301 354.355 646.403 353.42 646.637 356.453C646.842 359.141 646.867 365.672 644.111 367.45C639.36 366.935 632.896 365.02 628.009 362.101C627.947 361.707 628.007 361.301 628.215 360.886C630.314 356.687 643.838 353.188 639.642 351.789C636.299 350.673 630.44 357.253 625.719 360.566C622.884 358.414 620.986 355.85 620.986 352.988C620.986 349.112 625.693 344.726 631.78 342.629C634.521 342.906 637.065 344.403 641.04 346.658C646.912 349.986 645.553 344.603 640.002 341.411C644.794 341.658 649.574 343.707 653.098 348.6C653.098 348.6 652.765 350.692 654.978 353.928C661.016 362.755 654.047 367.907 645.717 367.573C646.189 365.247 648.147 361.059 649.434 358.32Z" fill="#9CD499"/>
<path d="M672.582 362.511C677.142 366.036 682.207 370.157 688.426 372.956C694.645 375.755 693.401 384.878 693.401 384.878C693.401 384.878 694.334 377 689.151 374.304C683.97 371.609 680.549 368.394 676.61 367.773C672.673 367.15 670.495 366.529 670.495 366.529C670.495 366.529 671.738 364.04 671.014 363.108C670.289 362.175 672.582 362.511 672.582 362.511Z" fill="#74B570"/>
<path d="M695.058 321.121C678.373 325.578 666.142 336.257 663.862 338.849C661.582 341.439 661.582 342.166 661.582 342.166L663.345 345.483L664.173 345.068C664.173 345.068 662.826 342.27 666.35 338.641C672.427 332.382 679.823 327.443 684.902 325.267C689.981 323.09 695.058 321.121 695.058 321.121Z" fill="#74B570"/>
<path d="M648.998 413.51H655.374C659.908 413.51 663.583 409.834 663.583 405.299V390.648H640.789V405.299C640.789 409.834 644.464 413.51 648.998 413.51Z" fill="#75A1DE"/>
<path d="M663.583 394.871H640.789V393.267H663.583V394.871Z" fill="white"/>
<path d="M663.583 397.137H640.789V396.193H663.583V397.137Z" fill="white"/>
<path d="M378.614 84.6881C378.614 67.411 364.722 53.3775 347.5 53.1585C330.199 52.9358 315.843 66.873 315.567 84.1765C315.433 92.6234 318.621 100.323 323.908 106.058C326.343 108.7 327.695 112.16 327.695 115.755V129.891C327.695 139.034 335.175 146.516 344.318 146.516H349.859C359.003 146.516 366.483 139.034 366.483 129.891V115.757C366.483 112.132 367.879 108.666 370.328 105.994C375.473 100.383 378.614 92.9028 378.614 84.6881Z" fill="#F5DC95"/>
<path d="M349.472 139.995H344.705C336.839 139.995 330.405 133.559 330.405 125.692V113.531C330.405 110.44 329.242 107.461 327.145 105.188C322.598 100.255 319.856 93.6297 319.971 86.3628C320.207 71.593 332.366 59.6759 347.092 59.6759C347.209 59.6759 347.326 59.6778 347.443 59.6797C362.258 59.8685 374.208 71.9403 374.208 86.8046C374.208 93.8713 371.507 100.308 367.081 105.135C364.975 107.433 363.772 110.414 363.772 113.533V125.692C363.772 133.559 357.338 139.995 349.472 139.995Z" fill="#FAEECA"/>
<path d="M351.749 121.423H341.368C340.879 121.423 340.471 121.051 340.428 120.566C340.409 120.364 338.47 100.319 329.51 94.704C329.067 94.4283 328.935 93.8449 329.21 93.4031C329.488 92.9613 330.069 92.8273 330.511 93.1049C339.254 98.58 341.738 115.472 342.215 119.535H350.75C350.716 118.142 350.796 115.449 351.6 111.966C352.674 107.31 355.307 100.287 361.753 93.2653C362.105 92.8821 362.702 92.8575 363.087 93.2087C363.47 93.5617 363.497 94.1602 363.144 94.5435C351.36 107.374 352.672 120.245 352.685 120.373C352.715 120.639 352.63 120.907 352.451 121.108C352.274 121.31 352.017 121.423 351.749 121.423Z" fill="#94BDF2"/>
<path d="M332.802 85.247C332.179 85.247 331.641 85.3622 331.213 85.6171C330.286 86.1646 329.807 87.4843 329.788 89.5365C329.769 91.7134 330.248 93.1124 331.213 93.6977C333.542 95.1099 338.982 92.4856 344.201 89.731C339.982 87.4805 335.554 85.247 332.802 85.247ZM348.21 89.7367C353.391 92.4931 358.814 95.1307 361.207 93.7184C362.209 93.1294 362.73 91.7134 362.759 89.5158C362.787 87.439 362.338 86.1041 361.424 85.5472C359.11 84.1387 353.491 86.9349 348.21 89.7367ZM359.52 95.9954C356.015 95.9954 351.235 93.5051 346.203 90.8052C339.703 94.2678 333.633 97.3736 330.235 95.3138C328.638 94.3453 327.874 92.4497 327.9 89.5195C327.925 86.7593 328.716 84.8996 330.252 83.9915C333.655 81.9751 339.739 85.1922 346.207 88.6643C352.802 85.145 359.014 81.8694 362.406 83.9348C363.929 84.8637 364.682 86.7479 364.646 89.5403C364.61 92.444 363.774 94.3962 362.166 95.3459C361.402 95.7971 360.511 95.9954 359.52 95.9954Z" fill="#94BDF2"/>
<path d="M350.428 151.002H344.388C342.258 151.002 340.518 149.262 340.518 147.132V146.565C340.518 144.438 342.258 142.695 344.388 142.695H350.428C352.555 142.695 354.297 144.438 354.297 146.565V147.132C354.297 149.262 352.555 151.002 350.428 151.002Z" fill="#94BDF2"/>
<path d="M326.779 119.724V129.723C326.779 139.3 334.612 147.136 344.187 147.136H349.99C359.565 147.136 367.398 139.3 367.398 129.723V119.724H326.779Z" fill="#94BDF2"/>
<path d="M367.226 122.871H327.462C326.217 122.871 325.197 121.852 325.197 120.605V120.354C325.197 119.108 326.217 118.089 327.462 118.089H367.226C368.472 118.089 369.491 119.108 369.491 120.354V120.605C369.491 121.852 368.472 122.871 367.226 122.871Z" fill="#9EC8FF"/>
<path d="M367.368 126.456L327.906 131.333C326.67 131.486 325.531 130.599 325.38 129.362L325.348 129.113C325.195 127.876 326.083 126.74 327.319 126.587L366.783 121.71C368.019 121.557 369.155 122.444 369.308 123.681L369.338 123.93C369.491 125.167 368.604 126.303 367.368 126.456Z" fill="#9EC8FF"/>
<path d="M367.368 133.365L327.906 138.241C326.67 138.394 325.531 137.507 325.38 136.27L325.348 136.021C325.195 134.784 326.083 133.648 327.319 133.495L366.783 128.618C368.019 128.465 369.155 129.353 369.308 130.589L369.338 130.838C369.491 132.075 368.604 133.212 367.368 133.365Z" fill="#9EC8FF"/>
<path d="M364.933 140.758L332.066 144.819C330.932 144.959 329.888 144.145 329.748 143.01L329.671 142.391C329.531 141.256 330.345 140.212 331.479 140.073L364.348 136.012C365.482 135.872 366.524 136.686 366.666 137.82L366.741 138.439C366.881 139.574 366.067 140.618 364.933 140.758Z" fill="#9EC8FF"/>
<path d="M649.5 149.72H670.685C670.685 161.347 661.122 170.911 649.5 170.911C637.879 170.911 628.317 161.347 628.317 149.72C628.317 138.096 637.879 128.531 649.5 128.531V149.72Z" fill="#9EC8FF"/>
<path d="M674.234 146.754C674.234 135.051 664.749 125.563 653.049 125.563V146.754H674.234Z" fill="#F39892"/>
<path d="M631.863 146.754C631.863 158.458 641.348 167.945 653.049 167.945C641.427 167.945 631.863 158.379 631.863 146.754Z" fill="#F39892"/>
<path d="M653.049 125.563C641.348 125.563 631.863 135.051 631.863 146.754C631.863 135.13 641.427 125.563 653.049 125.563Z" fill="#F39892"/>
<path d="M653.049 167.945C664.749 167.945 674.234 158.458 674.234 146.754C674.234 158.379 664.67 167.945 653.049 167.945Z" fill="#F39892"/>
<path d="M239.516 149.095H234.89V135.704H239.516V149.095Z" fill="#9EC8FF"/>
<path d="M298.821 149.095H294.193V140.061H298.821V149.095Z" fill="#9EC8FF"/>
<path d="M259.125 149.095H254.497V117.764H259.125V149.095Z" fill="#9EC8FF"/>
<path d="M268.929 149.095H264.303V135.013H268.929V149.095Z" fill="#9EC8FF"/>
<path d="M278.733 149.095H274.107V131.027H278.733V149.095Z" fill="#9EC8FF"/>
<path d="M249.32 149.095H244.694V126.862H249.32V149.095Z" fill="#9EC8FF"/>
<path d="M288.57 149.095H283.944V121.712H288.57V149.095Z" fill="#9EC8FF"/>
<path d="M442.662 77.2154H407.932V56.9685H434.051C437.415 60.331 439.301 62.2171 442.662 65.5815V77.2154Z" fill="#FFB8B3"/>
<path d="M433.413 56.9685V67.7754H442.662V65.6986L433.993 57.027L433.413 56.9685Z" fill="#F39892"/>
<path d="M434.051 56.9685V65.6986H442.662L434.051 56.9685Z" fill="#FFB8B3"/>
<path d="M427.326 64.5659H411.849C411.513 64.5659 411.235 64.2902 411.235 63.9523C411.235 63.6143 411.513 63.3387 411.849 63.3387H427.326C427.664 63.3387 427.94 63.6143 427.94 63.9523C427.94 64.2902 427.664 64.5659 427.326 64.5659Z" fill="white"/>
<path d="M427.326 67.7056H411.849C411.513 67.7056 411.235 67.428 411.235 67.092C411.235 66.754 411.513 66.4784 411.849 66.4784H427.326C427.664 66.4784 427.94 66.754 427.94 67.092C427.94 67.428 427.664 67.7056 427.326 67.7056Z" fill="white"/>
<path d="M427.326 71.0095H411.849C411.513 71.0095 411.235 70.732 411.235 70.3959C411.235 70.058 411.513 69.7823 411.849 69.7823H427.326C427.664 69.7823 427.94 70.058 427.94 70.3959C427.94 70.732 427.664 71.0095 427.326 71.0095Z" fill="white"/>
<path d="M425.297 58.5242C425.297 59.0982 424.833 59.5626 424.259 59.5626C423.687 59.5626 423.221 59.0982 423.221 58.5242C423.221 57.9503 423.687 57.4858 424.259 57.4858C424.833 57.4858 425.297 57.9503 425.297 58.5242Z" fill="#3E6BAB"/>
<path d="M288.278 84.0953L266.606 79.9077L271.655 53.7684L293.327 57.9579L288.278 84.0953Z" fill="#FAE8B6"/>
<path d="M288.74 69.2575L277.251 67.0372C276.945 66.9787 276.743 66.6785 276.802 66.3726C276.86 66.0668 277.161 65.8648 277.466 65.9252L288.955 68.1455C289.261 68.204 289.463 68.5023 289.405 68.8082C289.344 69.114 289.046 69.316 288.74 69.2575Z" fill="#9EC8FF"/>
<path d="M288.185 72.1311L276.696 69.9108C276.39 69.8504 276.188 69.5521 276.247 69.2462C276.305 68.9403 276.604 68.7383 276.909 68.7988L288.401 71.019C288.706 71.0776 288.908 71.3759 288.85 71.6817C288.789 71.9876 288.491 72.1896 288.185 72.1311Z" fill="#9EC8FF"/>
<path d="M287.615 75.0839L276.126 72.8617C275.818 72.8032 275.618 72.5049 275.677 72.199C275.735 71.8932 276.034 71.6912 276.339 71.7497L287.831 73.97C288.136 74.0304 288.338 74.3287 288.278 74.6345C288.219 74.9404 287.921 75.1424 287.615 75.0839Z" fill="#9EC8FF"/>
<path d="M280.962 57.2744C280.864 57.786 280.369 58.1202 279.858 58.022C279.344 57.9238 279.01 57.4273 279.108 56.9156C279.208 56.404 279.703 56.0698 280.214 56.168C280.726 56.2681 281.062 56.7627 280.962 57.2744Z" fill="#3E6BAB"/>
<path d="M458.691 105.545L425.152 102.011L427.366 80.982L453.959 83.7837C456.386 86.7838 457.747 88.4641 460.174 91.4641L458.691 105.545Z" fill="#9EC8FF"/>
<path d="M453.483 85.2847L428.517 82.6529L426.65 100.396L457.687 103.668L458.781 93.2785L452.709 92.6385L453.483 85.2847Z" fill="white"/>
<path d="M450.099 91.7304L433.927 90.0255C433.557 89.9877 433.285 89.6517 433.325 89.2816C433.362 88.9097 433.698 88.6397 434.068 88.6775L450.24 90.3823C450.612 90.422 450.882 90.7561 450.844 91.1281C450.805 91.4981 450.471 91.77 450.099 91.7304Z" fill="#9EC8FF"/>
<path d="M449.723 95.2949L433.551 93.5919C433.181 93.5523 432.909 93.2162 432.949 92.8461C432.989 92.4761 433.323 92.2043 433.693 92.2439L449.867 93.9469C450.237 93.9865 450.507 94.3207 450.469 94.6926C450.429 95.0627 450.095 95.3345 449.723 95.2949Z" fill="#9EC8FF"/>
<path d="M449.333 99.018L433.161 97.3132C432.789 97.2735 432.519 96.9394 432.557 96.5674C432.596 96.1974 432.93 95.9255 433.302 95.9652L449.474 97.67C449.844 97.7078 450.116 98.0438 450.076 98.4139C450.037 98.7839 449.703 99.0558 449.333 99.018Z" fill="#9EC8FF"/>
<path d="M440.954 85.8379C440.954 86.41 440.49 86.8763 439.916 86.8763C439.344 86.8763 438.878 86.41 438.878 85.8379C438.878 85.264 439.344 84.7996 439.916 84.7996C440.49 84.7996 440.954 85.264 440.954 85.8379Z" fill="#3E6BAB"/>
<path d="M625.34 69.4349C625.34 75.8315 620.155 81.0178 613.76 81.0178C607.365 81.0178 602.18 75.8315 602.18 69.4349C602.18 63.0384 607.365 57.8521 613.76 57.8521C620.155 57.8521 625.34 63.0384 625.34 69.4349Z" fill="#9CD499"/>
<path d="M612.611 73.3998L612.59 73.3979C612.433 73.3922 612.288 73.3243 612.186 73.2072L609.04 69.6313C608.834 69.3972 608.857 69.0385 609.091 68.8327C609.327 68.6251 609.683 68.6496 609.891 68.8837L612.641 72.0102L618.934 65.8497C619.157 65.6307 619.515 65.6345 619.734 65.8591C619.953 66.0819 619.949 66.4406 619.727 66.6596L613.007 73.2374C612.901 73.3413 612.758 73.3998 612.611 73.3998Z" fill="white"/>
<path d="M92.0195 176.957H158.78C160.492 176.957 161.892 175.556 161.892 173.843V149.985C161.892 148.274 160.492 146.873 158.78 146.873H92.0195C90.3085 146.873 88.9086 148.274 88.9086 149.985V173.843C88.9086 175.556 90.3085 176.957 92.0195 176.957Z" fill="#9EC8FF"/>
<path d="M153.077 172.418V189.015L133.956 169.89C133.956 169.89 152.688 172.418 153.077 172.418Z" fill="#9EC8FF"/>
<path d="M95.3212 173.974H155.479C156.93 173.974 158.117 172.786 158.117 171.336V152.494C158.117 151.044 156.93 149.856 155.479 149.856H95.3212C93.8704 149.856 92.6836 151.044 92.6836 152.494V171.336C92.6836 172.786 93.8704 173.974 95.3212 173.974Z" fill="white"/>
<path d="M122.483 155.82H152.04C152.753 155.82 153.336 155.237 153.336 154.523C153.336 153.81 152.753 153.226 152.04 153.226H122.483C121.77 153.226 121.187 153.81 121.187 154.523C121.187 155.237 121.77 155.82 122.483 155.82Z" fill="#9EC8FF"/>
<path d="M97.7962 160.778H152.615C153.012 160.778 153.336 160.454 153.336 160.057V160.042C153.336 159.646 153.012 159.321 152.615 159.321H97.7962C97.3998 159.321 97.0755 159.646 97.0755 160.042V160.057C97.0755 160.454 97.3998 160.778 97.7962 160.778Z" fill="#9EC8FF"/>
<path d="M97.7962 163.601H152.615C153.012 163.601 153.336 163.276 153.336 162.88V162.865C153.336 162.468 153.012 162.143 152.615 162.143H97.7962C97.3998 162.143 97.0755 162.468 97.0755 162.865V162.88C97.0755 163.276 97.3998 163.601 97.7962 163.601Z" fill="#9EC8FF"/>
</svg>
