<svg width="65" height="70" viewBox="0 0 65 70" fill="none" xmlns="http://www.w3.org/2000/svg">
<path d="M46.0417 60.7535V54.9792C46.0417 51.9162 44.9003 48.9788 42.8687 46.813C40.837 44.6472 38.0815 43.4304 35.2083 43.4304H13.5417C10.6685 43.4304 7.91299 44.6472 5.88134 46.813C3.8497 48.9788 2.70833 51.9162 2.70833 54.9792V60.7535" stroke="#6C63FF" stroke-width="2" stroke-linecap="round" stroke-linejoin="round"/>
<path d="M24.375 31.8817C30.3581 31.8817 35.2083 26.7111 35.2083 20.3329C35.2083 13.9547 30.3581 8.78418 24.375 8.78418C18.3919 8.78418 13.5417 13.9547 13.5417 20.3329C13.5417 26.7111 18.3919 31.8817 24.375 31.8817Z" stroke="#6C63FF" stroke-width="2" stroke-linecap="round" stroke-linejoin="round"/>
<path d="M62.2917 60.7532V54.9788C62.2899 52.42 61.491 49.9343 60.0204 47.9119C58.5498 45.8896 56.4908 44.4451 54.1667 43.8054" stroke="#6C63FF" stroke-width="2" stroke-linecap="round" stroke-linejoin="round"/>
<path d="M43.3333 9.15918C45.6636 9.79523 47.7291 11.24 49.204 13.2657C50.679 15.2913 51.4796 17.7827 51.4796 20.347C51.4796 22.9113 50.679 25.4027 49.204 27.4284C47.7291 29.4541 45.6636 30.8988 43.3333 31.5349" stroke="#6C63FF" stroke-width="2" stroke-linecap="round" stroke-linejoin="round"/>
</svg>
