<svg width="473" height="135" viewBox="0 0 473 135" fill="none" xmlns="http://www.w3.org/2000/svg">
<path d="M115.236 86.0769C117.146 86.0769 118.661 85.5281 119.782 84.4301C120.902 83.3325 121.462 81.7985 121.462 79.8281C121.462 77.8581 120.902 76.3241 119.782 75.2262C118.661 74.1285 117.146 73.5794 115.236 73.5794H112.258V86.0769H115.236ZM110.363 71.752H115.236C116.89 71.752 118.334 72.0944 119.568 72.7785C120.8 73.463 121.748 74.414 122.41 75.6321C123.071 76.8504 123.403 78.2491 123.403 79.8281C123.403 81.4072 123.071 82.8059 122.41 84.0241C121.748 85.2423 120.8 86.1936 119.568 86.8778C118.334 87.5623 116.89 87.9042 115.236 87.9042H110.363V71.752Z" fill="#676C72"/>
<path d="M133.937 80.9336C133.907 80.4524 133.772 79.9713 133.531 79.4898C133.29 79.0087 132.911 78.6026 132.392 78.2716C131.873 77.941 131.222 77.7753 130.441 77.7753C129.538 77.7753 128.775 78.0651 128.151 78.6439C127.527 79.2229 127.117 79.9861 126.921 80.9336H133.937ZM127.666 87.4756C126.793 86.9494 126.113 86.2236 125.624 85.2987C125.135 84.3738 124.891 83.3325 124.891 82.1743C124.891 81.0615 125.12 80.039 125.579 79.1063C126.038 78.174 126.688 77.4295 127.53 76.873C128.373 76.3167 129.35 76.0383 130.463 76.0383C131.591 76.0383 132.569 76.2903 133.396 76.7941C134.223 77.2981 134.858 77.9935 135.302 78.8806C135.745 79.7683 135.967 80.7834 135.967 81.9262C135.967 82.1517 135.945 82.3474 135.9 82.5127H126.809C126.854 83.3851 127.064 84.1221 127.44 84.7235C127.816 85.3251 128.294 85.7763 128.873 86.077C129.452 86.378 130.057 86.5281 130.689 86.5281C132.162 86.5281 133.298 85.8366 134.095 84.4527L135.719 85.2423C135.223 86.175 134.55 86.9116 133.7 87.4531C132.85 87.9945 131.824 88.2652 130.621 88.2652C129.523 88.2652 128.538 88.0019 127.666 87.4756Z" fill="#676C72"/>
<path d="M136.712 76.3993H138.765L142.329 85.6483H142.374L145.983 76.3993H147.991L143.299 87.9042H141.359L136.712 76.3993Z" fill="#676C72"/>
<path d="M157.669 80.9336C157.638 80.4524 157.503 79.9713 157.263 79.4898C157.022 79.0087 156.642 78.6026 156.124 78.2716C155.605 77.941 154.954 77.7753 154.172 77.7753C153.27 77.7753 152.506 78.0651 151.882 78.6439C151.258 79.2229 150.848 79.9861 150.653 80.9336H157.669ZM151.397 87.4756C150.525 86.9494 149.844 86.2236 149.356 85.2987C148.867 84.3738 148.623 83.3325 148.623 82.1743C148.623 81.0615 148.852 80.039 149.311 79.1063C149.769 78.174 150.42 77.4295 151.262 76.873C152.104 76.3167 153.082 76.0383 154.195 76.0383C155.323 76.0383 156.3 76.2903 157.127 76.7941C157.954 77.2981 158.59 77.9935 159.034 78.8806C159.477 79.7683 159.699 80.7834 159.699 81.9262C159.699 82.1517 159.677 82.3474 159.631 82.5127H150.54C150.585 83.3851 150.796 84.1221 151.172 84.7235C151.548 85.3251 152.025 85.7763 152.604 86.077C153.183 86.378 153.789 86.5281 154.42 86.5281C155.894 86.5281 157.029 85.8366 157.827 84.4527L159.451 85.2423C158.955 86.175 158.281 86.9116 157.432 87.4531C156.582 87.9945 155.556 88.2652 154.353 88.2652C153.255 88.2652 152.269 88.0019 151.397 87.4756Z" fill="#676C72"/>
<path d="M161.932 71.7521H163.85V87.9042H161.932V71.7521Z" fill="#676C72"/>
<path d="M173.855 85.998C174.464 85.6448 174.952 85.1372 175.321 84.4753C175.689 83.8136 175.874 83.0392 175.874 82.1517C175.874 81.2645 175.689 80.4901 175.321 79.8281C174.952 79.1665 174.464 78.659 173.855 78.3053C173.246 77.9522 172.587 77.7752 171.881 77.7752C171.174 77.7752 170.512 77.9522 169.896 78.3053C169.279 78.659 168.786 79.1665 168.418 79.8281C168.049 80.4901 167.865 81.2645 167.865 82.1517C167.865 83.0392 168.049 83.8136 168.418 84.4753C168.786 85.1372 169.279 85.6448 169.896 85.998C170.512 86.3515 171.174 86.5281 171.881 86.5281C172.587 86.5281 173.246 86.3515 173.855 85.998ZM168.835 87.453C167.933 86.9116 167.23 86.1749 166.726 85.2423C166.222 84.3099 165.97 83.2796 165.97 82.1517C165.97 81.0237 166.222 79.9938 166.726 79.0611C167.23 78.1288 167.933 77.3917 168.835 76.8504C169.738 76.309 170.753 76.0383 171.881 76.0383C173.009 76.0383 174.024 76.309 174.926 76.8504C175.829 77.3917 176.531 78.1288 177.036 79.0611C177.539 79.9938 177.791 81.0237 177.791 82.1517C177.791 83.2796 177.539 84.3099 177.036 85.2423C176.531 86.1749 175.829 86.9116 174.926 87.453C174.024 87.9944 173.009 88.2651 171.881 88.2651C170.753 88.2651 169.738 87.9944 168.835 87.453Z" fill="#676C72"/>
<path d="M187.311 85.9867C187.898 85.6258 188.368 85.1108 188.721 84.4414C189.074 83.7724 189.251 83.009 189.251 82.1517C189.251 81.2945 189.074 80.5313 188.721 79.862C188.368 79.193 187.898 78.6776 187.311 78.3167C186.725 77.9558 186.1 77.7753 185.439 77.7753C184.777 77.7753 184.153 77.9558 183.566 78.3167C182.98 78.6776 182.514 79.1891 182.168 79.8507C181.822 80.5126 181.649 81.2797 181.649 82.1517C181.649 83.0241 181.822 83.7911 182.168 84.4526C182.514 85.1147 182.98 85.6258 183.566 85.9867C184.153 86.3476 184.777 86.5281 185.439 86.5281C186.1 86.5281 186.725 86.3476 187.311 85.9867ZM179.822 76.3993H181.649V78.1137H181.739C182.085 77.5272 182.608 77.0347 183.307 76.6361C184.006 76.2378 184.792 76.0383 185.664 76.0383C186.687 76.0383 187.619 76.3016 188.462 76.8278C189.304 77.3545 189.965 78.0836 190.447 79.0161C190.928 79.9487 191.169 80.9938 191.169 82.1517C191.169 83.3248 190.928 84.3737 190.447 85.2987C189.965 86.2236 189.304 86.9494 188.462 87.4756C187.619 88.0019 186.687 88.2652 185.664 88.2652C184.792 88.2652 184.006 88.0656 183.307 87.6673C182.608 87.269 182.085 86.784 181.739 86.2123H181.649L181.739 87.7914V92.7769H179.822V76.3993Z" fill="#676C72"/>
<path d="M201.839 80.9336C201.808 80.4524 201.673 79.9713 201.433 79.4898C201.192 79.0087 200.812 78.6026 200.294 78.2716C199.775 77.941 199.124 77.7753 198.342 77.7753C197.44 77.7753 196.676 78.0651 196.053 78.6439C195.428 79.2229 195.018 79.9861 194.823 80.9336H201.839ZM195.567 87.4756C194.695 86.9494 194.014 86.2236 193.526 85.2987C193.037 84.3738 192.793 83.3325 192.793 82.1743C192.793 81.0615 193.022 80.039 193.481 79.1063C193.939 78.174 194.59 77.4295 195.432 76.873C196.274 76.3167 197.252 76.0383 198.365 76.0383C199.493 76.0383 200.47 76.2903 201.297 76.7941C202.124 77.2981 202.76 77.9935 203.204 78.8806C203.647 79.7683 203.869 80.7834 203.869 81.9262C203.869 82.1517 203.847 82.3474 203.801 82.5127H194.71C194.755 83.3851 194.966 84.1221 195.342 84.7235C195.718 85.3251 196.195 85.7763 196.774 86.077C197.353 86.378 197.959 86.5281 198.59 86.5281C200.064 86.5281 201.199 85.8366 201.997 84.4527L203.621 85.2423C203.125 86.175 202.451 86.9116 201.602 87.4531C200.752 87.9945 199.726 88.2652 198.523 88.2652C197.425 88.2652 196.439 88.0019 195.567 87.4756Z" fill="#676C72"/>
<path d="M206.102 76.3993H207.929V78.2491H208.02C208.245 77.6174 208.681 77.0912 209.328 76.67C209.975 76.2491 210.651 76.0383 211.358 76.0383C211.885 76.0383 212.336 76.1212 212.712 76.2865V78.3393C212.23 78.0989 211.689 77.9783 211.088 77.9783C210.531 77.9783 210.02 78.1366 209.554 78.4531C209.087 78.7697 208.715 79.1955 208.437 79.7306C208.159 80.2656 208.02 80.8423 208.02 81.4601V87.9042H206.102V76.3993Z" fill="#676C72"/>
<path d="M220.54 87.1147C219.487 86.3476 218.765 85.2726 218.374 83.8888L220.201 83.1443C220.457 84.1069 220.931 84.8965 221.623 85.513C222.314 86.1298 223.126 86.4379 224.059 86.4379C224.991 86.4379 225.781 86.1863 226.428 85.6822C227.074 85.1785 227.398 84.4904 227.398 83.618C227.398 82.8662 227.123 82.2458 226.574 81.7569C226.025 81.2684 225.127 80.8134 223.878 80.3921L222.863 80.0312C221.72 79.6251 220.788 79.0915 220.066 78.4295C219.344 77.7679 218.983 76.8504 218.983 75.6773C218.983 74.9104 219.194 74.1998 219.615 73.5455C220.036 72.8913 220.622 72.3689 221.374 71.9777C222.126 71.5868 222.968 71.3912 223.901 71.3912C224.833 71.3912 225.645 71.5643 226.337 71.91C227.029 72.2561 227.582 72.677 227.995 73.1733C228.409 73.6695 228.698 74.1585 228.864 74.6397L227.059 75.4067C226.909 74.8504 226.566 74.3464 226.033 73.8952C225.499 73.444 224.796 73.2184 223.924 73.2184C223.096 73.2184 222.39 73.4518 221.803 73.9177C221.216 74.3841 220.923 74.9706 220.923 75.6773C220.923 76.309 221.171 76.8243 221.668 77.2226C222.164 77.6213 222.916 77.9935 223.924 78.3393L224.984 78.7002C226.352 79.1965 227.42 79.8169 228.187 80.5613C228.954 81.3058 229.338 82.3174 229.338 83.5955C229.338 84.6332 229.07 85.5056 228.537 86.2123C228.003 86.9194 227.33 87.4383 226.518 87.7689C225.706 88.0995 224.871 88.2652 224.014 88.2652C222.75 88.2652 221.592 87.8817 220.54 87.1147Z" fill="#676C72"/>
<path d="M234.334 88.0357C233.936 87.8828 233.601 87.6759 233.331 87.4153C233.029 87.1246 232.804 86.7875 232.654 86.4048C232.503 86.022 232.428 85.555 232.428 85.0036V78.1363H230.42V76.3993H232.428V73.1508H234.346V76.3993H237.143V78.1363H234.346V84.5462C234.346 85.1918 234.466 85.6684 234.707 85.9758C234.992 86.3142 235.406 86.4831 235.947 86.4831C236.383 86.4831 236.805 86.3555 237.211 86.0996V87.9719C236.985 88.077 236.755 88.1524 236.523 88.1975C236.289 88.2426 235.992 88.2652 235.631 88.2652C235.165 88.2652 234.733 88.1883 234.334 88.0357Z" fill="#676C72"/>
<path d="M240.47 87.0469C239.741 86.2348 239.376 85.0995 239.376 83.6406V76.3992H241.294V83.3473C241.294 84.4453 241.542 85.25 242.038 85.7611C242.534 86.2725 243.203 86.5281 244.046 86.5281C244.692 86.5281 245.268 86.3554 245.772 86.0092C246.275 85.6634 246.666 85.2123 246.945 84.6557C247.223 84.0995 247.362 83.513 247.362 82.8961V76.3992H249.279V87.9042H247.452V86.2348H247.362C247.046 86.8065 246.542 87.2877 245.851 87.6786C245.159 88.0695 244.422 88.2651 243.64 88.2651C242.256 88.2651 241.2 87.8591 240.47 87.0469Z" fill="#676C72"/>
<path d="M258.991 85.9867C259.57 85.6258 260.036 85.1147 260.39 84.4527C260.743 83.7912 260.92 83.0242 260.92 82.1517C260.92 81.2797 260.743 80.5126 260.39 79.8507C260.036 79.1891 259.57 78.6776 258.991 78.3167C258.412 77.9558 257.784 77.7753 257.107 77.7753C256.445 77.7753 255.822 77.9558 255.235 78.3167C254.648 78.6776 254.178 79.193 253.825 79.862C253.472 80.5313 253.295 81.2945 253.295 82.1517C253.295 83.009 253.472 83.7725 253.825 84.4414C254.178 85.1108 254.648 85.6258 255.235 85.9867C255.822 86.3476 256.445 86.5281 257.107 86.5281C257.784 86.5281 258.412 86.3476 258.991 85.9867ZM254.096 87.4756C253.261 86.9494 252.603 86.2236 252.122 85.2987C251.64 84.3737 251.4 83.3248 251.4 82.1517C251.4 80.9938 251.64 79.9488 252.122 79.0161C252.603 78.0837 253.261 77.3545 254.096 76.8278C254.93 76.3017 255.859 76.0383 256.882 76.0383C257.769 76.0383 258.559 76.2378 259.25 76.6361C259.942 77.0347 260.469 77.5272 260.83 78.1137H260.92L260.83 76.512V71.7521H262.747V87.9043H260.92V86.2123H260.83C260.469 86.784 259.942 87.2691 259.25 87.6673C258.559 88.0656 257.769 88.2652 256.882 88.2652C255.859 88.2652 254.93 88.0019 254.096 87.4756Z" fill="#676C72"/>
<path d="M273.914 80.9336C273.884 80.4524 273.748 79.9713 273.508 79.4898C273.267 79.0087 272.887 78.6026 272.369 78.2716C271.85 77.941 271.199 77.7753 270.417 77.7753C269.515 77.7753 268.751 78.0651 268.127 78.6439C267.503 79.2229 267.093 79.9861 266.898 80.9336H273.914ZM267.642 87.4756C266.77 86.9494 266.089 86.2236 265.601 85.2987C265.112 84.3738 264.868 83.3325 264.868 82.1743C264.868 81.0615 265.097 80.039 265.556 79.1063C266.014 78.174 266.665 77.4295 267.507 76.873C268.349 76.3167 269.327 76.0383 270.44 76.0383C271.568 76.0383 272.545 76.2903 273.372 76.7941C274.199 77.2981 274.835 77.9935 275.279 78.8806C275.722 79.7683 275.944 80.7834 275.944 81.9262C275.944 82.1517 275.922 82.3474 275.876 82.5127H266.785C266.83 83.3851 267.041 84.1221 267.417 84.7235C267.793 85.3251 268.27 85.7763 268.849 86.077C269.428 86.378 270.034 86.5281 270.665 86.5281C272.139 86.5281 273.274 85.8366 274.072 84.4527L275.696 85.2423C275.2 86.175 274.526 86.9116 273.677 87.4531C272.827 87.9945 271.801 88.2652 270.598 88.2652C269.5 88.2652 268.514 88.0019 267.642 87.4756Z" fill="#676C72"/>
<path d="M278.177 76.3993H280.004V78.0911H280.095C280.411 77.5198 280.914 77.0348 281.606 76.6361C282.298 76.2378 283.035 76.0383 283.817 76.0383C285.2 76.0383 286.257 76.4408 286.986 77.2452C287.716 78.0499 288.081 79.144 288.081 80.5275V87.9042H286.163V80.8208C286.163 79.7531 285.907 78.9787 285.396 78.4972C284.885 78.016 284.185 77.7753 283.298 77.7753C282.681 77.7753 282.129 77.9484 281.64 78.2942C281.151 78.6403 280.771 79.095 280.501 79.659C280.23 80.223 280.095 80.8134 280.095 81.4299V87.9042H278.177V76.3993Z" fill="#676C72"/>
<path d="M293.393 88.0357C292.994 87.8828 292.66 87.6759 292.389 87.4153C292.088 87.1246 291.863 86.7875 291.712 86.4048C291.562 86.022 291.487 85.555 291.487 85.0036V78.1363H289.479V76.3993H291.487V73.1508H293.404V76.3993H296.202V78.1363H293.404V84.5462C293.404 85.1918 293.525 85.6684 293.765 85.9758C294.051 86.3142 294.465 86.4831 295.006 86.4831C295.442 86.4831 295.863 86.3555 296.269 86.0996V87.9719C296.044 88.077 295.814 88.1524 295.581 88.1975C295.348 88.2426 295.051 88.2652 294.69 88.2652C294.224 88.2652 293.791 88.1883 293.393 88.0357Z" fill="#676C72"/>
<path d="M307.007 87.1597C305.729 86.423 304.725 85.4114 303.996 84.1256C303.266 82.8397 302.902 81.4072 302.902 79.8281C302.902 78.249 303.266 76.8165 303.996 75.5307C304.725 74.2449 305.729 73.2336 307.007 72.4965C308.285 71.7598 309.707 71.3911 311.271 71.3911C312.474 71.3911 313.575 71.6206 314.576 72.0792C315.576 72.5381 316.444 73.1884 317.181 74.0305L315.805 75.3615C315.188 74.6248 314.516 74.0834 313.786 73.7373C313.057 73.3915 312.218 73.2184 311.271 73.2184C310.098 73.2184 309.022 73.493 308.045 74.0418C307.067 74.591 306.289 75.3654 305.71 76.3654C305.131 77.3657 304.842 78.5197 304.842 79.8281C304.842 81.1365 305.131 82.2909 305.71 83.2909C306.289 84.2912 307.067 85.0657 308.045 85.6145C309.022 86.1637 310.098 86.4379 311.271 86.4379C313.226 86.4379 314.888 85.6335 316.256 84.0241L317.655 85.3776C316.903 86.2651 315.978 86.968 314.88 87.4868C313.782 88.0058 312.579 88.2651 311.271 88.2651C309.707 88.2651 308.285 87.8967 307.007 87.1597Z" fill="#676C72"/>
<path d="M319.798 71.7521H321.716V87.9042H319.798V71.7521Z" fill="#676C72"/>
<path d="M325.562 87.0469C324.832 86.2348 324.468 85.0995 324.468 83.6406V76.3992H326.385V83.3473C326.385 84.4453 326.634 85.25 327.13 85.7611C327.626 86.2725 328.295 86.5281 329.138 86.5281C329.784 86.5281 330.359 86.3554 330.863 86.0092C331.367 85.6634 331.758 85.2123 332.036 84.6557C332.315 84.0995 332.454 83.513 332.454 82.8961V76.3992H334.371V87.9042H332.544V86.2348H332.454C332.138 86.8065 331.634 87.2877 330.942 87.6786C330.25 88.0695 329.513 88.2651 328.732 88.2651C327.348 88.2651 326.291 87.8591 325.562 87.0469Z" fill="#676C72"/>
<path d="M344.703 85.9867C345.289 85.6258 345.759 85.1108 346.113 84.4414C346.466 83.7725 346.643 83.009 346.643 82.1517C346.643 81.2945 346.466 80.5313 346.113 79.862C345.759 79.193 345.289 78.6776 344.703 78.3167C344.116 77.9558 343.492 77.7753 342.831 77.7753C342.169 77.7753 341.545 77.9558 340.958 78.3167C340.372 78.6776 339.905 79.1891 339.559 79.8507C339.213 80.5126 339.041 81.2797 339.041 82.1517C339.041 83.0242 339.213 83.7912 339.559 84.4527C339.905 85.1147 340.372 85.6258 340.958 85.9867C341.545 86.3476 342.169 86.5281 342.831 86.5281C343.492 86.5281 344.116 86.3476 344.703 85.9867ZM340.699 87.6673C339.999 87.2691 339.477 86.784 339.131 86.2123H339.041V87.9043H337.213V71.7521H339.131V76.512L339.041 78.1137H339.131C339.477 77.5272 339.999 77.0347 340.699 76.6361C341.398 76.2378 342.184 76.0383 343.056 76.0383C344.079 76.0383 345.011 76.3017 345.853 76.8278C346.696 77.3545 347.357 78.0837 347.839 79.0161C348.32 79.9488 348.561 80.9938 348.561 82.1517C348.561 83.3248 348.32 84.3737 347.839 85.2987C347.357 86.2236 346.696 86.9494 345.853 87.4756C345.011 88.0019 344.079 88.2652 343.056 88.2652C342.184 88.2652 341.398 88.0656 340.699 87.6673Z" fill="#676C72"/>
<path d="M351.606 87.3967C350.779 86.8179 350.192 86.077 349.846 85.1746L351.561 84.4076C351.846 85.0995 352.271 85.6335 352.835 86.0093C353.399 86.3854 354.02 86.5733 354.697 86.5733C355.418 86.5733 356.035 86.4267 356.546 86.1334C357.057 85.84 357.313 85.4228 357.313 84.8814C357.313 84.4002 357.11 84.0129 356.704 83.7196C356.298 83.4263 355.659 83.1746 354.787 82.9639L353.388 82.6029C352.471 82.3774 351.719 81.9939 351.132 81.4524C350.546 80.911 350.252 80.2117 350.252 79.3545C350.252 78.6928 350.452 78.1102 350.85 77.6061C351.249 77.1025 351.779 76.7151 352.441 76.4443C353.102 76.1736 353.817 76.0383 354.584 76.0383C355.591 76.0383 356.49 76.2565 357.28 76.6925C358.069 77.1289 358.629 77.738 358.96 78.5197L357.291 79.2867C356.779 78.2642 355.87 77.7528 354.561 77.7528C353.93 77.7528 353.377 77.8994 352.903 78.1927C352.429 78.4859 352.192 78.8582 352.192 79.3093C352.192 79.7306 352.358 80.0728 352.689 80.3357C353.019 80.5991 353.516 80.8134 354.178 80.9787L355.847 81.4072C356.975 81.6932 357.824 82.1179 358.396 82.6819C358.968 83.2458 359.253 83.9338 359.253 84.746C359.253 85.4531 359.05 86.0734 358.644 86.6071C358.238 87.1411 357.689 87.5511 356.998 87.8366C356.306 88.122 355.539 88.2652 354.697 88.2652C353.463 88.2652 352.433 87.9755 351.606 87.3967Z" fill="#676C72"/>
<path d="M211.807 23.9463L226.068 15.7129C229.424 13.7754 230.573 9.48385 228.636 6.12795C226.698 2.77213 222.407 1.62178 219.051 3.55964L194.409 17.7866L211.807 23.9463Z" fill="#EA4335"/>
<path d="M222.553 45.1075C224.978 45.1075 227.336 43.8489 228.636 41.5979C230.574 38.242 229.424 33.9505 226.068 32.013L201.426 17.7865C198.07 15.8478 193.779 16.999 191.841 20.3548C189.904 23.7111 191.054 28.0023 194.41 29.9398L219.051 44.1662C220.156 44.8043 221.362 45.1075 222.553 45.1075Z" fill="#4285F4"/>
<path d="M247.064 45.1075C248.255 45.1075 249.461 44.8043 250.566 44.1662L275.207 29.9398L258.031 23.6522L243.549 32.013C240.193 33.9505 239.043 38.242 240.981 41.5979C242.281 43.8489 244.639 45.1075 247.064 45.1075Z" fill="#FBBC04"/>
<path d="M271.692 30.8811C274.117 30.8811 276.476 29.6228 277.776 27.3715C279.713 24.0156 278.563 19.7244 275.207 17.7865L250.566 3.55969C247.21 1.6222 242.919 2.77165 240.981 6.12792C239.043 9.48381 240.193 13.775 243.549 15.7129L268.191 29.9397C269.296 30.5774 270.502 30.8811 271.692 30.8811Z" fill="#0F9D58"/>
<path d="M11.6 106.68H16.74C17.46 106.68 18.1333 106.847 18.76 107.18C19.4 107.513 19.9067 107.973 20.28 108.56C20.6533 109.147 20.84 109.807 20.84 110.54C20.84 111.233 20.66 111.84 20.3 112.36C19.9533 112.88 19.48 113.28 18.88 113.56V113.64C19.6 113.88 20.1867 114.293 20.64 114.88C21.0933 115.467 21.32 116.153 21.32 116.94C21.32 117.713 21.12 118.413 20.72 119.04C20.3333 119.653 19.8067 120.133 19.14 120.48C18.4867 120.827 17.78 121 17.02 121H11.6V106.68ZM16.74 112.88C17.22 112.88 17.64 112.767 18 112.54C18.3733 112.313 18.66 112.027 18.86 111.68C19.06 111.32 19.16 110.953 19.16 110.58C19.16 110.22 19.06 109.867 18.86 109.52C18.6733 109.16 18.4 108.867 18.04 108.64C17.6933 108.413 17.2867 108.3 16.82 108.3H13.28V112.88H16.74ZM17.12 119.38C17.6 119.38 18.0267 119.26 18.4 119.02C18.7867 118.78 19.08 118.473 19.28 118.1C19.4933 117.713 19.6 117.32 19.6 116.92C19.6 116.52 19.4933 116.133 19.28 115.76C19.0667 115.373 18.7667 115.067 18.38 114.84C17.9933 114.6 17.5467 114.48 17.04 114.48H13.28V119.38H17.12ZM26.6489 121.32C25.9022 121.32 25.2356 121.173 24.6489 120.88C24.0622 120.587 23.6089 120.187 23.2889 119.68C22.9689 119.16 22.8089 118.573 22.8089 117.92C22.8089 116.84 23.2156 116 24.0289 115.4C24.8422 114.787 25.8689 114.48 27.1089 114.48C27.7222 114.48 28.2889 114.547 28.8089 114.68C29.3422 114.813 29.7489 114.967 30.0289 115.14V114.52C30.0289 113.76 29.7622 113.153 29.2289 112.7C28.6956 112.233 28.0222 112 27.2089 112C26.6356 112 26.1089 112.127 25.6289 112.38C25.1489 112.62 24.7689 112.96 24.4889 113.4L23.2089 112.44C23.6089 111.827 24.1556 111.347 24.8489 111C25.5556 110.653 26.3356 110.48 27.1889 110.48C28.5756 110.48 29.6622 110.847 30.4489 111.58C31.2489 112.3 31.6489 113.287 31.6489 114.54V121H30.0289V119.54H29.9489C29.6556 120.033 29.2156 120.453 28.6289 120.8C28.0422 121.147 27.3822 121.32 26.6489 121.32ZM26.8089 119.82C27.3822 119.82 27.9156 119.673 28.4089 119.38C28.9022 119.087 29.2956 118.693 29.5889 118.2C29.8822 117.707 30.0289 117.167 30.0289 116.58C29.7089 116.367 29.3156 116.193 28.8489 116.06C28.3822 115.927 27.8889 115.86 27.3689 115.86C26.4356 115.86 25.7289 116.053 25.2489 116.44C24.7822 116.827 24.5489 117.327 24.5489 117.94C24.5489 118.5 24.7622 118.953 25.1889 119.3C25.6156 119.647 26.1556 119.82 26.8089 119.82ZM34.0139 110.8H35.6339V112.3H35.7139C35.9939 111.793 36.4406 111.367 37.0539 111.02C37.6672 110.66 38.3206 110.48 39.0139 110.48C40.2406 110.48 41.1739 110.84 41.8139 111.56C42.4672 112.267 42.7939 113.233 42.7939 114.46V121H41.0939V114.72C41.0939 113.773 40.8672 113.087 40.4139 112.66C39.9606 112.233 39.3406 112.02 38.5539 112.02C38.0072 112.02 37.5139 112.173 37.0739 112.48C36.6472 112.787 36.3139 113.193 36.0739 113.7C35.8339 114.193 35.7139 114.713 35.7139 115.26V121H34.0139V110.8ZM48.6872 121.32C47.5939 121.32 46.6805 121.067 45.9472 120.56C45.2139 120.04 44.6939 119.38 44.3872 118.58L45.9072 117.9C46.1605 118.513 46.5339 118.987 47.0272 119.32C47.5339 119.653 48.0872 119.82 48.6872 119.82C49.3272 119.82 49.8739 119.693 50.3272 119.44C50.7805 119.173 51.0072 118.8 51.0072 118.32C51.0072 117.893 50.8272 117.553 50.4672 117.3C50.1072 117.033 49.5405 116.807 48.7672 116.62L47.5272 116.3C46.7139 116.1 46.0472 115.76 45.5272 115.28C45.0072 114.8 44.7472 114.18 44.7472 113.42C44.7472 112.833 44.9205 112.32 45.2672 111.88C45.6272 111.427 46.1005 111.08 46.6872 110.84C47.2739 110.6 47.9072 110.48 48.5872 110.48C49.4805 110.48 50.2739 110.673 50.9672 111.06C51.6739 111.447 52.1739 111.987 52.4672 112.68L50.9872 113.36C50.5339 112.453 49.7272 112 48.5672 112C48.0072 112 47.5139 112.133 47.0872 112.4C46.6739 112.653 46.4672 112.98 46.4672 113.38C46.4672 113.753 46.6139 114.06 46.9072 114.3C47.2005 114.527 47.6405 114.713 48.2272 114.86L49.7072 115.24C50.7072 115.493 51.4605 115.873 51.9672 116.38C52.4739 116.873 52.7272 117.48 52.7272 118.2C52.7272 118.827 52.5472 119.38 52.1872 119.86C51.8272 120.327 51.3405 120.687 50.7272 120.94C50.1139 121.193 49.4339 121.32 48.6872 121.32ZM57.938 121.32C57.1913 121.32 56.5246 121.173 55.938 120.88C55.3513 120.587 54.898 120.187 54.578 119.68C54.258 119.16 54.098 118.573 54.098 117.92C54.098 116.84 54.5046 116 55.318 115.4C56.1313 114.787 57.158 114.48 58.398 114.48C59.0113 114.48 59.578 114.547 60.098 114.68C60.6313 114.813 61.038 114.967 61.318 115.14V114.52C61.318 113.76 61.0513 113.153 60.518 112.7C59.9846 112.233 59.3113 112 58.498 112C57.9246 112 57.398 112.127 56.918 112.38C56.438 112.62 56.058 112.96 55.778 113.4L54.498 112.44C54.898 111.827 55.4446 111.347 56.138 111C56.8446 110.653 57.6246 110.48 58.478 110.48C59.8646 110.48 60.9513 110.847 61.738 111.58C62.538 112.3 62.938 113.287 62.938 114.54V121H61.318V119.54H61.238C60.9446 120.033 60.5046 120.453 59.918 120.8C59.3313 121.147 58.6713 121.32 57.938 121.32ZM58.098 119.82C58.6713 119.82 59.2046 119.673 59.698 119.38C60.1913 119.087 60.5846 118.693 60.878 118.2C61.1713 117.707 61.318 117.167 61.318 116.58C60.998 116.367 60.6046 116.193 60.138 116.06C59.6713 115.927 59.178 115.86 58.658 115.86C57.7246 115.86 57.018 116.053 56.538 116.44C56.0713 116.827 55.838 117.327 55.838 117.94C55.838 118.5 56.0513 118.953 56.478 119.3C56.9046 119.647 57.4446 119.82 58.098 119.82ZM65.303 106.68H67.003V121H65.303V106.68ZM74.5102 106.68H76.1902V121H74.5102V106.68ZM79.053 110.8H80.673V112.3H80.753C81.033 111.793 81.4796 111.367 82.093 111.02C82.7063 110.66 83.3596 110.48 84.053 110.48C85.2796 110.48 86.213 110.84 86.853 111.56C87.5063 112.267 87.833 113.233 87.833 114.46V121H86.133V114.72C86.133 113.773 85.9063 113.087 85.453 112.66C84.9996 112.233 84.3796 112.02 83.593 112.02C83.0463 112.02 82.553 112.173 82.113 112.48C81.6863 112.787 81.353 113.193 81.113 113.7C80.873 114.193 80.753 114.713 80.753 115.26V121H79.053V110.8ZM93.7263 121.32C92.6329 121.32 91.7196 121.067 90.9863 120.56C90.2529 120.04 89.7329 119.38 89.4263 118.58L90.9463 117.9C91.1996 118.513 91.5729 118.987 92.0663 119.32C92.5729 119.653 93.1263 119.82 93.7263 119.82C94.3663 119.82 94.9129 119.693 95.3663 119.44C95.8196 119.173 96.0463 118.8 96.0463 118.32C96.0463 117.893 95.8663 117.553 95.5063 117.3C95.1463 117.033 94.5796 116.807 93.8063 116.62L92.5663 116.3C91.7529 116.1 91.0863 115.76 90.5663 115.28C90.0463 114.8 89.7863 114.18 89.7863 113.42C89.7863 112.833 89.9596 112.32 90.3063 111.88C90.6663 111.427 91.1396 111.08 91.7263 110.84C92.3129 110.6 92.9463 110.48 93.6263 110.48C94.5196 110.48 95.3129 110.673 96.0063 111.06C96.7129 111.447 97.2129 111.987 97.5063 112.68L96.0263 113.36C95.5729 112.453 94.7663 112 93.6063 112C93.0463 112 92.5529 112.133 92.1263 112.4C91.7129 112.653 91.5063 112.98 91.5063 113.38C91.5063 113.753 91.6529 114.06 91.9463 114.3C92.2396 114.527 92.6796 114.713 93.2663 114.86L94.7463 115.24C95.7463 115.493 96.4996 115.873 97.0063 116.38C97.5129 116.873 97.7663 117.48 97.7663 118.2C97.7663 118.827 97.5863 119.38 97.2263 119.86C96.8663 120.327 96.3796 120.687 95.7663 120.94C95.1529 121.193 94.4729 121.32 93.7263 121.32ZM103.442 121.16C103.028 121.16 102.642 121.093 102.282 120.96C101.935 120.827 101.642 120.647 101.402 120.42C101.135 120.167 100.935 119.873 100.802 119.54C100.668 119.207 100.602 118.8 100.602 118.32V112.34H98.8217V110.8H100.602V107.92H102.302V110.8H104.782V112.34H102.302V117.9C102.302 118.46 102.408 118.873 102.622 119.14C102.875 119.433 103.242 119.58 103.722 119.58C104.108 119.58 104.482 119.467 104.842 119.24V120.9C104.642 120.993 104.435 121.06 104.222 121.1C104.022 121.14 103.762 121.16 103.442 121.16ZM107.944 108.92C107.61 108.92 107.324 108.8 107.084 108.56C106.844 108.32 106.724 108.033 106.724 107.7C106.724 107.367 106.844 107.087 107.084 106.86C107.324 106.62 107.61 106.5 107.944 106.5C108.277 106.5 108.564 106.62 108.804 106.86C109.044 107.087 109.164 107.367 109.164 107.7C109.164 108.033 109.044 108.32 108.804 108.56C108.577 108.8 108.29 108.92 107.944 108.92ZM107.104 110.8H108.784V121H107.104V110.8ZM115.278 121.16C114.864 121.16 114.478 121.093 114.118 120.96C113.771 120.827 113.478 120.647 113.238 120.42C112.971 120.167 112.771 119.873 112.638 119.54C112.504 119.207 112.438 118.8 112.438 118.32V112.34H110.658V110.8H112.438V107.92H114.138V110.8H116.618V112.34H114.138V117.9C114.138 118.46 114.244 118.873 114.458 119.14C114.711 119.433 115.078 119.58 115.558 119.58C115.944 119.58 116.318 119.467 116.678 119.24V120.9C116.478 120.993 116.271 121.06 116.058 121.1C115.858 121.14 115.598 121.16 115.278 121.16ZM122.382 121.32C121.155 121.32 120.215 120.96 119.562 120.24C118.922 119.52 118.602 118.513 118.602 117.22V110.8H120.302V116.96C120.302 117.933 120.522 118.647 120.962 119.1C121.402 119.553 121.995 119.78 122.742 119.78C123.315 119.78 123.822 119.627 124.262 119.32C124.715 119.013 125.062 118.613 125.302 118.12C125.555 117.627 125.682 117.107 125.682 116.56V110.8H127.382V121H125.762V119.52H125.682C125.402 120.027 124.955 120.453 124.342 120.8C123.729 121.147 123.075 121.32 122.382 121.32ZM133.91 121.16C133.497 121.16 133.11 121.093 132.75 120.96C132.404 120.827 132.11 120.647 131.87 120.42C131.604 120.167 131.404 119.873 131.27 119.54C131.137 119.207 131.07 118.8 131.07 118.32V112.34H129.29V110.8H131.07V107.92H132.77V110.8H135.25V112.34H132.77V117.9C132.77 118.46 132.877 118.873 133.09 119.14C133.344 119.433 133.71 119.58 134.19 119.58C134.577 119.58 134.95 119.467 135.31 119.24V120.9C135.11 120.993 134.904 121.06 134.69 121.1C134.49 121.14 134.23 121.16 133.91 121.16ZM141.405 121.32C140.432 121.32 139.559 121.087 138.785 120.62C138.012 120.153 137.405 119.513 136.965 118.7C136.539 117.873 136.325 116.947 136.325 115.92C136.325 114.933 136.525 114.027 136.925 113.2C137.339 112.373 137.919 111.713 138.665 111.22C139.412 110.727 140.279 110.48 141.265 110.48C142.265 110.48 143.132 110.707 143.865 111.16C144.599 111.6 145.159 112.213 145.545 113C145.945 113.787 146.145 114.687 146.145 115.7C146.145 115.9 146.125 116.073 146.085 116.22H138.025C138.065 116.993 138.252 117.647 138.585 118.18C138.919 118.713 139.339 119.113 139.845 119.38C140.365 119.647 140.905 119.78 141.465 119.78C142.772 119.78 143.779 119.167 144.485 117.94L145.925 118.64C145.485 119.467 144.885 120.12 144.125 120.6C143.379 121.08 142.472 121.32 141.405 121.32ZM144.345 114.82C144.319 114.393 144.199 113.967 143.985 113.54C143.772 113.113 143.432 112.753 142.965 112.46C142.512 112.167 141.939 112.02 141.245 112.02C140.445 112.02 139.765 112.28 139.205 112.8C138.659 113.307 138.299 113.98 138.125 114.82H144.345ZM157.483 121.32C156.483 121.32 155.583 121.08 154.783 120.6C153.983 120.12 153.357 119.467 152.903 118.64C152.463 117.813 152.243 116.9 152.243 115.9C152.243 114.9 152.463 113.987 152.903 113.16C153.357 112.333 153.983 111.68 154.783 111.2C155.583 110.72 156.483 110.48 157.483 110.48C158.483 110.48 159.383 110.72 160.183 111.2C160.983 111.68 161.603 112.333 162.043 113.16C162.497 113.987 162.723 114.9 162.723 115.9C162.723 116.9 162.497 117.813 162.043 118.64C161.603 119.467 160.983 120.12 160.183 120.6C159.383 121.08 158.483 121.32 157.483 121.32ZM157.483 119.78C158.11 119.78 158.69 119.627 159.223 119.32C159.77 119 160.203 118.547 160.523 117.96C160.857 117.373 161.023 116.687 161.023 115.9C161.023 115.113 160.857 114.427 160.523 113.84C160.203 113.253 159.77 112.807 159.223 112.5C158.69 112.18 158.11 112.02 157.483 112.02C156.857 112.02 156.27 112.18 155.723 112.5C155.177 112.807 154.737 113.253 154.403 113.84C154.083 114.427 153.923 115.113 153.923 115.9C153.923 116.687 154.083 117.373 154.403 117.96C154.737 118.547 155.177 119 155.723 119.32C156.27 119.627 156.857 119.78 157.483 119.78ZM165.585 112.34H163.705V110.8H165.585V109.7C165.585 109.06 165.731 108.5 166.025 108.02C166.318 107.54 166.711 107.173 167.205 106.92C167.698 106.653 168.245 106.52 168.845 106.52C169.418 106.52 169.918 106.6 170.345 106.76V108.42C170.105 108.327 169.878 108.253 169.665 108.2C169.451 108.133 169.198 108.1 168.905 108.1C168.465 108.1 168.085 108.26 167.765 108.58C167.445 108.887 167.285 109.32 167.285 109.88V110.8H169.905V112.34H167.285V121H165.585V112.34ZM180.366 121.32C179.246 121.32 178.219 120.98 177.286 120.3C176.352 119.62 175.712 118.667 175.366 117.44L176.986 116.78C177.212 117.633 177.632 118.333 178.246 118.88C178.859 119.427 179.579 119.7 180.406 119.7C181.232 119.7 181.932 119.48 182.506 119.04C183.079 118.587 183.366 117.973 183.366 117.2C183.366 116.533 183.119 115.987 182.626 115.56C182.146 115.12 181.352 114.713 180.246 114.34L179.346 114.02C178.332 113.66 177.506 113.187 176.866 112.6C176.226 112.013 175.906 111.2 175.906 110.16C175.906 109.48 176.092 108.853 176.466 108.28C176.839 107.693 177.359 107.227 178.026 106.88C178.692 106.533 179.439 106.36 180.266 106.36C181.092 106.36 181.812 106.513 182.426 106.82C183.039 107.127 183.526 107.5 183.886 107.94C184.259 108.38 184.519 108.813 184.666 109.24L183.066 109.92C182.932 109.427 182.626 108.98 182.146 108.58C181.679 108.18 181.059 107.98 180.286 107.98C179.552 107.98 178.926 108.187 178.406 108.6C177.886 109.013 177.626 109.533 177.626 110.16C177.626 110.72 177.846 111.18 178.286 111.54C178.726 111.887 179.392 112.213 180.286 112.52L181.226 112.84C182.439 113.28 183.386 113.833 184.066 114.5C184.746 115.153 185.086 116.047 185.086 117.18C185.086 118.1 184.846 118.873 184.366 119.5C183.899 120.127 183.306 120.587 182.586 120.88C181.866 121.173 181.126 121.32 180.366 121.32ZM191.857 121.32C190.87 121.32 189.983 121.087 189.197 120.62C188.41 120.14 187.797 119.493 187.357 118.68C186.917 117.853 186.697 116.927 186.697 115.9C186.697 114.873 186.917 113.947 187.357 113.12C187.797 112.293 188.41 111.647 189.197 111.18C189.983 110.713 190.87 110.48 191.857 110.48C192.963 110.48 193.89 110.74 194.637 111.26C195.397 111.767 195.937 112.447 196.257 113.3L194.717 113.94C194.463 113.313 194.083 112.84 193.577 112.52C193.083 112.187 192.483 112.02 191.777 112.02C191.177 112.02 190.617 112.187 190.097 112.52C189.577 112.84 189.157 113.293 188.837 113.88C188.53 114.467 188.377 115.14 188.377 115.9C188.377 116.66 188.53 117.333 188.837 117.92C189.157 118.507 189.577 118.967 190.097 119.3C190.617 119.62 191.177 119.78 191.777 119.78C192.497 119.78 193.117 119.613 193.637 119.28C194.157 118.947 194.543 118.473 194.797 117.86L196.317 118.5C195.97 119.34 195.41 120.02 194.637 120.54C193.877 121.06 192.95 121.32 191.857 121.32ZM199.155 108.92C198.821 108.92 198.535 108.8 198.295 108.56C198.055 108.32 197.935 108.033 197.935 107.7C197.935 107.367 198.055 107.087 198.295 106.86C198.535 106.62 198.821 106.5 199.155 106.5C199.488 106.5 199.775 106.62 200.015 106.86C200.255 107.087 200.375 107.367 200.375 107.7C200.375 108.033 200.255 108.32 200.015 108.56C199.788 108.8 199.501 108.92 199.155 108.92ZM198.315 110.8H199.995V121H198.315V110.8ZM207.109 121.32C206.135 121.32 205.262 121.087 204.489 120.62C203.715 120.153 203.109 119.513 202.669 118.7C202.242 117.873 202.029 116.947 202.029 115.92C202.029 114.933 202.229 114.027 202.629 113.2C203.042 112.373 203.622 111.713 204.369 111.22C205.115 110.727 205.982 110.48 206.969 110.48C207.969 110.48 208.835 110.707 209.569 111.16C210.302 111.6 210.862 112.213 211.249 113C211.649 113.787 211.849 114.687 211.849 115.7C211.849 115.9 211.829 116.073 211.789 116.22H203.729C203.769 116.993 203.955 117.647 204.289 118.18C204.622 118.713 205.042 119.113 205.549 119.38C206.069 119.647 206.609 119.78 207.169 119.78C208.475 119.78 209.482 119.167 210.189 117.94L211.629 118.64C211.189 119.467 210.589 120.12 209.829 120.6C209.082 121.08 208.175 121.32 207.109 121.32ZM210.049 114.82C210.022 114.393 209.902 113.967 209.689 113.54C209.475 113.113 209.135 112.753 208.669 112.46C208.215 112.167 207.642 112.02 206.949 112.02C206.149 112.02 205.469 112.28 204.909 112.8C204.362 113.307 204.002 113.98 203.829 114.82H210.049ZM213.838 110.8H215.458V112.3H215.538C215.818 111.793 216.265 111.367 216.878 111.02C217.491 110.66 218.145 110.48 218.838 110.48C220.065 110.48 220.998 110.84 221.638 111.56C222.291 112.267 222.618 113.233 222.618 114.46V121H220.918V114.72C220.918 113.773 220.691 113.087 220.238 112.66C219.785 112.233 219.165 112.02 218.378 112.02C217.831 112.02 217.338 112.173 216.898 112.48C216.471 112.787 216.138 113.193 215.898 113.7C215.658 114.193 215.538 114.713 215.538 115.26V121H213.838V110.8ZM229.669 121.32C228.682 121.32 227.796 121.087 227.009 120.62C226.222 120.14 225.609 119.493 225.169 118.68C224.729 117.853 224.509 116.927 224.509 115.9C224.509 114.873 224.729 113.947 225.169 113.12C225.609 112.293 226.222 111.647 227.009 111.18C227.796 110.713 228.682 110.48 229.669 110.48C230.776 110.48 231.702 110.74 232.449 111.26C233.209 111.767 233.749 112.447 234.069 113.3L232.529 113.94C232.276 113.313 231.896 112.84 231.389 112.52C230.896 112.187 230.296 112.02 229.589 112.02C228.989 112.02 228.429 112.187 227.909 112.52C227.389 112.84 226.969 113.293 226.649 113.88C226.342 114.467 226.189 115.14 226.189 115.9C226.189 116.66 226.342 117.333 226.649 117.92C226.969 118.507 227.389 118.967 227.909 119.3C228.429 119.62 228.989 119.78 229.589 119.78C230.309 119.78 230.929 119.613 231.449 119.28C231.969 118.947 232.356 118.473 232.609 117.86L234.129 118.5C233.782 119.34 233.222 120.02 232.449 120.54C231.689 121.06 230.762 121.32 229.669 121.32ZM240.409 121.32C239.436 121.32 238.563 121.087 237.789 120.62C237.016 120.153 236.409 119.513 235.969 118.7C235.543 117.873 235.329 116.947 235.329 115.92C235.329 114.933 235.529 114.027 235.929 113.2C236.343 112.373 236.923 111.713 237.669 111.22C238.416 110.727 239.283 110.48 240.269 110.48C241.269 110.48 242.136 110.707 242.869 111.16C243.603 111.6 244.163 112.213 244.549 113C244.949 113.787 245.149 114.687 245.149 115.7C245.149 115.9 245.129 116.073 245.089 116.22H237.029C237.069 116.993 237.256 117.647 237.589 118.18C237.923 118.713 238.343 119.113 238.849 119.38C239.369 119.647 239.909 119.78 240.469 119.78C241.776 119.78 242.783 119.167 243.489 117.94L244.929 118.64C244.489 119.467 243.889 120.12 243.129 120.6C242.383 121.08 241.476 121.32 240.409 121.32ZM243.349 114.82C243.323 114.393 243.203 113.967 242.989 113.54C242.776 113.113 242.436 112.753 241.969 112.46C241.516 112.167 240.943 112.02 240.249 112.02C239.449 112.02 238.769 112.28 238.209 112.8C237.663 113.307 237.303 113.98 237.129 114.82H243.349ZM255.047 121.32C254.301 121.32 253.634 121.173 253.047 120.88C252.461 120.587 252.007 120.187 251.687 119.68C251.367 119.16 251.207 118.573 251.207 117.92C251.207 116.84 251.614 116 252.427 115.4C253.241 114.787 254.267 114.48 255.507 114.48C256.121 114.48 256.687 114.547 257.207 114.68C257.741 114.813 258.147 114.967 258.427 115.14V114.52C258.427 113.76 258.161 113.153 257.627 112.7C257.094 112.233 256.421 112 255.607 112C255.034 112 254.507 112.127 254.027 112.38C253.547 112.62 253.167 112.96 252.887 113.4L251.607 112.44C252.007 111.827 252.554 111.347 253.247 111C253.954 110.653 254.734 110.48 255.587 110.48C256.974 110.48 258.061 110.847 258.847 111.58C259.647 112.3 260.047 113.287 260.047 114.54V121H258.427V119.54H258.347C258.054 120.033 257.614 120.453 257.027 120.8C256.441 121.147 255.781 121.32 255.047 121.32ZM255.207 119.82C255.781 119.82 256.314 119.673 256.807 119.38C257.301 119.087 257.694 118.693 257.987 118.2C258.281 117.707 258.427 117.167 258.427 116.58C258.107 116.367 257.714 116.193 257.247 116.06C256.781 115.927 256.287 115.86 255.767 115.86C254.834 115.86 254.127 116.053 253.647 116.44C253.181 116.827 252.947 117.327 252.947 117.94C252.947 118.5 253.161 118.953 253.587 119.3C254.014 119.647 254.554 119.82 255.207 119.82ZM262.412 110.8H264.032V112.3H264.112C264.392 111.793 264.839 111.367 265.452 111.02C266.066 110.66 266.719 110.48 267.412 110.48C268.639 110.48 269.572 110.84 270.212 111.56C270.866 112.267 271.192 113.233 271.192 114.46V121H269.492V114.72C269.492 113.773 269.266 113.087 268.812 112.66C268.359 112.233 267.739 112.02 266.952 112.02C266.406 112.02 265.912 112.173 265.472 112.48C265.046 112.787 264.712 113.193 264.472 113.7C264.232 114.193 264.112 114.713 264.112 115.26V121H262.412V110.8ZM277.943 121.32C277.037 121.32 276.21 121.087 275.463 120.62C274.73 120.153 274.15 119.513 273.723 118.7C273.297 117.873 273.083 116.94 273.083 115.9C273.083 114.873 273.297 113.947 273.723 113.12C274.15 112.293 274.73 111.647 275.463 111.18C276.21 110.713 277.037 110.48 277.943 110.48C278.73 110.48 279.43 110.66 280.043 111.02C280.657 111.367 281.123 111.8 281.443 112.32H281.523L281.443 110.9V106.68H283.143V121H281.523V119.5H281.443C281.123 120.007 280.657 120.44 280.043 120.8C279.43 121.147 278.73 121.32 277.943 121.32ZM278.143 119.78C278.743 119.78 279.297 119.62 279.803 119.3C280.323 118.98 280.737 118.527 281.043 117.94C281.363 117.353 281.523 116.673 281.523 115.9C281.523 115.127 281.363 114.447 281.043 113.86C280.737 113.273 280.323 112.82 279.803 112.5C279.297 112.18 278.743 112.02 278.143 112.02C277.557 112.02 277.003 112.18 276.483 112.5C275.963 112.82 275.543 113.28 275.223 113.88C274.917 114.467 274.763 115.14 274.763 115.9C274.763 116.66 274.917 117.34 275.223 117.94C275.543 118.527 275.963 118.98 276.483 119.3C277.003 119.62 277.557 119.78 278.143 119.78ZM292.782 108.3H288.762V106.68H298.482V108.3H294.482V121H292.782V108.3ZM303.222 121.32C302.249 121.32 301.375 121.087 300.602 120.62C299.829 120.153 299.222 119.513 298.782 118.7C298.355 117.873 298.142 116.947 298.142 115.92C298.142 114.933 298.342 114.027 298.742 113.2C299.155 112.373 299.735 111.713 300.482 111.22C301.229 110.727 302.095 110.48 303.082 110.48C304.082 110.48 304.949 110.707 305.682 111.16C306.415 111.6 306.975 112.213 307.362 113C307.762 113.787 307.962 114.687 307.962 115.7C307.962 115.9 307.942 116.073 307.902 116.22H299.842C299.882 116.993 300.069 117.647 300.402 118.18C300.735 118.713 301.155 119.113 301.662 119.38C302.182 119.647 302.722 119.78 303.282 119.78C304.589 119.78 305.595 119.167 306.302 117.94L307.742 118.64C307.302 119.467 306.702 120.12 305.942 120.6C305.195 121.08 304.289 121.32 303.222 121.32ZM306.162 114.82C306.135 114.393 306.015 113.967 305.802 113.54C305.589 113.113 305.249 112.753 304.782 112.46C304.329 112.167 303.755 112.02 303.062 112.02C302.262 112.02 301.582 112.28 301.022 112.8C300.475 113.307 300.115 113.98 299.942 114.82H306.162ZM314.669 121.32C313.682 121.32 312.796 121.087 312.009 120.62C311.222 120.14 310.609 119.493 310.169 118.68C309.729 117.853 309.509 116.927 309.509 115.9C309.509 114.873 309.729 113.947 310.169 113.12C310.609 112.293 311.222 111.647 312.009 111.18C312.796 110.713 313.682 110.48 314.669 110.48C315.776 110.48 316.702 110.74 317.449 111.26C318.209 111.767 318.749 112.447 319.069 113.3L317.529 113.94C317.276 113.313 316.896 112.84 316.389 112.52C315.896 112.187 315.296 112.02 314.589 112.02C313.989 112.02 313.429 112.187 312.909 112.52C312.389 112.84 311.969 113.293 311.649 113.88C311.342 114.467 311.189 115.14 311.189 115.9C311.189 116.66 311.342 117.333 311.649 117.92C311.969 118.507 312.389 118.967 312.909 119.3C313.429 119.62 313.989 119.78 314.589 119.78C315.309 119.78 315.929 119.613 316.449 119.28C316.969 118.947 317.356 118.473 317.609 117.86L319.129 118.5C318.782 119.34 318.222 120.02 317.449 120.54C316.689 121.06 315.762 121.32 314.669 121.32ZM320.967 106.68H322.667V110.9L322.587 112.3H322.667C322.947 111.78 323.387 111.347 323.987 111C324.6 110.653 325.267 110.48 325.987 110.48C327.227 110.48 328.174 110.847 328.827 111.58C329.48 112.3 329.807 113.26 329.807 114.46V121H328.107V114.72C328.107 113.8 327.874 113.12 327.407 112.68C326.94 112.24 326.334 112.02 325.587 112.02C325.054 112.02 324.56 112.18 324.107 112.5C323.667 112.82 323.314 113.233 323.047 113.74C322.794 114.247 322.667 114.773 322.667 115.32V121H320.967V106.68ZM332.256 110.8H333.876V112.3H333.956C334.236 111.793 334.683 111.367 335.296 111.02C335.909 110.66 336.563 110.48 337.256 110.48C338.483 110.48 339.416 110.84 340.056 111.56C340.709 112.267 341.036 113.233 341.036 114.46V121H339.336V114.72C339.336 113.773 339.109 113.087 338.656 112.66C338.203 112.233 337.583 112.02 336.796 112.02C336.249 112.02 335.756 112.173 335.316 112.48C334.889 112.787 334.556 113.193 334.316 113.7C334.076 114.193 333.956 114.713 333.956 115.26V121H332.256V110.8ZM348.167 121.32C347.167 121.32 346.267 121.08 345.467 120.6C344.667 120.12 344.04 119.467 343.587 118.64C343.147 117.813 342.927 116.9 342.927 115.9C342.927 114.9 343.147 113.987 343.587 113.16C344.04 112.333 344.667 111.68 345.467 111.2C346.267 110.72 347.167 110.48 348.167 110.48C349.167 110.48 350.067 110.72 350.867 111.2C351.667 111.68 352.287 112.333 352.727 113.16C353.18 113.987 353.407 114.9 353.407 115.9C353.407 116.9 353.18 117.813 352.727 118.64C352.287 119.467 351.667 120.12 350.867 120.6C350.067 121.08 349.167 121.32 348.167 121.32ZM348.167 119.78C348.794 119.78 349.374 119.627 349.907 119.32C350.454 119 350.887 118.547 351.207 117.96C351.54 117.373 351.707 116.687 351.707 115.9C351.707 115.113 351.54 114.427 351.207 113.84C350.887 113.253 350.454 112.807 349.907 112.5C349.374 112.18 348.794 112.02 348.167 112.02C347.54 112.02 346.954 112.18 346.407 112.5C345.86 112.807 345.42 113.253 345.087 113.84C344.767 114.427 344.607 115.113 344.607 115.9C344.607 116.687 344.767 117.373 345.087 117.96C345.42 118.547 345.86 119 346.407 119.32C346.954 119.627 347.54 119.78 348.167 119.78ZM355.283 106.68H356.983V121H355.283V106.68ZM364.105 121.32C363.105 121.32 362.205 121.08 361.405 120.6C360.605 120.12 359.978 119.467 359.525 118.64C359.085 117.813 358.865 116.9 358.865 115.9C358.865 114.9 359.085 113.987 359.525 113.16C359.978 112.333 360.605 111.68 361.405 111.2C362.205 110.72 363.105 110.48 364.105 110.48C365.105 110.48 366.005 110.72 366.805 111.2C367.605 111.68 368.225 112.333 368.665 113.16C369.118 113.987 369.345 114.9 369.345 115.9C369.345 116.9 369.118 117.813 368.665 118.64C368.225 119.467 367.605 120.12 366.805 120.6C366.005 121.08 365.105 121.32 364.105 121.32ZM364.105 119.78C364.731 119.78 365.311 119.627 365.845 119.32C366.391 119 366.825 118.547 367.145 117.96C367.478 117.373 367.645 116.687 367.645 115.9C367.645 115.113 367.478 114.427 367.145 113.84C366.825 113.253 366.391 112.807 365.845 112.5C365.311 112.18 364.731 112.02 364.105 112.02C363.478 112.02 362.891 112.18 362.345 112.5C361.798 112.807 361.358 113.253 361.025 113.84C360.705 114.427 360.545 115.113 360.545 115.9C360.545 116.687 360.705 117.373 361.025 117.96C361.358 118.547 361.798 119 362.345 119.32C362.891 119.627 363.478 119.78 364.105 119.78ZM375.799 125.64C374.599 125.64 373.605 125.36 372.819 124.8C372.045 124.24 371.525 123.567 371.259 122.78L372.799 122.12C373.025 122.707 373.399 123.18 373.919 123.54C374.452 123.913 375.079 124.1 375.799 124.1C376.852 124.1 377.665 123.793 378.239 123.18C378.825 122.567 379.119 121.7 379.119 120.58V119.44H379.039C378.705 119.96 378.232 120.387 377.619 120.72C377.019 121.04 376.332 121.2 375.559 121.2C374.679 121.2 373.872 120.973 373.139 120.52C372.419 120.067 371.845 119.433 371.419 118.62C370.992 117.807 370.779 116.88 370.779 115.84C370.779 114.813 370.992 113.893 371.419 113.08C371.845 112.253 372.419 111.613 373.139 111.16C373.872 110.707 374.679 110.48 375.559 110.48C376.332 110.48 377.019 110.647 377.619 110.98C378.232 111.3 378.705 111.727 379.039 112.26H379.119V110.8H380.739V120.6C380.739 122.24 380.285 123.487 379.379 124.34C378.472 125.207 377.279 125.64 375.799 125.64ZM375.799 119.66C376.412 119.66 376.965 119.507 377.459 119.2C377.965 118.893 378.365 118.453 378.659 117.88C378.965 117.307 379.119 116.627 379.119 115.84C379.119 115.04 378.965 114.353 378.659 113.78C378.365 113.207 377.965 112.773 377.459 112.48C376.965 112.173 376.412 112.02 375.799 112.02C375.185 112.02 374.625 112.173 374.119 112.48C373.612 112.787 373.205 113.227 372.899 113.8C372.605 114.373 372.459 115.053 372.459 115.84C372.459 116.627 372.605 117.313 372.899 117.9C373.205 118.473 373.612 118.913 374.119 119.22C374.625 119.513 375.185 119.66 375.799 119.66ZM386.372 120.36L382.152 110.8H383.992L387.192 118.38H387.232L390.312 110.8H392.152L385.852 125.32H384.092L386.372 120.36ZM391.918 122.66L392.978 121C392.738 120.96 392.525 120.833 392.338 120.62C392.152 120.407 392.058 120.147 392.058 119.84C392.058 119.493 392.178 119.2 392.418 118.96C392.672 118.707 392.978 118.58 393.338 118.58C393.698 118.58 393.998 118.707 394.238 118.96C394.492 119.2 394.618 119.493 394.618 119.84C394.618 120.067 394.572 120.287 394.478 120.5C394.385 120.7 394.245 120.933 394.058 121.2L392.738 123.2L391.918 122.66ZM401.971 106.68H407.111C407.831 106.68 408.504 106.847 409.131 107.18C409.771 107.513 410.278 107.973 410.651 108.56C411.024 109.147 411.211 109.807 411.211 110.54C411.211 111.233 411.031 111.84 410.671 112.36C410.324 112.88 409.851 113.28 409.251 113.56V113.64C409.971 113.88 410.558 114.293 411.011 114.88C411.464 115.467 411.691 116.153 411.691 116.94C411.691 117.713 411.491 118.413 411.091 119.04C410.704 119.653 410.178 120.133 409.511 120.48C408.858 120.827 408.151 121 407.391 121H401.971V106.68ZM407.111 112.88C407.591 112.88 408.011 112.767 408.371 112.54C408.744 112.313 409.031 112.027 409.231 111.68C409.431 111.32 409.531 110.953 409.531 110.58C409.531 110.22 409.431 109.867 409.231 109.52C409.044 109.16 408.771 108.867 408.411 108.64C408.064 108.413 407.658 108.3 407.191 108.3H403.651V112.88H407.111ZM407.491 119.38C407.971 119.38 408.398 119.26 408.771 119.02C409.158 118.78 409.451 118.473 409.651 118.1C409.864 117.713 409.971 117.32 409.971 116.92C409.971 116.52 409.864 116.133 409.651 115.76C409.438 115.373 409.138 115.067 408.751 114.84C408.364 114.6 407.918 114.48 407.411 114.48H403.651V119.38H407.491ZM413.76 106.68H415.46V110.9L415.38 112.3H415.46C415.74 111.78 416.18 111.347 416.78 111C417.393 110.653 418.06 110.48 418.78 110.48C420.02 110.48 420.967 110.847 421.62 111.58C422.273 112.3 422.6 113.26 422.6 114.46V121H420.9V114.72C420.9 113.8 420.667 113.12 420.2 112.68C419.733 112.24 419.127 112.02 418.38 112.02C417.847 112.02 417.353 112.18 416.9 112.5C416.46 112.82 416.107 113.233 415.84 113.74C415.587 114.247 415.46 114.773 415.46 115.32V121H413.76V106.68ZM429.749 121.32C428.749 121.32 427.849 121.08 427.049 120.6C426.249 120.12 425.622 119.467 425.169 118.64C424.729 117.813 424.509 116.9 424.509 115.9C424.509 114.9 424.729 113.987 425.169 113.16C425.622 112.333 426.249 111.68 427.049 111.2C427.849 110.72 428.749 110.48 429.749 110.48C430.749 110.48 431.649 110.72 432.449 111.2C433.249 111.68 433.869 112.333 434.309 113.16C434.762 113.987 434.989 114.9 434.989 115.9C434.989 116.9 434.762 117.813 434.309 118.64C433.869 119.467 433.249 120.12 432.449 120.6C431.649 121.08 430.749 121.32 429.749 121.32ZM429.749 119.78C430.376 119.78 430.956 119.627 431.489 119.32C432.036 119 432.469 118.547 432.789 117.96C433.122 117.373 433.289 116.687 433.289 115.9C433.289 115.113 433.122 114.427 432.789 113.84C432.469 113.253 432.036 112.807 431.489 112.5C430.956 112.18 430.376 112.02 429.749 112.02C429.122 112.02 428.536 112.18 427.989 112.5C427.442 112.807 427.002 113.253 426.669 113.84C426.349 114.427 426.189 115.113 426.189 115.9C426.189 116.687 426.349 117.373 426.669 117.96C427.002 118.547 427.442 119 427.989 119.32C428.536 119.627 429.122 119.78 429.749 119.78ZM436.785 110.8H438.405V112.32H438.485C438.792 111.8 439.252 111.367 439.865 111.02C440.492 110.66 441.192 110.48 441.965 110.48C442.872 110.48 443.699 110.713 444.445 111.18C445.192 111.647 445.779 112.293 446.205 113.12C446.632 113.947 446.845 114.873 446.845 115.9C446.845 116.94 446.632 117.873 446.205 118.7C445.779 119.513 445.192 120.153 444.445 120.62C443.699 121.087 442.872 121.32 441.965 121.32C441.192 121.32 440.492 121.147 439.865 120.8C439.252 120.44 438.792 120.007 438.485 119.5H438.405L438.485 120.9V125.32H436.785V110.8ZM441.765 119.78C442.352 119.78 442.905 119.62 443.425 119.3C443.945 118.98 444.359 118.527 444.665 117.94C444.985 117.34 445.145 116.66 445.145 115.9C445.145 115.14 444.985 114.467 444.665 113.88C444.359 113.28 443.945 112.82 443.425 112.5C442.905 112.18 442.352 112.02 441.765 112.02C441.179 112.02 440.625 112.18 440.105 112.5C439.585 112.82 439.172 113.273 438.865 113.86C438.559 114.447 438.405 115.127 438.405 115.9C438.405 116.673 438.559 117.353 438.865 117.94C439.172 118.527 439.585 118.98 440.105 119.3C440.625 119.62 441.179 119.78 441.765 119.78ZM452.079 121.32C451.332 121.32 450.665 121.173 450.079 120.88C449.492 120.587 449.039 120.187 448.719 119.68C448.399 119.16 448.239 118.573 448.239 117.92C448.239 116.84 448.645 116 449.459 115.4C450.272 114.787 451.299 114.48 452.539 114.48C453.152 114.48 453.719 114.547 454.239 114.68C454.772 114.813 455.179 114.967 455.459 115.14V114.52C455.459 113.76 455.192 113.153 454.659 112.7C454.125 112.233 453.452 112 452.639 112C452.065 112 451.539 112.127 451.059 112.38C450.579 112.62 450.199 112.96 449.919 113.4L448.639 112.44C449.039 111.827 449.585 111.347 450.279 111C450.985 110.653 451.765 110.48 452.619 110.48C454.005 110.48 455.092 110.847 455.879 111.58C456.679 112.3 457.079 113.287 457.079 114.54V121H455.459V119.54H455.379C455.085 120.033 454.645 120.453 454.059 120.8C453.472 121.147 452.812 121.32 452.079 121.32ZM452.239 119.82C452.812 119.82 453.345 119.673 453.839 119.38C454.332 119.087 454.725 118.693 455.019 118.2C455.312 117.707 455.459 117.167 455.459 116.58C455.139 116.367 454.745 116.193 454.279 116.06C453.812 115.927 453.319 115.86 452.799 115.86C451.865 115.86 451.159 116.053 450.679 116.44C450.212 116.827 449.979 117.327 449.979 117.94C449.979 118.5 450.192 118.953 450.619 119.3C451.045 119.647 451.585 119.82 452.239 119.82ZM459.444 106.68H461.144V121H459.444V106.68Z" fill="#676C72"/>
</svg>
