<svg width="756" height="879" viewBox="0 0 756 879" fill="none" xmlns="http://www.w3.org/2000/svg">
<g clip-path="url(#clip0)">
<g clip-path="url(#clip1)">
<path d="M58.5006 800.619C69.0922 800.177 78.7419 795.879 83.1063 789.22C83.311 788.908 83.5033 788.592 83.6833 788.272C85.277 785.435 85.775 782.173 84.0322 779.377C82.2894 776.581 77.933 774.457 73.5656 774.899C69.1982 775.34 65.7806 778.846 67.5904 781.621C67.9903 776.013 68.3253 770.12 63.8289 765.239C61.3538 762.688 58.125 761.01 54.624 760.455C45.5632 758.852 39.548 764.004 38.3431 769.202C37.4543 773.042 38.6821 776.944 39.9049 780.743C36.1364 776.262 27.1746 774.268 20.3075 776.385C13.4404 778.501 9.63493 784.428 11.9806 789.355C14.7433 795.15 23.953 798.145 32.5079 799.729C39.5741 801.037 50.1657 800.967 58.5006 800.619Z" fill="#F2F2F2"/>
<path d="M855 799.645H-4V803.107H855V799.645Z" fill="#CCCCCC"/>
<path d="M342.357 275.798C342.323 276.494 342.343 277.193 342.419 277.886L294.813 318.06L280.615 312.892L270.057 333.416L301.096 348.272L353.141 289.545C355.769 290.024 358.48 289.687 360.913 288.58C363.346 287.472 365.386 285.646 366.762 283.344C368.138 281.042 368.784 278.373 368.615 275.693C368.446 273.013 367.469 270.448 365.815 268.339C364.161 266.231 361.908 264.678 359.355 263.889C356.802 263.1 354.07 263.11 351.524 263.92C348.977 264.729 346.736 266.299 345.098 268.421C343.461 270.542 342.504 273.115 342.356 275.797L342.357 275.798Z" fill="#FBBEBE"/>
<path d="M278.508 343.262L232.536 326.572C230.446 325.814 228.525 324.649 226.883 323.144C225.241 321.639 223.91 319.824 222.966 317.801C222.021 315.779 221.482 313.59 221.379 311.358C221.277 309.126 221.612 306.896 222.366 304.795C223.12 302.694 224.279 300.762 225.776 299.111C227.272 297.46 229.077 296.121 231.089 295.172C235.15 293.254 239.803 293.037 244.023 294.569L289.995 311.259C291.402 311.769 292.549 312.82 293.185 314.181C293.821 315.542 293.893 317.102 293.385 318.516L293.385 318.517L285.727 339.853C285.217 341.266 284.171 342.418 282.818 343.057C281.465 343.696 279.915 343.77 278.508 343.261L278.508 343.262Z" fill="#7510F7"/>
<path d="M244.839 505.813H260.203L267.512 446.222H244.837L244.839 505.813Z" fill="#A0616A"/>
<path d="M289.833 520.159L241.546 520.162L241.545 501.402L271.175 501.4C273.625 501.4 276.051 501.885 278.315 502.828C280.578 503.771 282.635 505.152 284.367 506.894C286.1 508.636 287.474 510.704 288.412 512.98C289.35 515.256 289.832 517.696 289.833 520.159Z" fill="#2F2E41"/>
<path d="M206.868 485.854L219.437 494.74L259.502 450.222L240.954 437.108L206.868 485.854Z" fill="#A0616A"/>
<path d="M233.955 520.565L194.456 492.646L205.183 477.3L229.421 494.433C231.425 495.849 233.132 497.649 234.445 499.729C235.757 501.809 236.65 504.128 237.07 506.555C237.491 508.982 237.433 511.468 236.898 513.872C236.364 516.276 235.364 518.55 233.955 520.566V520.565Z" fill="#2F2E41"/>
<path d="M278.458 398.469C278.458 398.469 316.8 393.92 309.918 418.938C303.035 443.956 226.352 465.563 226.352 465.563L278.458 398.469Z" fill="#FBBEBE"/>
<path d="M252.068 270.81C269.067 270.81 282.847 256.953 282.847 239.859C282.847 222.765 269.067 208.908 252.068 208.908C235.068 208.908 221.288 222.765 221.288 239.859C221.288 256.953 235.068 270.81 252.068 270.81Z" fill="#FBBEBE"/>
<path d="M153.907 460.441C136.392 439.93 130.264 408.46 158.195 382.283C165.093 375.977 172.903 370.761 181.359 366.814L203.868 303.51C206.207 296.899 210.494 291.162 216.159 287.065C221.824 282.967 228.596 280.705 235.573 280.578C242.347 280.284 249.045 282.106 254.747 285.794C260.449 289.482 264.876 294.854 267.42 301.173C270.169 307.602 270.484 314.821 268.304 321.467C261.603 342.45 252.803 362.695 242.038 381.892L243.202 391.256L300.102 396.341L299.571 397.209C299.294 397.661 271.447 440.326 235.821 468.646C223.64 478.328 211.045 482.342 199.156 482.341C181.13 482.345 164.734 473.116 153.907 460.441Z" fill="#7510F7"/>
<path d="M148.538 249.57C153.983 243.045 156.319 234.511 158.199 226.204C161.171 213.063 163.472 199.473 170.077 187.745C176.682 176.017 188.82 166.3 202.203 167.04C215.51 167.776 226.268 178.541 231.978 190.789C233.36 190.249 234.84 190.007 236.321 190.079C237.803 190.151 239.252 190.535 240.577 191.206C244.692 193.472 246.231 199.914 242.805 203.139C246.409 201.414 250.332 200.471 254.322 200.371C258.312 200.271 262.277 201.016 265.961 202.559C270.699 204.587 274.788 207.89 277.78 212.104C280.771 216.318 282.548 221.28 282.916 226.445C283.06 228.541 282.773 230.644 282.076 232.624C281.378 234.604 280.283 236.419 278.859 237.957C272.953 244.07 264.601 241.961 257.174 240.404C250.158 238.933 241.615 238.536 237.662 245.257C236.105 248.058 235.669 251.35 236.443 254.463C237.957 261.172 242.897 265.845 247.69 270.318L248.474 271.782C231.552 275.1 213.078 263.479 208.635 246.728C204.192 229.977 214.474 210.652 230.794 205.064C229.707 205.099 228.631 204.841 227.677 204.318C226.723 203.794 225.925 203.024 225.366 202.086C224.807 201.148 224.508 200.078 224.499 198.985C224.49 197.892 224.772 196.816 225.315 195.869C220.799 193.323 215.688 192.039 210.512 192.15C202.082 192.706 194.787 198.739 190.399 206C186.012 213.26 184.025 221.684 182.013 229.936C180.002 238.187 177.824 246.594 173.133 253.663C169.884 258.557 165.542 262.619 160.455 265.525C155.367 268.432 149.674 270.102 143.831 270.404C137.987 270.705 132.154 269.629 126.798 267.261C121.441 264.893 116.709 261.299 112.979 256.766C118.874 259.64 125.542 260.493 131.964 259.193C138.386 257.894 144.208 254.513 148.538 249.57Z" fill="#2F2E41"/>
<path d="M385.978 333.765C378.304 333.765 370.802 331.477 364.421 327.189C358.04 322.902 353.067 316.809 350.13 309.679C347.193 302.55 346.425 294.705 347.922 287.136C349.419 279.568 353.115 272.616 358.541 267.159C363.967 261.702 370.881 257.986 378.408 256.481C385.935 254.976 393.736 255.748 400.826 258.701C407.916 261.654 413.976 266.655 418.24 273.071C422.504 279.488 424.779 287.031 424.779 294.748C424.767 305.092 420.676 315.01 413.402 322.324C406.127 329.639 396.265 333.753 385.978 333.765ZM385.978 262.234C379.583 262.234 373.331 264.141 368.014 267.714C362.696 271.286 358.552 276.364 356.105 282.306C353.657 288.247 353.017 294.784 354.265 301.091C355.512 307.398 358.592 313.192 363.114 317.739C367.636 322.286 373.397 325.383 379.67 326.637C385.942 327.892 392.443 327.248 398.352 324.787C404.26 322.326 409.31 318.159 412.863 312.812C416.416 307.465 418.312 301.179 418.312 294.748C418.303 286.128 414.893 277.863 408.831 271.768C402.769 265.673 394.55 262.244 385.978 262.234Z" fill="#F9BD05"/>
<path d="M384.705 245.977C383.847 245.977 383.025 245.635 382.418 245.025C381.812 244.415 381.471 243.588 381.471 242.726V205.335C381.471 204.472 381.812 203.645 382.418 203.036C383.025 202.426 383.847 202.083 384.705 202.083C385.562 202.083 386.385 202.426 386.991 203.036C387.597 203.645 387.938 204.472 387.938 205.335V242.726C387.938 243.588 387.597 244.415 386.991 245.025C386.385 245.635 385.562 245.977 384.705 245.977Z" fill="#4286F5"/>
<path d="M334.242 296.72H297.058C296.2 296.72 295.378 296.377 294.771 295.768C294.165 295.158 293.824 294.331 293.824 293.468C293.824 292.606 294.165 291.779 294.771 291.169C295.378 290.56 296.2 290.217 297.058 290.217H334.242C335.1 290.217 335.922 290.56 336.529 291.169C337.135 291.779 337.476 292.606 337.476 293.468C337.476 294.331 337.135 295.158 336.529 295.768C335.922 296.377 335.1 296.72 334.242 296.72H334.242Z" fill="#4286F5"/>
<path d="M470.048 296.72H432.863C432.005 296.72 431.183 296.377 430.576 295.768C429.97 295.158 429.629 294.331 429.629 293.468C429.629 292.606 429.97 291.779 430.576 291.169C431.183 290.56 432.005 290.217 432.863 290.217H470.048C470.905 290.217 471.728 290.56 472.334 291.169C472.94 291.779 473.281 292.606 473.281 293.468C473.281 294.331 472.94 295.158 472.334 295.768C471.728 296.377 470.905 296.72 470.048 296.72Z" fill="#4286F5"/>
<path d="M431.841 261.169C431.198 261.169 430.569 260.976 430.035 260.614C429.501 260.252 429.087 259.739 428.845 259.139C428.603 258.539 428.545 257.88 428.677 257.247C428.81 256.613 429.128 256.034 429.59 255.584L445.162 240.392C445.467 240.094 445.827 239.859 446.222 239.701C446.617 239.543 447.039 239.465 447.464 239.471C447.889 239.477 448.308 239.567 448.699 239.737C449.089 239.906 449.442 240.151 449.738 240.458C450.034 240.765 450.267 241.127 450.424 241.525C450.58 241.922 450.657 242.347 450.65 242.774C450.644 243.201 450.553 243.623 450.384 244.015C450.215 244.408 449.971 244.762 449.665 245.059L434.093 260.251C433.49 260.841 432.682 261.17 431.841 261.169Z" fill="#EB4338"/>
<path d="M336.881 261.169C336.04 261.17 335.232 260.841 334.629 260.251L319.057 245.059C318.752 244.762 318.507 244.408 318.338 244.015C318.169 243.623 318.079 243.201 318.072 242.774C318.065 242.347 318.142 241.922 318.298 241.525C318.455 241.127 318.688 240.765 318.984 240.458C319.28 240.151 319.633 239.906 320.023 239.737C320.414 239.567 320.833 239.477 321.258 239.471C321.683 239.465 322.106 239.543 322.501 239.701C322.895 239.859 323.256 240.094 323.56 240.392L339.132 255.584C339.594 256.034 339.912 256.613 340.045 257.247C340.178 257.88 340.119 258.539 339.877 259.139C339.636 259.739 339.221 260.252 338.687 260.614C338.154 260.976 337.524 261.169 336.881 261.169Z" fill="#E94237"/>
<path d="M324.542 350.022C323.907 350.022 323.286 349.833 322.756 349.48C322.226 349.127 321.812 348.625 321.564 348.036C321.317 347.448 321.247 346.799 321.364 346.171C321.481 345.543 321.78 344.964 322.222 344.505L337.794 328.38C338.392 327.762 339.209 327.408 340.066 327.396C340.923 327.383 341.75 327.714 342.365 328.314C342.98 328.915 343.333 329.736 343.346 330.598C343.359 331.46 343.031 332.292 342.434 332.911L326.862 349.036C326.561 349.348 326.2 349.596 325.802 349.766C325.403 349.935 324.975 350.022 324.542 350.022Z" fill="#6C63FF"/>
<path d="M450.647 353.273C450.216 353.274 449.789 353.188 449.391 353.019C448.994 352.851 448.634 352.603 448.333 352.292L429.528 332.915C429.231 332.61 428.996 332.249 428.838 331.852C428.68 331.456 428.601 331.032 428.606 330.604C428.611 330.177 428.699 329.755 428.867 329.362C429.034 328.969 429.276 328.614 429.581 328.315C429.885 328.017 430.244 327.782 430.639 327.623C431.034 327.465 431.455 327.386 431.88 327.391C432.305 327.397 432.725 327.487 433.115 327.655C433.506 327.824 433.859 328.069 434.155 328.375L452.961 347.752C453.405 348.209 453.706 348.789 453.824 349.417C453.943 350.046 453.874 350.695 453.627 351.285C453.38 351.874 452.966 352.377 452.436 352.731C451.905 353.085 451.283 353.273 450.647 353.273Z" fill="#EB4338"/>
<path d="M384.705 385.787C383.847 385.787 383.025 385.445 382.418 384.835C381.812 384.225 381.471 383.398 381.471 382.536V345.145C381.471 344.718 381.555 344.295 381.717 343.9C381.88 343.506 382.118 343.148 382.418 342.846C382.719 342.544 383.075 342.304 383.467 342.141C383.86 341.977 384.28 341.893 384.705 341.893C385.129 341.893 385.55 341.977 385.942 342.141C386.334 342.304 386.691 342.544 386.991 342.846C387.291 343.148 387.529 343.506 387.692 343.9C387.854 344.295 387.938 344.718 387.938 345.145V382.536C387.938 383.398 387.597 384.225 386.991 384.835C386.385 385.445 385.562 385.787 384.705 385.787Z" fill="#4286F5"/>
<path d="M343.899 319.022C343.574 319.638 343.298 320.278 343.073 320.938L282.998 336.957L272.333 326.21L254.1 340.275L275.916 366.989L347.85 336.074C350.026 337.632 352.622 338.486 355.293 338.523C357.963 338.56 360.582 337.779 362.8 336.284C365.019 334.788 366.732 332.649 367.712 330.15C368.691 327.652 368.892 324.912 368.286 322.297C367.68 319.681 366.296 317.313 364.319 315.507C362.342 313.702 359.865 312.544 357.217 312.188C354.57 311.833 351.878 312.296 349.499 313.516C347.119 314.737 345.166 316.657 343.898 319.021L343.899 319.022Z" fill="#FBBEBE"/>
<path d="M257.587 352.8L223.028 318.044C221.456 316.465 220.209 314.589 219.357 312.525C218.506 310.461 218.068 308.248 218.067 306.013C218.067 303.779 218.504 301.566 219.354 299.501C220.205 297.436 221.451 295.56 223.023 293.98C224.594 292.4 226.46 291.147 228.513 290.292C230.566 289.437 232.767 288.997 234.989 288.997C237.212 288.998 239.412 289.439 241.465 290.295C243.518 291.15 245.383 292.405 246.954 293.986L281.514 328.738C282.572 329.801 283.166 331.243 283.167 332.747C283.167 334.25 282.573 335.692 281.516 336.756L281.514 336.757L265.564 352.798C264.505 353.859 263.071 354.455 261.576 354.455C260.08 354.455 258.646 353.859 257.588 352.798L257.587 352.8Z" fill="#7510F7"/>
<g opacity="0.2">
<path opacity="0.2" d="M629.612 741.274C629.882 742.827 630.282 744.354 630.808 745.839C640.51 742.695 650.312 739.716 660.214 736.902C660.16 736.489 660.098 736.063 660.023 735.637C659.322 731.259 657.49 727.143 654.71 723.702C651.097 719.351 646.208 717.027 641.304 717.942C636.401 718.856 632.59 722.754 630.644 728.143C629.17 732.355 628.815 736.881 629.612 741.274Z" fill="#3F3D56"/>
<path opacity="0.2" d="M643.789 733.932C652.223 732.589 657.613 722.291 655.828 710.932C654.042 699.573 645.758 691.454 637.324 692.797C628.89 694.14 623.499 704.437 625.285 715.797C627.07 727.156 635.354 735.275 643.789 733.932Z" fill="#3F3D56"/>
<path opacity="0.2" d="M641.563 709.405C650.017 708.029 655.388 697.685 653.56 686.299C651.732 674.914 643.397 666.799 634.944 668.174C626.49 669.55 621.119 679.894 622.946 691.28C624.774 702.665 633.109 710.78 641.563 709.405Z" fill="#3F3D56"/>
<path opacity="0.2" d="M635.181 683.785C643.615 682.442 649.005 672.144 647.22 660.785C645.434 649.426 637.15 641.307 628.716 642.65C620.282 643.993 614.892 654.29 616.677 665.649C618.462 677.009 626.746 685.128 635.181 683.785Z" fill="#3F3D56"/>
<path opacity="0.2" d="M630.884 658.707C639.318 657.364 644.708 647.066 642.923 635.707C641.138 624.348 632.854 616.229 624.419 617.572C615.985 618.915 610.595 629.212 612.38 640.571C614.166 651.93 622.45 660.05 630.884 658.707Z" fill="#3F3D56"/>
<path opacity="0.2" d="M655.127 456.017C656.736 452.908 658.135 449.692 659.313 446.393L618.201 447.039L661.471 439.36C664.186 428.698 664.623 417.578 662.755 406.733C661.125 397.136 657.7 387.937 652.661 379.626L600.001 421.362L646.522 370.95C630.077 350.883 603.976 340.18 577.041 345.171C536.783 352.609 509.964 392.262 517.074 433.716C519.88 450.462 528.168 465.782 540.621 477.239C538.103 482.088 536.105 487.193 534.659 492.467L591.287 510.623L532.685 501.747C531.465 509.973 531.561 518.343 532.972 526.537C535.778 543.283 544.067 558.604 556.519 570.061C548.658 585.201 545.977 602.529 548.891 619.359C556 660.82 594.374 688.38 634.605 680.921C674.836 673.462 701.681 633.816 694.572 592.355C691.763 575.612 683.475 560.295 671.025 548.839C678.885 533.696 681.566 516.366 678.653 499.534C675.85 482.794 667.569 467.477 655.127 456.017Z" fill="#6C63FF"/>
<path opacity="0.1" d="M532.993 526.537C535.799 543.283 544.087 558.604 556.54 570.061C548.679 585.201 545.997 602.529 548.912 619.359C556.021 660.82 594.394 688.38 634.625 680.921C674.856 673.462 701.702 633.816 694.593 592.355C691.784 575.612 683.495 560.295 671.046 548.839C678.619 534.251 531.545 518.116 532.993 526.537Z" fill="black"/>
</g>
<g opacity="0.2">
<path opacity="0.2" d="M29.314 773.407C29.0689 775.197 28.9707 777.005 29.0203 778.811C40.9214 779.003 52.8749 779.407 64.8807 780.021C64.9626 779.553 65.0445 779.065 65.1128 778.577C65.8823 773.539 65.3048 768.385 63.4397 763.645C60.9675 757.575 56.3578 753.237 50.5871 752.405C44.8164 751.573 39.1891 754.426 35.1257 759.52C31.9918 763.544 29.9851 768.339 29.314 773.407Z" fill="#3F3D56"/>
<path opacity="0.2" d="M69.2647 749.778C71.1247 736.752 64.6185 725.033 54.7327 723.603C44.8469 722.172 35.325 731.572 33.465 744.598C31.605 757.623 38.1112 769.342 47.997 770.773C57.8828 772.203 67.4046 762.804 69.2647 749.778Z" fill="#3F3D56"/>
<path opacity="0.2" d="M73.3781 720.956C75.2381 707.93 68.7319 696.211 58.8461 694.781C48.9603 693.35 39.4384 702.75 37.5783 715.776C35.7183 728.802 42.2245 740.521 52.1103 741.951C61.9962 743.382 71.518 733.982 73.3781 720.956Z" fill="#3F3D56"/>
<path opacity="0.2" d="M77.4923 692.128C79.3523 679.102 72.8461 667.383 62.9603 665.952C53.0745 664.522 43.5526 673.922 41.6926 686.947C39.8326 699.973 46.3388 711.692 56.2246 713.123C66.1104 714.553 75.6323 705.153 77.4923 692.128Z" fill="#3F3D56"/>
<path opacity="0.2" d="M81.6066 663.299C83.4666 650.273 76.9604 638.554 67.0746 637.124C57.1887 635.693 47.6669 645.093 45.8068 658.119C43.9468 671.144 50.453 682.864 60.3388 684.294C70.2246 685.724 79.7465 676.325 81.6066 663.299Z" fill="#3F3D56"/>
<path opacity="0.2" d="M158.838 473.123C161.73 470.332 164.429 467.346 166.917 464.186L120.997 449.632L171.806 457.373C178.213 447.388 182.528 436.193 184.488 424.471C186.448 412.75 186.011 400.749 183.205 389.204L109.886 414.963L179.455 377.517C175.021 366.411 168.363 356.343 159.896 347.94C151.429 339.537 141.334 332.979 130.239 328.674C119.145 324.369 107.288 322.41 95.4089 322.918C83.5295 323.427 71.8813 326.392 61.1897 331.629C50.4981 336.866 40.9921 344.263 33.2639 353.359C25.5356 362.455 19.7505 373.055 16.2689 384.5C12.7873 395.945 11.6838 407.988 13.027 419.881C14.3702 431.774 18.1315 443.26 24.0765 453.626C19.5707 457.953 15.541 462.757 12.0571 467.953L68.5485 508.706L6.6005 477.302C0.0885181 490.24 -3.11572 504.608 -2.72221 519.106C-2.32871 533.604 1.65014 547.774 8.85418 560.334C-2.90959 571.625 -11.28 586.019 -15.2999 601.872C-19.3199 617.726 -18.8272 634.398 -13.8782 649.982C-8.92912 665.567 0.276512 679.435 12.6862 690.002C25.0959 700.568 40.2088 707.406 56.297 709.733C72.3852 712.061 88.7993 709.784 103.663 703.163C118.526 696.543 131.239 685.846 140.348 672.295C149.456 658.744 154.593 642.886 155.171 626.535C155.749 610.184 151.745 593.999 143.615 579.831C157.67 566.338 166.812 548.482 169.574 529.13C172.336 509.778 168.557 490.053 158.845 473.123H158.838Z" fill="#6C63FF"/>
<path opacity="0.1" d="M-1.88187 504.327C-4.67703 523.679 -0.896441 543.415 8.84688 560.334C-2.9169 571.624 -11.2873 586.019 -15.3073 601.872C-19.3272 617.726 -18.8345 634.398 -13.8855 649.982C-8.93644 665.567 0.269201 679.435 12.6789 690.001C25.0886 700.568 40.2015 707.406 56.2897 709.733C72.378 712.061 88.7921 709.784 103.656 703.163C118.519 696.543 131.232 685.846 140.341 672.295C149.449 658.744 154.586 642.886 155.164 626.535C155.742 610.184 151.737 593.999 143.608 579.831C157.192 566.81 -0.502365 494.64 -1.88187 504.327Z" fill="black"/>
</g>
<path d="M471.092 523.109L516.461 481.294L519.484 463.687C436.809 394.401 305.387 402.257 230.858 480.08C210.156 501.695 194.798 528.643 186.608 556.47L202.858 554.359L293.594 540.569L300.599 533.966C340.961 493.112 409.206 487.615 455.809 522.376L471.092 523.109Z" fill="#EA4335"/>
<path d="M581.091 555.24C570.663 519.846 549.253 488.028 519.485 463.689L455.809 522.375C482.697 542.624 498.014 573.129 497.358 605.123V615.541C528.655 615.541 554.03 638.926 554.03 667.771C554.03 696.618 528.655 719.417 497.358 719.417H383.856L372.712 730.567V793.215L383.856 803.044H497.358C578.767 803.629 645.276 743.865 645.91 668.835C646.294 623.356 621.965 580.72 581.091 555.24Z" fill="#4285F4"/>
<path d="M270.513 803.045H383.855V719.416H270.513C262.437 719.414 254.616 717.815 247.272 714.722L231.192 719.269L185.505 761.084L181.525 775.316C207.147 793.146 238.408 803.173 270.513 803.045Z" fill="#34A853"/>
<path d="M270.512 531.765C189.101 532.213 123.501 593.402 123.986 668.433C124.257 710.332 145.489 749.774 181.525 775.316L247.272 714.722C218.747 702.844 206.072 671.906 218.959 645.618C231.844 619.33 265.415 607.647 293.936 619.523C306.505 624.756 316.571 634.035 322.249 645.618L387.996 585.024C360.021 551.319 316.554 531.613 270.512 531.765Z" fill="#FBBC05"/>
<path d="M694.908 797.325C694.908 797.325 702.188 797.105 704.38 795.531C706.573 793.957 715.567 792.094 716.113 794.603C716.659 797.112 727.04 807.142 718.845 807.204C710.65 807.266 699.764 805.918 697.572 804.578C695.379 803.237 694.908 797.325 694.908 797.325Z" fill="#A8A8A8"/>
<path opacity="0.1" d="M596.813 180.174C597.404 179.331 597.729 178.329 597.748 177.298C597.748 171.052 585.058 165.998 569.403 165.998C553.749 165.998 541.058 171.052 541.058 177.298C541.071 178.46 541.462 179.585 542.172 180.503C524.741 182.455 513 186.112 513 190.31C513 196.549 538.954 201.61 571.056 201.61C603.158 201.61 629.112 196.549 629.112 190.31C629.133 185.893 615.937 182.023 596.813 180.174Z" fill="#6C63FF"/>
</g>
<path opacity="0.1" d="M162.758 108.154C163.349 107.311 163.675 106.311 163.694 105.282C163.694 99.0462 151.003 94 135.349 94C119.694 94 107.004 99.0462 107.004 105.282C107.032 106.448 107.442 107.572 108.171 108.482C90.741 110.431 79 114.082 79 118.274C79 124.503 104.989 129.556 137.056 129.556C169.124 129.556 195.112 124.503 195.112 118.274C195.078 113.863 181.882 110 162.758 108.154Z" fill="#6C63FF"/>
</g>
<defs>
<clipPath id="clip0">
<rect width="756" height="879" fill="white"/>
</clipPath>
<clipPath id="clip1">
<rect width="873" height="641" fill="white" transform="translate(-18 167)"/>
</clipPath>
</defs>
</svg>
