<svg width="68" height="50" viewBox="0 0 68 50" fill="none" xmlns="http://www.w3.org/2000/svg">
<path d="M44.7954 13.7023L50.6504 8.33579L51.0406 6.07613C40.3711 -2.81613 23.4107 -1.80784 13.7926 8.18C11.121 10.9541 9.13895 14.4125 8.08203 17.9838L10.179 17.713L21.8888 15.9432L22.7929 15.0957C28.0017 9.85244 36.8089 9.14705 42.8231 13.6083L44.7954 13.7023Z" fill="#EA4335"/>
<path d="M58.991 17.826C57.6452 13.2836 54.8822 9.20001 51.0405 6.07628L42.823 13.6082C46.293 16.2069 48.2697 20.1219 48.185 24.2281V25.5651C52.224 25.5651 55.4987 28.5663 55.4987 32.2683C55.4987 35.9706 52.224 38.8966 48.185 38.8966H33.5373L32.0991 40.3276V48.3679L33.5373 49.6294H48.185C58.6911 49.7044 67.2743 42.0343 67.3561 32.4048C67.4056 26.568 64.2659 21.0961 58.991 17.826Z" fill="#4285F4"/>
<path d="M18.9098 49.6295H33.537V38.8965H18.9098C17.8676 38.8962 16.8583 38.691 15.9106 38.294L13.8355 38.8776L7.93938 44.2442L7.42578 46.0707C10.7323 48.3591 14.7666 49.6459 18.9098 49.6295Z" fill="#34A853"/>
<path d="M18.9099 14.8133C8.40361 14.8707 -0.0622755 22.7238 0.000345166 32.3533C0.0353391 37.7306 2.77539 42.7926 7.42589 46.0706L15.9107 38.294C12.2295 36.7696 10.5938 32.7989 12.2569 29.4251C13.9198 26.0513 18.2522 24.552 21.9328 26.0762C23.5549 26.7478 24.8539 27.9386 25.5867 29.4251L34.0715 21.6485C30.4613 17.3228 24.8518 14.7938 18.9099 14.8133Z" fill="#FBBC05"/>
</svg>
