<svg width="706" height="706" viewBox="0 0 706 706" fill="none" xmlns="http://www.w3.org/2000/svg">
<path d="M0 705.53H705.505V0H0V705.53Z" fill="white"/>
<path d="M308.149 233.516C286.462 154.84 188.731 129.494 132.723 188.293C131.919 189.139 131.116 189.996 130.312 190.87C50.016 278.158 87.9484 493.263 255.526 547.783C423.101 602.303 597.405 502.745 607.196 413.747C616.988 324.748 539.678 296.783 419.697 321.669C351.912 335.729 321.651 282.494 308.149 233.516Z" fill="#D4BDE3"/>
<path d="M447.551 246.974C425.13 250.624 418.916 270.488 436.227 284.581C441.95 289.239 450.121 293.11 461.763 295.04C506.108 302.397 529.64 282.777 511.865 257.337C500.893 241.636 469.771 243.356 447.551 246.974Z" fill="#D4BDE3"/>
<path d="M100.557 407.76C89.5469 387.891 68.751 388.751 61.3355 409.806C58.8844 416.765 58.0026 425.763 60.1175 437.374C68.1728 481.6 94.5895 497.122 112.528 471.796C123.6 456.166 111.467 427.452 100.557 407.76Z" fill="#D4BDE3"/>
<path d="M623 424.09C620.935 434.903 629.864 442.562 639.981 438.397C643.325 437.018 646.697 434.362 649.697 429.696C661.127 411.914 655.338 396.659 639.423 398.226C629.6 399.192 625.048 413.375 623 424.09Z" fill="#D4BDE3"/>
<path d="M566.319 309.984C577.095 312.234 584.905 303.437 580.91 293.251C579.591 289.884 576.995 286.466 572.378 283.387C554.794 271.654 539.445 277.183 540.74 293.122C541.537 302.962 555.64 307.756 566.319 309.984Z" fill="#D4BDE3"/>
<path d="M304.406 194.275C312.938 201.232 323.919 197.017 325.062 186.135C325.438 182.538 324.706 178.307 322.025 173.449C311.812 154.941 295.641 152.785 289.455 167.532C285.636 176.635 295.951 187.382 304.406 194.275Z" fill="#D4BDE3"/>
<path d="M645.619 582.59C649.319 583.209 653.179 582.172 655.757 579.446C657.439 577.67 658.579 575.475 658.578 573.373V573.281C658.53 558.198 677.061 559.203 683.009 540.76C688.957 522.321 665.448 520.769 652.019 532.153C642.365 540.341 630.778 528.902 616.745 538.452C604.56 546.738 611.347 567.145 591.36 560.765C584.979 558.725 579.263 560.69 574.442 564.31C568.89 568.478 565.273 574.318 563.769 580.659L565.361 581.785C604.78 605.947 622.543 578.738 645.619 582.59Z" fill="#765CB4"/>
<path d="M606.56 581.785L658.818 548.238C659.518 547.789 659.72 546.858 659.271 546.158C658.822 545.458 657.891 545.256 657.191 545.705L600.986 581.785H606.56Z" fill="#583C9F"/>
<path d="M603.743 481.98C601.536 449.1 601.175 414.619 603.622 391.757C606.819 361.889 614.05 341.097 625.117 329.959C625.851 329.223 627.044 329.218 627.782 329.952C628.52 330.686 628.525 331.878 627.791 332.618C608.445 352.086 601.488 404.36 607.635 483.898L603.743 481.98Z" fill="#4C3297"/>
<path d="M608.69 365.369C608.69 365.369 592.937 365.344 594.063 337.649C594.063 337.649 618.166 344.525 608.69 365.369Z" fill="#583C9F"/>
<path d="M607.371 379.616C607.371 379.616 606.52 363.887 634.232 363.469C634.232 363.469 628.708 387.918 607.371 379.616Z" fill="#583C9F"/>
<path d="M619.417 340.768C619.417 340.768 613.369 326.222 639.36 316.589C639.36 316.589 642.301 341.479 619.417 340.768Z" fill="#583C9F"/>
<path d="M603.832 408.2C603.832 408.2 589.001 413.505 580.693 387.06C580.693 387.06 605.7 385.378 603.832 408.2Z" fill="#583C9F"/>
<path d="M604.687 422.918C604.687 422.918 601.127 407.572 628.351 402.368C628.351 402.368 627.138 427.404 604.687 422.918Z" fill="#583C9F"/>
<path d="M603.853 443.187C603.853 443.187 589.125 448.773 580.316 422.491C580.316 422.491 605.288 420.336 603.853 443.187Z" fill="#583C9F"/>
<path d="M146.719 555.263L142.427 555.094L140.151 555.002L133.702 554.745C133.702 554.745 74.1031 453.566 111.44 420.569C122.934 410.411 143.028 418.832 138.586 465.52C134.47 508.797 146.719 555.263 146.719 555.263Z" fill="#583C9F"/>
<path d="M142.428 555.094L140.152 555.002C129.747 530.486 124.494 504.152 121.888 485.667C118.792 463.718 118.647 447.78 118.648 447.623C118.643 447.052 119.101 446.587 119.67 446.586C120.239 446.58 120.703 447.04 120.708 447.606C120.708 447.766 120.85 463.592 123.933 485.413C126.555 503.988 131.863 530.538 142.428 555.094Z" fill="#4C3297"/>
<path d="M158.561 575.534L152.731 577.699L149.638 578.846L140.877 582.093C140.877 582.093 4.86357 480.103 36.3694 415.21C46.0678 395.232 77.6117 395.289 97.6883 460.148C116.302 520.27 158.561 575.534 158.561 575.534Z" fill="#765CB4"/>
<path d="M152.731 577.699L149.638 578.847C122.076 551.885 100.384 519.622 86.6008 496.374C70.2336 468.771 61.1612 447.554 61.0747 447.343C60.7501 446.585 61.1034 445.709 61.8629 445.391C62.6208 445.065 63.496 445.42 63.8173 446.174C63.9078 446.389 72.9151 467.456 89.1918 494.897C103.046 518.256 124.932 550.775 152.731 577.699Z" fill="#583C9F"/>
<path d="M623.479 581.306C623.413 578.955 623.136 576.58 622.621 574.222C617.73 551.837 631.033 547.615 648.574 540.546C666.107 533.475 668.195 512.476 655.777 495.022C643.356 477.568 665.672 463.542 657.455 437.276C649.238 411.008 620.698 428.48 614.454 452.695C609.969 470.106 587.151 466.338 578.703 488.92C571.363 508.521 595.961 526.624 567.551 535.61C558.478 538.476 553.46 545.441 550.834 553.592C547.809 562.979 548.403 572.715 551.856 581.306H623.479Z" fill="#583C9F"/>
<path d="M588.728 581.306L635.525 465.778C635.969 464.683 635.439 463.439 634.344 462.994C633.25 462.551 632.004 463.082 631.561 464.175L584.117 581.306H588.728Z" fill="#4C3297"/>
<path d="M198.818 232.036C198.818 232.036 199.802 211.237 187.152 207.242C167.455 201.021 161.973 211.237 158.932 217.988C155.035 226.639 156.697 243.608 168.449 245.246C185.992 247.693 197.735 237.848 198.818 232.036Z" fill="#3E3358"/>
<path d="M211.516 301.587C221.753 301.587 230.596 294.414 232.693 284.394C234.201 277.176 235.677 270.785 235.677 267.197V267.104C235.769 265.969 235.819 264.835 235.828 263.717C235.962 247.305 225.845 217.33 190.256 222.095C190.256 222.095 160.728 225.465 157.366 254.322C157.366 254.322 155.967 267.636 155.036 277.276C155.019 277.448 155.002 277.618 154.985 277.785C153.687 290.527 163.707 301.587 176.513 301.587H211.516Z" fill="#3E3358"/>
<path d="M253.766 335.89C253.766 335.89 260.059 385.744 267.247 411.338C267.247 411.338 277.46 406.581 290.826 400.124C305.32 393.121 326.157 380.345 326.157 380.345L331.423 393.032C331.423 393.032 277.6 443.832 259.772 446.708C241.943 449.584 231.017 385.744 231.017 385.744L253.766 335.89Z" fill="#583C9F"/>
<path d="M325.053 381.833C325.053 381.833 323.574 374.749 326.743 369.957C329.913 365.162 334.738 356.188 340.405 354.315C345.144 352.748 338.15 360.748 337.941 365.827C337.941 365.827 344.992 364.942 350.079 363.29C354.552 361.838 363.403 360.025 367.508 359.216C368.631 358.994 369.355 360.413 368.487 361.163C367.088 362.377 364.163 363.902 358.114 365.36C358.114 365.36 372.857 362.567 374.386 364.826C375.916 367.083 357.42 370.235 357.42 370.235C357.42 370.235 371.772 369.386 372.144 371.638C372.371 373.009 357.503 376.147 357.503 376.147C357.503 376.147 371.07 376.511 367.79 378.653C366.833 379.277 340.567 382.233 331.422 393.032C331.422 393.032 325.27 386.673 325.053 381.833Z" fill="#F6876F"/>
<path d="M163.008 326.071C163.008 326.071 132.896 334.95 106.966 340.802C106.966 340.802 106.293 329.556 105.614 314.726C104.877 298.645 106.203 274.24 106.203 274.24L92.5395 275.644C92.5395 275.644 73.4605 347.153 79.4121 364.203C85.3631 381.254 160.935 357.371 160.935 357.371L163.008 326.071Z" fill="#583C9F"/>
<path d="M105.42 275.918C105.42 275.918 112.354 273.85 115.062 268.781C117.771 263.713 125.253 253.507 120.635 249.728C118.949 248.348 117.734 254.369 113.367 256.967C113.367 256.967 110.792 250.345 109.825 245.084C108.975 240.457 106.359 231.811 105.117 227.816C104.777 226.721 103.186 226.76 102.938 227.879C102.537 229.687 102.587 232.986 104.183 239C104.183 239 99.6244 224.705 96.9104 224.432C94.1964 224.161 100.224 241.931 100.224 241.931C100.224 241.931 94.1435 228.904 91.9857 229.646C90.6717 230.098 94.9835 244.669 94.9835 244.669C94.9835 244.669 88.2085 232.908 87.8854 236.813C87.7917 237.95 97.6875 262.461 92.5396 275.643C92.5396 275.643 101.06 278.029 105.42 275.918Z" fill="#F6876F"/>
<path d="M252.64 529.05L252.88 530.115C229.432 545.991 141.728 535.15 141.728 535.15C141.877 533.31 142.073 531.387 142.33 529.396C142.602 527.178 142.942 524.879 143.333 522.504C144.393 516.119 145.814 509.215 147.41 502.112C147.922 499.875 148.435 497.605 148.976 495.324C150.56 488.546 152.244 481.669 153.838 474.971C154.39 472.67 154.932 470.399 155.455 468.142C156.186 465.008 156.878 461.923 157.541 458.934C158.406 454.96 159.175 451.14 159.821 447.543C160.257 445.123 160.635 442.803 160.926 440.601C161.26 438.269 161.489 436.067 161.628 434.026C160.234 428.875 158.935 423.826 157.724 418.932C157.122 416.439 156.532 414.001 155.952 411.592C154.151 403.882 152.567 396.542 151.184 389.667C150.693 387.169 150.209 384.738 149.767 382.368C148.235 374.26 146.996 366.922 145.999 360.52C145.613 357.967 145.251 355.586 144.933 353.338C144.582 350.88 144.281 348.604 144.019 346.541C142.842 337.463 142.436 332.316 142.436 332.316C142.642 332.149 142.859 331.998 143.082 331.836C145.742 329.947 149.902 328.167 154.524 326.59C159.403 324.916 164.8 323.461 169.557 322.311C170.277 322.139 170.985 321.973 171.676 321.81C177.927 320.35 182.599 319.502 182.599 319.502C203.866 323.957 209.933 321.091 209.933 321.091L220.744 324.28L222.015 324.727L229.895 327.493L230.213 327.61L244.342 332.584L253.766 335.89L250.107 352.758L248.514 360.125L243.696 382.328L242.112 389.667L237.316 411.794L235.739 419.059L231.768 437.395L232.56 440.895L234.111 447.693L236.57 458.5L238.805 468.274L240.344 475.05L244.973 495.43L246.516 502.168L251.106 522.314L252.64 529.05Z" fill="#765CB4"/>
<path d="M222.016 324.727C219.752 338.021 213.307 351.394 199.908 352.839C183.721 354.59 175.328 334.285 171.676 321.811C177.927 320.35 184.405 318.922 184.405 318.922C205.672 323.377 209.775 320.664 209.775 320.664L220.744 324.28L222.016 324.727Z" fill="#F6876F"/>
<path d="M198.263 341.671C181.298 341.671 177.241 320.718 177.202 320.502C177.119 320.048 177.419 319.612 177.872 319.529C178.328 319.447 178.762 319.746 178.847 320.199C179.002 321.041 182.85 340.812 199.247 339.974C213.599 339.247 214.444 323.319 214.472 322.641C214.492 322.18 214.876 321.819 215.343 321.841C215.804 321.861 216.163 322.251 216.144 322.711C216.136 322.893 215.214 340.842 199.332 341.645C198.971 341.663 198.614 341.671 198.263 341.671Z" fill="white"/>
<path d="M167.829 335.893C167.829 338.182 165.975 340.034 163.688 340.034C161.401 340.034 159.547 338.182 159.547 335.893C159.547 333.606 161.401 331.753 163.688 331.753C165.975 331.753 167.829 333.606 167.829 335.893Z" fill="#583C9F"/>
<path d="M159.535 356.099C159.535 358.387 157.681 360.241 155.395 360.241C153.107 360.241 151.253 358.387 151.253 356.099C151.253 353.814 153.107 351.959 155.395 351.959C157.681 351.959 159.535 353.814 159.535 356.099Z" fill="#583C9F"/>
<path d="M185.977 365.654C185.977 367.939 184.123 369.793 181.836 369.793C179.548 369.793 177.694 367.939 177.694 365.654C177.694 363.366 179.548 361.511 181.836 361.511C184.123 361.511 185.977 363.366 185.977 365.654Z" fill="#583C9F"/>
<path d="M167.533 376.949C168.383 379.073 167.349 381.483 165.225 382.331C163.1 383.179 160.691 382.144 159.843 380.021C158.995 377.899 160.028 375.489 162.152 374.64C164.275 373.792 166.685 374.826 167.533 376.949Z" fill="#583C9F"/>
<path d="M203.431 384.599C203.431 386.885 201.577 388.739 199.29 388.739C197.004 388.739 195.148 386.885 195.148 384.599C195.148 382.31 197.004 380.456 199.29 380.456C201.577 380.456 203.431 382.31 203.431 384.599Z" fill="#583C9F"/>
<path d="M229.842 393.13C229.842 395.419 227.988 397.273 225.701 397.273C223.414 397.273 221.56 395.419 221.56 393.13C221.56 390.844 223.414 388.99 225.701 388.99C227.988 388.99 229.842 390.844 229.842 393.13Z" fill="#583C9F"/>
<path d="M235.156 340.034C235.156 342.322 233.302 344.176 231.016 344.176C228.729 344.176 226.875 342.322 226.875 340.034C226.875 337.747 228.729 335.893 231.016 335.893C233.302 335.893 235.156 337.747 235.156 340.034Z" fill="#583C9F"/>
<path d="M205.106 411.043C205.106 413.329 203.252 415.183 200.966 415.183C198.679 415.183 196.825 413.329 196.825 411.043C196.825 408.756 198.679 406.9 200.966 406.9C203.252 406.9 205.106 408.756 205.106 411.043Z" fill="#583C9F"/>
<path d="M179.595 423.883C179.595 426.17 177.741 428.024 175.453 428.024C173.168 428.024 171.313 426.17 171.313 423.883C171.313 421.595 173.168 419.743 175.453 419.743C177.741 419.743 179.595 421.595 179.595 423.883Z" fill="#583C9F"/>
<path d="M176.623 400.498C176.623 402.785 174.769 404.64 172.482 404.64C170.195 404.64 168.341 402.785 168.341 400.498C168.341 398.211 170.195 396.358 172.482 396.358C174.769 396.358 176.623 398.211 176.623 400.498Z" fill="#583C9F"/>
<path d="M217.42 366.735C217.42 369.022 215.566 370.877 213.279 370.877C210.991 370.877 209.137 369.022 209.137 366.735C209.137 364.449 210.991 362.595 213.279 362.595C215.566 362.595 217.42 364.449 217.42 366.735Z" fill="#583C9F"/>
<path d="M240.315 361.511C240.315 363.798 238.461 365.653 236.174 365.653C233.886 365.653 232.034 363.798 232.034 361.511C232.034 359.223 233.886 357.371 236.174 357.371C238.461 357.371 240.315 359.223 240.315 361.511Z" fill="#583C9F"/>
<path d="M225.701 417.894C225.701 420.179 223.848 422.035 221.56 422.035C219.274 422.035 217.42 420.179 217.42 417.894C217.42 415.606 219.274 413.752 221.56 413.752C223.848 413.752 225.701 415.606 225.701 417.894Z" fill="#583C9F"/>
<path d="M226.813 450.658C226.813 452.946 224.959 454.801 222.672 454.801C220.384 454.801 218.53 452.946 218.53 450.658C218.53 448.371 220.384 446.517 222.672 446.517C224.959 446.517 226.813 448.371 226.813 450.658Z" fill="#583C9F"/>
<path d="M205.735 436.988C206.583 439.112 205.549 441.522 203.425 442.37C201.302 443.22 198.892 442.186 198.044 440.06C197.194 437.937 198.229 435.527 200.352 434.68C202.477 433.83 204.886 434.865 205.735 436.988Z" fill="#583C9F"/>
<path d="M177.543 449.122C178.391 451.247 177.357 453.656 175.234 454.505C173.11 455.353 170.701 454.319 169.852 452.195C169.004 450.072 170.038 447.662 172.162 446.814C174.285 445.966 176.695 446.998 177.543 449.122Z" fill="#583C9F"/>
<path d="M261.414 581.276L260.556 576.116L257.215 556.103L256.069 549.245L252.879 530.116L247.079 530.377L170.192 533.865L141.729 535.149L139.899 550.027L139.042 556.958L136.516 577.51L136.052 581.276H261.414Z" fill="#765CB4"/>
<path d="M261.409 581.276L260.623 576.614L260.559 576.124L260.004 572.83L259.45 569.567L257.199 556.095L256.546 552.114L256.057 549.242L255.991 548.819L253.089 531.366L252.893 530.125L252.632 529.05L252.403 528.105L251.099 522.329L248.521 511.042L247.771 507.814L246.499 502.17L244.965 495.416L243.921 490.785L243.171 487.554L240.333 475.06L239.289 470.494L238.801 468.274L238.572 467.264L236.581 458.489C205.332 467.72 172.221 462.239 157.541 458.945C156.887 461.913 156.171 465.012 155.452 468.145C155.29 468.829 155.126 469.513 154.964 470.199C154.703 471.276 154.442 472.352 154.181 473.429C154.082 473.951 153.952 474.439 153.821 474.963C152.615 480.084 151.342 485.303 150.103 490.49C149.842 491.567 149.614 492.643 149.353 493.688C149.221 494.242 149.092 494.764 148.962 495.317C148.44 497.603 147.918 499.886 147.395 502.105C146.744 505.072 146.123 507.976 145.536 510.846C145.307 511.923 145.079 512.967 144.884 514.011C144.297 516.915 143.775 519.753 143.318 522.493C142.925 524.875 142.601 527.158 142.338 529.41C142.241 530.094 142.176 530.779 142.077 531.431C141.98 532.54 141.85 533.618 141.751 534.694C141.751 534.857 141.719 534.988 141.719 535.15L139.893 550.027L139.599 552.343L139.208 555.573L139.045 556.941L137.022 573.221L136.63 576.483L136.5 577.527L136.048 581.276H261.409Z" fill="#3E3358"/>
<path d="M223.591 269.09C223.591 269.09 228.674 262.65 232.455 267.976C236.234 273.301 230.891 289.032 221.636 285.193L223.591 269.09Z" fill="#F25349"/>
<path d="M223.657 280.331C223.998 280.331 224.313 280.117 224.41 279.788C225.844 274.932 231.139 272.963 231.193 272.944C231.595 272.798 231.798 272.369 231.644 271.985C231.493 271.602 231.042 271.409 230.638 271.553C230.391 271.642 224.555 273.795 222.905 279.387C222.787 279.782 223.029 280.191 223.445 280.303L223.657 280.331Z" fill="#E43342"/>
<path d="M229.001 277.884C229.146 277.884 229.293 277.846 229.424 277.766C229.787 277.543 229.892 277.084 229.659 276.739C229.619 276.682 228.682 275.323 226.722 274.491C226.33 274.323 225.866 274.491 225.689 274.865C225.513 275.24 225.69 275.679 226.085 275.847C227.6 276.492 228.337 277.534 228.344 277.543C228.493 277.764 228.744 277.884 229.001 277.884Z" fill="#E43342"/>
<path d="M221.301 285.09C220.428 286.064 219.89 287.347 219.89 288.753C219.89 291.791 222.362 294.264 225.4 294.264C228.438 294.264 230.91 291.791 230.91 288.753C230.91 287.002 230.09 285.443 228.813 284.434C228.173 283.929 227.419 283.561 226.595 283.377C226.457 283.005 226.525 282.655 226.794 282.333C227.848 282.564 228.806 283.044 229.606 283.713C231.053 284.915 231.971 286.73 231.971 288.753C231.971 292.378 229.025 295.325 225.4 295.325C221.778 295.325 218.829 292.378 218.829 288.753C218.829 287.191 219.384 285.763 220.298 284.636C220.632 284.788 220.967 284.941 221.301 285.09Z" fill="white"/>
<path d="M184.405 301.995V321.291C184.405 321.291 193.373 328.212 200.369 328.814C207.359 329.423 209.775 321.174 209.775 321.174V303.216L184.405 301.995Z" fill="#F6876F"/>
<path d="M184.405 303.886V311.583C189.099 316.794 197.434 318.64 209.773 316.818L209.775 305.106L184.405 303.886Z" fill="#F25349"/>
<path d="M226.646 276.427C226.423 278.289 226.161 280.186 225.825 282.074C223.61 294.621 215.673 308.175 205.651 310.45C184.01 315.362 175.023 298.364 171.563 285.824C171.181 284.431 171.898 282.836 171.596 281.186C170.878 277.279 169.299 272.84 168.94 268.463C168.693 265.427 168.518 262.436 168.39 259.731C168.04 252.106 172.457 245.098 179.359 242.361C189.308 238.404 204.414 235.27 218.724 243.663C224.008 246.763 227.324 252.501 227.444 258.783C227.531 263.582 227.411 269.855 226.646 276.427Z" fill="#F6876F"/>
<path d="M199.202 286.136C198.8 286.136 198.443 285.846 198.374 285.435C198.298 284.976 198.605 284.543 199.064 284.467L201.951 283.982L197.975 273.39C197.811 272.956 198.031 272.47 198.464 272.307C198.899 272.146 199.384 272.365 199.546 272.799L204.242 285.301L199.342 286.124L199.202 286.136Z" fill="#F25349"/>
<path d="M209.558 272.12C209.558 273.973 210.511 275.474 211.688 275.474C212.866 275.474 213.82 273.973 213.82 272.12C213.82 270.269 212.866 268.768 211.688 268.768C210.511 268.768 209.558 270.269 209.558 272.12Z" fill="#3E3358"/>
<path d="M185.995 272.12C185.995 273.973 186.949 275.474 188.127 275.474C189.304 275.474 190.258 273.973 190.258 272.12C190.258 270.269 189.304 268.768 188.127 268.768C186.949 268.768 185.995 270.269 185.995 272.12Z" fill="#3E3358"/>
<path d="M217.956 263.326C216.242 262.992 212.776 262.44 209.087 262.57C208.114 262.604 207.335 263.338 207.471 264.11L207.474 264.129C207.581 264.747 208.241 265.162 209.019 265.103C211.535 264.914 218.114 264.955 221.177 265.866C221.263 265.423 220.966 264.952 220.534 264.54C219.879 263.915 218.958 263.521 217.956 263.326Z" fill="#3E3358"/>
<path d="M183.685 263.729C185.394 263.372 188.853 262.773 192.544 262.852C193.516 262.873 194.305 263.595 194.182 264.369L194.178 264.389C194.079 265.009 193.424 265.432 192.647 265.384C190.128 265.229 183.549 265.36 180.499 266.314C180.408 265.871 180.698 265.397 181.124 264.979C181.771 264.345 182.686 263.939 183.685 263.729Z" fill="#3E3358"/>
<path d="M209.558 291.141C208.934 294.087 206.864 299.509 199.887 299.509C192.894 299.509 190.932 294.555 190.258 291.141H209.558Z" fill="white"/>
<path d="M199.987 304.576C202 304.576 203.778 303.491 203.853 303.444C204.239 303.204 204.359 302.698 204.121 302.31C203.881 301.924 203.376 301.804 202.988 302.042C202.972 302.05 201.523 302.927 199.987 302.927C198.324 302.927 196.836 302.048 196.822 302.038C196.431 301.804 195.924 301.931 195.69 302.32C195.456 302.708 195.58 303.213 195.969 303.449C196.046 303.495 197.855 304.576 199.987 304.576Z" fill="#F25349"/>
<path d="M227.522 274.457C227.319 274.626 227.126 274.567 226.942 274.237C224.084 269.198 226.77 259.144 218.311 255.289C211.869 252.35 209.556 246.32 209.556 246.32C208.083 248.842 204.245 251.155 204.245 251.155C204.245 251.155 194.515 256.92 184.403 260.816C181.399 261.975 179.259 263.15 177.759 264.159L177.939 264.21C177.939 264.21 175.14 268.757 177.187 275.828C179.236 282.893 176.602 294.556 172.054 297.247C172.135 297.048 175.546 288.985 173.617 282.407C172.507 278.635 172.518 272.634 171.464 269.038C170.299 268.235 167.604 266.881 166.692 266.339C166.431 263.246 166.245 260.197 166.112 257.441C165.743 249.667 170.396 242.525 177.676 239.731C188.161 235.699 204.084 232.508 219.169 241.061C224.74 244.221 228.236 250.07 228.365 256.473C228.456 261.362 228.328 267.757 227.522 274.457Z" fill="#3E3358"/>
<path d="M171.464 269.039C171.464 269.039 165.554 261.866 162.066 267.038C158.578 272.209 163.728 288.064 172.267 284.335L171.464 269.039Z" fill="#F6876F"/>
<path d="M171.703 284.591C172.314 285.748 172.524 287.122 172.183 288.487C171.446 291.435 168.448 293.234 165.5 292.496C162.553 291.759 160.755 288.761 161.492 285.813C161.916 284.114 163.092 282.8 164.575 282.131C165.318 281.797 166.138 281.623 166.982 281.645C167.129 281.33 167.203 280.988 167.044 280.585C165.966 280.551 164.919 280.785 163.981 281.241C162.286 282.055 160.954 283.593 160.463 285.555C159.584 289.073 161.726 292.645 165.242 293.526C168.757 294.404 172.332 292.262 173.213 288.745C173.591 287.23 173.401 285.71 172.787 284.395C172.426 284.461 172.064 284.527 171.703 284.591Z" fill="white"/>
<path d="M170.183 279.035C169.869 279.035 169.579 278.826 169.489 278.507C168.166 273.792 163.281 271.88 163.231 271.862C162.859 271.719 162.673 271.303 162.814 270.93C162.955 270.558 163.371 270.37 163.742 270.511C163.971 270.597 169.355 272.687 170.879 278.118C170.986 278.502 170.763 278.9 170.379 279.007L170.183 279.035Z" fill="#F25349"/>
<path d="M165.252 276.659C165.117 276.659 164.983 276.623 164.862 276.544C164.528 276.328 164.43 275.882 164.646 275.546C164.681 275.491 165.546 274.173 167.354 273.363C167.717 273.2 168.146 273.363 168.308 273.727C168.47 274.091 168.308 274.517 167.944 274.681C166.545 275.306 165.865 276.318 165.86 276.328C165.721 276.542 165.49 276.659 165.252 276.659Z" fill="#F25349"/>
<path d="M484.544 424.774C470.789 434.647 449.268 441.422 449.268 441.422L444.862 425.574L441.426 413.209L438.999 404.493L414.334 404.476C415.671 409.099 417.049 413.821 418.436 418.471C420.216 424.469 421.991 430.344 423.678 435.759C426.057 443.382 428.254 450.084 430.023 454.872C430.437 455.989 430.917 457.207 431.454 458.505C434.75 467.411 437.413 477.069 449.996 471.009C461.073 465.675 476.094 458.278 483.6 453.369L484.544 424.774Z" fill="#F6876F"/>
<path d="M418.437 418.471C420.217 424.468 421.989 430.344 423.678 435.758C433.746 434.692 440.716 429.702 444.863 425.574L441.428 413.209L418.437 418.471Z" fill="#F25349"/>
<path d="M413.2 331.969C413.2 331.969 438.93 393.334 449.996 413.216C449.996 413.216 434.488 426.402 419.382 426.761C419.382 426.761 410.677 359.387 413.2 331.969Z" fill="#4C3498"/>
<path d="M352.957 581.322C353.217 577.026 353.46 572.939 353.683 569.15C354.594 553.659 355.18 543.086 355.18 543.086L349.112 542.815L345.693 542.66L304.451 540.827C304.451 540.827 303.7 552.651 302.816 570.018C302.634 573.571 302.447 577.358 302.26 581.322H352.957Z" fill="#765CB4"/>
<path d="M349.112 542.815L355.18 543.086C355.18 543.086 354.594 553.659 353.682 569.149C337.837 570.47 320.536 571.008 302.815 570.017C303.7 552.651 304.451 540.827 304.451 540.827L345.693 542.66L349.112 542.815Z" fill="#583C9F"/>
<path d="M346.946 581.322C347.903 564.774 348.689 550.598 349.115 542.816L345.696 542.661C345.267 550.48 344.48 564.719 343.521 581.322H346.946Z" fill="#583C9F"/>
<path d="M366.249 581.322H416.945C416.759 577.358 416.571 573.571 416.39 570.018C415.507 552.651 414.755 540.827 414.755 540.827L373.513 542.66L370.094 542.815L364.026 543.086C364.026 543.086 364.612 553.659 365.523 569.15C365.746 572.939 365.99 577.026 366.249 581.322Z" fill="#765CB4"/>
<path d="M370.094 542.815L364.026 543.086C364.026 543.086 364.612 553.659 365.523 569.149C381.369 570.47 398.67 571.008 416.39 570.017C415.507 552.651 414.755 540.827 414.755 540.827L373.513 542.66L370.094 542.815Z" fill="#583C9F"/>
<path d="M375.686 581.322C374.726 564.719 373.939 550.48 373.512 542.661L370.091 542.816C370.517 550.598 371.302 564.774 372.26 581.322H375.686Z" fill="#583C9F"/>
<path d="M295.5 511.42C295.494 512.27 295.5 513.108 295.5 513.933C295.519 529.016 295.593 540.705 295.668 546.446C310.236 550.392 324.803 552.942 339.378 554.12C340.042 554.17 340.694 554.221 341.357 554.27C341.712 554.294 342.064 554.319 342.419 554.339C343.2 554.394 343.989 554.443 344.764 554.48C345.633 554.537 346.495 554.579 347.37 554.624C357.285 555.083 367.199 554.903 377.121 554.091C379.123 553.923 381.117 553.729 383.119 553.514C383.25 553.501 383.375 553.488 383.504 553.475C384.014 553.419 384.523 553.357 385.038 553.295C385.349 553.258 385.658 553.221 385.961 553.183C397.496 551.808 409.031 549.554 420.57 546.446C420.601 543.839 420.614 539.974 420.614 535.103C420.614 534.198 420.614 533.266 420.608 532.293V532.287C420.601 525.318 420.559 516.645 420.484 506.84C420.477 506.003 420.471 505.159 420.464 504.304C420.409 497.777 420.34 490.783 420.254 483.492C420.241 482.649 420.236 481.805 420.223 480.955C420.13 473.478 420.018 465.71 419.887 457.824C419.807 453.008 419.721 448.151 419.622 443.286C419.522 438.36 419.416 433.427 419.299 428.525C419.275 427.458 419.249 426.391 419.217 425.323C418.09 378.967 416.134 336.36 412.901 331.607C410.662 328.318 405.53 324.453 399.487 320.556C398.75 320.085 397.998 319.606 397.235 319.129C394.66 317.522 373.658 310.386 370.99 308.817L348.791 307.265C348.654 307.347 327.428 314.507 327.293 314.581C326.38 315.102 325.455 315.63 324.544 316.158C316.683 320.693 308.927 325.471 304.46 329.584C303.808 330.179 303.225 330.764 302.728 331.334C302.332 331.787 301.978 332.227 301.693 332.661C301.426 333.052 301.165 333.711 300.916 334.61C298.23 344.37 296.822 382.727 296.12 424.461C296.071 427.452 296.027 430.462 295.984 433.476C295.965 434.798 295.947 436.126 295.929 437.454C295.909 438.365 295.898 439.283 295.89 440.196C295.885 440.656 295.878 441.107 295.872 441.567C295.841 443.837 295.816 446.102 295.797 448.354C295.779 450.025 295.761 451.686 295.742 453.349C295.543 474.371 295.481 494.784 295.5 511.42Z" fill="#583C9F"/>
<path d="M255.802 571.025C255.256 576.95 262.472 573.737 260.43 561.73C258.394 549.723 264.178 538.854 266.672 539.201C269.173 539.554 264.605 552.311 266.828 556.91C269.042 561.507 271.909 552.572 274.763 547.155C277.722 541.527 277.549 529.248 276.202 520.486C274.855 511.719 290.739 458.49 290.819 443.064L292.755 436.524L299.841 412.581L310.935 375.085C310.935 375.085 304.29 346.706 293.084 349.144C293.084 349.144 287.153 368.912 280.812 391.205C279.738 394.991 278.653 398.85 277.58 402.697C273.063 418.86 268.819 434.818 266.846 444.286C261.634 469.286 261.23 521.25 261.23 521.25C261.23 521.25 252.036 540.343 251.819 548.836C251.589 557.895 256.341 565.1 255.802 571.025Z" fill="#F6876F"/>
<path d="M277.58 402.697L292.755 436.524L299.841 412.581L280.812 391.205C279.738 394.991 278.653 398.85 277.58 402.697Z" fill="#F25349"/>
<path d="M276.826 392.62C283.485 404.037 290.255 415.392 296.998 426.765C299.219 419.326 301.52 412.183 303.681 405.619L303.699 405.57C304.561 402.946 305.405 400.415 306.212 397.994L306.256 397.869C306.535 397.02 306.807 396.183 307.087 395.362V395.358C310.307 385.621 312.801 377.885 313.514 373.373C315.439 361.231 310.195 337.442 302.811 332.75C302.62 333.179 302.037 331.857 301.69 332.664C300.393 335.661 294.635 343.064 291.786 350.273C291.42 351.192 291.048 352.147 290.664 353.12C286.537 363.726 281.494 377.518 276.826 392.62Z" fill="#583C9F"/>
<path d="M358.909 329.466C368.522 329.466 375.299 320.693 375.583 320.32C375.988 319.788 375.911 319.007 375.415 318.575C374.917 318.142 374.186 318.224 373.782 318.754C373.695 318.87 367.385 326.984 358.909 326.984C350.533 326.984 345.425 317.8 345.374 317.707C345.051 317.116 344.34 316.915 343.788 317.26C343.235 317.604 343.047 318.362 343.368 318.954C343.601 319.383 349.181 329.466 358.909 329.466Z" fill="#4C3498"/>
<path d="M399.554 413.51C399.732 413.51 399.913 413.466 400.082 413.374C400.658 413.061 400.889 412.309 400.597 411.692L396.405 402.832C396.113 402.216 395.409 401.969 394.832 402.282C394.256 402.594 394.025 403.347 394.317 403.962L398.51 412.824C398.715 413.259 399.127 413.51 399.554 413.51Z" fill="#4C3498"/>
<path d="M408.291 406.251C408.442 406.351 408.617 406.415 408.806 406.435C409.45 406.495 410.017 405.987 410.075 405.297L410.896 395.408C410.954 394.72 410.478 394.112 409.835 394.051C409.192 393.989 408.623 394.498 408.567 395.185L407.745 405.077C407.703 405.564 407.929 406.008 408.291 406.251Z" fill="#4C3498"/>
<path d="M385.767 390.915C386.33 390.915 386.826 390.481 386.922 389.867L388.436 380.07C388.54 379.389 388.11 378.744 387.472 378.631C386.831 378.519 386.233 378.979 386.126 379.662L384.612 389.46C384.507 390.141 384.939 390.785 385.577 390.898L385.767 390.915Z" fill="#4C3498"/>
<path d="M348.104 394.561C348.308 394.561 348.512 394.505 348.699 394.386C349.254 394.035 349.439 393.267 349.109 392.673L344.381 384.128C344.052 383.533 343.334 383.335 342.778 383.688C342.222 384.041 342.039 384.807 342.367 385.403L347.097 393.949C347.314 394.342 347.704 394.561 348.104 394.561Z" fill="#4C3498"/>
<path d="M394.373 356.263C394.591 356.263 394.812 356.2 395.007 356.063L402.804 350.67C403.346 350.295 403.503 349.521 403.151 348.94C402.8 348.36 402.076 348.194 401.533 348.569L393.737 353.962C393.195 354.337 393.04 355.11 393.391 355.69C393.614 356.061 393.991 356.263 394.373 356.263Z" fill="#4C3498"/>
<path d="M359.646 435.868C359.823 435.868 360.004 435.824 360.173 435.732C360.749 435.42 360.979 434.667 360.688 434.05L356.495 425.191C356.203 424.575 355.5 424.329 354.923 424.64C354.347 424.951 354.116 425.704 354.408 426.321L358.601 435.181C358.806 435.617 359.218 435.868 359.646 435.868Z" fill="#4C3498"/>
<path d="M378.065 362.929C378.455 362.929 378.835 362.721 379.059 362.342C379.401 361.756 379.236 360.983 378.687 360.616L370.818 355.348C370.27 354.982 369.548 355.157 369.205 355.744C368.862 356.33 369.028 357.103 369.576 357.47L377.445 362.738C377.638 362.867 377.853 362.929 378.065 362.929Z" fill="#4C3498"/>
<path d="M396.782 326.088C396.764 326.33 396.812 326.566 396.916 326.764C397.095 327.13 397.45 327.392 397.867 327.423C398.511 327.472 399.068 326.95 399.113 326.261L399.486 320.559C398.749 320.088 398 319.61 397.234 319.133L396.782 326.088Z" fill="#4C3498"/>
<path d="M407.273 380.45C407.662 380.45 408.043 380.242 408.265 379.863C408.608 379.277 408.443 378.504 407.894 378.137L400.025 372.868C399.477 372.503 398.756 372.678 398.412 373.265C398.069 373.85 398.235 374.624 398.783 374.991L406.652 380.259C406.845 380.388 407.06 380.45 407.273 380.45Z" fill="#4C3498"/>
<path d="M344.515 337.214C344.737 337.214 344.96 337.149 345.159 337.008C345.698 336.628 345.846 335.852 345.492 335.275L341.003 327.991C340.649 327.414 339.923 327.253 339.384 327.634C338.845 328.015 338.695 328.791 339.051 329.368L343.538 336.652C343.762 337.016 344.136 337.214 344.515 337.214Z" fill="#4C3498"/>
<path d="M340.492 463.034C340.8 463.034 341.106 462.907 341.336 462.65L347.766 455.487C348.213 454.988 348.198 454.196 347.732 453.718C347.267 453.238 346.526 453.255 346.078 453.753L339.648 460.917C339.201 461.415 339.217 462.208 339.682 462.685C339.909 462.919 340.2 463.034 340.492 463.034Z" fill="#4C3498"/>
<path d="M364.121 461.546C364.428 461.546 364.734 461.417 364.964 461.16L371.395 453.997C371.842 453.499 371.827 452.706 371.361 452.227C370.893 451.749 370.155 451.766 369.708 452.265L363.278 459.428C362.83 459.925 362.844 460.718 363.31 461.196C363.539 461.431 363.829 461.546 364.121 461.546Z" fill="#4C3498"/>
<path d="M381.108 509.964C381.215 509.658 381.21 509.305 381.066 508.985L377.053 500.03C376.772 499.408 376.074 499.144 375.492 499.443C374.91 499.742 374.664 500.489 374.943 501.113L378.956 510.067C379.237 510.691 379.936 510.952 380.518 510.654C380.802 510.509 381.004 510.256 381.108 509.964Z" fill="#4C3498"/>
<path d="M313.304 539.51C313.411 539.203 313.405 538.85 313.263 538.53L309.247 529.576C308.969 528.951 308.271 528.69 307.688 528.989C307.104 529.288 306.86 530.033 307.139 530.657L311.153 539.612C311.431 540.234 312.13 540.498 312.714 540.199C312.998 540.054 313.201 539.802 313.304 539.51Z" fill="#4C3498"/>
<path d="M342.42 554.341C343.202 554.397 343.986 554.447 344.762 554.483L345.58 548.905C345.679 548.224 345.245 547.583 344.607 547.479C343.968 547.373 343.371 547.839 343.272 548.52L342.42 554.341Z" fill="#4C3498"/>
<path d="M333.08 537.483C333.333 537.295 333.515 537.002 333.566 536.651L335.002 526.841C335.104 526.158 334.666 525.519 334.029 525.411C333.389 525.304 332.793 525.77 332.692 526.454L331.255 536.264C331.154 536.947 331.592 537.586 332.23 537.695C332.54 537.747 332.842 537.662 333.08 537.483Z" fill="#4C3498"/>
<path d="M389.532 455.453C389.732 455.453 389.934 455.398 390.118 455.285C390.678 454.94 390.868 454.173 390.544 453.575L385.893 444.982C385.57 444.384 384.855 444.181 384.295 444.526C383.736 444.871 383.544 445.637 383.868 446.235L388.52 454.829C388.736 455.23 389.128 455.453 389.532 455.453Z" fill="#4C3498"/>
<path d="M375.876 433.973C376.299 433.973 376.709 433.726 376.916 433.294L381.173 424.469C381.469 423.857 381.244 423.102 380.669 422.785C380.098 422.466 379.391 422.708 379.093 423.324L374.836 432.148C374.54 432.761 374.767 433.517 375.34 433.833C375.512 433.929 375.696 433.973 375.876 433.973Z" fill="#4C3498"/>
<path d="M412.863 432.679C412.984 432.833 413.141 432.952 413.303 433.026C413.697 433.2 414.161 433.138 414.509 432.827L419.296 428.526C419.273 427.461 419.249 426.394 419.219 425.326L413.001 430.911C412.509 431.357 412.445 432.146 412.863 432.679Z" fill="#4C3498"/>
<path d="M375.937 340.348C376.36 340.348 376.77 340.101 376.978 339.67L381.235 330.846C381.532 330.232 381.305 329.477 380.73 329.161C380.159 328.843 379.452 329.085 379.156 329.699L374.899 338.523C374.601 339.137 374.828 339.892 375.402 340.209C375.573 340.303 375.757 340.348 375.937 340.348Z" fill="#4C3498"/>
<path d="M348.655 372.678L348.878 372.657C349.513 372.524 349.928 371.868 349.805 371.191L348.044 361.44C347.923 360.762 347.308 360.32 346.674 360.448C346.039 360.58 345.624 361.237 345.747 361.915L347.508 371.665C347.615 372.263 348.106 372.678 348.655 372.678Z" fill="#4C3498"/>
<path d="M363.843 381.239L364.068 381.216C364.703 381.085 365.117 380.429 364.995 379.752L363.234 370.001C363.112 369.321 362.496 368.881 361.864 369.01C361.229 369.14 360.814 369.796 360.937 370.475L362.698 380.226C362.805 380.824 363.296 381.239 363.843 381.239Z" fill="#4C3498"/>
<path d="M352.963 349.071C353.35 349.071 353.729 348.866 353.952 348.491L358.927 340.108C359.273 339.524 359.112 338.751 358.566 338.381C358.019 338.01 357.299 338.183 356.952 338.766L351.977 347.149C351.629 347.733 351.79 348.506 352.336 348.876C352.531 349.009 352.748 349.071 352.963 349.071Z" fill="#4C3498"/>
<path d="M398.603 435.522C398.924 435.158 399.02 434.606 398.807 434.128L394.808 425.166C394.528 424.542 393.831 424.278 393.247 424.576C392.663 424.874 392.416 425.62 392.697 426.243L396.694 435.206C396.972 435.828 397.671 436.094 398.254 435.796C398.39 435.727 398.507 435.633 398.603 435.522Z" fill="#4C3498"/>
<path d="M368.505 409.522C368.972 409.522 369.415 409.22 369.596 408.725L372.978 399.478C373.214 398.835 372.917 398.109 372.315 397.858C371.714 397.606 371.035 397.923 370.799 398.567L367.417 407.815C367.181 408.458 367.478 409.182 368.079 409.435C368.22 409.494 368.362 409.522 368.505 409.522Z" fill="#4C3498"/>
<path d="M331.331 466.635C331.509 466.635 331.689 466.592 331.859 466.501C332.436 466.189 332.666 465.437 332.374 464.819L328.181 455.959C327.891 455.342 327.187 455.097 326.609 455.409C326.032 455.721 325.802 456.473 326.093 457.091L330.287 465.949C330.493 466.385 330.905 466.635 331.331 466.635Z" fill="#4C3498"/>
<path d="M392.941 530.313C392.942 530.504 392.986 530.697 393.074 530.878C393.37 531.49 394.077 531.73 394.65 531.411L402.893 526.843C403.467 526.527 403.693 525.771 403.395 525.157C403.098 524.543 402.391 524.303 401.816 524.622L393.575 529.19C393.168 529.413 392.937 529.857 392.941 530.313Z" fill="#4C3498"/>
<path d="M415.322 535.994C415.322 536.186 415.362 536.378 415.451 536.558C415.746 537.172 416.454 537.408 417.028 537.092L420.612 535.106C420.612 534.2 420.612 533.269 420.607 532.294L415.954 534.871C415.548 535.094 415.317 535.54 415.322 535.994Z" fill="#4C3498"/>
<path d="M380.684 547.039L383.503 553.479C384.014 553.422 384.524 553.36 385.041 553.298C385.348 553.261 385.655 553.225 385.962 553.186L382.802 545.978C382.529 545.35 381.832 545.077 381.245 545.375C380.66 545.667 380.406 546.411 380.684 547.039Z" fill="#4C3498"/>
<path d="M316.117 444.042C316.68 444.042 317.175 443.607 317.27 442.994L318.784 433.197C318.89 432.516 318.458 431.872 317.82 431.758C317.181 431.646 316.581 432.108 316.475 432.789L314.961 442.586C314.855 443.269 315.287 443.912 315.924 444.025L316.117 444.042Z" fill="#4C3498"/>
<path d="M315.152 371.752C315.354 371.752 315.56 371.696 315.746 371.577C316.302 371.226 316.487 370.458 316.157 369.863L311.427 361.321C311.098 360.725 310.381 360.528 309.825 360.881C309.269 361.232 309.085 361.999 309.415 362.595L314.143 371.138C314.362 371.533 314.751 371.752 315.152 371.752Z" fill="#4C3498"/>
<path d="M330.357 406.482C330.576 406.482 330.794 406.418 330.992 406.282L338.788 400.889C339.33 400.514 339.486 399.739 339.135 399.159C338.784 398.579 338.06 398.414 337.518 398.788L329.722 404.181C329.179 404.556 329.024 405.33 329.374 405.911C329.598 406.281 329.973 406.482 330.357 406.482Z" fill="#4C3498"/>
<path d="M412.9 464.731C413.077 464.731 413.258 464.687 413.427 464.596C414.003 464.284 414.235 463.532 413.942 462.915L409.75 454.055C409.458 453.439 408.755 453.192 408.178 453.505C407.601 453.815 407.371 454.567 407.663 455.186L411.856 464.045C412.06 464.481 412.472 464.731 412.9 464.731Z" fill="#4C3498"/>
<path d="M317.075 419.941C317.464 419.941 317.845 419.734 318.067 419.354C318.41 418.767 318.243 417.997 317.697 417.63L309.828 412.36C309.279 411.995 308.558 412.17 308.216 412.757C307.873 413.343 308.039 414.115 308.585 414.482L316.454 419.751C316.648 419.879 316.862 419.941 317.075 419.941Z" fill="#4C3498"/>
<path d="M335.94 432.474C336.227 432.757 336.639 432.881 337.042 432.764C337.666 432.582 338.033 431.895 337.865 431.227L335.428 421.646C335.257 420.98 334.617 420.585 333.993 420.765C333.368 420.947 333.001 421.636 333.171 422.302L335.606 431.885C335.667 432.119 335.785 432.321 335.94 432.474Z" fill="#4C3498"/>
<path d="M302.728 331.336L304.764 334.637C304.99 334.997 305.362 335.196 305.745 335.196C305.965 335.196 306.185 335.134 306.383 334.991C306.923 334.613 307.073 333.837 306.718 333.26L304.457 329.586C303.807 330.182 303.226 330.766 302.728 331.336Z" fill="#4C3498"/>
<path d="M293.829 353.12L295.992 356.632C296.219 356.999 296.59 357.198 296.973 357.198C297.194 357.198 297.414 357.129 297.618 356.992C298.157 356.608 298.302 355.832 297.948 355.257L294.879 350.273C294.537 351.192 294.189 352.147 293.829 353.12Z" fill="#4C3498"/>
<path d="M395.019 495.666C395.327 495.666 395.633 495.539 395.863 495.282L402.292 488.12C402.74 487.62 402.725 486.829 402.259 486.35C401.794 485.871 401.051 485.887 400.604 486.386L394.174 493.548C393.727 494.047 393.742 494.84 394.209 495.317C394.435 495.55 394.727 495.666 395.019 495.666Z" fill="#4C3498"/>
<path d="M352.236 520.71C352.543 520.71 352.85 520.581 353.08 520.324L359.51 513.162C359.957 512.662 359.943 511.872 359.477 511.392C359.012 510.912 358.269 510.929 357.822 511.429L351.392 518.593C350.945 519.091 350.96 519.882 351.426 520.359C351.653 520.593 351.945 520.71 352.236 520.71Z" fill="#4C3498"/>
<path d="M340.347 510.763C340.54 510.508 340.639 510.172 340.597 509.819L339.437 499.965C339.356 499.281 338.772 498.794 338.131 498.882C337.489 498.966 337.035 499.593 337.117 500.279L338.277 510.131C338.356 510.818 338.941 511.303 339.583 511.216C339.895 511.175 340.163 511.006 340.347 510.763Z" fill="#4C3498"/>
<path d="M364.715 538.531C365.021 538.531 365.328 538.403 365.558 538.146L371.988 530.983C372.435 530.484 372.419 529.693 371.954 529.215C371.488 528.734 370.747 528.752 370.3 529.25L363.87 536.413C363.423 536.913 363.437 537.703 363.904 538.183C364.13 538.416 364.423 538.531 364.715 538.531Z" fill="#4C3498"/>
<path d="M295.5 511.421C295.494 512.272 295.5 513.111 295.5 513.936L302.756 514.587C303.401 514.651 303.97 514.134 304.022 513.445C304.08 512.756 303.599 512.154 302.954 512.092L295.5 511.421Z" fill="#4C3498"/>
<path d="M380.496 480.604C380.803 480.604 381.11 480.474 381.34 480.219L387.768 473.055C388.217 472.558 388.201 471.765 387.736 471.287C387.269 470.807 386.529 470.824 386.082 471.324L379.651 478.486C379.203 478.984 379.22 479.777 379.686 480.255C379.912 480.488 380.204 480.604 380.496 480.604Z" fill="#4C3498"/>
<path d="M349.561 477.491C349.581 477.819 349.722 478.139 349.976 478.366L357.082 484.757C357.577 485.202 358.313 485.134 358.73 484.605C359.146 484.076 359.081 483.287 358.587 482.842L351.481 476.45C350.987 476.005 350.249 476.074 349.833 476.604C349.63 476.86 349.541 477.181 349.561 477.491Z" fill="#4C3498"/>
<path d="M315.704 512.646C315.903 512.646 316.105 512.59 316.289 512.476C316.848 512.129 317.039 511.364 316.716 510.767L312.065 502.172C311.74 501.574 311.026 501.369 310.466 501.716C309.906 502.062 309.716 502.828 310.04 503.425L314.691 512.02C314.907 512.421 315.3 512.646 315.704 512.646Z" fill="#4C3498"/>
<path d="M307.652 487.1C308.076 487.1 308.485 486.853 308.692 486.422L312.949 477.597C313.246 476.984 313.02 476.229 312.447 475.911C311.874 475.594 311.167 475.836 310.869 476.449L306.614 485.274C306.317 485.889 306.543 486.644 307.118 486.961C307.288 487.054 307.472 487.1 307.652 487.1Z" fill="#4C3498"/>
<path d="M320.349 386.902C320.773 386.902 321.181 386.657 321.39 386.225L325.646 377.401C325.943 376.785 325.716 376.03 325.143 375.716C324.57 375.398 323.863 375.638 323.567 376.253L319.31 385.077C319.014 385.692 319.24 386.447 319.814 386.764C319.985 386.857 320.168 386.902 320.349 386.902Z" fill="#4C3498"/>
<path d="M315.701 349.87L315.924 349.847C316.559 349.716 316.974 349.06 316.851 348.381L315.091 338.632C314.968 337.952 314.353 337.51 313.72 337.64C313.086 337.771 312.671 338.427 312.793 339.106L314.554 348.855C314.662 349.455 315.152 349.87 315.701 349.87Z" fill="#4C3498"/>
<path d="M294.321 383.513L294.546 383.491C295.179 383.359 295.594 382.703 295.473 382.025L293.712 372.276C293.589 371.597 292.974 371.154 292.342 371.284C291.707 371.416 291.292 372.073 291.413 372.75L293.174 382.499C293.283 383.098 293.772 383.513 294.321 383.513Z" fill="#4C3498"/>
<path d="M330.89 358.431L331.113 358.408C331.748 358.277 332.163 357.619 332.04 356.942L330.279 347.193C330.158 346.513 329.543 346.073 328.909 346.201C328.275 346.332 327.86 346.988 327.982 347.667L329.743 357.416C329.852 358.016 330.342 358.431 330.89 358.431Z" fill="#4C3498"/>
<path d="M323.919 324.467C324.146 324.524 324.366 324.506 324.569 324.431C324.935 324.294 325.231 323.965 325.324 323.538L327.29 314.583C326.379 315.105 325.457 315.633 324.54 316.161L323.05 322.96C322.899 323.636 323.288 324.307 323.919 324.467Z" fill="#4C3498"/>
<path d="M297.154 398.588C297.541 398.588 297.919 398.382 298.142 398.008L303.118 389.624C303.464 389.041 303.303 388.266 302.757 387.896C302.21 387.527 301.489 387.7 301.142 388.283L296.166 396.665C295.821 397.249 295.982 398.022 296.528 398.393C296.722 398.526 296.94 398.588 297.154 398.588Z" fill="#4C3498"/>
<path d="M330.381 488.65C330.7 488.284 330.796 487.733 330.583 487.254L326.584 478.293C326.306 477.671 325.608 477.406 325.025 477.703C324.439 478.001 324.194 478.747 324.473 479.371L328.471 488.332C328.749 488.956 329.447 489.22 330.03 488.922C330.167 488.853 330.284 488.76 330.381 488.65Z" fill="#4C3498"/>
<path d="M412.671 505.489L420.485 506.843C420.48 506.006 420.473 505.162 420.461 504.305L413.047 503.014C412.409 502.908 411.808 503.368 411.708 504.051C411.603 504.733 412.033 505.378 412.671 505.489Z" fill="#4C3498"/>
<path d="M415.049 482.595L420.252 483.494C420.241 482.652 420.236 481.808 420.223 480.958L415.427 480.126C414.789 480.014 414.191 480.48 414.086 481.162C413.982 481.846 414.411 482.484 415.049 482.595Z" fill="#4C3498"/>
<path d="M300.281 462.648C300.75 462.648 301.191 462.346 301.37 461.853L304.754 452.606C304.99 451.963 304.693 451.236 304.092 450.985C303.49 450.732 302.811 451.05 302.575 451.693L299.193 460.94C298.958 461.583 299.254 462.31 299.856 462.562C299.996 462.62 300.14 462.648 300.281 462.648Z" fill="#4C3498"/>
<path d="M295.983 433.476C298.18 424.399 300.942 414.31 303.678 405.618L303.696 405.568C304.54 402.882 305.384 400.331 306.209 397.992L306.251 397.868C306.507 397.129 306.768 396.416 307.022 395.721L307.084 395.362V395.355C307.084 394.939 306.823 394.548 306.408 394.393C305.868 394.2 305.272 394.475 305.079 395.012C302.275 402.657 298.962 413.665 296.12 424.461C296.071 427.452 296.027 430.462 295.983 433.476Z" fill="#4C3498"/>
<path d="M329.53 258.221C329.53 258.221 321.383 249.241 324.458 238.797C327.531 228.352 335.943 228.466 335.943 228.466C335.943 228.466 340.851 217.356 349.208 216.99C357.565 216.623 365.443 201.78 373.05 205.81C380.654 209.843 372.226 218.638 372.226 218.638C372.226 218.638 385.255 204.896 389.552 208.926C393.848 212.957 383.587 223.77 383.587 223.77C383.587 223.77 394.534 216.073 398.131 219.005C401.727 221.937 389.552 234.582 389.552 234.582C389.552 234.582 397.429 248.784 389.501 255.152L329.53 258.221Z" fill="#3E3358"/>
<path d="M386.447 261.226C386.447 261.226 391.657 254.281 395.53 260.024C399.405 265.769 393.929 282.733 384.444 278.593L386.447 261.226Z" fill="#F25349"/>
<path d="M386.515 273.349C386.865 273.349 387.187 273.118 387.287 272.764C388.757 267.527 394.181 265.404 394.236 265.383C394.65 265.225 394.859 264.762 394.701 264.35C394.544 263.936 394.081 263.727 393.669 263.884C393.415 263.98 387.435 266.3 385.743 272.332C385.624 272.758 385.873 273.2 386.298 273.319L386.515 273.349Z" fill="#E43342"/>
<path d="M391.993 270.711C392.141 270.711 392.291 270.669 392.425 270.583C392.797 270.343 392.904 269.848 392.665 269.475C392.625 269.413 391.666 267.949 389.656 267.05C389.255 266.869 388.778 267.05 388.598 267.455C388.417 267.858 388.598 268.333 389.003 268.513C390.555 269.209 391.31 270.332 391.317 270.343C391.471 270.58 391.729 270.711 391.993 270.711Z" fill="#E43342"/>
<path d="M332.763 261.226C332.763 261.226 327.554 254.281 323.68 260.024C319.806 265.769 325.282 282.733 334.765 278.593L332.763 261.226Z" fill="#F25349"/>
<path d="M332.695 273.349C332.345 273.349 332.024 273.118 331.923 272.764C330.455 267.527 325.029 265.404 324.974 265.383C324.561 265.225 324.353 264.762 324.509 264.35C324.667 263.936 325.128 263.727 325.541 263.884C325.795 263.98 331.774 266.3 333.467 272.332C333.587 272.758 333.339 273.2 332.911 273.319L332.695 273.349Z" fill="#E43342"/>
<path d="M327.217 270.711C327.069 270.711 326.918 270.669 326.784 270.583C326.413 270.343 326.306 269.848 326.544 269.475C326.585 269.413 327.545 267.949 329.553 267.05C329.955 266.869 330.43 267.05 330.611 267.455C330.793 267.858 330.611 268.333 330.207 268.513C328.654 269.209 327.899 270.332 327.892 270.343C327.74 270.58 327.481 270.711 327.217 270.711Z" fill="#E43342"/>
<path d="M346.781 292.981V309.852C346.781 309.852 351.813 318.444 358.615 319.028C365.414 319.622 371.454 311.631 371.454 311.631V294.166L346.781 292.981Z" fill="#F6876F"/>
<path d="M346.781 292.981V300.467C351.347 305.533 359.455 306.799 371.454 305.026V294.166L346.781 292.981Z" fill="#F25349"/>
<path d="M328.998 249.656C329.307 256.213 329.931 264.413 331.184 270.963V270.983L331.196 271.045L331.204 271.057C331.511 272.657 331.857 274.162 332.235 275.516C332.462 276.309 332.708 277.142 332.986 277.991C336.984 290.537 346.248 308.695 369.532 300.388C379.337 296.892 384.445 286.765 387.046 275.78C387.197 275.125 387.342 274.478 387.469 273.854C387.556 273.438 387.638 273.036 387.713 272.638L387.826 272.052L387.864 271.838L387.871 271.801C389.408 263.354 389.641 254.815 389.528 248.712C389.408 242.489 386.006 236.795 380.59 233.729C365.923 225.41 350.436 228.514 340.24 232.431C333.161 235.146 328.633 242.092 328.998 249.656Z" fill="#F6876F"/>
<path d="M360.122 280.932C376.742 278.69 374.128 287.64 374.128 287.64C372.284 289.322 370.596 290.55 369.462 291.186C365.834 293.207 362.263 293.976 359.675 293.85C357.125 293.743 356.427 294.265 349.977 290.777C348.837 290.166 347.684 289.259 346.557 288.182H346.55V288.176C346.273 286.424 343.458 278.067 360.122 280.932ZM331.177 270.963L331.184 270.982L331.196 271.044L331.204 271.057C331.353 271.605 332.173 274.609 332.986 277.991C336.984 290.537 346.248 308.695 369.532 300.388C379.337 296.892 384.445 286.765 387.046 275.78C387.197 275.125 387.342 274.478 387.469 273.854C387.556 273.438 387.638 273.035 387.713 272.638L387.826 272.052L387.864 271.837L387.871 271.801L384.445 271.107C383.789 274.351 382.341 277.406 380.565 280.12C377.668 273.179 362.968 277.789 362.968 277.789L362.899 277.815C362.006 278.093 361.086 278.237 360.16 278.237C359.209 278.237 358.264 278.086 357.345 277.789C357.345 277.789 342.822 272.978 339.812 279.597C336.801 274.936 334.761 270.711 334.761 270.711L331.184 270.963H331.177Z" fill="#3E3358"/>
<path d="M345.062 261.856C345.062 263.658 345.991 265.117 347.135 265.117C348.279 265.117 349.208 263.658 349.208 261.856C349.208 260.056 348.279 258.595 347.135 258.595C345.991 258.595 345.062 260.056 345.062 261.856Z" fill="#3E3358"/>
<path d="M370.976 261.856C370.976 263.658 371.904 265.117 373.05 265.117C374.194 265.117 375.123 263.658 375.123 261.856C375.123 260.056 374.194 258.595 373.05 258.595C371.904 258.595 370.976 260.056 370.976 261.856Z" fill="#3E3358"/>
<path d="M339.755 250.861C339.755 250.861 348.321 247.476 354.916 250.325L354.257 253.994C354.257 253.994 344.577 253.176 339.699 255.152C339.262 253.74 339.199 252.313 339.755 250.861Z" fill="#3E3358"/>
<path d="M380.483 250.878C380.483 250.878 371.855 247.467 365.21 250.338L365.875 254.033C365.875 254.033 375.628 253.209 380.54 255.2C380.981 253.778 381.046 252.34 380.483 250.878Z" fill="#3E3358"/>
<path d="M359.326 276.429C357.975 276.429 356.633 275.904 356.427 275.818C356.016 275.652 355.82 275.185 355.988 274.774C356.153 274.365 356.623 274.167 357.031 274.334C357.756 274.629 359.493 275.09 360.246 274.639C360.392 274.551 360.59 274.379 360.64 273.892C360.931 271.094 360.163 261.712 360.156 261.618C360.119 261.177 360.448 260.789 360.89 260.754C361.331 260.716 361.718 261.046 361.753 261.486C361.784 261.879 362.54 271.111 362.234 274.057C362.12 275.166 361.539 275.734 361.07 276.014C360.555 276.322 359.94 276.429 359.326 276.429Z" fill="#F25349"/>
<path d="M369.544 282.535C368.935 285.596 366.913 291.229 360.1 291.229C353.272 291.229 351.356 286.081 350.698 282.535H369.544Z" fill="white"/>
<path d="M328.996 249.654C329.309 256.211 329.934 264.409 331.184 270.965L334.765 270.712C334.765 270.712 333.898 265.175 333.498 261.569C333.096 257.962 332.416 251.221 335.493 250.379C338.562 249.546 336.762 241.856 341.033 238.522C345.306 235.179 354.86 234.263 361.16 238.142C367.458 242.013 374.557 237.849 377.46 238.522C380.368 239.186 384.31 243.194 383.245 246.936C382.171 250.671 385.377 252.948 386.154 256.819C386.932 260.691 384.447 271.109 384.447 271.109L387.87 271.799C389.41 263.351 389.641 254.815 389.528 248.717C389.41 242.49 386.009 236.797 380.592 233.73C365.918 225.41 350.435 228.512 340.24 232.43C333.164 235.148 328.634 242.096 328.996 249.654Z" fill="#3E3358"/>
<path d="M476.474 430.182C474.296 450.052 461.321 494.444 452.339 503.14C440.646 514.461 402.161 538.294 382.114 550.515C378.497 552.719 395.484 567.398 395.484 567.398C395.484 567.398 448.71 544.638 469.037 526.692C474.787 521.615 486.463 505.602 499.644 475.102C503.64 465.856 513.324 447.204 512.822 435.045C512.243 421.049 490.009 423.352 476.474 430.182Z" fill="#583C9F"/>
<path d="M434.941 544.325C434.941 544.325 420.464 549.823 415.335 555.87C410.203 561.918 403.423 567.049 405.073 569.43C406.722 571.812 414.234 564.85 414.234 564.85C414.234 564.85 416.295 572.505 423.58 573.33C430.866 574.154 444.653 559.901 444.653 559.901L434.941 544.325Z" fill="#F6876F"/>
<path d="M577.838 485.663C577.842 486.92 577.833 488.407 577.81 490.093C577.787 491.773 577.752 493.645 577.7 495.694C577.66 497.098 577.615 498.582 577.564 500.139C577.517 501.451 577.466 502.811 577.411 504.222C577.349 505.662 577.282 507.146 577.209 508.678C576.201 529.489 573.765 558.222 568.406 581.258H455.78C459.536 564.515 465.283 538.11 469.841 503.848C470.033 502.408 470.223 500.954 470.411 499.484C470.597 498.014 470.779 496.529 470.963 495.034C471.063 494.239 471.157 493.435 471.253 492.633C471.33 491.97 471.407 491.311 471.481 490.658C471.689 488.811 471.88 486.993 472.049 485.211C472.19 483.724 472.323 482.261 472.449 480.817C474.379 457.783 473.697 440.52 476.473 430.181C479.705 418.145 517.395 404.348 517.395 404.348L541.007 405.582C541.007 405.582 563.521 412.934 575.555 423.5C587.597 434.07 577.528 465.607 577.821 483.515C577.833 484.132 577.837 484.849 577.838 485.663Z" fill="#765CB4"/>
<path d="M577.81 490.094C567.57 491.336 556.888 491.828 546.405 491.828C512.077 491.828 479.851 486.579 472.049 485.212C472.19 483.725 472.323 482.261 472.449 480.818C481.516 482.424 533.986 491.101 577.838 485.663C577.843 486.921 577.833 488.408 577.81 490.094Z" fill="#D4BDE3"/>
<path d="M577.7 495.694C577.661 497.098 577.616 498.582 577.565 500.139C567.398 501.361 556.803 501.839 546.405 501.839C510.138 501.839 476.219 495.983 470.963 495.033C471.063 494.239 471.158 493.435 471.254 492.633C471.33 491.97 471.407 491.311 471.481 490.658C476.7 491.61 531.871 501.345 577.7 495.694Z" fill="#D4BDE3"/>
<path d="M577.411 504.223C577.349 505.662 577.282 507.146 577.209 508.679C566.632 510.023 555.556 510.548 544.698 510.548C509.583 510.548 476.677 505.062 469.841 503.849C470.033 502.408 470.223 500.955 470.411 499.484C478.538 500.932 532.739 510.069 577.411 504.223Z" fill="#D4BDE3"/>
<path d="M524.206 427.001C535.947 427.001 546.779 414.521 547.247 413.972C547.545 413.625 547.504 413.103 547.157 412.805C546.811 412.506 546.288 412.547 545.989 412.894C545.876 413.027 534.533 426.098 523.194 425.309C522.741 425.277 522.342 425.622 522.311 426.078C522.279 426.534 522.624 426.93 523.08 426.963C523.455 426.99 523.832 427.001 524.206 427.001Z" fill="#583C9F"/>
<path d="M534.386 567.354C534.801 567.354 535.157 567.043 535.208 566.622C535.26 566.167 534.932 565.756 534.478 565.704C504.15 562.213 491.588 509.714 491.463 509.183C491.359 508.738 490.914 508.461 490.469 508.564C490.023 508.668 489.746 509.114 489.849 509.559C490.363 511.77 502.812 563.727 534.289 567.349L534.386 567.354Z" fill="#583C9F"/>
<path d="M522.308 551.469C522.586 551.469 522.858 551.33 523.014 551.076C523.253 550.686 523.134 550.175 522.744 549.935C506.612 539.99 504.215 525.329 504.191 525.181C504.123 524.73 503.704 524.414 503.248 524.486C502.797 524.555 502.485 524.977 502.554 525.428C502.647 526.06 505.057 540.978 521.874 551.345C522.009 551.43 522.16 551.469 522.308 551.469Z" fill="#583C9F"/>
<path d="M498.501 349.773C498.501 368.124 513.376 383 531.727 383C550.075 383 564.952 368.124 564.952 349.773C564.952 331.423 550.075 316.547 531.727 316.547C513.376 316.547 498.501 331.423 498.501 349.773Z" fill="#3E3358"/>
<path d="M499.045 343.816C499.045 343.816 489.636 341.218 490.876 332.087C491.933 324.314 501.061 329.353 500.26 323.279C499.457 317.203 497.673 311.682 505.53 310.162C512.404 308.834 512.52 313.546 521.546 306.711C532.209 298.638 540.399 317.333 549.916 317.895C563.953 318.723 565.725 326.66 567.105 333.011C568.486 339.363 563.082 343.816 563.082 343.816H499.045Z" fill="#3E3358"/>
<path d="M504.083 359.071C504.083 359.071 498.822 352.053 494.908 357.856C490.995 363.659 496.527 380.797 506.108 376.613L504.083 359.071Z" fill="#F25349"/>
<path d="M504.016 371.318C503.662 371.318 503.337 371.084 503.236 370.727C501.751 365.435 496.271 363.29 496.214 363.269C495.798 363.11 495.588 362.643 495.746 362.225C495.904 361.807 496.371 361.598 496.789 361.755C497.045 361.851 503.086 364.196 504.796 370.289C504.916 370.721 504.665 371.167 504.233 371.288L504.016 371.318Z" fill="#E43342"/>
<path d="M498.482 368.653C498.332 368.653 498.18 368.61 498.046 368.523C497.668 368.281 497.56 367.781 497.803 367.405C497.843 367.343 498.813 365.863 500.841 364.955C501.247 364.772 501.728 364.955 501.911 365.363C502.094 365.772 501.91 366.251 501.503 366.434C499.934 367.135 499.172 368.27 499.165 368.281C499.008 368.522 498.748 368.653 498.482 368.653Z" fill="#E43342"/>
<path d="M542.254 391.151V408.194C542.254 408.194 535.247 415.705 528.374 416.297C521.508 416.896 517.33 408.739 517.33 408.739V392.349L542.254 391.151Z" fill="#F6876F"/>
<path d="M542.254 391.151V398.713C537.641 403.831 529.452 405.111 517.33 403.32V392.349L542.254 391.151Z" fill="#F25349"/>
<path d="M560.223 347.379C559.907 354.002 559.275 362.285 558.012 368.908C557.696 370.56 557.341 372.115 556.944 373.508C553.357 386.068 544.386 407.603 519.27 398.633C508.177 394.674 503.037 382.317 500.745 369.751C499.19 361.216 498.956 352.593 499.069 346.432C499.19 340.14 502.625 334.391 508.098 331.291C522.922 322.887 538.566 326.02 548.863 329.979C556.013 332.724 560.587 339.744 560.223 347.379Z" fill="#F6876F"/>
<path d="M531.559 359.418C531.559 358.274 532.487 357.349 533.626 357.349H546.056C547.2 357.349 548.124 358.274 548.124 359.418V361.007C548.124 363.304 547.229 365.499 545.666 367.02C544.105 368.535 542.34 369.321 540.42 369.366H540.122C537.855 369.366 535.718 368.486 534.099 366.877C532.462 365.25 531.559 363.08 531.559 360.761V359.418ZM530.093 359.418V360.761C530.093 363.471 531.148 366.012 533.069 367.919C534.961 369.8 537.462 370.833 540.122 370.833H540.45C542.757 370.783 544.855 369.853 546.69 368.071C548.535 366.27 549.59 363.699 549.59 361.007V359.418C549.59 358.976 549.507 358.556 549.356 358.166C549.179 357.692 548.906 357.27 548.554 356.919C547.914 356.278 547.033 355.883 546.056 355.883H533.626C532.218 355.883 531.006 356.705 530.44 357.898C530.228 358.332 530.105 358.816 530.097 359.324L530.093 359.418Z" fill="#3E3358"/>
<path d="M506.669 359.418C506.669 358.274 507.597 357.349 508.736 357.349H521.171C522.31 357.349 523.238 358.274 523.238 359.418V361.007C523.238 363.304 522.339 365.499 520.78 367.02C519.221 368.535 517.457 369.321 515.535 369.366H515.232C512.965 369.366 510.827 368.486 509.216 366.877C507.573 365.25 506.669 363.08 506.669 360.761V359.418ZM505.201 359.418V360.761C505.201 363.471 506.262 366.012 508.178 367.919C510.071 369.8 512.574 370.833 515.232 370.833H515.565C517.868 370.783 519.969 369.853 521.802 368.071C523.644 366.27 524.704 363.699 524.704 361.007V359.418L524.7 359.349C524.694 358.869 524.587 358.411 524.401 357.994C523.855 356.748 522.613 355.883 521.171 355.883H508.736C507.645 355.883 506.669 356.381 506.018 357.159C505.705 357.541 505.465 357.984 505.339 358.47C505.245 358.773 505.201 359.089 505.201 359.418Z" fill="#3E3358"/>
<path d="M558.45 355.289C554.228 355.107 551.211 356.325 550.02 356.919C549.687 357.081 548.798 357.66 548.76 357.682L549.459 358.927C549.469 358.923 550.441 358.341 550.822 358.165C551.992 357.619 554.588 356.525 558.45 356.753V355.289Z" fill="#3E3358"/>
<path d="M531.076 359.473L531.559 358.086C531.471 358.056 529.413 357.349 527.152 357.349C524.745 357.349 523.194 358.087 523.129 358.12L523.77 359.438C523.781 359.435 525.102 358.815 527.152 358.815C529.159 358.815 531.057 359.466 531.076 359.473Z" fill="#3E3358"/>
<path d="M500.066 355.644V357.114C503.104 357.365 505.909 358.721 505.949 358.738L506.594 357.423C506.428 357.34 503.416 355.888 500.066 355.644Z" fill="#3E3358"/>
<path d="M516.708 361.296C516.708 363.115 515.771 364.59 514.615 364.59C513.458 364.59 512.52 363.115 512.52 361.296C512.52 359.476 513.458 358.001 514.615 358.001C515.771 358.001 516.708 359.476 516.708 361.296Z" fill="#3E3358"/>
<path d="M541.233 361.296C541.233 363.115 540.296 364.59 539.139 364.59C537.982 364.59 537.045 363.115 537.045 361.296C537.045 359.476 537.982 358.001 539.139 358.001C540.296 358.001 541.233 359.476 541.233 361.296Z" fill="#3E3358"/>
<path d="M507.803 351.179C507.803 351.179 516.52 347.735 523.232 350.634L522.672 353.75C522.672 353.75 515.401 352.127 508.285 354.783C507.839 353.345 507.235 352.656 507.803 351.179Z" fill="#3E3358"/>
<path d="M547.695 351.179C547.695 351.179 538.976 347.735 532.266 350.634L532.826 353.75C532.826 353.75 540.094 352.127 547.212 354.783C547.658 353.345 548.262 352.656 547.695 351.179Z" fill="#3E3358"/>
<path d="M528.161 375.101C529.528 375.101 530.883 374.57 531.093 374.486C531.507 374.315 531.704 373.844 531.536 373.43C531.368 373.017 530.894 372.816 530.481 372.986C529.749 373.282 527.995 373.748 527.233 373.292C527.087 373.203 526.886 373.03 526.835 372.538C526.543 369.711 527.317 360.234 527.324 360.138C527.361 359.692 527.029 359.301 526.584 359.264C526.136 359.226 525.748 359.559 525.71 360.005C525.679 360.4 524.917 369.729 525.223 372.705C525.34 373.825 525.927 374.398 526.402 374.682C526.921 374.992 527.543 375.101 528.161 375.101Z" fill="#F25349"/>
<path d="M518.126 379.212C518.788 382.543 520.986 388.667 528.395 388.667C535.823 388.667 537.907 383.07 538.622 379.212H518.126Z" fill="white"/>
<path d="M528.295 392.894C530.392 392.894 532.168 391.833 532.243 391.788C532.625 391.556 532.747 391.058 532.515 390.676C532.284 390.293 531.787 390.171 531.403 390.402C531.391 390.411 529.927 391.276 528.295 391.276C526.798 391.276 525.363 390.415 525.349 390.406C524.969 390.172 524.47 390.289 524.235 390.669C524 391.05 524.117 391.548 524.499 391.784C524.573 391.83 526.318 392.894 528.295 392.894Z" fill="#F25349"/>
<path d="M503.251 364.473C502.64 361.134 502.035 356.825 502.474 354.615C503.262 350.705 506.501 348.406 505.421 344.637C504.342 340.853 508.326 336.803 511.264 336.13C514.193 335.45 521.049 336.91 527.798 333.706C534.238 330.644 545.436 332.834 547.262 336.968C549.468 341.973 546.464 342.447 552.491 347.859C554.89 350.016 552.042 355.618 551.634 359.263C551.452 360.939 551.426 361.758 551.493 363.558L551.516 364.473H558.729C559.523 358.821 559.978 352.59 560.226 347.378C560.591 339.741 556.01 332.727 548.863 329.979C538.563 326.02 522.926 322.883 508.094 331.292C502.625 334.394 499.187 340.139 499.072 346.431C498.98 351.317 499.11 357.756 499.944 364.473H503.251Z" fill="#3E3358"/>
<path d="M555.532 367.588C555.509 365.703 555.643 363.815 555.972 361.96C556.423 359.418 557.16 357.114 559.759 356.055C561.85 355.204 564.082 355.187 565.673 357.543C569.587 363.347 565.228 381.402 555.647 377.22L555.532 367.588Z" fill="#F6876F"/>
<path d="M557.499 371.961C557.847 371.892 558.12 371.598 558.147 371.227C558.567 365.748 563.524 362.572 563.573 362.541C563.951 362.302 564.067 361.803 563.83 361.424C563.593 361.046 563.092 360.931 562.715 361.168C562.483 361.313 557.018 364.794 556.534 371.104C556.499 371.55 556.833 371.938 557.279 371.972L557.499 371.961Z" fill="#F25349"/>
<path d="M562.404 368.262C562.552 368.234 562.691 368.164 562.807 368.051C563.129 367.739 563.137 367.227 562.827 366.905C562.775 366.853 561.534 365.591 559.367 365.099C558.932 364.999 558.496 365.272 558.398 365.708C558.299 366.143 558.571 366.578 559.007 366.676C560.683 367.059 561.654 368.022 561.663 368.032C561.862 368.238 562.142 368.316 562.404 368.262Z" fill="#F25349"/>
<path d="M570.769 419.803C558.935 437.739 513.647 499.749 503.429 506.953C490.127 516.331 453.865 529.665 433.046 543.568C425.974 548.291 442.685 561.658 442.685 561.658C442.685 561.658 493.433 547.392 516.289 532.801C522.754 528.673 549.646 501.735 566.79 477.841C572.664 469.657 582.219 458.287 583.599 446.196C585.191 432.28 580.82 424.832 570.769 419.803Z" fill="#583C9F"/>
<path d="M481.008 581.258H339.931C338.127 581.258 336.667 579.797 336.667 577.992V566.75C336.667 564.949 338.127 563.487 339.931 563.487H481.008C482.812 563.487 484.273 564.949 484.273 566.75V577.992C484.273 579.797 482.812 581.258 481.008 581.258Z" fill="#292346"/>
<path d="M336.698 581.258L308.952 477.349C307.394 471.513 311.792 465.786 317.831 465.786H378.884C383.002 465.786 386.62 468.526 387.733 472.492L418.284 581.258H336.698Z" fill="#3E3358"/>
<path d="M387.737 472.493L418.036 580.363H425.01L394.713 472.493C393.591 468.525 389.982 465.782 385.862 465.782H378.884C383.004 465.782 386.615 468.525 387.737 472.493Z" fill="#292346"/>
<path d="M372.041 528.174C373.627 535.027 369.357 540.583 362.503 540.583C355.649 540.583 348.807 535.027 347.223 528.174C345.637 521.32 349.907 515.765 356.76 515.765C363.613 515.765 370.455 521.32 372.041 528.174Z" fill="#58426E"/>
<path d="M561.225 182.831C557.699 182.831 554.83 185.701 554.83 189.226C554.83 192.752 557.699 195.621 561.225 195.621C564.75 195.621 567.618 192.752 567.618 189.226C567.618 185.701 564.75 182.831 561.225 182.831ZM561.225 198.544C556.086 198.544 551.908 194.363 551.908 189.226C551.908 184.088 556.086 179.909 561.225 179.909C566.363 179.909 570.542 184.088 570.542 189.226C570.542 194.363 566.363 198.544 561.225 198.544Z" fill="#583C9F"/>
<path d="M594.768 215.521C591.241 215.521 588.371 218.39 588.371 221.916C588.371 225.441 591.241 228.31 594.768 228.31C598.292 228.31 601.161 225.441 601.161 221.916C601.161 218.39 598.292 215.521 594.768 215.521ZM594.768 231.233C589.629 231.233 585.449 227.054 585.449 221.916C585.449 216.777 589.629 212.598 594.768 212.598C599.904 212.598 604.083 216.777 604.083 221.916C604.083 227.054 599.904 231.233 594.768 231.233Z" fill="#765CB4"/>
<path d="M606.279 261.512C605.47 261.512 604.817 260.857 604.817 260.05V253.604C604.817 252.797 605.47 252.142 606.279 252.142C607.086 252.142 607.74 252.797 607.74 253.604V260.05C607.74 260.857 607.086 261.512 606.279 261.512Z" fill="#583C9F"/>
<path d="M606.279 272.791C605.47 272.791 604.817 272.136 604.817 271.33V264.884C604.817 264.075 605.47 263.422 606.279 263.422C607.086 263.422 607.74 264.075 607.74 264.884V271.33C607.74 272.136 607.086 272.791 606.279 272.791Z" fill="#583C9F"/>
<path d="M615.326 263.927H609.535C608.728 263.927 608.073 263.274 608.073 262.467C608.073 261.66 608.728 261.005 609.535 261.005H615.326C616.132 261.005 616.786 261.66 616.786 262.467C616.786 263.274 616.132 263.927 615.326 263.927Z" fill="#583C9F"/>
<path d="M603.021 263.927H597.231C596.424 263.927 595.77 263.274 595.77 262.467C595.77 261.66 596.424 261.005 597.231 261.005H603.021C603.828 261.005 604.483 261.66 604.483 262.467C604.483 263.274 603.828 263.927 603.021 263.927Z" fill="#583C9F"/>
<path d="M554.83 225.395C554.023 225.395 553.369 224.741 553.369 223.933V217.486C553.369 216.679 554.023 216.024 554.83 216.024C555.638 216.024 556.292 216.679 556.292 217.486V223.933C556.292 224.741 555.638 225.395 554.83 225.395Z" fill="#4C3297"/>
<path d="M554.83 236.674C554.023 236.674 553.369 236.02 553.369 235.212V228.767C553.369 227.959 554.023 227.305 554.83 227.305C555.638 227.305 556.292 227.959 556.292 228.767V235.212C556.292 236.02 555.638 236.674 554.83 236.674Z" fill="#4C3297"/>
<path d="M563.878 227.812H558.087C557.28 227.812 556.625 227.157 556.625 226.35C556.625 225.543 557.28 224.888 558.087 224.888H563.878C564.683 224.888 565.338 225.543 565.338 226.35C565.338 227.157 564.683 227.812 563.878 227.812Z" fill="#4C3297"/>
<path d="M551.572 227.812H545.785C544.976 227.812 544.323 227.157 544.323 226.35C544.323 225.543 544.976 224.888 545.785 224.888H551.572C552.381 224.888 553.034 225.543 553.034 226.35C553.034 227.157 552.381 227.812 551.572 227.812Z" fill="#4C3297"/>
<path d="M131.743 155.764C131.743 159.29 134.612 162.159 138.137 162.159C141.663 162.159 144.531 159.29 144.531 155.764C144.531 152.238 141.663 149.369 138.137 149.369C134.612 149.369 131.743 152.238 131.743 155.764ZM128.82 155.764C128.82 150.626 132.999 146.447 138.137 146.447C143.276 146.447 147.455 150.626 147.455 155.764C147.455 160.902 143.276 165.083 138.137 165.083C132.999 165.083 128.82 160.902 128.82 155.764Z" fill="#583C9F"/>
<path d="M94.3253 191.28C94.3253 194.805 97.1936 197.674 100.72 197.674C104.245 197.674 107.113 194.805 107.113 191.28C107.113 187.754 104.245 184.886 100.72 184.886C97.1936 184.886 94.3253 187.754 94.3253 191.28ZM91.4019 191.28C91.4019 186.143 95.582 181.962 100.72 181.962C105.857 181.962 110.037 186.143 110.037 191.28C110.037 196.418 105.857 200.598 100.72 200.598C95.582 200.598 91.4019 196.418 91.4019 191.28Z" fill="#765CB4"/>
<path d="M72.0308 204.355C72.8377 204.355 73.4926 203.701 73.4926 202.894V196.448C73.4926 195.641 72.8377 194.987 72.0308 194.987C71.2239 194.987 70.5698 195.641 70.5698 196.448V202.894C70.5698 203.701 71.2239 204.355 72.0308 204.355Z" fill="#583C9F"/>
<path d="M72.0308 215.636C72.8377 215.636 73.4926 214.981 73.4926 214.174V207.728C73.4926 206.921 72.8377 206.266 72.0308 206.266C71.2239 206.266 70.5698 206.921 70.5698 207.728V214.174C70.5698 214.981 71.2239 215.636 72.0308 215.636Z" fill="#583C9F"/>
<path d="M62.9842 206.772H68.7738C69.5807 206.772 70.2356 206.118 70.2356 205.311C70.2356 204.503 69.5807 203.849 68.7738 203.849H62.9842C62.1772 203.849 61.5225 204.503 61.5225 205.311C61.5225 206.118 62.1772 206.772 62.9842 206.772Z" fill="#583C9F"/>
<path d="M75.2878 206.772H81.0779C81.8849 206.772 82.5392 206.118 82.5392 205.311C82.5392 204.503 81.8849 203.849 81.0779 203.849H75.2878C74.4808 203.849 73.8267 204.503 73.8267 205.311C73.8267 206.118 74.4808 206.772 75.2878 206.772Z" fill="#583C9F"/>
<path d="M105.708 154.809C106.515 154.809 107.169 154.156 107.169 153.347V146.901C107.169 146.094 106.515 145.439 105.708 145.439C104.901 145.439 104.247 146.094 104.247 146.901V153.347C104.247 154.156 104.901 154.809 105.708 154.809Z" fill="#4C3297"/>
<path d="M105.708 166.089C106.515 166.089 107.169 165.434 107.169 164.627V158.181C107.169 157.374 106.515 156.719 105.708 156.719C104.901 156.719 104.247 157.374 104.247 158.181V164.627C104.247 165.434 104.901 166.089 105.708 166.089Z" fill="#4C3297"/>
<path d="M96.6615 157.226H102.452C103.258 157.226 103.913 156.571 103.913 155.764C103.913 154.957 103.258 154.304 102.452 154.304H96.6615C95.8546 154.304 95.1997 154.957 95.1997 155.764C95.1997 156.571 95.8546 157.226 96.6615 157.226Z" fill="#4C3297"/>
<path d="M108.966 157.226H114.755C115.563 157.226 116.218 156.571 116.218 155.764C116.218 154.957 115.563 154.304 114.755 154.304H108.966C108.158 154.304 107.504 154.957 107.504 155.764C107.504 156.571 108.158 157.226 108.966 157.226Z" fill="#4C3297"/>
<path d="M488.252 165.656V194.03C488.252 197.78 485.209 200.822 481.459 200.822H429.945L414.393 206.402C412.796 206.976 411.267 205.406 411.878 203.827L417.762 188.634V165.656C417.762 161.906 420.804 158.863 424.559 158.863H481.459C485.209 158.863 488.252 161.906 488.252 165.656Z" fill="#765CB4"/>
<path d="M477.392 173.683H430.133C429.097 173.683 428.259 172.845 428.259 171.809C428.259 170.773 429.097 169.934 430.133 169.934H477.392C478.427 169.934 479.267 170.773 479.267 171.809C479.267 172.845 478.427 173.683 477.392 173.683Z" fill="#A585C9"/>
<path d="M477.392 181.232H430.133C429.097 181.232 428.259 180.394 428.259 179.359C428.259 178.324 429.097 177.485 430.133 177.485H477.392C478.427 177.485 479.267 178.324 479.267 179.359C479.267 180.394 478.427 181.232 477.392 181.232Z" fill="#A585C9"/>
<path d="M477.392 188.783H430.133C429.097 188.783 428.259 187.944 428.259 186.909C428.259 185.873 429.097 185.034 430.133 185.034H477.392C478.427 185.034 479.267 185.873 479.267 186.909C479.267 187.944 478.427 188.783 477.392 188.783Z" fill="#A585C9"/>
<path d="M640.206 591.869V592.884C640.206 598.731 635.463 603.475 629.611 603.475H80.1143C74.2631 603.475 69.5229 598.731 69.5229 592.884V591.869C69.5229 586.02 74.2631 581.276 80.1143 581.276H629.611C635.463 581.276 640.206 586.02 640.206 591.869Z" fill="#4C3297"/>
<path d="M640.206 591.869V592.377H69.5229V591.869C69.5229 586.02 74.2631 581.276 80.1143 581.276H629.611C635.463 581.276 640.206 586.02 640.206 591.869Z" fill="#583C9F"/>
</svg>
