<svg width="50" height="48" viewBox="0 0 50 48" fill="none" xmlns="http://www.w3.org/2000/svg">
<path d="M46.4286 0H3.56027C1.59598 0 0 1.55357 0 3.46071V44.5393C0 46.4464 1.59598 48 3.56027 48H46.4286C48.3929 48 50 46.4464 50 44.5393V3.46071C50 1.55357 48.3929 0 46.4286 0Z" fill="black"/>
<path d="M36 11H31.3636C29.3142 11 27.3488 11.8165 25.8996 13.2699C24.4505 14.7233 23.6364 16.6946 23.6364 18.75V23.4H19V29.6H23.6364V42H29.8182V29.6H34.4545L36 23.4H29.8182V18.75C29.8182 18.3389 29.981 17.9447 30.2708 17.654C30.5607 17.3633 30.9538 17.2 31.3636 17.2H36V11Z" stroke="white" stroke-linecap="round" stroke-linejoin="round"/>
</svg>
