<svg width="50" height="48" viewBox="0 0 50 48" fill="none" xmlns="http://www.w3.org/2000/svg">
<path d="M10.5829 16.3445C11.2561 15.3204 12.0471 14.3693 12.9511 13.5014C14.515 12 16.337 10.8209 18.3664 9.99684C20.469 9.14306 22.7009 8.71022 24.9999 8.71022C27.2989 8.71022 29.5308 9.14316 31.6334 9.99684C33.6628 10.8209 35.4849 12 37.0487 13.5014C37.9527 14.3693 38.7438 15.3204 39.4169 16.3445H50V10.0218C50 4.49569 45.317 0 39.5607 0H10.4393C4.68301 0 0 4.49569 0 10.0217V16.3444H10.5829V16.3445ZM42.9831 9.57628H40.0534V6.76378H42.9831V9.57628Z" fill="black"/>
<path d="M40.8914 19.157C41.6531 21.0409 42.0396 23.0269 42.0396 25.0684C42.0396 27.2754 41.5888 29.418 40.6994 31.4365C39.841 33.3848 38.6128 35.1339 37.0488 36.6353C35.4849 38.1367 33.6629 39.3158 31.6335 40.1398C29.5309 40.9936 27.299 41.4264 25 41.4264C22.701 41.4264 20.4691 40.9935 18.3665 40.1398C16.3371 39.3158 14.515 38.1367 12.9512 36.6353C11.3872 35.1339 10.159 33.3848 9.30059 31.4365C8.41123 29.418 7.96035 27.2754 7.96035 25.0684C7.96035 23.027 8.34697 21.0409 9.10859 19.157H0V37.9783C0 43.5043 4.68301 48 10.4393 48H39.5606C45.317 48 50 43.5043 50 37.9783V19.157H40.8914Z" fill="black"/>
<path d="M24.9998 19.3385C21.7088 19.3385 19.0312 21.9089 19.0312 25.0683C19.0312 28.2277 21.7088 30.7981 24.9998 30.7981C28.2908 30.7981 30.9684 28.2277 30.9684 25.0684C30.9684 21.909 28.2908 19.3385 24.9998 19.3385Z" fill="black"/>
<path d="M25.0001 11.5227C17.2073 11.5227 10.8901 17.5873 10.8901 25.0683C10.8901 32.5492 17.2073 38.6139 25.0001 38.6139C32.7929 38.6139 39.1101 32.5493 39.1101 25.0684C39.1101 17.5874 32.7929 11.5227 25.0001 11.5227ZM33.8983 25.0684C33.8983 29.7785 29.9066 33.6106 25.0001 33.6106C20.0936 33.6106 16.1019 29.7785 16.1019 25.0684C16.1019 20.3581 20.0936 16.526 25.0001 16.526C29.9066 16.526 33.8983 20.358 33.8983 25.0684Z" fill="black"/>
</svg>
