<svg width="50" height="48" viewBox="0 0 50 48" fill="none" xmlns="http://www.w3.org/2000/svg">
<path d="M46.4286 0H3.56027C1.59598 0 0 1.55357 0 3.46071V44.5393C0 46.4464 1.59598 48 3.56027 48H46.4286C48.3929 48 50 46.4464 50 44.5393V3.46071C50 1.55357 48.3929 0 46.4286 0ZM15.1116 41.1429H7.70089V18.2357H15.1228V41.1429H15.1116ZM11.4062 15.1071C9.02902 15.1071 7.10938 13.2536 7.10938 10.9821C7.10938 8.71071 9.02902 6.85714 11.4062 6.85714C13.7723 6.85714 15.7031 8.71071 15.7031 10.9821C15.7031 13.2643 13.7835 15.1071 11.4062 15.1071ZM42.8906 41.1429H35.4799V30C35.4799 27.3429 35.4241 23.925 31.6295 23.925C27.7679 23.925 27.1763 26.8179 27.1763 29.8071V41.1429H19.7656V18.2357H26.875V21.3643H26.9754C27.9688 19.5643 30.3906 17.6679 33.9955 17.6679C41.4955 17.6679 42.8906 22.4143 42.8906 28.5857V41.1429Z" fill="black"/>
</svg>
