<svg width="51" height="48" viewBox="0 0 51 48" fill="none" xmlns="http://www.w3.org/2000/svg">
<path d="M47.3218 0H3.67815C1.64667 0 0 1.5498 0 3.46179V44.5382C0 46.4502 1.64667 48 3.67815 48H47.3218C49.3533 48 51 46.4502 51 44.5382V3.46179C51 1.5498 49.3533 0 47.3218 0V0ZM37.143 18.7126C37.1543 18.9489 37.1597 19.1862 37.1597 19.4246C37.1597 26.7037 31.2727 35.0977 20.5067 35.098H20.5071H20.5067C17.2013 35.098 14.1255 34.1862 11.5352 32.6235C11.9932 32.6744 12.4593 32.6997 12.9313 32.6997C15.6737 32.6997 18.1974 31.8193 20.2009 30.3417C17.6386 30.297 15.4784 28.7043 14.7328 26.5155C15.0897 26.58 15.4566 26.6151 15.8328 26.6151C16.3671 26.6151 16.8846 26.5474 17.3764 26.421C14.6982 25.9164 12.6807 23.6887 12.6807 21.0212C12.6807 20.9963 12.6807 20.974 12.6815 20.9509C13.4702 21.3636 14.3722 21.6119 15.3325 21.6398C13.7609 20.6528 12.7278 18.9657 12.7278 17.0544C12.7278 16.0452 13.0177 15.0996 13.5204 14.2855C16.4068 17.6188 20.7203 19.8109 25.5848 20.0413C25.4844 19.6377 25.4327 19.2173 25.4327 18.7852C25.4327 15.7441 28.054 13.277 31.2863 13.277C32.9699 13.277 34.4905 13.9468 35.5586 15.0176C36.892 14.77 38.1442 14.3115 39.2753 13.6805C38.8375 14.9663 37.9099 16.0452 36.7014 16.7274C37.8854 16.5941 39.0138 16.2986 40.0624 15.8599C39.2792 16.9647 38.2858 17.9352 37.143 18.7126Z" fill="black"/>
</svg>
