<svg width="457" height="72" viewBox="0 0 457 72" fill="none" xmlns="http://www.w3.org/2000/svg">
<g clip-path="url(#clip0)">
<path d="M53.7559 18.8809H56.3392L63.7026 11.4758L64.0636 8.33069C50.3589 -3.83551 29.4433 -2.52121 17.3456 11.261C13.9842 15.0863 11.5484 19.6429 10.2161 24.5728C11.0348 24.2352 11.945 24.179 12.7994 24.4193L27.5262 21.9748C27.5262 21.9748 28.2737 20.727 28.6653 20.8037C35.2151 13.5674 46.2399 12.7236 53.8067 18.8809H53.7559Z" fill="#EA4335"/>
<path d="M74.1935 24.5728C72.5001 18.303 69.0269 12.6674 64.1959 8.36139L53.8627 18.753C58.2258 22.3379 60.7125 27.7434 60.6057 33.4098V35.2559C65.6859 35.2559 69.8049 39.3982 69.8049 44.5071C69.8049 49.616 65.6859 53.7584 60.6057 53.7584H42.2074L40.3716 55.6301V66.7275L42.2074 68.5736H60.6057C73.8172 68.6759 84.6131 57.9876 84.7148 44.7015C84.7759 36.6316 80.8246 29.0833 74.1935 24.5728Z" fill="#4285F4"/>
<path d="M23.7836 68.456H42.182V53.6458H23.7836C22.4716 53.6458 21.18 53.3595 19.985 52.8123L17.4017 53.6203L9.98738 61.0254L9.34155 63.6233C13.4962 66.7837 18.5713 68.4816 23.7836 68.456Z" fill="#34A853"/>
<path d="M23.7836 20.4151C10.567 20.4918 -0.0763594 31.3283 -8.08294e-05 44.6196C0.0456863 52.0401 3.48839 59.0258 9.3415 63.5466L20.0103 52.8174C15.3828 50.7155 13.3232 45.2333 15.4133 40.5796C17.5033 35.9258 22.9547 33.8547 27.5822 35.9565C29.6214 36.8822 31.2538 38.5289 32.1793 40.5796L42.8481 29.8504C38.3121 23.8773 31.2538 20.3844 23.7836 20.4151Z" fill="#FBBC05"/>
<path d="M133.696 58.1155C127.294 58.1973 121.14 55.6557 116.645 51.0735C112.002 46.6857 109.409 40.5387 109.49 34.1308C109.414 27.723 112.007 21.5811 116.645 17.1881C121.12 12.56 127.278 9.96718 133.696 10.0183C139.808 9.93649 145.702 12.3247 150.05 16.6461L145.453 21.3509C142.305 18.2877 138.074 16.6103 133.696 16.6716C129.104 16.6154 124.695 18.5024 121.552 21.8675C118.288 25.1251 116.487 29.5845 116.564 34.2075C116.523 38.7795 118.323 43.1724 121.552 46.3942C128.204 53.0629 138.929 53.1907 145.738 46.6806C147.767 44.4509 149.008 41.6075 149.277 38.6005H133.772V31.9523H155.71C155.923 33.2921 156.01 34.6473 155.969 36.0077C156.244 41.6791 154.2 47.2176 150.309 51.3394C145.982 55.8653 139.941 58.3303 133.696 58.1155ZM184.701 53.697C178.583 59.5934 168.931 59.5934 162.814 53.697C159.849 50.8076 158.232 46.8033 158.344 42.6559C158.232 38.5084 159.854 34.5042 162.814 31.6147C168.937 25.7336 178.578 25.7336 184.701 31.6147C187.66 34.5042 189.283 38.5084 189.171 42.6559C189.277 46.8084 187.645 50.8127 184.675 53.697H184.701ZM167.645 49.3603C170.803 52.756 176.102 52.9299 179.478 49.749C179.61 49.6211 179.743 49.4933 179.865 49.3603C181.589 47.5653 182.519 45.1515 182.448 42.6559C182.524 40.1551 181.594 37.726 179.865 35.9258C176.615 32.5199 171.235 32.4023 167.843 35.6701C167.757 35.752 167.67 35.8389 167.589 35.9258C165.86 37.726 164.929 40.1551 165.006 42.6559C164.94 45.1515 165.88 47.5704 167.614 49.3603H167.645ZM218.34 53.697C212.222 59.5934 202.57 59.5934 196.453 53.697C193.488 50.8076 191.871 46.8033 191.983 42.6559C191.871 38.5084 193.493 34.5042 196.453 31.6147C202.57 25.7183 212.222 25.7183 218.34 31.6147C221.299 34.5042 222.921 38.5084 222.81 42.6559C222.926 46.8033 221.304 50.8076 218.34 53.697ZM201.289 49.3603C204.447 52.756 209.746 52.9299 213.122 49.749C213.254 49.6211 213.387 49.4933 213.509 49.3603C215.233 47.5653 216.163 45.1515 216.092 42.6559C216.168 40.1551 215.238 37.726 213.509 35.9258C210.259 32.5199 204.879 32.4023 201.492 35.6701C201.406 35.752 201.319 35.8389 201.238 35.9258C199.509 37.726 198.578 40.1551 198.655 42.6559C198.589 45.1515 199.529 47.5704 201.263 49.3603H201.289ZM240.455 71.9898C237.358 72.0869 234.322 71.1153 231.851 69.2333C229.659 67.5764 227.93 65.3723 226.837 62.8408L232.726 60.3708C233.366 61.8845 234.368 63.2141 235.645 64.2421C237.008 65.3467 238.721 65.9297 240.476 65.8785C242.723 66.0166 244.92 65.1626 246.497 63.5414C248.053 61.6544 248.821 59.2303 248.643 56.7859V54.551H248.409C246.41 56.9342 243.415 58.2331 240.323 58.0592C236.402 58.0695 232.655 56.433 229.99 53.5385C227.101 50.6695 225.505 46.7368 225.571 42.6508C225.5 38.5442 227.096 34.586 229.99 31.6863C232.649 28.7816 236.397 27.1298 240.323 27.14C241.966 27.1349 243.593 27.5031 245.078 28.2037C246.364 28.7662 247.509 29.6101 248.439 30.6738H248.673V28.2037H255.08V55.8756C255.421 60.2992 253.936 64.6716 250.972 67.9599C248.149 70.6755 244.361 72.1278 240.455 71.9898ZM240.923 52.0349C243.156 52.0861 245.296 51.1298 246.761 49.437C248.353 47.6011 249.197 45.2231 249.11 42.7837C249.207 40.3034 248.368 37.8845 246.761 36.0026C245.296 34.3047 243.156 33.3535 240.923 33.4046C238.63 33.3586 236.428 34.3047 234.877 36.0026C233.168 37.818 232.238 40.2369 232.293 42.7326C232.243 45.2078 233.168 47.6011 234.877 49.3859C236.418 51.0991 238.62 52.0656 240.923 52.0349ZM266.476 11.7622V57.1796H259.733V11.7622H266.476ZM284.977 58.1155C280.893 58.2229 276.952 56.612 274.099 53.6714C271.206 50.7564 269.624 46.7726 269.731 42.6559C269.578 38.5289 271.099 34.5144 273.942 31.5329C276.627 28.6895 280.38 27.1144 284.275 27.1911C286.05 27.1707 287.804 27.5184 289.441 28.2037C290.916 28.802 292.259 29.6868 293.393 30.8016C294.369 31.7477 295.233 32.8012 295.976 33.9467C296.576 34.9133 297.084 35.931 297.501 36.9844L298.198 38.7539L277.532 47.3045C278.813 50.2604 281.768 52.1219 284.971 51.9838C288.068 51.994 290.942 50.3627 292.543 47.6983L297.71 51.2065C296.393 53.1038 294.705 54.7147 292.747 55.9369C290.428 57.4098 287.723 58.1666 284.977 58.1155ZM276.347 42.1854L290.092 36.4424C289.67 35.4298 288.913 34.5962 287.946 34.0797C286.868 33.466 285.648 33.1541 284.407 33.1694C282.307 33.2256 280.308 34.1104 278.854 35.6395C277.089 37.3373 276.169 39.7358 276.347 42.1854Z" fill="#5F6368"/>
<path d="M333.525 58.1155C321.768 58.32 312.076 48.9 311.872 37.0765C311.867 36.7901 311.867 36.4986 311.877 36.2122C311.603 24.3886 320.914 14.5851 332.666 14.309C332.951 14.3038 333.24 14.3038 333.525 14.3038C339.404 14.1197 345.048 16.6461 348.847 21.1617L345.125 24.7978C342.333 21.264 338.031 19.2849 333.551 19.469C329.254 19.3718 325.099 21.0441 322.053 24.092C318.885 27.2985 317.191 31.6863 317.374 36.202C317.186 40.7176 318.885 45.1055 322.053 48.3119C325.099 51.365 329.254 53.0322 333.551 52.935C338.555 52.9912 343.309 50.7513 346.467 46.8544L350.19 50.5979C348.242 52.9401 345.796 54.8118 343.035 56.0801C340.055 57.4711 336.805 58.1666 333.525 58.1155Z" fill="#5F6368"/>
<path d="M360.187 57.1796H354.837V15.2141H360.187V57.1796Z" fill="#5F6368"/>
<path d="M368.923 31.9216C374.756 26.0967 384.174 26.0967 390.007 31.9216C392.773 34.8621 394.263 38.7897 394.141 42.8349C394.263 46.88 392.773 50.8076 390.007 53.7481C384.174 59.573 374.756 59.573 368.923 53.7481C366.157 50.8076 364.667 46.88 364.789 42.8349C364.667 38.7897 366.152 34.8621 368.923 31.9216ZM372.9 50.3729C376.323 54.009 382.028 54.1675 385.649 50.7258C385.771 50.6133 385.888 50.4905 386 50.3729C387.886 48.3375 388.883 45.622 388.766 42.84C388.888 40.058 387.891 37.3424 386 35.3071C382.577 31.671 376.872 31.5125 373.251 34.9542C373.129 35.0667 373.012 35.1894 372.9 35.3071C371.014 37.3424 370.017 40.058 370.134 42.84C370.027 45.6169 371.034 48.3222 372.926 50.3473L372.9 50.3729Z" fill="#5F6368"/>
<path d="M423.773 57.1796H418.606V53.206H418.454C417.533 54.7147 416.232 55.9523 414.681 56.791C413.074 57.7268 411.243 58.2229 409.382 58.2178C406.32 58.4274 403.335 57.2205 401.271 54.9448C399.313 52.4543 398.331 49.3296 398.504 46.1641V28.4952H403.854V45.1771C403.854 50.5314 406.203 53.206 410.907 53.206C413.028 53.2725 415.047 52.306 416.333 50.6081C417.722 48.8438 418.459 46.6499 418.428 44.3997V28.4952H423.778V57.1796H423.773Z" fill="#5F6368"/>
<path d="M441.937 58.1155C438.266 58.1257 434.772 56.525 432.377 53.7226C429.697 50.7462 428.263 46.8493 428.37 42.8349C428.263 38.8204 429.697 34.9235 432.377 31.9471C434.772 29.1498 438.266 27.544 441.937 27.5542C443.971 27.5235 445.98 28.0043 447.775 28.9555C449.357 29.7532 450.694 30.9653 451.65 32.4637H451.884L451.65 28.4901V15.2141H457V57.1796H451.833V53.206H451.599C450.643 54.7044 449.306 55.9165 447.724 56.7142C445.944 57.6552 443.956 58.1411 441.937 58.1155ZM442.817 53.206C445.263 53.2418 447.607 52.219 449.25 50.3985C451.065 48.3171 451.996 45.6015 451.833 42.8349C451.996 40.0733 451.065 37.3526 449.25 35.2712C446.005 31.6812 440.483 31.4204 436.913 34.6882C436.71 34.8724 436.516 35.0718 436.333 35.2712C434.513 37.3373 433.582 40.0477 433.75 42.8042C433.582 45.5606 434.513 48.271 436.333 50.3371C437.981 52.1986 440.346 53.2418 442.817 53.206Z" fill="#5F6368"/>
</g>
<defs>
<clipPath id="clip0">
<rect width="457" height="72" fill="white"/>
</clipPath>
</defs>
</svg>
