<svg width="772" height="363" viewBox="0 0 772 363" fill="none" xmlns="http://www.w3.org/2000/svg">
<path d="M388.477 363C597.811 363 767.51 353.286 767.51 341.302C767.51 329.319 597.811 319.604 388.477 319.604C179.143 319.604 9.44385 329.319 9.44385 341.302C9.44385 353.286 179.143 363 388.477 363Z" fill="black" fill-opacity="0.5"/>
<path d="M384.901 98.2707C323.146 98.2707 278.807 132.53 278.807 212.47C278.807 303.068 323.146 327.05 384.901 327.05C446.655 327.05 493.636 300.784 493.636 212.47C493.636 118.065 446.655 98.2707 384.901 98.2707ZM385.307 296.977C342.534 296.977 320.188 275.279 320.188 212.528C320.188 157.16 343.449 127.962 386.221 127.962C428.994 127.962 452.255 147.142 452.255 212.528C452.255 273.697 428.079 296.977 385.307 296.977Z" fill="#F44234"/>
<path d="M230.877 269.357H205.344V204.341C205.344 200.888 203.757 197.576 200.934 195.134C198.11 192.693 194.28 191.321 190.286 191.321H184.303C182.326 191.321 180.368 191.657 178.541 192.312C176.714 192.966 175.054 193.925 173.656 195.134C172.258 196.343 171.148 197.779 170.392 199.358C169.635 200.938 169.245 202.631 169.245 204.341V269.357H97.2256C95.744 269.357 94.2875 269.026 92.9975 268.395C91.7075 267.765 90.6278 266.858 89.863 265.76C89.0983 264.663 88.6745 263.413 88.6328 262.133C88.5911 260.852 88.9329 259.584 89.6251 258.451L165.85 133.7C166.8 132.145 167.376 130.439 167.543 128.686C167.71 126.933 167.465 125.169 166.821 123.5C166.178 121.831 165.15 120.293 163.8 118.977C162.45 117.661 160.806 116.595 158.966 115.844L154.466 114.007C150.972 112.58 146.978 112.369 143.309 113.418C139.641 114.467 136.579 116.696 134.757 119.642L41.7907 270.024C40.2076 272.585 39.3794 275.444 39.3794 278.348C39.3794 280.666 39.9075 282.962 40.9336 285.104C41.9597 287.246 43.4637 289.192 45.3597 290.832C47.2557 292.471 49.5066 293.772 51.9838 294.659C54.461 295.546 57.1161 296.003 59.7975 296.003H169.245V337.115C169.245 339.164 169.712 341.194 170.619 343.087C171.526 344.981 172.856 346.702 174.532 348.151C176.208 349.6 178.198 350.75 180.388 351.534C182.577 352.318 184.924 352.722 187.295 352.722H187.295C189.665 352.722 192.012 352.318 194.202 351.534C196.392 350.75 198.381 349.6 200.057 348.151C201.733 346.702 203.063 344.981 203.97 343.087C204.877 341.194 205.344 339.164 205.344 337.115V296.003H230.877C234.963 296.003 238.882 294.599 241.772 292.101C244.661 289.602 246.285 286.213 246.285 282.68C246.285 279.146 244.661 275.758 241.772 273.259C238.882 270.76 234.963 269.357 230.877 269.357Z" fill="#FFB61D"/>
<path d="M703.677 269.357H678.144V204.341C678.144 200.888 676.558 197.576 673.734 195.134C670.91 192.693 667.08 191.321 663.086 191.321H657.103C655.126 191.321 653.168 191.657 651.341 192.312C649.514 192.966 647.854 193.925 646.456 195.134C645.058 196.343 643.949 197.779 643.192 199.358C642.435 200.938 642.046 202.631 642.046 204.341V269.357H570.026C568.544 269.357 567.088 269.026 565.798 268.395C564.508 267.765 563.428 266.858 562.663 265.76C561.899 264.663 561.475 263.413 561.433 262.133C561.391 260.852 561.733 259.584 562.425 258.451L638.65 133.7C639.601 132.145 640.177 130.439 640.344 128.686C640.511 126.933 640.265 125.169 639.622 123.5C638.978 121.831 637.951 120.293 636.6 118.977C635.25 117.661 633.606 116.595 631.766 115.844L627.267 114.007C623.773 112.58 619.778 112.369 616.11 113.418C612.441 114.467 609.379 116.696 607.557 119.642L514.591 270.024C513.008 272.585 512.18 275.444 512.18 278.348C512.18 283.03 514.331 287.521 518.16 290.832C521.989 294.143 527.183 296.003 532.598 296.003H642.046V337.115C642.046 341.254 643.947 345.224 647.332 348.151C650.717 351.078 655.308 352.722 660.095 352.722C664.882 352.722 669.473 351.078 672.858 348.151C676.242 345.224 678.144 341.254 678.144 337.115V296.003H703.677C707.763 296.003 711.682 294.599 714.572 292.101C717.462 289.602 719.085 286.213 719.085 282.68C719.085 279.146 717.462 275.758 714.572 273.259C711.682 270.76 707.763 269.357 703.677 269.357Z" fill="#4285F4"/>
<path d="M338.536 19.3554C343.655 19.3554 347.806 15.7666 347.806 11.3395C347.806 6.91249 343.655 3.32365 338.536 3.32365C333.416 3.32365 329.266 6.91249 329.266 11.3395C329.266 15.7666 333.416 19.3554 338.536 19.3554Z" fill="#2F2E41"/>
<path d="M361.147 58.2618C375.507 58.2618 387.148 45.2194 387.148 29.1309C387.148 13.0423 375.507 0 361.147 0C346.787 0 335.146 13.0423 335.146 29.1309C335.146 45.2194 346.787 58.2618 361.147 58.2618Z" fill="#2F2E41"/>
<path opacity="0.1" d="M361.147 49.4639C348.121 49.4639 337.333 38.7332 335.44 24.7319C335.244 26.1921 335.145 27.6609 335.146 29.1309C335.146 45.2194 346.787 58.2618 361.147 58.2618C375.507 58.2618 387.148 45.2195 387.148 29.1309C387.149 27.6609 387.05 26.1921 386.853 24.7319C384.96 38.7332 374.172 49.4639 361.147 49.4639Z" fill="black"/>
<path d="M414.056 114.442C413.498 116.426 411.09 118.015 408.424 119.125C402.818 121.46 395.903 122.156 389.195 122.39C387.484 122.48 385.768 122.452 384.062 122.308C380.756 122.031 377.654 120.799 375.259 118.809C375.088 118.713 374.948 118.58 374.852 118.425C374.757 118.269 374.708 118.095 374.711 117.918C374.714 117.742 374.769 117.569 374.87 117.415C374.972 117.262 375.116 117.134 375.291 117.042C378.861 113.65 384.82 111.571 390.823 110.073C395.374 108.938 403.312 105.997 408.276 106.394C413.085 106.778 414.761 111.937 414.056 114.442Z" fill="#3F3D56"/>
<path opacity="0.1" d="M414.056 114.442C413.498 116.426 411.09 118.015 408.424 119.125C402.818 121.46 395.903 122.156 389.195 122.39C387.484 122.48 385.768 122.452 384.062 122.308C380.756 122.031 377.654 120.799 375.259 118.809C375.088 118.713 374.948 118.58 374.852 118.425C374.757 118.269 374.708 118.095 374.711 117.918C374.714 117.742 374.769 117.569 374.87 117.415C374.972 117.262 375.116 117.134 375.291 117.042C378.861 113.65 384.82 111.571 390.823 110.073C395.374 108.938 403.312 105.997 408.276 106.394C413.085 106.778 414.761 111.937 414.056 114.442Z" fill="black"/>
<path d="M342.778 99.6124C341.066 102.512 340.757 105.881 341.916 108.979C343.096 112.053 345.304 114.755 348.26 116.743C355.514 121.771 365.497 122.463 374.793 122.393C382.939 122.332 391.075 121.85 399.155 120.949C401.863 120.742 404.524 120.207 407.06 119.362C410.094 118.227 412.76 116.145 413.84 113.443C414.921 110.742 414.154 107.434 411.589 105.631C409.335 104.046 406.226 103.829 403.327 103.678L386.737 102.816C388.376 101.382 390.559 100.57 392.555 99.5277C395.203 98.1443 396.962 95.8217 398.887 93.7278C401.854 90.6619 405.082 87.7923 408.544 85.1428C409.083 87.821 411.043 90.0202 413.349 91.8681C415.655 93.716 418.313 95.2037 420.709 96.9631C426.514 101.224 430.694 107.008 436.799 110.943C440.999 109.989 444.925 108.294 448.331 105.965L445.958 102.249C445.76 101.866 445.453 101.534 445.064 101.284C444.392 100.927 443.526 101.111 442.747 101.01C440.662 100.739 439.752 98.6584 438.934 96.9787C436.689 92.3674 432.389 88.7897 428.718 84.9226C426.008 82.068 423.604 79.0061 421.535 75.7748C420.302 73.8477 419.173 71.8412 417.499 70.1809C415.825 68.5206 413.48 67.2153 410.932 67.2106C408.682 67.2065 406.606 68.1945 404.671 69.1884C398.777 72.2155 393.106 75.5562 387.692 79.1911C384.858 81.0934 382.042 83.1033 378.717 84.2698C377.318 84.7609 375.843 85.0965 374.5 85.694C372.148 86.7406 370.363 88.5114 368.442 90.0832C361.589 95.6896 352.206 99.3219 342.778 99.6124Z" fill="#3E3358"/>
<path d="M377.467 59.7085C377.39 61.4222 376.969 63.1112 376.221 64.6999C375.843 65.4922 375.279 66.2086 374.566 66.8043C373.853 67.4 373.006 67.8623 372.077 68.1623C370.758 68.4679 369.376 68.5067 368.037 68.2757C366.869 68.1703 365.744 67.8388 364.745 67.306C363.189 66.3812 362.413 64.7311 362.131 63.1162C361.848 61.5033 361.975 59.8551 361.794 58.2305C361.618 56.9182 361.329 55.619 360.93 54.3437C360.808 53.9195 360.684 53.4972 360.562 53.0749C360.442 52.6526 360.324 52.2303 360.216 51.808C360.116 51.4111 360.024 51.0123 359.944 50.6115C359.879 50.2732 359.82 49.9331 359.777 49.5909C359.738 48.5766 359.542 47.5713 359.196 46.6016C358.871 45.9726 358.465 45.3777 357.984 44.8283C357.778 44.5741 357.579 44.32 357.396 44.056C356.867 43.3701 356.62 42.5496 356.698 41.7275C356.719 41.6004 356.755 41.4754 356.804 41.3541C356.822 41.3072 356.842 41.2603 356.865 41.2153C357.068 41.1676 357.255 41.0776 357.409 40.9532C357.563 40.8289 357.68 40.6739 357.749 40.5017C357.827 40.1318 357.79 39.7507 357.643 39.397C357.474 38.9028 357.243 38.4262 356.953 37.9757C356.763 37.6785 356.119 37.1428 356.114 36.8026C356.105 36.1183 357.652 35.567 358.278 35.2972C360.19 34.4694 362.322 34.0956 364.455 34.2141C365.823 34.2942 367.306 34.6579 368.061 35.6491C368.74 36.5426 368.649 37.7 368.939 38.7382C368.969 38.8891 369.043 39.0309 369.154 39.1507C369.301 39.2669 369.487 39.3407 369.685 39.3618C370.02 39.4194 370.363 39.4313 370.702 39.397H370.705C370.794 39.3909 370.883 39.3798 370.971 39.3638C371.5 39.2795 371.999 39.093 372.432 38.8183C372.712 38.7538 372.995 38.701 373.28 38.6599C373.291 38.6589 373.303 38.657 373.314 38.6541C374.447 41.7451 374.594 45.059 375.521 48.2067C375.98 49.7727 376.638 51.3192 376.73 52.9302C376.737 53.0005 376.739 53.0729 376.742 53.1452C376.755 53.6633 376.708 54.1853 376.732 54.7015C376.741 54.9339 376.771 55.1653 376.823 55.3936C376.924 55.7607 377.05 56.1223 377.201 56.4767L377.207 56.4943C377.25 56.6077 377.291 56.7231 377.325 56.8384C377.35 56.9225 377.372 57.0046 377.39 57.0887L377.393 57.0945C377.56 57.9584 377.585 58.8385 377.467 59.7085Z" fill="#FBBEBE"/>
<path d="M361.599 39.4929C368.966 39.4929 374.939 34.3285 374.939 27.9578C374.939 21.5872 368.966 16.4228 361.599 16.4228C354.231 16.4228 348.259 21.5872 348.259 27.9578C348.259 34.3285 354.231 39.4929 361.599 39.4929Z" fill="#FBBEBE"/>
<path d="M446.291 90.8062C445.905 87.6592 444.611 84.6463 442.529 82.0435C442.875 83.8227 443.222 85.6011 443.569 87.379C443.137 87.487 442.678 87.4837 442.249 87.3695C441.819 87.2552 441.437 87.035 441.15 86.7358C440.588 86.1293 440.158 85.4397 439.881 84.7005C438.366 81.4472 436.384 78.3713 433.983 75.5448C425.49 74.9329 417.095 71.8888 409.627 68.3403C402.157 64.7937 395.166 60.5414 387.795 56.8443C386.517 56.1764 385.186 55.5884 383.811 55.0847C381.505 54.2851 378.916 53.8706 376.73 52.9302C376.583 52.8676 376.436 52.8012 376.291 52.7327C375.797 52.5005 375.329 52.2288 374.894 51.9214C374.658 51.7561 374.435 51.5785 374.224 51.3896C373.133 50.2922 372.269 49.041 371.667 47.6906C370.494 45.4461 370.075 42.7383 368.904 40.4939C369.443 40.0589 370.047 39.6898 370.702 39.3971H370.704C370.799 39.354 370.894 39.313 370.991 39.2739C371.455 39.0852 371.937 38.9327 372.431 38.8184C372.712 38.7538 372.994 38.701 373.279 38.66C373.291 38.659 373.302 38.657 373.313 38.6541C374.634 38.468 375.988 38.5606 377.259 38.9239C379.117 39.4674 380.684 40.5525 382.246 41.5789C384.785 43.1252 387.219 44.7949 389.538 46.5801C390.827 47.6475 392.003 48.8206 393.389 49.7903C394.54 50.559 395.755 51.2548 397.022 51.8725C404.522 55.7358 412.022 59.5984 419.523 63.4603C422.063 64.7683 424.604 66.0763 427.087 67.4605C430.858 69.5641 434.493 71.8438 438.127 74.1215C440.268 75.4627 442.408 76.8045 444.548 78.147C445.25 78.5342 445.867 79.0268 446.368 79.6016C446.811 80.2542 447.087 80.9817 447.175 81.7346C447.713 84.7765 447.41 87.885 446.291 90.8062Z" fill="#FBBEBE"/>
<path d="M380.774 68.3833C379.874 71.8731 375.795 73.9827 373.663 77.0483C371.013 80.8529 372.094 85.2753 373.089 89.6332C371.271 90.9881 369.452 92.343 367.633 93.6978C366.629 94.4427 365.625 95.1915 364.545 95.8504C362.969 96.7634 361.322 97.5813 359.616 98.2982C358.006 99.0137 356.396 99.73 354.786 100.447C353.29 101.174 351.704 101.755 350.058 102.179C346.886 102.883 343.517 102.39 340.379 101.575C340.009 101.491 339.653 101.365 339.321 101.201C339.125 101.101 338.954 100.967 338.819 100.809C338.509 100.329 338.397 99.7727 338.5 99.2308C338.819 94.6637 340.11 90.1924 341.396 85.7543C342.084 83.0918 343.009 80.4792 344.162 77.9398C345.293 75.7639 346.593 73.6567 348.053 71.6327C349.664 69.086 351.574 66.6889 353.751 64.479C354.81 63.6284 355.702 62.6338 356.391 61.5346C357.194 59.951 356.884 58.1347 357.047 56.4103C357.172 55.1147 357.569 53.8498 358.221 52.678V52.6761C358.569 52.0449 358.988 51.445 359.473 50.8852C359.692 51.327 359.912 51.7682 360.131 52.2088C360.276 52.4981 360.419 52.7869 360.561 53.0749C360.746 53.4464 360.93 53.8166 361.112 54.1854C361.639 55.2451 362.165 56.3041 362.691 57.3624C363.258 58.6955 364.067 59.9421 365.087 61.0556C365.553 61.6258 366.183 62.0818 366.914 62.3788C367.645 62.6759 368.452 62.804 369.257 62.7506C370.062 62.6973 370.838 62.4642 371.508 62.0743C372.178 61.6843 372.72 61.1508 373.08 60.5258C373.84 59.3591 374.39 58.0993 374.712 56.7896C375.159 55.1949 375.22 53.5377 374.893 51.9214C374.348 48.8089 372.818 45.6299 371.705 42.7384C371.252 41.7742 370.99 40.7511 370.93 39.7119C370.932 39.5951 370.945 39.4787 370.97 39.3638C370.977 39.3345 370.984 39.3032 370.991 39.2739C371.454 39.0852 371.936 38.9328 372.431 38.8184C372.711 38.7539 372.994 38.7011 373.279 38.66C374.258 43.2428 375.238 47.8255 376.22 52.4082C376.243 52.5158 376.268 52.6233 376.29 52.7328C376.431 53.3897 376.573 54.0466 376.731 54.7016C376.874 55.2959 377.028 55.8883 377.199 56.4768L377.206 56.4944C377.265 56.6938 377.326 56.8913 377.389 57.0887L377.392 57.0946C377.566 57.6342 377.76 58.1699 377.979 58.6978C379.309 61.8787 381.626 65.0811 380.774 68.3833Z" fill="#7510F7"/>
<path d="M434.913 117.427C434.871 118.099 435.022 118.77 435.351 119.38C436.186 120.699 438.19 120.999 439.923 121.122C450.049 121.842 460.236 121.574 470.293 120.322C470.838 120.29 471.368 120.148 471.839 119.907C473.268 119.041 472.387 116.928 470.826 116.252C469.265 115.576 467.412 115.739 465.699 115.446C463.997 115.075 462.376 114.467 460.9 113.646C457.426 111.92 454.003 110.121 450.63 108.248C448.622 107.133 446.252 105.943 443.991 106.604C437.865 108.396 434.873 111.713 434.913 117.427Z" fill="#3F3D56"/>
<path d="M360.267 51.5636V51.5656C360.251 51.6477 360.235 51.7278 360.215 51.808C360.19 51.941 360.161 52.0759 360.131 52.2088C359.851 53.4503 359.507 54.6859 359.112 55.9137C358.026 59.3057 356.573 62.6431 355.13 65.9316C351.259 74.749 347.388 83.5672 343.515 92.3859C342.539 94.6069 341.564 96.8298 340.454 99.0059C340.083 99.7312 339.701 100.462 339.321 101.201C337.96 103.847 336.653 106.578 336.219 109.393C335.814 111.246 335.768 113.144 336.081 115.01C336.515 116.856 337.811 118.658 339.839 119.341C340.829 119.675 342.247 120.123 341.976 121.012C341.829 121.501 341.186 121.74 340.61 121.822C339.849 121.927 339.07 121.885 338.329 121.701C337.588 121.517 336.903 121.193 336.323 120.754C335.24 119.923 334.408 118.631 332.968 118.492C331.971 118.398 331.053 118.915 330.139 119.276C326.413 120.748 322.072 119.718 318.158 118.672C318.466 117.302 320.057 116.398 321.638 116.125C323.218 115.849 324.853 116.045 326.465 116.007C326.981 116.031 327.494 115.917 327.932 115.681C328.326 115.369 328.602 114.961 328.724 114.512C329.762 111.851 330.535 109.118 331.032 106.343C331.552 103.444 331.769 100.5 332.511 97.6354C333.088 95.4007 333.978 93.2364 334.743 91.0428C336.22 86.5263 337.434 81.9481 338.378 77.3259C338.856 75.4055 339.198 73.4618 339.403 71.5055C339.531 69.8828 339.47 68.2523 339.651 66.6354C339.955 64.5319 340.462 62.4541 341.168 60.4241C341.86 58.209 342.551 55.9951 343.242 53.7826C344.266 50.5078 345.365 47.106 347.96 44.5605C348.862 43.6643 349.967 42.9378 351.206 42.426C352.446 41.9141 353.793 41.6278 355.166 41.5848C355.681 41.5843 356.194 41.6321 356.697 41.7275C356.78 41.7451 356.864 41.7627 356.948 41.7823C357.496 41.9061 358.021 42.0943 358.51 42.3414C359.311 41.9015 359.718 42.056 360.249 42.7344C360.715 43.4524 360.934 44.2703 360.882 45.0922C360.927 47.2617 360.721 49.4296 360.267 51.5636Z" fill="#FBBEBE"/>
<path d="M361.146 54.1561L361.112 54.1854L360.929 54.3438L359.111 55.9137L358.221 52.678L355.166 41.5848C355.681 41.5843 356.194 41.6321 356.697 41.7275C356.718 41.6004 356.754 41.4754 356.803 41.3541L356.948 41.7823L357.983 44.8283L359.944 50.6115L360.267 51.5636V51.5656L361.146 54.1561Z" fill="#7510F7"/>
<path d="M372.682 18.7659C372.68 19.7931 372.445 20.8099 371.988 21.7583C371.532 22.7067 370.864 23.5681 370.023 24.2931C369.718 24.557 369.391 24.8013 369.046 25.024C367.485 26.0411 365.585 26.5916 363.631 26.5924H352.784C350.387 26.5892 348.089 25.7636 346.396 24.2969C344.702 22.8302 343.751 20.8423 343.751 18.7697C343.751 16.6971 344.702 14.7092 346.396 13.2425C348.089 11.7758 350.387 10.9503 352.784 10.9471H363.631C366.028 10.9524 368.325 11.7777 370.021 13.2426C371.717 14.7076 372.673 16.6932 372.682 18.7659Z" fill="#2F2E41"/>
<path d="M382.852 19.3554C387.972 19.3554 392.122 15.7666 392.122 11.3395C392.122 6.91249 387.972 3.32365 382.852 3.32365C377.732 3.32365 373.582 6.91249 373.582 11.3395C373.582 15.7666 377.732 19.3554 382.852 19.3554Z" fill="#2F2E41"/>
<path opacity="0.1" d="M382.626 3.32365C382.513 3.32365 382.4 3.32756 382.287 3.33107C384.685 3.40645 386.956 4.2832 388.622 5.77684C390.287 7.27048 391.218 9.26457 391.218 11.3395C391.218 13.4145 390.287 15.4086 388.622 16.9022C386.956 18.3959 384.685 19.2726 382.287 19.348C382.4 19.3515 382.513 19.3554 382.626 19.3554C385.085 19.3554 387.443 18.5109 389.181 17.0076C390.92 15.5043 391.896 13.4655 391.896 11.3395C391.896 9.2136 390.92 7.17472 389.181 5.67145C387.443 4.16818 385.085 3.32365 382.626 3.32365Z" fill="black"/>
<path opacity="0.1" d="M338.536 3.32365C338.65 3.32365 338.763 3.32756 338.875 3.33107C336.477 3.40645 334.207 4.2832 332.541 5.77684C330.875 7.27048 329.945 9.26457 329.945 11.3395C329.945 13.4145 330.875 15.4086 332.541 16.9022C334.207 18.3959 336.477 19.2726 338.875 19.348C338.763 19.3515 338.65 19.3554 338.536 19.3554C336.079 19.3535 333.723 18.5082 331.987 17.0051C330.25 15.5021 329.274 13.4643 329.274 11.3395C329.274 9.21482 330.25 7.17701 331.987 5.67395C333.723 4.17088 336.079 3.32552 338.536 3.32365Z" fill="black"/>
<path opacity="0.1" d="M369.046 25.024C367.486 26.0411 365.585 26.5916 363.631 26.5924H352.784C350.83 26.5916 348.929 26.0411 347.369 25.024H369.046Z" fill="black"/>
<path d="M439.093 83.1065C439.093 83.1065 441.43 88.9294 443.569 87.379L441.864 79.7678L439.093 83.1065Z" fill="#FBBEBE"/>
<path d="M415.28 194.548C417.264 194.548 418.873 193.157 418.873 191.441C418.873 189.726 417.264 188.335 415.28 188.335C413.296 188.335 411.688 189.726 411.688 191.441C411.688 193.157 413.296 194.548 415.28 194.548Z" fill="white"/>
</svg>
