<svg width="469" height="628" viewBox="0 0 469 628" fill="none" xmlns="http://www.w3.org/2000/svg">
<path opacity="0.7" d="M145.883 611.766C185.583 611.766 217.766 579.583 217.766 539.883C217.766 500.183 185.583 468 145.883 468C106.183 468 74 500.183 74 539.883C74 579.583 106.183 611.766 145.883 611.766Z" fill="#4285F4"/>
<path opacity="0.2" d="M323.399 409.798C352.89 409.798 376.798 385.89 376.798 356.399C376.798 326.907 352.89 303 323.399 303C293.907 303 270 326.907 270 356.399C270 385.89 293.907 409.798 323.399 409.798Z" fill="#FDC130"/>
<path opacity="0.2" d="M218.35 187.699C225.723 187.699 231.699 181.723 231.699 174.35C231.699 166.977 225.723 161 218.35 161C210.977 161 205 166.977 205 174.35C205 181.723 210.977 187.699 218.35 187.699Z" fill="#FBBC04"/>
<path opacity="0.2" d="M376.807 204.614C393.821 204.614 407.614 190.821 407.614 173.807C407.614 156.793 393.821 143 376.807 143C359.793 143 346 156.793 346 173.807C346 190.821 359.793 204.614 376.807 204.614Z" fill="#34A853"/>
<path opacity="0.2" d="M172.35 346.699C179.723 346.699 185.699 340.723 185.699 333.35C185.699 325.977 179.723 320 172.35 320C164.977 320 159 325.977 159 333.35C159 340.723 164.977 346.699 172.35 346.699Z" fill="#4285F4"/>
<path opacity="0.2" d="M259.251 225.501C264.912 225.501 269.501 220.912 269.501 215.251C269.501 209.589 264.912 205 259.251 205C253.589 205 249 209.589 249 215.251C249 220.912 253.589 225.501 259.251 225.501Z" fill="#EA4335"/>
<path opacity="0.2" d="M423.097 301.193C427.016 301.193 430.193 298.016 430.193 294.097C430.193 290.177 427.016 287 423.097 287C419.177 287 416 290.177 416 294.097C416 298.016 419.177 301.193 423.097 301.193Z" fill="#A9A8E1"/>
<path opacity="0.2" d="M250.242 419.484C255.346 419.484 259.484 415.346 259.484 410.242C259.484 405.138 255.346 401 250.242 401C245.138 401 241 405.138 241 410.242C241 415.346 245.138 419.484 250.242 419.484Z" fill="black"/>
<path opacity="0.2" d="M294.097 111.193C298.016 111.193 301.193 108.016 301.193 104.097C301.193 100.177 298.016 97 294.097 97C290.177 97 287 100.177 287 104.097C287 108.016 290.177 111.193 294.097 111.193Z" fill="#7510F7"/>
</svg>
